<svg width="1440" height="297" viewBox="0 0 1440 297" fill="none" xmlns="http://www.w3.org/2000/svg">
<rect x="-16" width="1456" height="297" fill="#1210A2"/>
<path d="M1024.75 117.609H1017.56V148.156H1007V78.6523H1017.56V106.49H1024.75V78.6523H1035.3V148.152H1024.75V117.609Z" fill="#F8E184"/>
<path d="M1053.33 148.9H1051.27C1042.87 148.9 1038.38 144.323 1038.38 135.728V121.812H1048.85V133.957C1048.85 137.134 1049.87 138.817 1052.3 138.817C1054.82 138.817 1055.76 137.134 1055.76 132.839V131.253C1055.76 126.301 1055.29 124.526 1051.46 119.574L1044.74 110.974C1040.25 105.186 1038.95 100.701 1038.95 93.789V91.5467C1038.95 82.2952 1043.62 78 1051.93 78H1053.9C1062.58 78 1065.94 81.8282 1065.94 90.0487V101.445H1055.76V91.4496C1055.76 89.1147 1055.3 87.3393 1052.78 87.3393C1050.26 87.3393 1049.69 88.9252 1049.69 92.1986V93.507C1049.69 97.4323 1050.44 99.5776 1053.99 104.155L1060.71 112.842C1065.48 119.005 1066.97 122.556 1066.97 130.402V132.644C1066.97 142.83 1062.58 148.9 1053.33 148.9Z" fill="#F8E184"/>
<path d="M1093.97 78.6523V88.7407H1080.51V106.957H1091.07V117.512H1080.51V137.596H1094.53V148.152H1069.96V78.6523H1093.97Z" fill="#F8E184"/>
<path d="M1123.02 135.077H1115.36L1113.96 148.156H1104.52L1113.02 78.6523H1125.54L1134.6 148.152H1124.42L1123.02 135.077ZM1121.9 124.706L1119.09 99.0186L1116.39 124.706H1121.9Z" fill="#F8E184"/>
<path d="M1146.84 148.152H1136.29V78.6523H1153.38C1160.38 78.6523 1163.93 81.6437 1163.93 89.3926V101.723C1163.93 107.516 1161.22 109.759 1159.36 110.596C1161.69 111.622 1163.93 113.49 1163.93 118.164V142.544C1163.93 145.345 1164.49 146.654 1164.96 147.68V148.147H1154.5C1154.03 147.398 1153.47 146.187 1153.47 142.451V121.53C1153.47 118.446 1152.91 117.138 1149.55 117.138H1146.84V148.152ZM1146.84 107.239H1149.64C1152.54 107.239 1153.47 105.371 1153.47 102.287V92.5735C1153.47 89.5821 1152.82 88.0888 1149.64 88.0888H1146.84V107.239Z" fill="#F8E184"/>
<path d="M1185.23 88.7407V148.152H1174.77V88.7407H1165.9V78.6523H1194.11V88.7407H1185.23Z" fill="#F8E184"/>
<path d="M1222.5 135.077H1214.84L1213.44 148.156H1204L1212.51 78.6523H1225.02L1234.08 148.152H1223.9L1222.5 135.077ZM1221.38 124.706L1218.58 99.0186L1215.87 124.706H1221.38Z" fill="#F8E184"/>
<path d="M1245.3 78.6523L1254.36 115.926V78.6523H1263.98V148.152H1255.38L1245.3 108.173V148.152H1235.77V78.6523H1245.3Z" fill="#F8E184"/>
<path d="M1267.9 78.6523H1284.06C1293.13 78.6523 1295.93 83.789 1295.93 92.0094V134.323C1295.93 142.826 1292.75 148.147 1284.06 148.147H1267.9V78.6523ZM1278.46 138.063H1280.98C1284.16 138.063 1285.09 136.381 1285.09 132.645V93.5074C1285.09 89.4897 1284.06 88.0888 1281.45 88.0888H1278.46V138.063Z" fill="#F8E184"/>
<path d="M1007 149.562H1023.16C1032.22 149.562 1035.02 154.699 1035.02 162.92V205.233C1035.02 213.736 1031.85 219.057 1023.16 219.057H1007V149.562ZM1017.56 208.974H1020.08C1023.26 208.974 1024.19 207.291 1024.19 203.555V164.413C1024.19 160.395 1023.16 158.994 1020.55 158.994H1017.56V208.974Z" fill="#F8E184"/>
<path d="M1062.77 149.562V159.651H1049.32V177.867H1059.87V188.422H1049.32V208.507H1063.33V219.062H1038.76V149.562H1062.77Z" fill="#F8E184"/>
<path d="M1080.14 219.811H1078.09C1069.68 219.811 1065.2 215.233 1065.2 206.638V192.722H1075.66V204.868C1075.66 208.044 1076.68 209.727 1079.11 209.727C1081.63 209.727 1082.57 208.044 1082.57 203.749V202.163C1082.57 197.211 1082.1 195.436 1078.28 190.484L1071.55 181.889C1067.06 176.096 1065.75 171.611 1065.75 164.699V162.457C1065.75 153.21 1070.42 148.91 1078.74 148.91H1080.7C1089.39 148.91 1092.75 152.738 1092.75 160.959V172.356H1082.57V162.36C1082.57 160.025 1082.1 158.249 1079.57 158.249C1077.05 158.249 1076.49 159.835 1076.49 163.109V164.417C1076.49 168.342 1077.24 170.488 1080.79 175.065L1087.51 183.752C1092.27 189.915 1093.77 193.466 1093.77 201.312V203.555C1093.78 213.74 1089.39 219.811 1080.14 219.811Z" fill="#F8E184"/>
<path d="M1107.32 219.062H1096.77V149.562H1107.32V219.062Z" fill="#F8E184"/>
<path d="M1121.06 220C1114.9 220 1110.97 214.489 1110.97 207.295V163.858C1110.97 156.104 1113.96 148.91 1123.95 148.91H1126.01C1137.32 148.91 1138.62 156.289 1138.62 164.51V171.607H1128.35V163.765C1128.35 160.681 1127.6 158.998 1124.99 158.998C1122.75 158.998 1121.72 160.681 1121.72 163.765V204.401C1121.72 207.669 1123.03 209.352 1125.17 209.352C1127.88 209.352 1129.1 207.484 1129.1 204.868V187.493H1124.34V176.845H1139.1V219.066H1133.12C1133.03 218.692 1132.18 215.238 1131.34 212.247C1130.59 214.581 1127.05 220 1121.72 220H1121.06Z" fill="#F8E184"/>
<path d="M1152.26 149.562L1161.32 186.837V149.562H1170.94V219.062H1162.35L1152.26 179.083V219.062H1142.73V149.562H1152.26Z" fill="#F8E184"/>
<path d="M1198.5 219.811H1196.44C1188.04 219.811 1183.55 215.233 1183.55 206.638V192.722H1194.01V204.868C1194.01 208.044 1195.04 209.727 1197.47 209.727C1199.99 209.727 1200.93 208.044 1200.93 203.749V202.163C1200.93 197.211 1200.46 195.436 1196.63 190.484L1189.9 181.889C1185.42 176.096 1184.11 171.611 1184.11 164.699V162.457C1184.11 153.21 1188.78 148.91 1197.09 148.91H1199.06C1207.75 148.91 1211.11 152.738 1211.11 160.959V172.356H1200.93V162.36C1200.93 160.025 1200.46 158.249 1197.94 158.249C1195.42 158.249 1194.86 159.835 1194.86 163.109V164.417C1194.86 168.342 1195.6 170.488 1199.15 175.065L1205.88 183.752C1210.64 189.915 1212.13 193.466 1212.13 201.312V203.555C1212.14 213.74 1207.75 219.811 1198.5 219.811Z" fill="#F8E184"/>
<path d="M1232.41 204.959V188.8H1242.78V204.867C1242.78 212.338 1240.35 219.907 1230.16 219.907H1227.83C1217.18 219.907 1214.85 212.246 1214.85 205.241V162.831C1214.85 155.734 1217.93 148.914 1227.45 148.914H1229.88C1241.46 148.914 1242.77 156.575 1242.77 163.395V175.818H1232.4V163.58C1232.4 160.588 1231.47 159.002 1228.85 159.002C1226.23 159.002 1225.58 160.496 1225.58 163.58V204.867C1225.58 207.951 1226.61 209.629 1228.94 209.629C1231.47 209.629 1232.41 207.761 1232.41 204.959Z" fill="#F8E184"/>
<path d="M1263.89 188.52H1256.69V219.067H1246.14V149.562H1256.69V177.4H1263.89V149.562H1274.44V219.062H1263.89V188.52Z" fill="#F8E184"/>
<path d="M1306.95 203.559C1306.95 213.273 1303.68 219.908 1293.5 219.908H1291.73C1281.64 219.908 1278.09 213.278 1278.09 203.559V164.884C1278.09 155.263 1281.73 148.91 1291.63 148.91H1293.4C1303.68 148.91 1306.95 155.263 1306.95 164.792V203.559H1306.95ZM1296.21 164.325C1296.21 160.681 1294.99 158.998 1292.57 158.998C1289.86 158.998 1288.83 160.774 1288.83 164.325V204.304C1288.83 207.295 1289.67 209.63 1292.66 209.63C1295.46 209.63 1296.21 207.295 1296.21 204.304V164.325Z" fill="#F8E184"/>
<path d="M1339.18 203.559C1339.18 213.273 1335.91 219.908 1325.73 219.908H1323.95C1313.86 219.908 1310.31 213.278 1310.31 203.559V164.884C1310.31 155.263 1313.95 148.91 1323.86 148.91H1325.63C1335.91 148.91 1339.18 155.263 1339.18 164.792V203.559H1339.18ZM1328.44 164.325C1328.44 160.681 1327.22 158.998 1324.79 158.998C1322.08 158.998 1321.06 160.774 1321.06 164.325V204.304C1321.06 207.295 1321.89 209.63 1324.88 209.63C1327.69 209.63 1328.44 207.295 1328.44 204.304V164.325Z" fill="#F8E184"/>
<path d="M1353.37 149.562V208.317H1366.26V219.057H1342.82V149.562H1353.37Z" fill="#F8E184"/>
</svg>
