<svg width="358" height="552" viewBox="0 0 358 552" fill="none" xmlns="http://www.w3.org/2000/svg">
<rect x="1.5" y="2.21875" width="355" height="548" rx="98.5" fill="#268020" stroke="#268020" stroke-width="3"/>
<path d="M92 144.369C92 144.369 115 47.391 166.5 51.8692C218 56.3474 211.5 154.369 211.5 154.369" stroke="white" stroke-width="3"/>
<path d="M107.674 155.785L100.657 174.575L92.252 174.002L87.7047 154.424L95.4268 154.95L96.8761 169.158L100.491 155.295L107.674 155.785Z" fill="white"/>
<path d="M107.674 175.439L100.657 194.229L92.252 193.657L87.7047 174.078L95.4268 174.604L96.8761 188.812L100.491 174.95L107.674 175.439Z" fill="white"/>
<path d="M107.674 195.094L100.657 213.885L92.252 213.312L87.7047 193.733L95.4268 194.26L96.8761 208.467L100.491 194.605L107.674 195.094Z" fill="white"/>
<path d="M107.674 214.75L100.657 233.54L92.252 232.967L87.7047 213.389L95.4268 213.915L96.8761 228.122L100.491 214.26L107.674 214.75Z" fill="white"/>
<path d="M107.674 234.404L100.657 253.194L92.252 252.621L87.7047 233.043L95.4268 233.569L96.8761 247.777L100.491 233.914L107.674 234.404Z" fill="white"/>
<path d="M107.674 254.058L100.657 272.849L92.252 272.276L87.7047 252.697L95.4268 253.224L96.8761 267.431L100.491 253.569L107.674 254.058Z" fill="white"/>
<path d="M107.674 273.713L100.657 292.504L92.252 291.931L87.7047 272.353L95.4268 272.879L96.8761 287.086L100.491 273.224L107.674 273.713Z" fill="white"/>
<path d="M107.674 293.369L100.657 312.159L92.252 311.586L87.7047 292.008L95.4268 292.534L96.8761 306.741L100.491 292.879L107.674 293.369Z" fill="white"/>
<path d="M107.674 313.023L100.657 331.813L92.252 331.241L87.7047 311.662L95.4268 312.188L96.8761 326.396L100.491 312.533L107.674 313.023Z" fill="white"/>
<path d="M107.674 332.677L100.657 351.468L92.252 350.895L87.7047 331.316L95.4268 331.843L96.8761 346.05L100.491 332.188L107.674 332.677Z" fill="white"/>
<path d="M107.674 352.333L100.657 371.123L92.252 370.55L87.7047 350.972L95.4268 351.498L96.8761 365.705L100.491 351.843L107.674 352.333Z" fill="white"/>
<path d="M107.674 371.988L100.657 390.778L92.252 390.205L87.7047 370.627L95.4268 371.153L96.8761 385.361L100.491 371.498L107.674 371.988Z" fill="white"/>
<path d="M107.674 391.642L100.657 410.433L92.252 409.86L87.7047 390.281L95.4268 390.808L96.8761 405.015L100.491 391.153L107.674 391.642Z" fill="white"/>
<path d="M92.3501 391.642L85.3323 410.433L76.9278 409.86L72.3804 390.281L80.1025 390.808L81.5519 405.015L85.1668 391.153L92.3501 391.642Z" fill="white"/>
<path d="M92.3501 371.439L85.3323 390.229L76.9278 389.657L72.3804 370.078L80.1025 370.604L81.5519 384.812L85.1668 370.95L92.3501 371.439Z" fill="white"/>
<path d="M77.3501 371.439L70.3323 390.229L61.9278 389.657L57.3804 370.078L65.1025 370.604L66.5519 384.812L70.1668 370.95L77.3501 371.439Z" fill="white"/>
<path d="M92.3501 351.237L85.3323 370.027L76.9278 369.454L72.3804 349.876L80.1025 350.402L81.5519 364.61L85.1668 350.747L92.3501 351.237Z" fill="white"/>
<path d="M77.3501 351.237L70.3323 370.027L61.9278 369.454L57.3804 349.876L65.1025 350.402L66.5519 364.61L70.1668 350.747L77.3501 351.237Z" fill="white"/>
<path d="M92.3501 331.035L85.3323 349.825L76.9278 349.252L72.3804 329.674L80.1025 330.2L81.5519 344.408L85.1668 330.545L92.3501 331.035Z" fill="white"/>
<path d="M77.3501 331.035L70.3323 349.825L61.9278 349.252L57.3804 329.674L65.1025 330.2L66.5519 344.408L70.1668 330.545L77.3501 331.035Z" fill="white"/>
<path d="M92.3501 310.832L85.3323 329.622L76.9278 329.049L72.3804 309.471L80.1025 309.997L81.5519 324.204L85.1668 310.342L92.3501 310.832Z" fill="white"/>
<path d="M77.3501 310.832L70.3323 329.622L61.9278 329.049L57.3804 309.471L65.1025 309.997L66.5519 324.204L70.1668 310.342L77.3501 310.832Z" fill="white"/>
<path d="M92.3501 290.628L85.3323 309.419L76.9278 308.846L72.3804 289.268L80.1025 289.794L81.5519 304.001L85.1668 290.139L92.3501 290.628Z" fill="white"/>
<path d="M92.3501 270.426L85.3323 289.217L76.9278 288.644L72.3804 269.065L80.1025 269.592L81.5519 283.799L85.1668 269.937L92.3501 270.426Z" fill="white"/>
<path d="M122.64 156.804L115.622 175.595L107.218 175.022L102.67 155.443L110.393 155.97L111.842 170.177L115.457 156.315L122.64 156.804Z" fill="white"/>
<path d="M122.64 176.46L115.622 195.25L107.218 194.677L102.67 175.099L110.393 175.625L111.842 189.832L115.457 175.97L122.64 176.46Z" fill="white"/>
<path d="M122.64 196.115L115.622 214.905L107.218 214.332L102.67 194.754L110.393 195.28L111.842 209.488L115.457 195.625L122.64 196.115Z" fill="white"/>
<path d="M122.64 215.769L115.622 234.559L107.218 233.987L102.67 214.408L110.393 214.934L111.842 229.142L115.457 215.28L122.64 215.769Z" fill="white"/>
<path d="M122.64 235.423L115.622 254.214L107.218 253.641L102.67 234.063L110.393 234.589L111.842 248.796L115.457 234.934L122.64 235.423Z" fill="white"/>
<path d="M122.64 255.079L115.622 273.869L107.218 273.296L102.67 253.718L110.393 254.244L111.842 268.451L115.457 254.589L122.64 255.079Z" fill="white"/>
<path d="M122.64 274.734L115.622 293.524L107.218 292.952L102.67 273.373L110.393 273.899L111.842 288.107L115.457 274.244L122.64 274.734Z" fill="white"/>
<path d="M122.64 294.388L115.622 313.179L107.218 312.606L102.67 293.027L110.393 293.554L111.842 307.761L115.457 293.899L122.64 294.388Z" fill="white"/>
<path d="M122.64 314.043L115.622 332.833L107.218 332.26L102.67 312.682L110.393 313.208L111.842 327.415L115.457 313.553L122.64 314.043Z" fill="white"/>
<path d="M122.64 333.698L115.622 352.488L107.218 351.915L102.67 332.337L110.393 332.863L111.842 347.071L115.457 333.208L122.64 333.698Z" fill="white"/>
<path d="M122.64 353.353L115.622 372.143L107.218 371.571L102.67 351.992L110.393 352.518L111.842 366.726L115.457 352.864L122.64 353.353Z" fill="white"/>
<path d="M122.64 373.007L115.622 391.798L107.218 391.225L102.67 371.646L110.393 372.173L111.842 386.38L115.457 372.518L122.64 373.007Z" fill="white"/>
<path d="M122.64 392.662L115.622 411.452L107.218 410.879L102.67 391.301L110.393 391.827L111.842 406.034L115.457 392.172L122.64 392.662Z" fill="white"/>
<path d="M137.605 157.825L130.587 176.615L122.183 176.042L117.635 156.464L125.357 156.99L126.807 171.198L130.422 157.335L137.605 157.825Z" fill="white"/>
<path d="M137.605 177.48L130.587 196.27L122.183 195.698L117.635 176.119L125.357 176.645L126.807 190.853L130.422 176.991L137.605 177.48Z" fill="white"/>
<path d="M137.605 197.134L130.587 215.925L122.183 215.352L117.635 195.773L125.357 196.3L126.807 210.507L130.422 196.645L137.605 197.134Z" fill="white"/>
<path d="M137.605 216.789L130.587 235.579L122.183 235.006L117.635 215.428L125.357 215.954L126.807 230.161L130.422 216.299L137.605 216.789Z" fill="white"/>
<path d="M137.605 236.444L130.587 255.234L122.183 254.662L117.635 235.083L125.357 235.609L126.807 249.817L130.422 235.954L137.605 236.444Z" fill="white"/>
<path d="M137.605 256.099L130.587 274.89L122.183 274.317L117.635 254.738L125.357 255.265L126.807 269.472L130.422 255.61L137.605 256.099Z" fill="white"/>
<path d="M137.605 275.753L130.587 294.544L122.183 293.971L117.635 274.393L125.357 274.919L126.807 289.126L130.422 275.264L137.605 275.753Z" fill="white"/>
<path d="M137.605 295.408L130.587 314.198L122.183 313.625L117.635 294.047L125.357 294.573L126.807 308.781L130.422 294.918L137.605 295.408Z" fill="white"/>
<path d="M137.605 315.063L130.587 333.853L122.183 333.281L117.635 313.702L125.357 314.228L126.807 328.436L130.422 314.574L137.605 315.063Z" fill="white"/>
<path d="M137.605 334.718L130.587 353.509L122.183 352.936L117.635 333.357L125.357 333.884L126.807 348.091L130.422 334.229L137.605 334.718Z" fill="white"/>
<path d="M137.605 354.373L130.587 373.163L122.183 372.59L117.635 353.012L125.357 353.538L126.807 367.745L130.422 353.883L137.605 354.373Z" fill="white"/>
<path d="M137.605 374.027L130.587 392.817L122.183 392.245L117.635 372.666L125.357 373.192L126.807 387.4L130.422 373.537L137.605 374.027Z" fill="white"/>
<path d="M137.605 393.682L130.587 412.473L122.183 411.9L117.635 392.321L125.357 392.848L126.807 407.055L130.422 393.193L137.605 393.682Z" fill="white"/>
<path d="M137.605 413.337L130.587 432.128L122.183 431.555L117.635 411.977L125.357 412.503L126.807 426.71L130.422 412.848L137.605 413.337Z" fill="white"/>
<path d="M152.571 158.845L145.553 177.636L137.149 177.063L132.601 157.484L140.323 158.011L141.773 172.218L145.387 158.356L152.571 158.845Z" fill="white"/>
<path d="M152.571 178.5L145.553 197.29L137.149 196.717L132.601 177.139L140.323 177.665L141.773 191.872L145.387 178.01L152.571 178.5Z" fill="white"/>
<path d="M152.571 198.154L145.553 216.944L137.149 216.371L132.601 196.793L140.323 197.319L141.773 211.527L145.387 197.664L152.571 198.154Z" fill="white"/>
<path d="M152.571 217.809L145.553 236.599L137.149 236.027L132.601 216.448L140.323 216.975L141.773 231.182L145.387 217.32L152.571 217.809Z" fill="white"/>
<path d="M152.571 237.464L145.553 256.255L137.149 255.682L132.601 236.104L140.323 236.63L141.773 250.837L145.387 236.975L152.571 237.464Z" fill="white"/>
<path d="M152.571 257.119L145.553 275.909L137.149 275.336L132.601 255.758L140.323 256.284L141.773 270.491L145.387 256.629L152.571 257.119Z" fill="white"/>
<path d="M152.571 276.773L145.553 295.563L137.149 294.991L132.601 275.412L140.323 275.938L141.773 290.146L145.387 276.283L152.571 276.773Z" fill="white"/>
<path d="M152.571 296.428L145.553 315.219L137.149 314.646L132.601 295.067L140.323 295.594L141.773 309.801L145.387 295.939L152.571 296.428Z" fill="white"/>
<path d="M152.571 316.084L145.553 334.874L137.149 334.301L132.601 314.723L140.323 315.249L141.773 329.456L145.387 315.594L152.571 316.084Z" fill="white"/>
<path d="M152.571 335.738L145.553 354.528L137.149 353.955L132.601 334.377L140.323 334.903L141.773 349.111L145.387 335.248L152.571 335.738Z" fill="white"/>
<path d="M152.571 355.392L145.553 374.183L137.149 373.61L132.601 354.031L140.323 354.558L141.773 368.765L145.387 354.903L152.571 355.392Z" fill="white"/>
<path d="M152.571 375.047L145.553 393.838L137.149 393.265L132.601 373.687L140.323 374.213L141.773 388.42L145.387 374.558L152.571 375.047Z" fill="white"/>
<path d="M152.571 394.703L145.553 413.493L137.149 412.92L132.601 393.342L140.323 393.868L141.773 408.075L145.387 394.213L152.571 394.703Z" fill="white"/>
<path d="M152.571 414.357L145.553 433.147L137.149 432.575L132.601 412.996L140.323 413.522L141.773 427.73L145.387 413.867L152.571 414.357Z" fill="white"/>
<path d="M167.536 159.865L160.518 178.655L152.113 178.082L147.566 158.504L155.288 159.03L156.737 173.238L160.352 159.375L167.536 159.865Z" fill="white"/>
<path d="M167.536 179.519L160.518 198.309L152.113 197.737L147.566 178.158L155.288 178.684L156.737 192.892L160.352 179.03L167.536 179.519Z" fill="white"/>
<path d="M167.536 199.173L160.518 217.964L152.113 217.391L147.566 197.813L155.288 198.339L156.737 212.546L160.352 198.684L167.536 199.173Z" fill="white"/>
<path d="M167.536 218.829L160.518 237.619L152.113 237.046L147.566 217.468L155.288 217.994L156.737 232.201L160.352 218.339L167.536 218.829Z" fill="white"/>
<path d="M167.536 238.484L160.518 257.274L152.113 256.702L147.566 237.123L155.288 237.649L156.737 251.857L160.352 237.994L167.536 238.484Z" fill="white"/>
<path d="M167.536 258.138L160.518 276.929L152.113 276.356L147.566 256.777L155.288 257.304L156.737 271.511L160.352 257.649L167.536 258.138Z" fill="white"/>
<path d="M167.536 277.793L160.518 296.583L152.113 296.01L147.566 276.432L155.288 276.958L156.737 291.165L160.352 277.303L167.536 277.793Z" fill="white"/>
<path d="M167.536 297.448L160.518 316.238L152.113 315.665L147.566 296.087L155.288 296.613L156.737 310.821L160.352 296.958L167.536 297.448Z" fill="white"/>
<path d="M167.536 317.103L160.518 335.893L152.113 335.321L147.566 315.742L155.288 316.268L156.737 330.476L160.352 316.614L167.536 317.103Z" fill="white"/>
<path d="M167.536 336.757L160.518 355.548L152.113 354.975L147.566 335.396L155.288 335.923L156.737 350.13L160.352 336.268L167.536 336.757Z" fill="white"/>
<path d="M167.536 356.412L160.518 375.202L152.113 374.629L147.566 355.051L155.288 355.577L156.737 369.784L160.352 355.922L167.536 356.412Z" fill="white"/>
<path d="M167.536 376.067L160.518 394.857L152.113 394.285L147.566 374.706L155.288 375.232L156.737 389.44L160.352 375.577L167.536 376.067Z" fill="white"/>
<path d="M167.536 395.722L160.518 414.513L152.113 413.94L147.566 394.361L155.288 394.888L156.737 409.095L160.352 395.233L167.536 395.722Z" fill="white"/>
<path d="M167.536 415.377L160.518 434.167L152.113 433.594L147.566 414.016L155.288 414.542L156.737 428.749L160.352 414.887L167.536 415.377Z" fill="white"/>
<path d="M167.536 435.031L160.518 453.821L152.113 453.248L147.566 433.67L155.288 434.196L156.737 448.404L160.352 434.541L167.536 435.031Z" fill="white"/>
<path d="M182.501 160.884L175.484 179.675L167.079 179.102L162.532 159.523L170.254 160.05L171.703 174.257L175.318 160.395L182.501 160.884Z" fill="white"/>
<path d="M182.501 180.539L175.484 199.329L167.079 198.756L162.532 179.178L170.254 179.704L171.703 193.911L175.318 180.049L182.501 180.539Z" fill="white"/>
<path d="M182.501 200.193L175.484 218.983L167.079 218.411L162.532 198.832L170.254 199.358L171.703 213.566L175.318 199.703L182.501 200.193Z" fill="white"/>
<path d="M182.501 219.848L175.484 238.639L167.079 238.066L162.532 218.487L170.254 219.014L171.703 233.221L175.318 219.359L182.501 219.848Z" fill="white"/>
<path d="M182.501 239.503L175.484 258.294L167.079 257.721L162.532 238.143L170.254 238.669L171.703 252.876L175.318 239.014L182.501 239.503Z" fill="white"/>
<path d="M182.501 259.158L175.484 277.948L167.079 277.375L162.532 257.797L170.254 258.323L171.703 272.531L175.318 258.668L182.501 259.158Z" fill="white"/>
<path d="M182.501 278.812L175.484 297.602L167.079 297.03L162.532 277.451L170.254 277.977L171.703 292.185L175.318 278.323L182.501 278.812Z" fill="white"/>
<path d="M182.501 298.467L175.484 317.258L167.079 316.685L162.532 297.106L170.254 297.633L171.703 311.84L175.318 297.978L182.501 298.467Z" fill="white"/>
<path d="M182.501 318.123L175.484 336.913L167.079 336.34L162.532 316.762L170.254 317.288L171.703 331.495L175.318 317.633L182.501 318.123Z" fill="white"/>
<path d="M182.501 337.777L175.484 356.567L167.079 355.995L162.532 336.416L170.254 336.942L171.703 351.15L175.318 337.287L182.501 337.777Z" fill="white"/>
<path d="M182.501 357.431L175.484 376.222L167.079 375.649L162.532 356.07L170.254 356.597L171.703 370.804L175.318 356.942L182.501 357.431Z" fill="white"/>
<path d="M182.501 377.086L175.484 395.877L167.079 395.304L162.532 375.726L170.254 376.252L171.703 390.459L175.318 376.597L182.501 377.086Z" fill="white"/>
<path d="M182.501 396.742L175.484 415.532L167.079 414.959L162.532 395.381L170.254 395.907L171.703 410.115L175.318 396.252L182.501 396.742Z" fill="white"/>
<path d="M182.501 416.396L175.484 435.186L167.079 434.614L162.532 415.035L170.254 415.561L171.703 429.769L175.318 415.907L182.501 416.396Z" fill="white"/>
<path d="M182.501 436.05L175.484 454.841L167.079 454.268L162.532 434.689L170.254 435.216L171.703 449.423L175.318 435.561L182.501 436.05Z" fill="white"/>
<path d="M182.501 455.706L175.484 474.496L167.079 473.923L162.532 454.345L170.254 454.871L171.703 469.078L175.318 455.216L182.501 455.706Z" fill="white"/>
<path d="M197.466 161.904L190.449 180.694L182.044 180.121L177.497 160.543L185.219 161.069L186.668 175.277L190.283 161.414L197.466 161.904Z" fill="white"/>
<path d="M197.466 181.559L190.449 200.349L182.044 199.777L177.497 180.198L185.219 180.725L186.668 194.932L190.283 181.07L197.466 181.559Z" fill="white"/>
<path d="M197.466 201.214L190.449 220.005L182.044 219.432L177.497 199.854L185.219 200.38L186.668 214.587L190.283 200.725L197.466 201.214Z" fill="white"/>
<path d="M197.466 220.869L190.449 239.659L182.044 239.086L177.497 219.508L185.219 220.034L186.668 234.241L190.283 220.379L197.466 220.869Z" fill="white"/>
<path d="M197.466 240.523L190.449 259.313L182.044 258.741L177.497 239.162L185.219 239.688L186.668 253.896L190.283 240.033L197.466 240.523Z" fill="white"/>
<path d="M197.466 260.178L190.449 278.969L182.044 278.396L177.497 258.817L185.219 259.344L186.668 273.551L190.283 259.689L197.466 260.178Z" fill="white"/>
<path d="M197.466 279.834L190.449 298.624L182.044 298.051L177.497 278.473L185.219 278.999L186.668 293.206L190.283 279.344L197.466 279.834Z" fill="white"/>
<path d="M197.466 299.488L190.449 318.278L182.044 317.705L177.497 298.127L185.219 298.653L186.668 312.861L190.283 298.998L197.466 299.488Z" fill="white"/>
<path d="M197.466 319.142L190.449 337.933L182.044 337.36L177.497 317.781L185.219 318.308L186.668 332.515L190.283 318.653L197.466 319.142Z" fill="white"/>
<path d="M197.466 338.797L190.449 357.588L182.044 357.015L177.497 337.437L185.219 337.963L186.668 352.17L190.283 338.308L197.466 338.797Z" fill="white"/>
<path d="M197.466 358.453L190.449 377.243L182.044 376.67L177.497 357.092L185.219 357.618L186.668 371.825L190.283 357.963L197.466 358.453Z" fill="white"/>
<path d="M197.466 378.107L190.449 396.897L182.044 396.325L177.497 376.746L185.219 377.272L186.668 391.48L190.283 377.617L197.466 378.107Z" fill="white"/>
<path d="M197.466 397.761L190.449 416.552L182.044 415.979L177.497 396.4L185.219 396.927L186.668 411.134L190.283 397.272L197.466 397.761Z" fill="white"/>
<path d="M197.466 417.417L190.449 436.207L182.044 435.634L177.497 416.056L185.219 416.582L186.668 430.789L190.283 416.927L197.466 417.417Z" fill="white"/>
<path d="M197.466 437.072L190.449 455.862L182.044 455.289L177.497 435.711L185.219 436.237L186.668 450.445L190.283 436.582L197.466 437.072Z" fill="white"/>
<path d="M197.466 456.726L190.449 475.516L182.044 474.944L177.497 455.365L185.219 455.891L186.668 470.099L190.283 456.237L197.466 456.726Z" fill="white"/>
<path d="M212.432 162.923L205.414 181.714L197.01 181.141L192.462 161.563L200.185 162.089L201.634 176.296L205.249 162.434L212.432 162.923Z" fill="white"/>
<path d="M212.432 182.579L205.414 201.369L197.01 200.796L192.462 181.218L200.185 181.744L201.634 195.951L205.249 182.089L212.432 182.579Z" fill="white"/>
<path d="M212.432 202.234L205.414 221.024L197.01 220.452L192.462 200.873L200.185 201.399L201.634 215.607L205.249 201.744L212.432 202.234Z" fill="white"/>
<path d="M212.432 221.888L205.414 240.679L197.01 240.106L192.462 220.527L200.185 221.054L201.634 235.261L205.249 221.399L212.432 221.888Z" fill="white"/>
<path d="M212.432 241.543L205.414 260.333L197.01 259.76L192.462 240.182L200.185 240.708L201.634 254.915L205.249 241.053L212.432 241.543Z" fill="white"/>
<path d="M212.432 261.198L205.414 279.988L197.01 279.415L192.462 259.837L200.185 260.363L201.634 274.571L205.249 260.708L212.432 261.198Z" fill="white"/>
<path d="M212.432 280.853L205.414 299.643L197.01 299.071L192.462 279.492L200.185 280.018L201.634 294.226L205.249 280.364L212.432 280.853Z" fill="white"/>
<path d="M212.432 300.507L205.414 319.298L197.01 318.725L192.462 299.146L200.185 299.673L201.634 313.88L205.249 300.018L212.432 300.507Z" fill="white"/>
<path d="M212.432 320.162L205.414 338.952L197.01 338.379L192.462 318.801L200.185 319.327L201.634 333.534L205.249 319.672L212.432 320.162Z" fill="white"/>
<path d="M212.432 339.817L205.414 358.607L197.01 358.035L192.462 338.456L200.185 338.982L201.634 353.19L205.249 339.327L212.432 339.817Z" fill="white"/>
<path d="M212.432 359.472L205.414 378.263L197.01 377.69L192.462 358.111L200.185 358.638L201.634 372.845L205.249 358.983L212.432 359.472Z" fill="white"/>
<path d="M212.432 379.127L205.414 397.917L197.01 397.344L192.462 377.766L200.185 378.292L201.634 392.499L205.249 378.637L212.432 379.127Z" fill="white"/>
<path d="M212.432 398.781L205.414 417.571L197.01 416.998L192.462 397.42L200.185 397.946L201.634 412.154L205.249 398.291L212.432 398.781Z" fill="white"/>
<path d="M212.432 418.436L205.414 437.226L197.01 436.654L192.462 417.075L200.185 417.601L201.634 431.809L205.249 417.947L212.432 418.436Z" fill="white"/>
<path d="M212.432 438.091L205.414 456.882L197.01 456.309L192.462 436.73L200.185 437.257L201.634 451.464L205.249 437.602L212.432 438.091Z" fill="white"/>
<path d="M212.432 457.746L205.414 476.536L197.01 475.963L192.462 456.385L200.185 456.911L201.634 471.118L205.249 457.256L212.432 457.746Z" fill="white"/>
<path d="M212.432 477.4L205.414 496.19L197.01 495.618L192.462 476.039L200.185 476.565L201.634 490.773L205.249 476.91L212.432 477.4Z" fill="white"/>
<path d="M227.397 321.182L220.379 339.973L211.975 339.4L207.427 319.821L215.149 320.348L216.599 334.555L220.214 320.693L227.397 321.182Z" fill="white"/>
<path d="M227.397 340.837L220.379 359.628L211.975 359.055L207.427 339.477L215.149 340.003L216.599 354.21L220.214 340.348L227.397 340.837Z" fill="white"/>
<path d="M227.397 360.492L220.379 379.282L211.975 378.709L207.427 359.131L215.149 359.657L216.599 373.865L220.214 360.002L227.397 360.492Z" fill="white"/>
<path d="M227.397 380.146L220.379 398.936L211.975 398.364L207.427 378.785L215.149 379.311L216.599 393.519L220.214 379.657L227.397 380.146Z" fill="white"/>
<path d="M227.397 399.801L220.379 418.592L211.975 418.019L207.427 398.44L215.149 398.967L216.599 413.174L220.214 399.312L227.397 399.801Z" fill="white"/>
<path d="M227.397 419.457L220.379 438.247L211.975 437.674L207.427 418.096L215.149 418.622L216.599 432.829L220.214 418.967L227.397 419.457Z" fill="white"/>
<path d="M227.397 439.111L220.379 457.901L211.975 457.328L207.427 437.75L215.149 438.276L216.599 452.484L220.214 438.621L227.397 439.111Z" fill="white"/>
<path d="M227.397 458.765L220.379 477.556L211.975 476.983L207.427 457.404L215.149 457.931L216.599 472.138L220.214 458.276L227.397 458.765Z" fill="white"/>
<path d="M227.397 478.42L220.379 497.211L211.975 496.638L207.427 477.06L215.149 477.586L216.599 491.793L220.214 477.931L227.397 478.42Z" fill="white"/>
<path d="M242.35 478.42L235.332 497.211L226.928 496.638L222.38 477.06L230.103 477.586L231.552 491.793L235.167 477.931L242.35 478.42Z" fill="white"/>
<path d="M242.35 459.439L235.332 478.229L226.928 477.657L222.38 458.078L230.103 458.604L231.552 472.812L235.167 458.95L242.35 459.439Z" fill="white"/>
<path d="M242.35 440.459L235.332 459.249L226.928 458.676L222.38 439.098L230.103 439.624L231.552 453.831L235.167 439.969L242.35 440.459Z" fill="white"/>
<path d="M242.35 421.478L235.332 440.268L226.928 439.696L222.38 420.117L230.103 420.643L231.552 434.851L235.167 420.989L242.35 421.478Z" fill="white"/>
<path d="M242.35 402.497L235.332 421.287L226.928 420.714L222.38 401.136L230.103 401.662L231.552 415.869L235.167 402.007L242.35 402.497Z" fill="white"/>
<path d="M242.35 383.515L235.332 402.306L226.928 401.733L222.38 382.154L230.103 382.681L231.552 396.888L235.167 383.026L242.35 383.515Z" fill="white"/>
<path d="M242.35 364.535L235.332 383.325L226.928 382.752L222.38 363.174L230.103 363.7L231.552 377.908L235.167 364.045L242.35 364.535Z" fill="white"/>
<path d="M242.35 345.554L235.332 364.345L226.928 363.772L222.38 344.193L230.103 344.72L231.552 358.927L235.167 345.065L242.35 345.554Z" fill="white"/>
<path d="M257.302 478.42L250.284 497.211L241.88 496.638L237.333 477.06L245.055 477.586L246.504 491.793L250.119 477.931L257.302 478.42Z" fill="white"/>
<path d="M257.302 459.439L250.284 478.229L241.88 477.657L237.333 458.078L245.055 458.604L246.504 472.812L250.119 458.95L257.302 459.439Z" fill="white"/>
<path d="M257.302 440.459L250.284 459.249L241.88 458.676L237.333 439.098L245.055 439.624L246.504 453.831L250.119 439.969L257.302 440.459Z" fill="white"/>
<path d="M257.302 421.478L250.284 440.268L241.88 439.696L237.333 420.117L245.055 420.643L246.504 434.851L250.119 420.989L257.302 421.478Z" fill="white"/>
<path d="M257.302 402.497L250.284 421.287L241.88 420.714L237.333 401.136L245.055 401.662L246.504 415.869L250.119 402.007L257.302 402.497Z" fill="white"/>
<path d="M257.302 383.515L250.284 402.306L241.88 401.733L237.333 382.154L245.055 382.681L246.504 396.888L250.119 383.026L257.302 383.515Z" fill="white"/>
<path d="M257.302 364.535L250.284 383.325L241.88 382.752L237.333 363.174L245.055 363.7L246.504 377.908L250.119 364.045L257.302 364.535Z" fill="white"/>
<path d="M272.255 478.42L265.238 497.211L256.833 496.638L252.286 477.06L260.008 477.586L261.457 491.793L265.072 477.931L272.255 478.42Z" fill="white"/>
<path d="M272.255 459.439L265.238 478.229L256.833 477.657L252.286 458.078L260.008 458.604L261.457 472.812L265.072 458.95L272.255 459.439Z" fill="white"/>
<path d="M272.255 440.459L265.238 459.249L256.833 458.676L252.286 439.098L260.008 439.624L261.457 453.831L265.072 439.969L272.255 440.459Z" fill="white"/>
<path d="M272.255 421.478L265.238 440.268L256.833 439.696L252.286 420.117L260.008 420.643L261.457 434.851L265.072 420.989L272.255 421.478Z" fill="white"/>
<path d="M272.255 402.497L265.238 421.287L256.833 420.714L252.286 401.136L260.008 401.662L261.457 415.869L265.072 402.007L272.255 402.497Z" fill="white"/>
<path d="M272.255 383.515L265.238 402.306L256.833 401.733L252.286 382.154L260.008 382.681L261.457 396.888L265.072 383.026L272.255 383.515Z" fill="white"/>
<path d="M287.208 478.42L280.19 497.211L271.785 496.638L267.238 477.06L274.96 477.586L276.409 491.793L280.024 477.931L287.208 478.42Z" fill="white"/>
<path d="M287.208 459.439L280.19 478.229L271.785 477.657L267.238 458.078L274.96 458.604L276.409 472.812L280.024 458.95L287.208 459.439Z" fill="white"/>
<path d="M287.208 440.459L280.19 459.249L271.785 458.676L267.238 439.098L274.96 439.624L276.409 453.831L280.024 439.969L287.208 440.459Z" fill="white"/>
<path d="M287.208 421.478L280.19 440.268L271.785 439.696L267.238 420.117L274.96 420.643L276.409 434.851L280.024 420.989L287.208 421.478Z" fill="white"/>
<path d="M287.208 402.497L280.19 421.287L271.785 420.714L267.238 401.136L274.96 401.662L276.409 415.869L280.024 402.007L287.208 402.497Z" fill="white"/>
<path d="M302.161 478.42L295.143 497.211L286.738 496.638L282.191 477.06L289.913 477.586L291.362 491.793L294.977 477.931L302.161 478.42Z" fill="white"/>
<path d="M302.161 459.439L295.143 478.229L286.738 477.657L282.191 458.078L289.913 458.604L291.362 472.812L294.977 458.95L302.161 459.439Z" fill="white"/>
<path d="M302.161 440.459L295.143 459.249L286.738 458.676L282.191 439.098L289.913 439.624L291.362 453.831L294.977 439.969L302.161 440.459Z" fill="white"/>
<path d="M302.161 421.478L295.143 440.268L286.738 439.696L282.191 420.117L289.913 420.643L291.362 434.851L294.977 420.989L302.161 421.478Z" fill="white"/>
<path d="M242.35 498.076L235.332 516.866L226.928 516.293L222.38 496.715L230.103 497.241L231.552 511.449L235.167 497.586L242.35 498.076Z" fill="white"/>
<path d="M257.35 498.076L250.332 516.866L241.928 516.293L237.38 496.715L245.103 497.241L246.552 511.449L250.167 497.586L257.35 498.076Z" fill="white"/>
<path d="M272.35 498.076L265.332 516.866L256.928 516.293L252.38 496.715L260.103 497.241L261.552 511.449L265.167 497.586L272.35 498.076Z" fill="white"/>
<circle cx="164.5" cy="64.2188" r="38.5" fill="white"/>
<path d="M182.584 46.7188L172.408 80.8948H157.432L147 46.7188H160.76L165.048 71.7428L169.784 46.7188H182.584Z" fill="#268020"/>
</svg>
