<svg width="358" height="552" viewBox="0 0 358 552" fill="none" xmlns="http://www.w3.org/2000/svg">
<rect x="1.5" y="2.21875" width="355" height="548" rx="98.5" fill="#268020" stroke="#268020" stroke-width="3"/>
<path d="M89.5 144.369C89.5 144.369 112.5 47.391 164 51.8692C215.5 56.3474 209 154.369 209 154.369" stroke="white" stroke-width="3"/>
<path d="M106.877 155.839L99.579 174.502L92.8626 174.044L88.0206 154.554L94.1982 154.975L96.5684 169.966L101.094 155.445L106.877 155.839Z" fill="white"/>
<path d="M106.877 175.493L99.579 194.156L92.8626 193.698L88.0206 174.208L94.1982 174.629L96.5684 189.621L101.094 175.099L106.877 175.493Z" fill="white"/>
<path d="M106.877 195.148L99.579 213.811L92.8626 213.354L88.0206 193.863L94.1982 194.284L96.5684 209.276L101.094 194.754L106.877 195.148Z" fill="white"/>
<path d="M106.877 214.803L99.579 233.466L92.8626 233.009L88.0206 213.518L94.1982 213.939L96.5684 228.931L101.094 214.409L106.877 214.803Z" fill="white"/>
<path d="M106.877 234.458L99.579 253.121L92.8626 252.663L88.0206 233.173L94.1982 233.594L96.5684 248.586L101.094 234.064L106.877 234.458Z" fill="white"/>
<path d="M106.877 254.112L99.579 272.775L92.8626 272.317L88.0206 252.827L94.1982 253.248L96.5684 268.24L101.094 253.718L106.877 254.112Z" fill="white"/>
<path d="M106.877 273.767L99.579 292.43L92.8626 291.973L88.0206 272.482L94.1982 272.903L96.5684 287.895L101.094 273.373L106.877 273.767Z" fill="white"/>
<path d="M106.877 293.423L99.579 312.086L92.8626 311.628L88.0206 292.138L94.1982 292.559L96.5684 307.55L101.094 293.029L106.877 293.423Z" fill="white"/>
<path d="M106.877 313.077L99.579 331.74L92.8626 331.282L88.0206 311.792L94.1982 312.213L96.5684 327.205L101.094 312.683L106.877 313.077Z" fill="white"/>
<path d="M106.877 332.731L99.579 351.394L92.8626 350.937L88.0206 331.446L94.1982 331.867L96.5684 346.859L101.094 332.337L106.877 332.731Z" fill="white"/>
<path d="M106.877 352.386L99.579 371.05L92.8626 370.592L88.0206 351.101L94.1982 351.522L96.5684 366.514L101.094 351.992L106.877 352.386Z" fill="white"/>
<path d="M106.877 372.042L99.579 390.705L92.8626 390.247L88.0206 370.757L94.1982 371.178L96.5684 386.17L101.094 371.648L106.877 372.042Z" fill="white"/>
<path d="M106.877 391.696L99.579 410.359L92.8626 409.901L88.0206 390.411L94.1982 390.832L96.5684 405.824L101.094 391.302L106.877 391.696Z" fill="white"/>
<path d="M91.5526 391.696L84.2548 410.359L77.5384 409.901L72.6964 390.411L78.874 390.832L81.2442 405.824L85.77 391.302L91.5526 391.696Z" fill="white"/>
<path d="M91.5526 371.493L84.2548 390.156L77.5384 389.698L72.6964 370.208L78.874 370.629L81.2442 385.621L85.77 371.099L91.5526 371.493Z" fill="white"/>
<path d="M76.5526 371.493L69.2548 390.156L62.5384 389.698L57.6964 370.208L63.874 370.629L66.2442 385.621L70.77 371.099L76.5526 371.493Z" fill="white"/>
<path d="M91.5526 351.291L84.2548 369.954L77.5384 369.496L72.6964 350.006L78.874 350.427L81.2442 365.419L85.77 350.897L91.5526 351.291Z" fill="white"/>
<path d="M76.5526 351.291L69.2548 369.954L62.5384 369.496L57.6964 350.006L63.874 350.427L66.2442 365.419L70.77 350.897L76.5526 351.291Z" fill="white"/>
<path d="M91.5526 331.089L84.2548 349.752L77.5384 349.294L72.6964 329.804L78.874 330.225L81.2442 345.216L85.77 330.695L91.5526 331.089Z" fill="white"/>
<path d="M76.5526 331.089L69.2548 349.752L62.5384 349.294L57.6964 329.804L63.874 330.225L66.2442 345.216L70.77 330.695L76.5526 331.089Z" fill="white"/>
<path d="M91.5526 310.886L84.2548 329.549L77.5384 329.091L72.6964 309.6L78.874 310.021L81.2442 325.013L85.77 310.491L91.5526 310.886Z" fill="white"/>
<path d="M76.5526 310.886L69.2548 329.549L62.5384 329.091L57.6964 309.6L63.874 310.021L66.2442 325.013L70.77 310.491L76.5526 310.886Z" fill="white"/>
<path d="M91.5526 290.682L84.2548 309.345L77.5384 308.888L72.6964 289.397L78.874 289.818L81.2442 304.81L85.77 290.288L91.5526 290.682Z" fill="white"/>
<path d="M91.5526 270.48L84.2548 289.143L77.5384 288.686L72.6964 269.195L78.874 269.616L81.2442 284.608L85.77 270.086L91.5526 270.48Z" fill="white"/>
<path d="M121.843 156.858L114.545 175.521L107.828 175.063L102.986 155.573L109.164 155.994L111.534 170.986L116.06 156.464L121.843 156.858Z" fill="white"/>
<path d="M121.843 176.513L114.545 195.176L107.828 194.719L102.986 175.228L109.164 175.649L111.534 190.641L116.06 176.119L121.843 176.513Z" fill="white"/>
<path d="M121.843 196.169L114.545 214.832L107.828 214.374L102.986 194.884L109.164 195.305L111.534 210.297L116.06 195.775L121.843 196.169Z" fill="white"/>
<path d="M121.843 215.823L114.545 234.486L107.828 234.028L102.986 214.538L109.164 214.959L111.534 229.951L116.06 215.429L121.843 215.823Z" fill="white"/>
<path d="M121.843 235.477L114.545 254.14L107.828 253.683L102.986 234.192L109.164 234.613L111.534 249.605L116.06 235.083L121.843 235.477Z" fill="white"/>
<path d="M121.843 255.133L114.545 273.796L107.828 273.338L102.986 253.848L109.164 254.269L111.534 269.26L116.06 254.739L121.843 255.133Z" fill="white"/>
<path d="M121.843 274.788L114.545 293.451L107.828 292.993L102.986 273.503L109.164 273.924L111.534 288.916L116.06 274.394L121.843 274.788Z" fill="white"/>
<path d="M121.843 294.442L114.545 313.105L107.828 312.647L102.986 293.157L109.164 293.578L111.534 308.57L116.06 294.048L121.843 294.442Z" fill="white"/>
<path d="M121.843 314.096L114.545 332.759L107.828 332.302L102.986 312.811L109.164 313.232L111.534 328.224L116.06 313.702L121.843 314.096Z" fill="white"/>
<path d="M121.843 333.752L114.545 352.415L107.828 351.957L102.986 332.467L109.164 332.888L111.534 347.88L116.06 333.358L121.843 333.752Z" fill="white"/>
<path d="M121.843 353.407L114.545 372.07L107.828 371.612L102.986 352.122L109.164 352.543L111.534 367.535L116.06 353.013L121.843 353.407Z" fill="white"/>
<path d="M121.843 373.061L114.545 391.724L107.828 391.267L102.986 371.776L109.164 372.197L111.534 387.189L116.06 372.667L121.843 373.061Z" fill="white"/>
<path d="M121.843 392.716L114.545 411.379L107.828 410.921L102.986 391.431L109.164 391.852L111.534 406.843L116.06 392.322L121.843 392.716Z" fill="white"/>
<path d="M136.808 157.879L129.51 176.542L122.793 176.084L117.951 156.594L124.129 157.015L126.499 172.007L131.025 157.485L136.808 157.879Z" fill="white"/>
<path d="M136.808 177.534L129.51 196.197L122.793 195.739L117.951 176.249L124.129 176.67L126.499 191.662L131.025 177.14L136.808 177.534Z" fill="white"/>
<path d="M136.808 197.188L129.51 215.851L122.793 215.394L117.951 195.903L124.129 196.324L126.499 211.316L131.025 196.794L136.808 197.188Z" fill="white"/>
<path d="M136.808 216.843L129.51 235.506L122.793 235.048L117.951 215.558L124.129 215.979L126.499 230.97L131.025 216.448L136.808 216.843Z" fill="white"/>
<path d="M136.808 236.498L129.51 255.161L122.793 254.703L117.951 235.213L124.129 235.634L126.499 250.626L131.025 236.104L136.808 236.498Z" fill="white"/>
<path d="M136.808 256.153L129.51 274.816L122.793 274.358L117.951 254.868L124.129 255.289L126.499 270.281L131.025 255.759L136.808 256.153Z" fill="white"/>
<path d="M136.808 275.807L129.51 294.47L122.793 294.013L117.951 274.522L124.129 274.943L126.499 289.935L131.025 275.413L136.808 275.807Z" fill="white"/>
<path d="M136.808 295.462L129.51 314.125L122.793 313.667L117.951 294.177L124.129 294.598L126.499 309.59L131.025 295.068L136.808 295.462Z" fill="white"/>
<path d="M136.808 315.117L129.51 333.78L122.793 333.322L117.951 313.832L124.129 314.253L126.499 329.245L131.025 314.723L136.808 315.117Z" fill="white"/>
<path d="M136.808 334.772L129.51 353.435L122.793 352.978L117.951 333.487L124.129 333.908L126.499 348.9L131.025 334.378L136.808 334.772Z" fill="white"/>
<path d="M136.808 354.427L129.51 373.09L122.793 372.632L117.951 353.142L124.129 353.563L126.499 368.554L131.025 354.032L136.808 354.427Z" fill="white"/>
<path d="M136.808 374.081L129.51 392.744L122.793 392.286L117.951 372.796L124.129 373.217L126.499 388.209L131.025 373.687L136.808 374.081Z" fill="white"/>
<path d="M136.808 393.736L129.51 412.399L122.793 411.941L117.951 392.451L124.129 392.872L126.499 407.864L131.025 393.342L136.808 393.736Z" fill="white"/>
<path d="M136.808 413.391L129.51 432.054L122.793 431.597L117.951 412.106L124.129 412.527L126.499 427.519L131.025 412.997L136.808 413.391Z" fill="white"/>
<path d="M151.773 158.899L144.476 177.562L137.759 177.104L132.917 157.614L139.095 158.035L141.465 173.027L145.991 158.505L151.773 158.899Z" fill="white"/>
<path d="M151.773 178.553L144.476 197.216L137.759 196.759L132.917 177.268L139.095 177.689L141.465 192.681L145.991 178.159L151.773 178.553Z" fill="white"/>
<path d="M151.773 198.208L144.476 216.871L137.759 216.413L132.917 196.923L139.095 197.344L141.465 212.336L145.991 197.814L151.773 198.208Z" fill="white"/>
<path d="M151.773 217.863L144.476 236.526L137.759 236.068L132.917 216.578L139.095 216.999L141.465 231.991L145.991 217.469L151.773 217.863Z" fill="white"/>
<path d="M151.773 237.518L144.476 256.181L137.759 255.724L132.917 236.233L139.095 236.654L141.465 251.646L145.991 237.124L151.773 237.518Z" fill="white"/>
<path d="M151.773 257.173L144.476 275.836L137.759 275.378L132.917 255.888L139.095 256.309L141.465 271.3L145.991 256.779L151.773 257.173Z" fill="white"/>
<path d="M151.773 276.827L144.476 295.49L137.759 295.032L132.917 275.542L139.095 275.963L141.465 290.955L145.991 276.433L151.773 276.827Z" fill="white"/>
<path d="M151.773 296.482L144.476 315.145L137.759 314.687L132.917 295.197L139.095 295.618L141.465 310.61L145.991 296.088L151.773 296.482Z" fill="white"/>
<path d="M151.773 316.137L144.476 334.8L137.759 334.343L132.917 314.852L139.095 315.273L141.465 330.265L145.991 315.743L151.773 316.137Z" fill="white"/>
<path d="M151.773 335.792L144.476 354.455L137.759 353.997L132.917 334.507L139.095 334.928L141.465 349.92L145.991 335.398L151.773 335.792Z" fill="white"/>
<path d="M151.773 355.446L144.476 374.109L137.759 373.651L132.917 354.161L139.095 354.582L141.465 369.574L145.991 355.052L151.773 355.446Z" fill="white"/>
<path d="M151.773 375.101L144.476 393.764L137.759 393.307L132.917 373.816L139.095 374.237L141.465 389.229L145.991 374.707L151.773 375.101Z" fill="white"/>
<path d="M151.773 394.757L144.476 413.42L137.759 412.962L132.917 393.472L139.095 393.893L141.465 408.884L145.991 394.363L151.773 394.757Z" fill="white"/>
<path d="M151.773 414.411L144.476 433.074L137.759 432.616L132.917 413.126L139.095 413.547L141.465 428.539L145.991 414.017L151.773 414.411Z" fill="white"/>
<path d="M166.738 159.919L159.44 178.582L152.724 178.124L147.882 158.634L154.06 159.055L156.43 174.047L160.956 159.525L166.738 159.919Z" fill="white"/>
<path d="M166.738 179.573L159.44 198.236L152.724 197.778L147.882 178.288L154.06 178.709L156.43 193.701L160.956 179.179L166.738 179.573Z" fill="white"/>
<path d="M166.738 199.227L159.44 217.89L152.724 217.433L147.882 197.942L154.06 198.363L156.43 213.355L160.956 198.833L166.738 199.227Z" fill="white"/>
<path d="M166.738 218.883L159.44 237.546L152.724 237.088L147.882 217.598L154.06 218.019L156.43 233.01L160.956 218.489L166.738 218.883Z" fill="white"/>
<path d="M166.738 238.538L159.44 257.201L152.724 256.743L147.882 237.253L154.06 237.674L156.43 252.666L160.956 238.144L166.738 238.538Z" fill="white"/>
<path d="M166.738 258.192L159.44 276.855L152.724 276.397L147.882 256.907L154.06 257.328L156.43 272.32L160.956 257.798L166.738 258.192Z" fill="white"/>
<path d="M166.738 277.846L159.44 296.509L152.724 296.052L147.882 276.561L154.06 276.982L156.43 291.974L160.956 277.452L166.738 277.846Z" fill="white"/>
<path d="M166.738 297.502L159.44 316.165L152.724 315.707L147.882 296.217L154.06 296.638L156.43 311.63L160.956 297.108L166.738 297.502Z" fill="white"/>
<path d="M166.738 317.157L159.44 335.82L152.724 335.362L147.882 315.872L154.06 316.293L156.43 331.285L160.956 316.763L166.738 317.157Z" fill="white"/>
<path d="M166.738 336.811L159.44 355.474L152.724 355.017L147.882 335.526L154.06 335.947L156.43 350.939L160.956 336.417L166.738 336.811Z" fill="white"/>
<path d="M166.738 356.466L159.44 375.129L152.724 374.671L147.882 355.181L154.06 355.602L156.43 370.593L160.956 356.072L166.738 356.466Z" fill="white"/>
<path d="M166.738 376.121L159.44 394.784L152.724 394.326L147.882 374.836L154.06 375.257L156.43 390.249L160.956 375.727L166.738 376.121Z" fill="white"/>
<path d="M166.738 395.776L159.44 414.439L152.724 413.981L147.882 394.491L154.06 394.912L156.43 409.904L160.956 395.382L166.738 395.776Z" fill="white"/>
<path d="M166.738 415.43L159.44 434.093L152.724 433.636L147.882 414.145L154.06 414.566L156.43 429.558L160.956 415.036L166.738 415.43Z" fill="white"/>
<path d="M166.738 435.085L159.44 453.748L152.724 453.29L147.882 433.8L154.06 434.221L156.43 449.213L160.956 434.691L166.738 435.085Z" fill="white"/>
<path d="M181.704 160.938L174.406 179.601L167.69 179.144L162.848 159.653L169.025 160.074L171.396 175.066L175.921 160.544L181.704 160.938Z" fill="white"/>
<path d="M181.704 180.593L174.406 199.256L167.69 198.798L162.848 179.308L169.025 179.729L171.396 194.72L175.921 180.198L181.704 180.593Z" fill="white"/>
<path d="M181.704 200.247L174.406 218.91L167.69 218.452L162.848 198.962L169.025 199.383L171.396 214.375L175.921 199.853L181.704 200.247Z" fill="white"/>
<path d="M181.704 219.902L174.406 238.565L167.69 238.107L162.848 218.617L169.025 219.038L171.396 234.03L175.921 219.508L181.704 219.902Z" fill="white"/>
<path d="M181.704 239.557L174.406 258.22L167.69 257.763L162.848 238.272L169.025 238.693L171.396 253.685L175.921 239.163L181.704 239.557Z" fill="white"/>
<path d="M181.704 259.212L174.406 277.875L167.69 277.417L162.848 257.927L169.025 258.348L171.396 273.34L175.921 258.818L181.704 259.212Z" fill="white"/>
<path d="M181.704 278.866L174.406 297.529L167.69 297.071L162.848 277.581L169.025 278.002L171.396 292.994L175.921 278.472L181.704 278.866Z" fill="white"/>
<path d="M181.704 298.521L174.406 317.184L167.69 316.727L162.848 297.236L169.025 297.657L171.396 312.649L175.921 298.127L181.704 298.521Z" fill="white"/>
<path d="M181.704 318.177L174.406 336.84L167.69 336.382L162.848 316.892L169.025 317.313L171.396 332.304L175.921 317.782L181.704 318.177Z" fill="white"/>
<path d="M181.704 337.831L174.406 356.494L167.69 356.036L162.848 336.546L169.025 336.967L171.396 351.959L175.921 337.437L181.704 337.831Z" fill="white"/>
<path d="M181.704 357.485L174.406 376.148L167.69 375.69L162.848 356.2L169.025 356.621L171.396 371.613L175.921 357.091L181.704 357.485Z" fill="white"/>
<path d="M181.704 377.14L174.406 395.803L167.69 395.346L162.848 375.855L169.025 376.276L171.396 391.268L175.921 376.746L181.704 377.14Z" fill="white"/>
<path d="M181.704 396.796L174.406 415.459L167.69 415.001L162.848 395.511L169.025 395.932L171.396 410.923L175.921 396.402L181.704 396.796Z" fill="white"/>
<path d="M181.704 416.45L174.406 435.113L167.69 434.655L162.848 415.165L169.025 415.586L171.396 430.578L175.921 416.056L181.704 416.45Z" fill="white"/>
<path d="M181.704 436.104L174.406 454.767L167.69 454.31L162.848 434.819L169.025 435.24L171.396 450.232L175.921 435.71L181.704 436.104Z" fill="white"/>
<path d="M181.704 455.76L174.406 474.423L167.69 473.965L162.848 454.475L169.025 454.896L171.396 469.887L175.921 455.365L181.704 455.76Z" fill="white"/>
<path d="M196.669 161.958L189.371 180.621L182.655 180.163L177.813 160.673L183.99 161.094L186.36 176.086L190.886 161.564L196.669 161.958Z" fill="white"/>
<path d="M196.669 181.613L189.371 200.276L182.655 199.818L177.813 180.328L183.99 180.749L186.36 195.741L190.886 181.219L196.669 181.613Z" fill="white"/>
<path d="M196.669 201.268L189.371 219.931L182.655 219.474L177.813 199.983L183.99 200.404L186.36 215.396L190.886 200.874L196.669 201.268Z" fill="white"/>
<path d="M196.669 220.923L189.371 239.586L182.655 239.128L177.813 219.638L183.99 220.059L186.36 235.05L190.886 220.529L196.669 220.923Z" fill="white"/>
<path d="M196.669 240.577L189.371 259.24L182.655 258.782L177.813 239.292L183.99 239.713L186.36 254.705L190.886 240.183L196.669 240.577Z" fill="white"/>
<path d="M196.669 260.232L189.371 278.895L182.655 278.437L177.813 258.947L183.99 259.368L186.36 274.36L190.886 259.838L196.669 260.232Z" fill="white"/>
<path d="M196.669 279.887L189.371 298.55L182.655 298.093L177.813 278.602L183.99 279.023L186.36 294.015L190.886 279.493L196.669 279.887Z" fill="white"/>
<path d="M196.669 299.542L189.371 318.205L182.655 317.747L177.813 298.257L183.99 298.678L186.36 313.67L190.886 299.148L196.669 299.542Z" fill="white"/>
<path d="M196.669 319.196L189.371 337.859L182.655 337.401L177.813 317.911L183.99 318.332L186.36 333.324L190.886 318.802L196.669 319.196Z" fill="white"/>
<path d="M196.669 338.851L189.371 357.514L182.655 357.057L177.813 337.566L183.99 337.987L186.36 352.979L190.886 338.457L196.669 338.851Z" fill="white"/>
<path d="M196.669 358.507L189.371 377.17L182.655 376.712L177.813 357.222L183.99 357.643L186.36 372.634L190.886 358.113L196.669 358.507Z" fill="white"/>
<path d="M196.669 378.161L189.371 396.824L182.655 396.366L177.813 376.876L183.99 377.297L186.36 392.289L190.886 377.767L196.669 378.161Z" fill="white"/>
<path d="M196.669 397.815L189.371 416.478L182.655 416.02L177.813 396.53L183.99 396.951L186.36 411.943L190.886 397.421L196.669 397.815Z" fill="white"/>
<path d="M196.669 417.47L189.371 436.133L182.655 435.676L177.813 416.185L183.99 416.606L186.36 431.598L190.886 417.076L196.669 417.47Z" fill="white"/>
<path d="M196.669 437.126L189.371 455.789L182.655 455.331L177.813 435.841L183.99 436.262L186.36 451.254L190.886 436.732L196.669 437.126Z" fill="white"/>
<path d="M196.669 456.78L189.371 475.443L182.655 474.985L177.813 455.495L183.99 455.916L186.36 470.908L190.886 456.386L196.669 456.78Z" fill="white"/>
<path d="M211.635 162.977L204.337 181.64L197.62 181.183L192.778 161.692L198.956 162.113L201.326 177.105L205.852 162.583L211.635 162.977Z" fill="white"/>
<path d="M211.635 182.633L204.337 201.296L197.62 200.838L192.778 181.348L198.956 181.769L201.326 196.76L205.852 182.239L211.635 182.633Z" fill="white"/>
<path d="M211.635 202.288L204.337 220.951L197.62 220.493L192.778 201.003L198.956 201.424L201.326 216.416L205.852 201.894L211.635 202.288Z" fill="white"/>
<path d="M211.635 221.942L204.337 240.605L197.62 240.147L192.778 220.657L198.956 221.078L201.326 236.07L205.852 221.548L211.635 221.942Z" fill="white"/>
<path d="M211.635 241.596L204.337 260.259L197.62 259.802L192.778 240.311L198.956 240.732L201.326 255.724L205.852 241.202L211.635 241.596Z" fill="white"/>
<path d="M211.635 261.252L204.337 279.915L197.62 279.457L192.778 259.967L198.956 260.388L201.326 275.38L205.852 260.858L211.635 261.252Z" fill="white"/>
<path d="M211.635 280.907L204.337 299.57L197.62 299.112L192.778 279.622L198.956 280.043L201.326 295.035L205.852 280.513L211.635 280.907Z" fill="white"/>
<path d="M211.635 300.561L204.337 319.224L197.62 318.767L192.778 299.276L198.956 299.697L201.326 314.689L205.852 300.167L211.635 300.561Z" fill="white"/>
<path d="M211.635 320.216L204.337 338.879L197.62 338.421L192.778 318.931L198.956 319.352L201.326 334.343L205.852 319.822L211.635 320.216Z" fill="white"/>
<path d="M211.635 339.871L204.337 358.534L197.62 358.076L192.778 338.586L198.956 339.007L201.326 353.999L205.852 339.477L211.635 339.871Z" fill="white"/>
<path d="M211.635 359.526L204.337 378.189L197.62 377.731L192.778 358.241L198.956 358.662L201.326 373.654L205.852 359.132L211.635 359.526Z" fill="white"/>
<path d="M211.635 379.18L204.337 397.843L197.62 397.386L192.778 377.895L198.956 378.316L201.326 393.308L205.852 378.786L211.635 379.18Z" fill="white"/>
<path d="M211.635 398.835L204.337 417.498L197.62 417.04L192.778 397.55L198.956 397.971L201.326 412.963L205.852 398.441L211.635 398.835Z" fill="white"/>
<path d="M211.635 418.49L204.337 437.153L197.62 436.695L192.778 417.205L198.956 417.626L201.326 432.618L205.852 418.096L211.635 418.49Z" fill="white"/>
<path d="M211.635 438.145L204.337 456.808L197.62 456.351L192.778 436.86L198.956 437.281L201.326 452.273L205.852 437.751L211.635 438.145Z" fill="white"/>
<path d="M211.635 457.8L204.337 476.463L197.62 476.005L192.778 456.515L198.956 456.936L201.326 471.927L205.852 457.406L211.635 457.8Z" fill="white"/>
<path d="M211.635 477.454L204.337 496.117L197.62 495.659L192.778 476.169L198.956 476.59L201.326 491.582L205.852 477.06L211.635 477.454Z" fill="white"/>
<path d="M226.599 321.236L219.302 339.899L212.585 339.441L207.743 319.951L213.921 320.372L216.291 335.364L220.817 320.842L226.599 321.236Z" fill="white"/>
<path d="M226.599 340.891L219.302 359.554L212.585 359.097L207.743 339.606L213.921 340.027L216.291 355.019L220.817 340.497L226.599 340.891Z" fill="white"/>
<path d="M226.599 360.546L219.302 379.209L212.585 378.751L207.743 359.261L213.921 359.682L216.291 374.673L220.817 360.152L226.599 360.546Z" fill="white"/>
<path d="M226.599 380.2L219.302 398.863L212.585 398.405L207.743 378.915L213.921 379.336L216.291 394.328L220.817 379.806L226.599 380.2Z" fill="white"/>
<path d="M226.599 399.855L219.302 418.518L212.585 418.061L207.743 398.57L213.921 398.991L216.291 413.983L220.817 399.461L226.599 399.855Z" fill="white"/>
<path d="M226.599 419.511L219.302 438.174L212.585 437.716L207.743 418.225L213.921 418.646L216.291 433.638L220.817 419.116L226.599 419.511Z" fill="white"/>
<path d="M226.599 439.165L219.302 457.828L212.585 457.37L207.743 437.88L213.921 438.301L216.291 453.293L220.817 438.771L226.599 439.165Z" fill="white"/>
<path d="M226.599 458.819L219.302 477.482L212.585 477.024L207.743 457.534L213.921 457.955L216.291 472.947L220.817 458.425L226.599 458.819Z" fill="white"/>
<path d="M226.599 478.474L219.302 497.137L212.585 496.68L207.743 477.189L213.921 477.61L216.291 492.602L220.817 478.08L226.599 478.474Z" fill="white"/>
<path d="M241.553 478.474L234.255 497.137L227.538 496.68L222.696 477.189L228.874 477.61L231.244 492.602L235.77 478.08L241.553 478.474Z" fill="white"/>
<path d="M241.553 459.493L234.255 478.156L227.538 477.698L222.696 458.208L228.874 458.629L231.244 473.621L235.77 459.099L241.553 459.493Z" fill="white"/>
<path d="M241.553 440.512L234.255 459.175L227.538 458.718L222.696 439.227L228.874 439.648L231.244 454.64L235.77 440.118L241.553 440.512Z" fill="white"/>
<path d="M241.553 421.532L234.255 440.195L227.538 439.737L222.696 420.247L228.874 420.668L231.244 435.66L235.77 421.138L241.553 421.532Z" fill="white"/>
<path d="M241.553 402.551L234.255 421.214L227.538 420.756L222.696 401.266L228.874 401.687L231.244 416.678L235.77 402.156L241.553 402.551Z" fill="white"/>
<path d="M241.553 383.569L234.255 402.232L227.538 401.774L222.696 382.284L228.874 382.705L231.244 397.697L235.77 383.175L241.553 383.569Z" fill="white"/>
<path d="M241.553 364.589L234.255 383.252L227.538 382.794L222.696 363.304L228.874 363.725L231.244 378.716L235.77 364.195L241.553 364.589Z" fill="white"/>
<path d="M241.553 345.608L234.255 364.271L227.538 363.813L222.696 344.323L228.874 344.744L231.244 359.736L235.77 345.214L241.553 345.608Z" fill="white"/>
<path d="M256.505 478.474L249.207 497.137L242.491 496.68L237.649 477.189L243.826 477.61L246.196 492.602L250.722 478.08L256.505 478.474Z" fill="white"/>
<path d="M256.505 459.493L249.207 478.156L242.491 477.698L237.649 458.208L243.826 458.629L246.196 473.621L250.722 459.099L256.505 459.493Z" fill="white"/>
<path d="M256.505 440.512L249.207 459.175L242.491 458.718L237.649 439.227L243.826 439.648L246.196 454.64L250.722 440.118L256.505 440.512Z" fill="white"/>
<path d="M256.505 421.532L249.207 440.195L242.491 439.737L237.649 420.247L243.826 420.668L246.196 435.66L250.722 421.138L256.505 421.532Z" fill="white"/>
<path d="M256.505 402.551L249.207 421.214L242.491 420.756L237.649 401.266L243.826 401.687L246.196 416.678L250.722 402.156L256.505 402.551Z" fill="white"/>
<path d="M256.505 383.569L249.207 402.232L242.491 401.774L237.649 382.284L243.826 382.705L246.196 397.697L250.722 383.175L256.505 383.569Z" fill="white"/>
<path d="M256.505 364.589L249.207 383.252L242.491 382.794L237.649 363.304L243.826 363.725L246.196 378.716L250.722 364.195L256.505 364.589Z" fill="white"/>
<path d="M271.458 478.474L264.16 497.137L257.444 496.68L252.602 477.189L258.779 477.61L261.149 492.602L265.675 478.08L271.458 478.474Z" fill="white"/>
<path d="M271.458 459.493L264.16 478.156L257.444 477.698L252.602 458.208L258.779 458.629L261.149 473.621L265.675 459.099L271.458 459.493Z" fill="white"/>
<path d="M271.458 440.512L264.16 459.175L257.444 458.718L252.602 439.227L258.779 439.648L261.149 454.64L265.675 440.118L271.458 440.512Z" fill="white"/>
<path d="M271.458 421.532L264.16 440.195L257.444 439.737L252.602 420.247L258.779 420.668L261.149 435.66L265.675 421.138L271.458 421.532Z" fill="white"/>
<path d="M271.458 402.551L264.16 421.214L257.444 420.756L252.602 401.266L258.779 401.687L261.149 416.678L265.675 402.156L271.458 402.551Z" fill="white"/>
<path d="M271.458 383.569L264.16 402.232L257.444 401.774L252.602 382.284L258.779 382.705L261.149 397.697L265.675 383.175L271.458 383.569Z" fill="white"/>
<path d="M286.41 478.474L279.112 497.137L272.396 496.68L267.554 477.189L273.731 477.61L276.102 492.602L280.627 478.08L286.41 478.474Z" fill="white"/>
<path d="M286.41 459.493L279.112 478.156L272.396 477.698L267.554 458.208L273.731 458.629L276.102 473.621L280.627 459.099L286.41 459.493Z" fill="white"/>
<path d="M286.41 440.512L279.112 459.175L272.396 458.718L267.554 439.227L273.731 439.648L276.102 454.64L280.627 440.118L286.41 440.512Z" fill="white"/>
<path d="M286.41 421.532L279.112 440.195L272.396 439.737L267.554 420.247L273.731 420.668L276.102 435.66L280.627 421.138L286.41 421.532Z" fill="white"/>
<path d="M286.41 402.551L279.112 421.214L272.396 420.756L267.554 401.266L273.731 401.687L276.102 416.678L280.627 402.156L286.41 402.551Z" fill="white"/>
<path d="M301.363 478.474L294.065 497.137L287.349 496.68L282.507 477.189L288.685 477.61L291.055 492.602L295.581 478.08L301.363 478.474Z" fill="white"/>
<path d="M301.363 459.493L294.065 478.156L287.349 477.698L282.507 458.208L288.685 458.629L291.055 473.621L295.581 459.099L301.363 459.493Z" fill="white"/>
<path d="M301.363 440.512L294.065 459.175L287.349 458.718L282.507 439.227L288.685 439.648L291.055 454.64L295.581 440.118L301.363 440.512Z" fill="white"/>
<path d="M301.363 421.532L294.065 440.195L287.349 439.737L282.507 420.247L288.685 420.668L291.055 435.66L295.581 421.138L301.363 421.532Z" fill="white"/>
<path d="M241.553 498.13L234.255 516.793L227.538 516.335L222.696 496.845L228.874 497.266L231.244 512.257L235.77 497.736L241.553 498.13Z" fill="white"/>
<path d="M256.553 498.13L249.255 516.793L242.538 516.335L237.696 496.845L243.874 497.266L246.244 512.257L250.77 497.736L256.553 498.13Z" fill="white"/>
<path d="M271.553 498.13L264.255 516.793L257.538 516.335L252.696 496.845L258.874 497.266L261.244 512.257L265.77 497.736L271.553 498.13Z" fill="white"/>
<circle cx="163.5" cy="64.2188" r="38.5" fill="white"/>
<path d="M180.6 47.7188L169.912 81.7028H157.944L147 47.7188H158.008L164.024 74.0228L170.296 47.7188H180.6Z" fill="#268020"/>
</svg>
