<svg width="554" height="731" viewBox="0 0 554 731" fill="none" xmlns="http://www.w3.org/2000/svg">
<rect x="3.00049" width="551" height="541" rx="38" fill="#1210A2"/>
<rect x="38.0005" y="37" width="482" height="468" rx="34" fill="white"/>
<path d="M202.07 402.62C202.07 397.97 202.07 393.31 202.07 388.66L202.01 388.72C211.3 388.7 220.58 388.68 229.87 388.66C229.87 393.26 229.87 397.86 229.87 402.47C239.24 402.47 248.39 402.47 257.51 402.47C257.51 397.82 257.51 393.3 257.51 388.72C248.18 388.72 239 388.72 229.82 388.72C229.82 384.12 229.82 379.51 229.82 374.69C248.55 374.69 266.98 374.69 285.36 374.69C285.36 370 285.36 365.52 285.36 360.83C276.09 360.83 266.94 360.83 257.83 360.83C257.83 356.09 257.83 351.57 257.83 346.9C262.47 346.9 266.94 346.9 271.64 346.9C271.64 342.23 271.64 337.7 271.64 333.04C276.33 333.04 280.81 333.04 285.36 333.04C285.36 328.37 285.36 323.85 285.36 319.11C276.09 319.11 266.93 319.11 257.63 319.11C257.63 309.78 257.63 300.67 257.63 291.49C252.96 291.49 248.44 291.49 243.7 291.49C243.7 305.4 243.7 319.19 243.7 332.98C239.01 332.98 234.53 332.98 229.84 332.98C229.84 323.73 229.84 314.57 229.84 305.19C225.1 305.19 220.57 305.19 216.07 305.19C216.07 300.5 216.07 296.02 216.07 291.33C220.7 291.33 225.22 291.33 229.83 291.33C229.83 286.56 229.83 282 229.83 277.44C234.43 277.44 239.03 277.44 243.64 277.44C243.64 272.71 243.64 268.19 243.64 263.7C238.99 263.7 234.48 263.7 229.89 263.7C229.89 268.39 229.89 272.94 229.89 277.5C225.29 277.5 220.69 277.5 215.89 277.5C215.89 272.7 215.89 268.18 215.89 263.54C211.13 263.54 206.58 263.54 202.03 263.54L202.09 263.6C202.09 254.31 202.09 245.03 202.09 235.74L202.03 235.8C206.63 235.8 211.23 235.8 216.03 235.8C216.03 240.54 216.03 245.06 216.03 249.54C225.38 249.54 234.53 249.54 243.74 249.54C243.74 244.85 243.74 240.3 243.74 235.75C252.98 235.75 262.22 235.75 271.6 235.75C271.6 230.96 271.6 226.41 271.6 221.85L271.54 221.91C276.1 221.91 280.65 221.91 285.51 221.91C285.51 203.25 285.51 184.75 285.51 166.24L285.45 166.3C290.1 166.3 294.75 166.3 299.4 166.3L299.34 166.24C299.34 184.75 299.34 203.25 299.34 221.86C308.82 221.86 318.01 221.86 327.21 221.86C327.21 231.1 327.21 240.34 327.21 249.72C332 249.72 336.55 249.72 341.11 249.72L341.05 249.66C341.05 258.89 341.05 268.11 341.05 277.54C350.45 277.54 359.6 277.54 368.95 277.54C368.95 282.26 368.95 286.78 368.95 291.37C373.71 291.37 378.26 291.37 382.81 291.37C382.79 296 382.76 300.63 382.74 305.26C373.51 305.26 364.28 305.26 354.91 305.26C354.91 300.51 354.91 296.03 354.91 291.52C345.61 291.52 336.45 291.52 327.33 291.52C327.33 296.17 327.33 300.7 327.33 305.36C331.96 305.36 336.43 305.36 340.95 305.36C340.95 314.66 340.95 323.82 340.95 333.13C336.27 333.13 331.71 333.13 327.16 333.13C327.16 328.53 327.16 323.93 327.16 319.32C317.79 319.32 308.64 319.32 299.52 319.32C299.52 323.97 299.52 328.49 299.52 333.07C308.85 333.07 318.03 333.07 327.21 333.07C327.21 342.3 327.21 351.54 327.21 360.93C322.36 360.93 317.81 360.93 313.25 360.93C313.25 356.33 313.25 351.73 313.25 347.12C308.52 347.12 304 347.12 299.51 347.12C299.51 351.77 299.51 356.28 299.51 360.87C304.2 360.87 308.75 360.87 313.31 360.87C313.31 365.47 313.31 370.08 313.31 374.64C322.7 374.64 331.86 374.64 341.16 374.64C341.16 370.01 341.16 365.53 341.16 360.84C345.83 360.84 350.36 360.84 355.09 360.84C355.09 356.1 355.09 351.57 355.09 346.91C373.68 346.91 392.06 346.91 410.47 346.91C410.47 337.61 410.47 328.45 410.47 319.08C401.18 319.08 392.02 319.08 382.69 319.08C382.69 314.3 382.69 309.74 382.69 305.18C383.48 305.21 384.27 305.27 385.06 305.27C402.04 305.28 419.02 305.27 436.01 305.27C436.77 305.27 437.54 305.27 438.38 305.27C438.38 310.1 438.38 314.65 438.38 319.2L438.44 319.14C433.88 319.14 429.32 319.14 424.64 319.14C424.64 328.45 424.64 337.61 424.64 346.91C429.15 346.91 433.63 346.91 438.26 346.91C438.26 351.58 438.26 356.1 438.26 360.84C433.76 360.84 429.24 360.84 424.61 360.84C424.61 365.53 424.61 370.01 424.61 374.7C433.75 374.7 442.91 374.7 452.19 374.7C452.19 379.44 452.19 383.96 452.19 388.63C443.02 388.63 433.91 388.63 424.65 388.63C424.65 393.3 424.65 397.82 424.65 402.56C429.17 402.56 433.7 402.56 438.31 402.56C438.31 407.25 438.31 411.73 438.31 416.42C419.88 416.42 401.45 416.42 382.88 416.42C382.88 425.74 382.88 434.85 382.88 444.18C378.22 444.18 373.69 444.18 368.95 444.18C368.95 453.55 368.95 462.71 368.95 471.98C364.26 471.98 359.78 471.98 355.09 471.98C355.09 462.87 355.09 453.71 355.09 444.25C350.27 444.25 345.67 444.25 341.06 444.25L341.12 444.31C341.12 425.87 341.12 407.43 341.12 388.83C336.5 388.83 331.98 388.83 327.26 388.83C327.26 397.92 327.26 407.07 327.26 416.51C322.46 416.51 317.86 416.51 313.26 416.51C313.26 407.28 313.26 398.04 313.26 388.8C299.26 388.8 285.47 388.8 271.72 388.8C271.72 398.08 271.72 407.24 271.72 416.45C285.68 416.45 299.5 416.45 313.32 416.45C313.32 421.01 313.32 425.56 313.32 430.34C308.63 430.34 304.11 430.34 299.44 430.34C299.44 435.03 299.44 439.51 299.44 444.13C294.77 444.13 290.25 444.13 285.51 444.13C285.51 439.62 285.51 435.09 285.51 430.47C276.18 430.47 267.07 430.47 257.82 430.47C257.82 434.99 257.82 439.51 257.82 444.25C262.34 444.25 266.86 444.25 271.53 444.25C271.53 448.94 271.53 453.42 271.53 458.11C280.83 458.11 289.99 458.11 299.26 458.11C299.26 462.8 299.26 467.28 299.26 471.91C285.53 471.91 271.74 471.91 257.73 471.91C257.73 467.44 257.73 462.92 257.73 458.28C248.4 458.28 239.29 458.28 229.96 458.28C229.96 462.75 229.96 467.27 229.96 471.93C215.95 471.93 202.16 471.93 188.26 471.93C188.26 467.43 188.26 462.96 188.26 458.26C197.38 458.26 206.53 458.26 215.98 458.26C215.98 448.81 215.98 439.57 215.98 430.33L215.92 430.39C220.57 430.37 225.22 430.35 229.87 430.33C229.87 434.93 229.87 439.53 229.87 444.14C234.6 444.14 239.12 444.14 243.61 444.14C243.61 439.49 243.61 434.98 243.61 430.39C238.92 430.39 234.37 430.39 229.81 430.39C229.81 425.79 229.81 421.18 229.81 416.43C225.03 416.43 220.47 416.43 215.91 416.43L215.97 416.49C215.97 411.89 215.97 407.28 215.97 402.53C211.12 402.53 206.57 402.53 202.01 402.53L202.07 402.62ZM369.02 360.97C369.02 374.91 369.02 388.7 369.02 402.44C382.95 402.44 396.74 402.44 410.49 402.44C410.49 388.54 410.49 374.8 410.49 360.97C396.65 360.97 382.91 360.97 369.02 360.97ZM299.28 277.6C289.97 277.6 280.81 277.6 271.71 277.6C271.71 286.9 271.71 296.05 271.71 305.16C280.98 305.16 290.08 305.16 299.28 305.16C299.28 295.95 299.28 286.85 299.28 277.6ZM313.18 235.89C303.87 235.89 294.71 235.89 285.62 235.89C285.62 240.55 285.62 245.07 285.62 249.55C294.89 249.55 303.99 249.55 313.18 249.55C313.18 244.97 313.18 240.5 313.18 235.89ZM271.42 263.47C271.42 258.79 271.42 254.27 271.42 249.81C266.76 249.81 262.24 249.81 257.76 249.81C257.76 254.44 257.76 258.91 257.76 263.47C262.34 263.47 266.81 263.47 271.42 263.47ZM313.36 277.35C317.97 277.35 322.49 277.35 327.04 277.35C327.04 272.72 327.04 268.2 327.04 263.7C322.39 263.7 317.87 263.7 313.36 263.7C313.36 268.32 313.36 272.79 313.36 277.35Z" fill="#1210A2"/>
<path d="M341.05 138.459C350.24 138.459 359.43 138.459 368.84 138.459C368.84 152.339 368.84 166.129 368.84 180.069C392.06 180.069 415.07 180.069 438.3 180.069C438.3 184.729 438.3 189.249 438.3 193.909C447.67 193.909 456.83 193.909 466.13 193.909C466.13 189.409 466.13 184.939 466.13 180.299C470.8 180.299 475.32 180.299 479.98 180.299C479.98 198.679 479.98 217.099 479.98 235.669C475.48 235.669 471 235.669 466.37 235.669C466.37 240.339 466.37 244.859 466.37 249.599C470.85 249.599 475.37 249.599 480.01 249.599C480.01 263.559 480.01 277.299 480.01 291.259C475.531 291.259 471 291.259 466.35 291.259C466.35 295.999 466.35 300.519 466.35 305.189C470.86 305.189 475.33 305.189 479.97 305.189C479.97 333.029 479.97 360.719 479.97 388.539C475.49 388.539 470.97 388.539 466.3 388.539C466.3 374.769 466.3 361.029 466.3 347.059C461.64 347.059 457.11 347.059 452.35 347.059C452.35 342.239 452.35 337.639 452.35 333.029L452.29 333.089C456.891 333.089 461.49 333.089 466.08 333.089C466.08 328.299 466.08 323.779 466.08 319.129C461.39 319.129 456.84 319.129 452.29 319.129L452.35 319.189C452.33 305.269 452.311 291.349 452.29 277.429C456.891 277.429 461.49 277.429 466.1 277.429C466.1 272.699 466.1 268.179 466.1 263.689C461.451 263.689 456.94 263.689 452.35 263.689C452.35 268.379 452.35 272.929 452.35 277.489C443.11 277.489 433.88 277.489 424.43 277.489C424.43 282.239 424.43 286.759 424.43 291.249C419.74 291.249 415.26 291.249 410.57 291.249C410.57 286.619 410.57 282.099 410.57 277.479C405.8 277.479 401.24 277.479 396.68 277.479C396.68 272.869 396.68 268.269 396.68 263.449C391.92 263.449 387.401 263.449 382.921 263.449C382.921 258.749 382.921 254.279 382.921 249.589C387.561 249.589 392.08 249.589 396.75 249.589C396.75 244.899 396.75 240.419 396.75 235.869C401.42 235.869 405.94 235.869 410.68 235.869C410.68 240.519 410.68 245.039 410.68 249.549C424.64 249.549 438.39 249.549 452.35 249.549C452.35 240.289 452.35 231.139 452.35 221.759C457.09 221.759 461.62 221.759 466.12 221.759C466.12 217.059 466.12 212.589 466.12 208.059C447.59 208.059 429.17 208.059 410.52 208.059C410.52 212.709 410.52 217.229 410.52 221.899C396.56 221.899 382.81 221.899 368.85 221.899C368.85 231.199 368.85 240.359 368.85 249.619C359.44 249.619 350.25 249.619 341.06 249.619L341.12 249.679C341.12 245.069 341.12 240.469 341.12 235.649C345.89 235.649 350.411 235.649 354.891 235.649C354.891 217.049 354.891 198.679 354.891 180.259C345.621 180.259 336.47 180.259 327.22 180.259C327.22 184.949 327.22 189.499 327.22 194.059C322.62 194.059 318.01 194.059 313.31 194.059C313.31 184.579 313.31 175.389 313.31 166.199L313.25 166.259C317.85 166.259 322.46 166.259 327.21 166.259C327.21 161.409 327.21 156.859 327.21 152.299L327.15 152.359C331.78 152.369 336.41 152.369 341.04 152.379C341.04 156.969 341.04 161.559 341.04 166.079C345.89 166.079 350.411 166.079 354.891 166.079C354.891 161.449 354.891 156.979 354.891 152.439C350.191 152.439 345.59 152.439 340.99 152.439C341.03 147.759 341.07 143.079 341.11 138.399L341.05 138.459Z" fill="#1210A2"/>
<path d="M299.401 166.26C299.401 157.07 299.401 147.88 299.401 138.47C290.101 138.47 280.941 138.47 271.641 138.47C271.641 133.78 271.641 129.3 271.641 124.61C266.971 124.61 262.451 124.61 257.801 124.61C257.801 119.87 257.801 115.35 257.801 110.68C262.321 110.68 266.801 110.68 271.421 110.68C271.421 106.01 271.421 101.49 271.421 96.7498C262.281 96.7498 253.121 96.7498 243.861 96.7498C243.861 92.0598 243.861 87.5798 243.861 82.8898C248.371 82.8898 252.901 82.8898 257.641 82.8898C257.641 78.1498 257.641 73.6298 257.641 69.0098C276.231 69.0098 294.611 69.0098 313.211 69.0098C313.211 78.1698 313.211 87.3298 313.211 96.5998C322.581 96.5998 331.741 96.5998 341.041 96.5998C341.041 92.0498 341.041 87.5698 341.041 82.9598C350.341 82.9598 359.501 82.9598 368.771 82.9598C368.771 87.4498 368.771 91.9198 368.771 96.6198C364.301 96.6198 359.771 96.6198 354.951 96.6198C354.951 101.44 354.951 106.04 354.951 110.65L355.011 110.59C337.381 110.6 319.751 110.61 302.121 110.62C301.201 110.62 300.271 110.64 299.351 110.65C299.351 101.42 299.351 92.1898 299.351 82.9398C294.621 82.9398 290.111 82.9398 285.611 82.9398C285.611 92.2198 285.611 101.37 285.611 110.59C290.301 110.59 294.861 110.59 299.411 110.59C299.411 115.14 299.411 119.7 299.411 124.45C313.271 124.45 327.051 124.45 341.061 124.45C341.061 129.25 341.061 133.85 341.061 138.45L341.121 138.39C336.521 138.39 331.911 138.39 327.161 138.39C327.161 143.24 327.161 147.79 327.161 152.35L327.221 152.29C322.621 152.29 318.011 152.29 313.261 152.29C313.261 157.14 313.261 161.69 313.261 166.25L313.321 166.19C308.671 166.19 304.011 166.19 299.361 166.19L299.401 166.26Z" fill="#1210A2"/>
<path d="M77.0503 69C109.48 69 141.75 69 174.13 69C174.13 101.37 174.13 133.64 174.13 166.07C141.83 166.07 109.51 166.07 77.0503 166.07C77.0503 133.8 77.0503 101.47 77.0503 69ZM91.6303 151.44C114.37 151.44 136.91 151.44 159.44 151.44C159.44 128.77 159.44 106.23 159.44 83.7C136.77 83.7 114.23 83.7 91.6303 83.7C91.6303 106.33 91.6303 128.81 91.6303 151.44Z" fill="#1210A2"/>
<path d="M480.03 69.0498C480.03 101.46 480.03 133.74 480.03 166.12C447.67 166.12 415.39 166.12 382.96 166.12C382.96 133.84 382.96 101.51 382.96 69.0498C415.22 69.0498 447.54 69.0498 480.03 69.0498ZM397.51 151.44C420.25 151.44 442.79 151.44 465.32 151.44C465.32 128.77 465.32 106.23 465.32 83.6998C442.65 83.6998 420.11 83.6998 397.51 83.6998C397.51 106.32 397.51 128.81 397.51 151.44Z" fill="#1210A2"/>
<path d="M77.0005 471.969C77.0005 439.549 77.0005 407.279 77.0005 374.899C109.36 374.899 141.64 374.899 174.07 374.899C174.07 407.189 174.07 439.509 174.07 471.969C141.8 471.969 109.48 471.969 77.0005 471.969ZM91.6305 457.319C114.38 457.319 136.91 457.319 159.44 457.319C159.44 434.649 159.44 412.109 159.44 389.579C136.77 389.579 114.23 389.579 91.6305 389.579C91.6305 412.209 91.6305 434.689 91.6305 457.319Z" fill="#1210A2"/>
<path d="M118.651 263.53C114.091 263.53 109.541 263.53 104.771 263.53C104.771 258.92 104.771 254.39 104.771 249.73C95.4506 249.73 86.3406 249.73 77.0806 249.73C77.0806 226.54 77.0806 203.49 77.0806 180.29C81.5306 180.29 86.0506 180.29 90.7906 180.29C90.7906 189.44 90.7906 198.59 90.7906 207.85C95.4806 207.85 99.9506 207.85 104.641 207.85C104.641 203.35 104.641 198.83 104.641 194.09C114.011 194.09 123.161 194.09 132.461 194.09C132.461 189.4 132.461 184.93 132.461 180.3C137.121 180.3 141.641 180.3 146.391 180.3C146.391 189.5 146.391 198.74 146.391 207.97L146.451 207.91C137.261 207.91 128.071 207.91 118.671 207.91C118.671 212.58 118.671 217.1 118.671 221.77C113.981 221.77 109.511 221.77 104.871 221.77C104.871 226.43 104.871 230.96 104.871 235.68C127.871 235.68 150.921 235.68 174.101 235.68C174.101 240.4 174.101 244.92 174.101 249.59C164.941 249.59 155.841 249.59 146.511 249.59C146.511 254.25 146.511 258.77 146.511 263.53C141.691 263.53 137.091 263.53 132.491 263.53L132.551 263.59C132.551 258.99 132.551 254.39 132.551 249.8C127.761 249.8 123.241 249.8 118.591 249.8C118.591 254.49 118.591 259.04 118.591 263.59L118.651 263.53Z" fill="#1210A2"/>
<path d="M146.39 207.969C160.21 207.969 174.04 207.969 188 207.969C188 203.319 188 198.799 188 194.059C178.84 194.059 169.68 194.059 160.43 194.059C160.43 189.369 160.43 184.899 160.43 180.209C169.59 180.209 178.74 180.209 188.11 180.209C188.11 156.939 188.11 133.889 188.11 110.729C192.79 110.729 197.26 110.729 201.95 110.729C201.95 119.859 201.95 129.009 201.95 138.459C206.77 138.459 211.37 138.459 215.97 138.459L215.91 138.399C215.93 143.049 215.95 147.709 215.96 152.359C211.36 152.359 206.76 152.359 202.15 152.359C202.15 166.349 202.15 180.119 202.15 194.109C206.79 194.109 211.31 194.109 215.96 194.109C215.96 198.869 215.96 203.419 215.96 207.969C211.35 207.969 206.75 207.969 202 207.969C202 217.399 202 226.589 202 235.779L202.06 235.719C197.51 235.719 192.96 235.719 188.19 235.719C188.19 231.119 188.19 226.599 188.19 221.889C174.21 221.889 160.43 221.889 146.43 221.889C146.43 217.099 146.43 212.499 146.43 207.899C146.45 207.909 146.39 207.969 146.39 207.969Z" fill="#1210A2"/>
<path d="M466.191 416.529C470.751 416.529 475.301 416.529 479.991 416.529C479.991 430.419 479.991 444.209 479.991 458.149C475.461 458.149 470.981 458.149 466.291 458.149C466.291 462.819 466.291 467.339 466.291 471.989C461.551 471.989 457.031 471.989 452.361 471.989C452.361 462.809 452.361 453.699 452.361 444.449C447.691 444.449 443.171 444.449 438.431 444.449C438.431 453.609 438.431 462.769 438.431 472.019C419.841 472.019 401.461 472.019 382.941 472.019C382.941 467.489 382.941 462.969 382.941 458.299C387.431 458.299 391.901 458.299 396.601 458.299C396.601 453.629 396.601 449.109 396.601 444.369C405.971 444.369 415.131 444.369 424.431 444.369C424.431 439.679 424.431 435.199 424.431 430.509C438.371 430.509 452.161 430.509 466.251 430.509C466.251 425.689 466.251 421.089 466.251 416.479L466.191 416.529Z" fill="#1210A2"/>
<path d="M243.731 138.459C248.281 138.459 252.841 138.459 257.581 138.459C257.581 156.949 257.581 175.359 257.581 193.979C262.281 193.979 266.811 193.979 271.541 193.979C271.541 203.419 271.541 212.649 271.541 221.879L271.601 221.819C267.001 221.819 262.401 221.819 257.591 221.819C257.591 217.069 257.591 212.549 257.591 207.889C252.911 207.889 248.431 207.889 243.751 207.889C243.751 203.229 243.751 198.709 243.751 193.979C239.021 193.979 234.501 193.979 229.831 193.979C229.831 189.209 229.831 184.659 229.831 180.109C234.441 180.109 239.041 180.109 243.791 180.109C243.791 166.049 243.791 152.219 243.791 138.399L243.731 138.459Z" fill="#1210A2"/>
<path d="M229.871 110.58C225.311 110.58 220.761 110.58 215.991 110.58C215.991 105.96 215.991 101.44 215.991 96.7698C211.301 96.7698 206.821 96.7698 202.131 96.7698C202.131 92.1098 202.131 87.5798 202.131 82.8398C197.391 82.8398 192.871 82.8398 188.241 82.8398C188.241 78.1498 188.241 73.6798 188.241 69.0498C202.011 69.0498 215.791 69.0498 229.811 69.0498C229.811 82.8898 229.811 96.7598 229.811 110.63L229.871 110.58Z" fill="#1210A2"/>
<path d="M174.21 277.5C178.76 277.5 183.31 277.5 188.07 277.5C188.07 272.85 188.07 268.33 188.07 263.59C192.87 263.59 197.47 263.59 202.07 263.59L202.01 263.53C202.01 282.03 202.01 300.54 202.01 319.14C197.22 319.14 192.66 319.14 188.11 319.14L188.17 319.2C188.17 310.01 188.17 300.82 188.17 291.33C183.42 291.33 178.82 291.33 174.21 291.33L174.27 291.39C174.27 286.74 174.27 282.09 174.27 277.44L174.21 277.5Z" fill="#1210A2"/>
<path d="M146.451 333.04C141.901 333.04 137.341 333.04 132.581 333.04C132.581 342.34 132.581 351.5 132.581 360.76C127.901 360.76 123.431 360.76 118.791 360.76C118.791 347.03 118.791 333.25 118.791 319.32C127.861 319.32 137.011 319.32 146.391 319.32C146.391 323.89 146.391 328.49 146.391 333.09L146.451 333.04Z" fill="#1210A2"/>
<path d="M146.39 333.1C151.05 333.1 155.7 333.11 160.36 333.11L160.3 333.05C160.3 337.65 160.3 342.25 160.3 347.05C169.72 347.05 178.87 347.05 188.11 347.05C188.11 351.81 188.11 356.36 188.11 360.91L188.17 360.85C174.35 360.85 160.52 360.85 146.45 360.85C146.45 351.52 146.45 342.28 146.45 333.04L146.39 333.1Z" fill="#1210A2"/>
<path d="M90.7608 291.36C95.5508 291.36 99.9808 291.36 104.561 291.36C104.561 295.96 104.561 300.48 104.561 305.22C100.071 305.22 95.5408 305.22 90.8708 305.22C90.8708 309.91 90.8708 314.39 90.8708 319.01C86.2008 319.01 81.6808 319.01 77.0308 319.01C77.0308 305.22 77.0308 291.43 77.0308 277.55C81.5808 277.55 86.0608 277.55 90.7508 277.55C90.7608 282.09 90.7608 286.62 90.7608 291.36Z" fill="#1210A2"/>
<path d="M341.051 444.27C341.051 453.45 341.051 462.64 341.051 471.97C331.831 471.97 322.681 471.97 313.401 471.97C313.401 462.85 313.401 453.7 313.401 444.33C322.651 444.33 331.881 444.33 341.111 444.33L341.051 444.27Z" fill="#1210A2"/>
<path d="M229.81 110.64C234.37 110.64 238.93 110.64 243.72 110.64C243.72 119.98 243.72 129.22 243.72 138.46L243.78 138.4C234.49 138.4 225.2 138.4 215.92 138.4L215.98 138.46C215.98 133.91 215.98 129.36 215.98 124.59C220.58 124.59 225.1 124.59 229.88 124.59C229.88 119.78 229.88 115.18 229.88 110.58C229.87 110.58 229.81 110.64 229.81 110.64Z" fill="#1210A2"/>
<path d="M160.36 333.11C160.36 328.55 160.36 324 160.36 319.2C169.7 319.2 178.93 319.2 188.17 319.2L188.11 319.14C188.11 323.74 188.11 328.35 188.11 333.04C178.68 333.04 169.49 333.04 160.3 333.04L160.36 333.11Z" fill="#1210A2"/>
<path d="M104.621 347.12C104.621 351.73 104.621 356.2 104.621 360.78C95.4308 360.78 86.3308 360.78 77.0708 360.78C77.0708 356.3 77.0708 351.78 77.0708 347.12C86.1708 347.12 95.3208 347.12 104.621 347.12Z" fill="#1210A2"/>
<path d="M202.07 388.66C197.51 388.66 192.96 388.66 188.16 388.66C188.16 379.32 188.16 370.09 188.16 360.85L188.1 360.91C192.75 360.91 197.4 360.92 202.05 360.92L201.99 360.86C201.99 370.15 201.99 379.43 202 388.72L202.07 388.66Z" fill="#1210A2"/>
<path d="M354.951 110.64C359.501 110.64 364.051 110.64 368.741 110.64C368.741 115.23 368.741 119.74 368.741 124.39C364.251 124.39 359.741 124.39 355.011 124.39C355.011 119.78 355.011 115.18 355.011 110.59C355.001 110.58 354.951 110.64 354.951 110.64Z" fill="#1210A2"/>
<path d="M285.5 166.21C280.95 166.21 276.4 166.21 271.71 166.21C271.71 161.62 271.71 157.11 271.71 152.46C276.2 152.46 280.71 152.46 285.44 152.46C285.44 157.07 285.44 161.67 285.44 166.26C285.44 166.27 285.5 166.21 285.5 166.21Z" fill="#1210A2"/>
<path d="M146.29 305.17C141.67 305.17 137.2 305.17 132.63 305.17C132.63 300.61 132.63 296.14 132.63 291.52C137.12 291.52 141.64 291.52 146.29 291.52C146.29 295.99 146.29 300.51 146.29 305.17Z" fill="#1210A2"/>
<path d="M174.21 291.33C174.21 295.88 174.21 300.43 174.21 305.12C169.62 305.12 165.11 305.12 160.46 305.12C160.46 300.63 160.46 296.12 160.46 291.39C165.07 291.39 169.67 291.39 174.26 291.39C174.27 291.39 174.21 291.33 174.21 291.33Z" fill="#1210A2"/>
<path d="M452.341 333.05C447.781 333.05 443.231 333.05 438.431 333.05C438.431 328.35 438.431 323.75 438.431 319.14L438.371 319.2C443.021 319.2 447.681 319.2 452.331 319.2L452.271 319.14C452.271 323.79 452.271 328.45 452.271 333.1L452.341 333.05Z" fill="#1210A2"/>
<path d="M132.5 263.53C132.5 268.08 132.5 272.63 132.5 277.32C127.91 277.32 123.39 277.32 118.65 277.32C118.65 272.72 118.65 268.13 118.65 263.53L118.59 263.59C123.24 263.59 127.9 263.59 132.55 263.59L132.5 263.53Z" fill="#1210A2"/>
<path d="M202.071 416.47C197.521 416.47 192.971 416.47 188.281 416.47C188.281 411.88 188.281 407.36 188.281 402.63C192.881 402.63 197.481 402.63 202.071 402.63L202.011 402.57C202.011 407.22 202.011 411.88 202.011 416.53L202.071 416.47Z" fill="#1210A2"/>
<path d="M174.271 277.439C169.721 277.439 165.171 277.439 160.481 277.439C160.481 272.849 160.481 268.339 160.481 263.689C164.971 263.689 169.481 263.689 174.211 263.689C174.211 268.299 174.211 272.899 174.211 277.489C174.211 277.499 174.271 277.439 174.271 277.439Z" fill="#1210A2"/>
<path d="M215.98 430.37C211.42 430.37 206.87 430.37 202.07 430.37C202.07 425.67 202.07 421.07 202.07 416.46L202.01 416.52C206.66 416.52 211.32 416.52 215.97 416.52L215.91 416.46C215.91 421.11 215.91 425.77 215.91 430.42L215.98 430.37Z" fill="#1210A2"/>
<path d="M466.25 416.47C461.7 416.47 457.15 416.47 452.46 416.47C452.46 411.89 452.46 407.37 452.46 402.72C456.95 402.72 461.46 402.72 466.19 402.72C466.19 407.33 466.19 411.93 466.19 416.52C466.19 416.53 466.25 416.47 466.25 416.47Z" fill="#1210A2"/>
<path d="M202.07 360.92C202.07 356.37 202.07 351.82 202.07 347.12C211.3 347.12 220.44 347.12 229.72 347.12C229.72 351.62 229.72 356.13 229.72 360.86C220.47 360.86 211.24 360.86 202.01 360.86L202.07 360.92Z" fill="#1210A2"/>
<path d="M438.261 235.66C433.651 235.66 429.181 235.66 424.611 235.66C424.611 231.1 424.611 226.64 424.611 222.01C429.091 222.01 433.601 222.01 438.261 222.01C438.261 226.47 438.261 230.98 438.261 235.66Z" fill="#1210A2"/>
<path d="M396.72 277.43C396.72 281.99 396.72 286.54 396.72 291.39C391.97 291.39 387.36 291.39 382.76 291.39C382.76 286.83 382.76 282.28 382.76 277.43C387.51 277.43 392.12 277.43 396.72 277.43Z" fill="#1210A2"/>
<path d="M368.801 319.32C368.801 323.93 368.801 328.4 368.801 332.97C364.241 332.97 359.781 332.97 355.151 332.97C355.151 328.49 355.151 323.98 355.151 319.32C359.601 319.32 364.121 319.32 368.801 319.32Z" fill="#1210A2"/>
<path d="M215.92 152.3C220.48 152.3 225.03 152.3 229.88 152.3C229.88 161.69 229.88 170.93 229.88 180.16C225.32 180.16 220.77 180.16 215.92 180.16C215.92 170.77 215.92 161.54 215.92 152.3Z" fill="#1210A2"/>
<path d="M229.88 221.87C225.32 221.87 220.77 221.87 215.92 221.87C215.92 217.12 215.92 212.51 215.92 207.91C220.48 207.91 225.03 207.91 229.88 207.91C229.88 212.67 229.88 217.27 229.88 221.87Z" fill="#1210A2"/>
<path d="M243.781 235.78C239.221 235.78 234.671 235.78 229.821 235.78C229.821 231.03 229.821 226.42 229.821 221.82C234.381 221.82 238.931 221.82 243.781 221.82C243.781 226.57 243.781 231.17 243.781 235.78Z" fill="#1210A2"/>
<path d="M382.89 374.87C387.5 374.87 391.96 374.87 396.56 374.87C396.56 379.43 396.56 383.95 396.56 388.58C392.01 388.58 387.5 388.58 382.89 388.58C382.89 384.02 382.89 379.55 382.89 374.87Z" fill="#1210A2"/>
<path d="M327.151 221.87C327.151 212.58 327.151 203.3 327.151 194.01C331.701 194.01 336.251 194.01 340.941 194.01C340.941 203.3 340.941 212.44 340.941 221.87C336.351 221.87 331.751 221.87 327.151 221.87Z" fill="#1210A2"/>
<path d="M146.34 96.8594C146.34 110.739 146.34 124.469 146.34 138.319C132.52 138.319 118.78 138.319 104.88 138.319C104.88 124.569 104.88 110.789 104.88 96.8594C118.61 96.8594 132.39 96.8594 146.34 96.8594Z" fill="#1210A2"/>
<path d="M452.17 138.33C438.28 138.33 424.55 138.33 410.71 138.33C410.71 124.5 410.71 110.76 410.71 96.8701C424.47 96.8701 438.25 96.8701 452.17 96.8701C452.17 110.61 452.17 124.4 452.17 138.33Z" fill="#1210A2"/>
<path d="M104.861 402.68C118.731 402.68 132.471 402.68 146.311 402.68C146.311 416.5 146.311 430.24 146.311 444.14C132.571 444.14 118.791 444.14 104.861 444.14C104.861 430.42 104.861 416.63 104.861 402.68Z" fill="#1210A2"/>
<rect x="2.85986" y="568.097" width="264.073" height="161.975" fill="#268020"/>
<rect width="15.8825" height="65.7407" transform="matrix(0.374824 0.927096 -0.854299 0.519782 57.9673 606.531)" fill="white"/>
<rect width="16.2193" height="67.4568" transform="matrix(0.377444 -0.926032 -0.856162 -0.516707 57.7544 611.225)" fill="white"/>
<rect width="15.8825" height="65.7407" transform="matrix(-0.374824 0.927096 0.854299 0.519782 81.8726 608.593)" fill="white"/>
<rect width="15.8825" height="65.7407" transform="matrix(-0.374824 -0.927096 0.854299 -0.519782 81.8306 609.165)" fill="white"/>
<rect width="4.83947" height="59.6638" transform="matrix(0.3824 0.923997 -0.848833 0.528662 55.48 616.686)" fill="#268020"/>
<rect width="4.94232" height="61.2225" transform="matrix(0.385055 -0.922894 -0.850748 -0.525573 55.1968 600.868)" fill="#268020"/>
<rect width="4.83947" height="62.6153" transform="matrix(-0.3824 0.923997 0.848833 0.528662 81.8638 617.189)" fill="#268020"/>
<rect width="4.83947" height="62.5654" transform="matrix(-0.3824 -0.923997 0.848833 -0.528662 81.8188 600.565)" fill="#268020"/>
<rect x="58.0972" y="568.097" width="21.566" height="80.9876" fill="white"/>
<rect x="135.336" y="595.094" width="27.2658" height="132.477" transform="rotate(90 135.336 595.094)" fill="white"/>
<rect x="63.1587" y="568.097" width="11.003" height="80.9876" fill="#268020"/>
<rect x="135.336" y="601.303" width="14.5778" height="132.477" transform="rotate(90 135.336 601.303)" fill="#268020"/>
<path d="M202.003 696.11H204.38L204.131 696.3L202.458 697.571L203.082 699.579L203.106 699.658L201.408 698.369L199.708 699.659L199.733 699.579L200.357 697.571L198.683 696.3L198.434 696.11H200.811L201.407 694.191L202.003 696.11Z" fill="#268020" stroke="white" stroke-width="6"/>
<path d="M228.54 640.451H230.856L230.566 640.682L228.982 641.942L229.527 643.777L228.101 642.644L226.676 643.776L227.22 641.942L225.636 640.682L225.346 640.451H227.663L228.101 638.972L228.54 640.451Z" fill="#268020" stroke="white" stroke-width="6"/>
<path d="M202.003 596.321H204.38L204.131 596.511L202.458 597.782L203.082 599.79L203.106 599.869L201.408 598.58L199.708 599.87L199.733 599.79L200.357 597.782L198.683 596.511L198.434 596.321H200.811L201.407 594.402L202.003 596.321Z" fill="#268020" stroke="white" stroke-width="6"/>
<path d="M172.501 641.364H174.527L172.888 642.554L173.513 644.479L171.876 643.29L170.238 644.479L170.864 642.554L169.225 641.364H171.25L171.875 639.438L172.501 641.364Z" fill="#268020" stroke="white" stroke-width="6"/>
<rect x="1.13477" y="558" width="159.024" height="9.75412" fill="white"/>
<rect x="290" y="567.805" width="263.311" height="161.446" fill="#268020"/>
<rect x="369.185" y="567.805" width="39.9771" height="159.524" fill="white"/>
<rect x="553.504" y="627.771" width="39.5927" height="263.311" transform="rotate(90 553.504 627.771)" fill="white"/>
<rect x="378.413" y="567.805" width="20.3729" height="159.524" fill="#268020"/>
<rect x="553.313" y="637.38" width="20.3729" height="263.311" transform="rotate(90 553.313 637.38)" fill="#268020"/>
</svg>
