<svg width="358" height="552" viewBox="0 0 358 552" fill="none" xmlns="http://www.w3.org/2000/svg">
<rect x="1.5" y="2.21875" width="355" height="548" rx="98.5" fill="#268020" stroke="#268020" stroke-width="3"/>
<path d="M93.998 149.369C93.998 149.369 116.998 52.391 168.498 56.8692C219.998 61.3474 213.498 159.369 213.498 159.369" stroke="white" stroke-width="3"/>
<path d="M105.197 156.326L97.4184 174.632L95.3352 174.49L89.8246 155.279L91.6564 155.404L96.4747 173.124L103.401 156.204L105.197 156.326Z" fill="white"/>
<path d="M105.197 175.981L97.4184 194.286L95.3352 194.144L89.8246 174.933L91.6564 175.058L96.4747 192.779L103.401 175.858L105.197 175.981Z" fill="white"/>
<path d="M105.197 195.636L97.4184 213.942L95.3352 213.8L89.8246 194.588L91.6564 194.713L96.4747 212.434L103.401 195.514L105.197 195.636Z" fill="white"/>
<path d="M105.197 215.291L97.4184 233.597L95.3352 233.455L89.8246 214.244L91.6564 214.369L96.4747 232.089L103.401 215.169L105.197 215.291Z" fill="white"/>
<path d="M105.197 234.946L97.4184 253.251L95.3352 253.109L89.8246 233.898L91.6564 234.023L96.4747 251.743L103.401 234.823L105.197 234.946Z" fill="white"/>
<path d="M105.197 254.6L97.4184 272.905L95.3352 272.763L89.8246 253.552L91.6564 253.677L96.4747 271.398L103.401 254.478L105.197 254.6Z" fill="white"/>
<path d="M105.197 274.255L97.4184 292.561L95.3352 292.419L89.8246 273.208L91.6564 273.332L96.4747 291.053L103.401 274.133L105.197 274.255Z" fill="white"/>
<path d="M105.197 293.91L97.4184 312.216L95.3352 312.074L89.8246 292.863L91.6564 292.988L96.4747 310.708L103.401 293.788L105.197 293.91Z" fill="white"/>
<path d="M105.197 313.565L97.4184 331.87L95.3352 331.728L89.8246 312.517L91.6564 312.642L96.4747 330.363L103.401 313.442L105.197 313.565Z" fill="white"/>
<path d="M105.197 333.219L97.4184 351.525L95.3352 351.383L89.8246 332.171L91.6564 332.296L96.4747 350.017L103.401 333.097L105.197 333.219Z" fill="white"/>
<path d="M105.197 352.874L97.4184 371.18L95.3352 371.038L89.8246 351.827L91.6564 351.952L96.4747 369.672L103.401 352.752L105.197 352.874Z" fill="white"/>
<path d="M105.197 372.53L97.4184 390.835L95.3352 390.693L89.8246 371.482L91.6564 371.607L96.4747 389.327L103.401 372.407L105.197 372.53Z" fill="white"/>
<path d="M105.197 392.184L97.4184 410.489L95.3352 410.347L89.8246 391.136L91.6564 391.261L96.4747 408.982L103.401 392.062L105.197 392.184Z" fill="white"/>
<path d="M89.8728 392.184L82.0942 410.489L80.011 410.347L74.5004 391.136L76.3322 391.261L81.1505 408.982L88.0769 392.062L89.8728 392.184Z" fill="white"/>
<path d="M89.8728 371.981L82.0942 390.286L80.011 390.144L74.5004 370.933L76.3322 371.058L81.1505 388.779L88.0769 371.858L89.8728 371.981Z" fill="white"/>
<path d="M74.8728 371.981L67.0942 390.286L65.011 390.144L59.5004 370.933L61.3322 371.058L66.1505 388.779L73.0769 371.858L74.8728 371.981Z" fill="white"/>
<path d="M89.8728 351.779L82.0942 370.084L80.011 369.942L74.5004 350.731L76.3322 350.856L81.1505 368.576L88.0769 351.656L89.8728 351.779Z" fill="white"/>
<path d="M74.8728 351.779L67.0942 370.084L65.011 369.942L59.5004 350.731L61.3322 350.856L66.1505 368.576L73.0769 351.656L74.8728 351.779Z" fill="white"/>
<path d="M89.8728 331.576L82.0942 349.882L80.011 349.74L74.5004 330.529L76.3322 330.654L81.1505 348.374L88.0769 331.454L89.8728 331.576Z" fill="white"/>
<path d="M74.8728 331.576L67.0942 349.882L65.011 349.74L59.5004 330.529L61.3322 330.654L66.1505 348.374L73.0769 331.454L74.8728 331.576Z" fill="white"/>
<path d="M89.8728 311.373L82.0942 329.679L80.011 329.537L74.5004 310.326L76.3322 310.451L81.1505 328.171L88.0769 311.251L89.8728 311.373Z" fill="white"/>
<path d="M74.8728 311.373L67.0942 329.679L65.011 329.537L59.5004 310.326L61.3322 310.451L66.1505 328.171L73.0769 311.251L74.8728 311.373Z" fill="white"/>
<path d="M89.8728 291.17L82.0942 309.476L80.011 309.334L74.5004 290.123L76.3322 290.247L81.1505 307.968L88.0769 291.048L89.8728 291.17Z" fill="white"/>
<path d="M89.8728 270.968L82.0942 289.274L80.011 289.132L74.5004 269.92L76.3322 270.045L81.1505 287.766L88.0769 270.846L89.8728 270.968Z" fill="white"/>
<path d="M120.163 157.346L112.384 175.651L110.301 175.51L104.79 156.298L106.622 156.423L111.441 174.144L118.367 157.224L120.163 157.346Z" fill="white"/>
<path d="M120.163 177.001L112.384 195.307L110.301 195.165L104.79 175.954L106.622 176.079L111.441 193.799L118.367 176.879L120.163 177.001Z" fill="white"/>
<path d="M120.163 196.657L112.384 214.962L110.301 214.82L104.79 195.609L106.622 195.734L111.441 213.454L118.367 196.534L120.163 196.657Z" fill="white"/>
<path d="M120.163 216.311L112.384 234.616L110.301 234.474L104.79 215.263L106.622 215.388L111.441 233.109L118.367 216.188L120.163 216.311Z" fill="white"/>
<path d="M120.163 235.965L112.384 254.271L110.301 254.129L104.79 234.918L106.622 235.042L111.441 252.763L118.367 235.843L120.163 235.965Z" fill="white"/>
<path d="M120.163 255.62L112.384 273.926L110.301 273.784L104.79 254.573L106.622 254.698L111.441 272.418L118.367 255.498L120.163 255.62Z" fill="white"/>
<path d="M120.163 275.276L112.384 293.581L110.301 293.439L104.79 274.228L106.622 274.353L111.441 292.074L118.367 275.153L120.163 275.276Z" fill="white"/>
<path d="M120.163 294.93L112.384 313.235L110.301 313.094L104.79 293.882L106.622 294.007L111.441 311.728L118.367 294.808L120.163 294.93Z" fill="white"/>
<path d="M120.163 314.584L112.384 332.89L110.301 332.748L104.79 313.537L106.622 313.662L111.441 331.382L118.367 314.462L120.163 314.584Z" fill="white"/>
<path d="M120.163 334.24L112.384 352.545L110.301 352.403L104.79 333.192L106.622 333.317L111.441 351.037L118.367 334.117L120.163 334.24Z" fill="white"/>
<path d="M120.163 353.895L112.384 372.2L110.301 372.058L104.79 352.847L106.622 352.972L111.441 370.693L118.367 353.772L120.163 353.895Z" fill="white"/>
<path d="M120.163 373.549L112.384 391.855L110.301 391.713L104.79 372.502L106.622 372.626L111.441 390.347L118.367 373.427L120.163 373.549Z" fill="white"/>
<path d="M120.163 393.203L112.384 411.509L110.301 411.367L104.79 392.156L106.622 392.281L111.441 410.001L118.367 393.081L120.163 393.203Z" fill="white"/>
<path d="M135.128 158.367L127.349 176.672L125.266 176.53L119.755 157.319L121.587 157.444L126.405 175.164L133.332 158.244L135.128 158.367Z" fill="white"/>
<path d="M135.128 178.022L127.349 196.327L125.266 196.185L119.755 176.974L121.587 177.099L126.405 194.82L133.332 177.899L135.128 178.022Z" fill="white"/>
<path d="M135.128 197.676L127.349 215.982L125.266 215.84L119.755 196.628L121.587 196.753L126.405 214.474L133.332 197.554L135.128 197.676Z" fill="white"/>
<path d="M135.128 217.33L127.349 235.636L125.266 235.494L119.755 216.283L121.587 216.408L126.405 234.128L133.332 217.208L135.128 217.33Z" fill="white"/>
<path d="M135.128 236.986L127.349 255.291L125.266 255.149L119.755 235.938L121.587 236.063L126.405 253.783L133.332 236.863L135.128 236.986Z" fill="white"/>
<path d="M135.128 256.641L127.349 274.946L125.266 274.804L119.755 255.593L121.587 255.718L126.405 273.439L133.332 256.519L135.128 256.641Z" fill="white"/>
<path d="M135.128 276.295L127.349 294.601L125.266 294.459L119.755 275.248L121.587 275.372L126.405 293.093L133.332 276.173L135.128 276.295Z" fill="white"/>
<path d="M135.128 295.95L127.349 314.255L125.266 314.113L119.755 294.902L121.587 295.027L126.405 312.747L133.332 295.827L135.128 295.95Z" fill="white"/>
<path d="M135.128 315.605L127.349 333.91L125.266 333.768L119.755 314.557L121.587 314.682L126.405 332.403L133.332 315.482L135.128 315.605Z" fill="white"/>
<path d="M135.128 335.26L127.349 353.566L125.266 353.424L119.755 334.212L121.587 334.337L126.405 352.058L133.332 335.138L135.128 335.26Z" fill="white"/>
<path d="M135.128 354.914L127.349 373.22L125.266 373.078L119.755 353.867L121.587 353.992L126.405 371.712L133.332 354.792L135.128 354.914Z" fill="white"/>
<path d="M135.128 374.569L127.349 392.874L125.266 392.732L119.755 373.521L121.587 373.646L126.405 391.366L133.332 374.446L135.128 374.569Z" fill="white"/>
<path d="M135.128 394.224L127.349 412.529L125.266 412.387L119.755 393.176L121.587 393.301L126.405 411.022L133.332 394.102L135.128 394.224Z" fill="white"/>
<path d="M135.128 413.879L127.349 432.185L125.266 432.043L119.755 412.832L121.587 412.956L126.405 430.677L133.332 413.757L135.128 413.879Z" fill="white"/>
<path d="M150.093 159.387L142.315 177.693L140.232 177.551L134.721 158.339L136.553 158.464L141.371 176.185L148.298 159.265L150.093 159.387Z" fill="white"/>
<path d="M150.093 179.041L142.315 197.347L140.232 197.205L134.721 177.994L136.553 178.119L141.371 195.839L148.298 178.919L150.093 179.041Z" fill="white"/>
<path d="M150.093 198.696L142.315 217.001L140.232 216.859L134.721 197.648L136.553 197.773L141.371 215.493L148.298 198.573L150.093 198.696Z" fill="white"/>
<path d="M150.093 218.351L142.315 236.656L140.232 236.514L134.721 217.303L136.553 217.428L141.371 235.149L148.298 218.229L150.093 218.351Z" fill="white"/>
<path d="M150.093 238.006L142.315 256.312L140.232 256.17L134.721 236.959L136.553 237.083L141.371 254.804L148.298 237.884L150.093 238.006Z" fill="white"/>
<path d="M150.093 257.66L142.315 275.966L140.232 275.824L134.721 256.613L136.553 256.738L141.371 274.458L148.298 257.538L150.093 257.66Z" fill="white"/>
<path d="M150.093 277.315L142.315 295.62L140.232 295.478L134.721 276.267L136.553 276.392L141.371 294.113L148.298 277.192L150.093 277.315Z" fill="white"/>
<path d="M150.093 296.97L142.315 315.276L140.232 315.134L134.721 295.922L136.553 296.047L141.371 313.768L148.298 296.848L150.093 296.97Z" fill="white"/>
<path d="M150.093 316.625L142.315 334.931L140.232 334.789L134.721 315.578L136.553 315.703L141.371 333.423L148.298 316.503L150.093 316.625Z" fill="white"/>
<path d="M150.093 336.28L142.315 354.585L140.232 354.443L134.721 335.232L136.553 335.357L141.371 353.077L148.298 336.157L150.093 336.28Z" fill="white"/>
<path d="M150.093 355.934L142.315 374.239L140.232 374.097L134.721 354.886L136.553 355.011L141.371 372.732L148.298 355.812L150.093 355.934Z" fill="white"/>
<path d="M150.093 375.589L142.315 393.895L140.232 393.753L134.721 374.542L136.553 374.666L141.371 392.387L148.298 375.467L150.093 375.589Z" fill="white"/>
<path d="M150.093 395.244L142.315 413.55L140.232 413.408L134.721 394.197L136.553 394.322L141.371 412.042L148.298 395.122L150.093 395.244Z" fill="white"/>
<path d="M150.093 414.899L142.315 433.204L140.232 433.062L134.721 413.851L136.553 413.976L141.371 431.697L148.298 414.776L150.093 414.899Z" fill="white"/>
<path d="M165.058 160.407L157.28 178.712L155.197 178.57L149.686 159.359L151.518 159.484L156.336 177.204L163.262 160.284L165.058 160.407Z" fill="white"/>
<path d="M165.058 180.061L157.28 198.366L155.197 198.224L149.686 179.013L151.518 179.138L156.336 196.859L163.262 179.938L165.058 180.061Z" fill="white"/>
<path d="M165.058 199.715L157.28 218.021L155.197 217.879L149.686 198.668L151.518 198.792L156.336 216.513L163.262 199.593L165.058 199.715Z" fill="white"/>
<path d="M165.058 219.37L157.28 237.676L155.197 237.534L149.686 218.323L151.518 218.448L156.336 236.168L163.262 219.248L165.058 219.37Z" fill="white"/>
<path d="M165.058 239.026L157.28 257.331L155.197 257.189L149.686 237.978L151.518 238.103L156.336 255.824L163.262 238.903L165.058 239.026Z" fill="white"/>
<path d="M165.058 258.68L157.28 276.985L155.197 276.844L149.686 257.632L151.518 257.757L156.336 275.478L163.262 258.558L165.058 258.68Z" fill="white"/>
<path d="M165.058 278.334L157.28 296.64L155.197 296.498L149.686 277.287L151.518 277.412L156.336 295.132L163.262 278.212L165.058 278.334Z" fill="white"/>
<path d="M165.058 297.99L157.28 316.295L155.197 316.153L149.686 296.942L151.518 297.067L156.336 314.787L163.262 297.867L165.058 297.99Z" fill="white"/>
<path d="M165.058 317.645L157.28 335.95L155.197 335.808L149.686 316.597L151.518 316.722L156.336 334.443L163.262 317.522L165.058 317.645Z" fill="white"/>
<path d="M165.058 337.299L157.28 355.605L155.197 355.463L149.686 336.252L151.518 336.376L156.336 354.097L163.262 337.177L165.058 337.299Z" fill="white"/>
<path d="M165.058 356.953L157.28 375.259L155.197 375.117L149.686 355.906L151.518 356.031L156.336 373.751L163.262 356.831L165.058 356.953Z" fill="white"/>
<path d="M165.058 376.609L157.28 394.914L155.197 394.772L149.686 375.561L151.518 375.686L156.336 393.407L163.262 376.486L165.058 376.609Z" fill="white"/>
<path d="M165.058 396.264L157.28 414.569L155.197 414.427L149.686 395.216L151.518 395.341L156.336 413.062L163.262 396.142L165.058 396.264Z" fill="white"/>
<path d="M165.058 415.918L157.28 434.224L155.197 434.082L149.686 414.871L151.518 414.995L156.336 432.716L163.262 415.796L165.058 415.918Z" fill="white"/>
<path d="M165.058 435.573L157.28 453.878L155.197 453.736L149.686 434.525L151.518 434.65L156.336 452.37L163.262 435.45L165.058 435.573Z" fill="white"/>
<path d="M180.024 161.426L172.246 179.732L170.162 179.59L164.652 160.378L166.484 160.503L171.302 178.224L178.228 161.304L180.024 161.426Z" fill="white"/>
<path d="M180.024 181.08L172.246 199.386L170.162 199.244L164.652 180.033L166.484 180.158L171.302 197.878L178.228 180.958L180.024 181.08Z" fill="white"/>
<path d="M180.024 200.735L172.246 219.04L170.162 218.898L164.652 199.687L166.484 199.812L171.302 217.533L178.228 200.612L180.024 200.735Z" fill="white"/>
<path d="M180.024 220.39L172.246 238.695L170.162 238.553L164.652 219.342L166.484 219.467L171.302 237.188L178.228 220.268L180.024 220.39Z" fill="white"/>
<path d="M180.024 240.045L172.246 258.351L170.162 258.209L164.652 238.998L166.484 239.122L171.302 256.843L178.228 239.923L180.024 240.045Z" fill="white"/>
<path d="M180.024 259.7L172.246 278.005L170.162 277.863L164.652 258.652L166.484 258.777L171.302 276.497L178.228 259.577L180.024 259.7Z" fill="white"/>
<path d="M180.024 279.354L172.246 297.659L170.162 297.517L164.652 278.306L166.484 278.431L171.302 296.152L178.228 279.231L180.024 279.354Z" fill="white"/>
<path d="M180.024 299.009L172.246 317.315L170.162 317.173L164.652 297.961L166.484 298.086L171.302 315.807L178.228 298.887L180.024 299.009Z" fill="white"/>
<path d="M180.024 318.664L172.246 336.97L170.162 336.828L164.652 317.617L166.484 317.742L171.302 335.462L178.228 318.542L180.024 318.664Z" fill="white"/>
<path d="M180.024 338.319L172.246 356.624L170.162 356.482L164.652 337.271L166.484 337.396L171.302 355.116L178.228 338.196L180.024 338.319Z" fill="white"/>
<path d="M180.024 357.973L172.246 376.278L170.162 376.136L164.652 356.925L166.484 357.05L171.302 374.771L178.228 357.851L180.024 357.973Z" fill="white"/>
<path d="M180.024 377.628L172.246 395.934L170.162 395.792L164.652 376.581L166.484 376.705L171.302 394.426L178.228 377.506L180.024 377.628Z" fill="white"/>
<path d="M180.024 397.284L172.246 415.589L170.162 415.447L164.652 396.236L166.484 396.361L171.302 414.081L178.228 397.161L180.024 397.284Z" fill="white"/>
<path d="M180.024 416.938L172.246 435.243L170.162 435.101L164.652 415.89L166.484 416.015L171.302 433.736L178.228 416.815L180.024 416.938Z" fill="white"/>
<path d="M180.024 436.592L172.246 454.898L170.162 454.756L164.652 435.544L166.484 435.669L171.302 453.39L178.228 436.47L180.024 436.592Z" fill="white"/>
<path d="M180.024 456.247L172.246 474.553L170.162 474.411L164.652 455.2L166.484 455.325L171.302 473.045L178.228 456.125L180.024 456.247Z" fill="white"/>
<path d="M194.989 162.446L187.21 180.751L185.127 180.609L179.617 161.398L181.448 161.523L186.267 179.243L193.193 162.323L194.989 162.446Z" fill="white"/>
<path d="M194.989 182.101L187.21 200.406L185.127 200.264L179.617 181.053L181.448 181.178L186.267 198.899L193.193 181.979L194.989 182.101Z" fill="white"/>
<path d="M194.989 201.756L187.21 220.062L185.127 219.92L179.617 200.709L181.448 200.833L186.267 218.554L193.193 201.634L194.989 201.756Z" fill="white"/>
<path d="M194.989 221.41L187.21 239.716L185.127 239.574L179.617 220.363L181.448 220.488L186.267 238.208L193.193 221.288L194.989 221.41Z" fill="white"/>
<path d="M194.989 241.065L187.21 259.37L185.127 259.228L179.617 240.017L181.448 240.142L186.267 257.863L193.193 240.942L194.989 241.065Z" fill="white"/>
<path d="M194.989 260.72L187.21 279.026L185.127 278.884L179.617 259.672L181.448 259.797L186.267 277.518L193.193 260.598L194.989 260.72Z" fill="white"/>
<path d="M194.989 280.375L187.21 298.681L185.127 298.539L179.617 279.328L181.448 279.453L186.267 297.173L193.193 280.253L194.989 280.375Z" fill="white"/>
<path d="M194.989 300.03L187.21 318.335L185.127 318.193L179.617 298.982L181.448 299.107L186.267 316.827L193.193 299.907L194.989 300.03Z" fill="white"/>
<path d="M194.989 319.684L187.21 337.989L185.127 337.847L179.617 318.636L181.448 318.761L186.267 336.482L193.193 319.562L194.989 319.684Z" fill="white"/>
<path d="M194.989 339.339L187.21 357.645L185.127 357.503L179.617 338.292L181.448 338.416L186.267 356.137L193.193 339.217L194.989 339.339Z" fill="white"/>
<path d="M194.989 358.994L187.21 377.3L185.127 377.158L179.617 357.947L181.448 358.072L186.267 375.792L193.193 358.872L194.989 358.994Z" fill="white"/>
<path d="M194.989 378.649L187.21 396.954L185.127 396.812L179.617 377.601L181.448 377.726L186.267 395.447L193.193 378.526L194.989 378.649Z" fill="white"/>
<path d="M194.989 398.303L187.21 416.609L185.127 416.467L179.617 397.255L181.448 397.38L186.267 415.101L193.193 398.181L194.989 398.303Z" fill="white"/>
<path d="M194.989 417.958L187.21 436.264L185.127 436.122L179.617 416.911L181.448 417.036L186.267 434.756L193.193 417.836L194.989 417.958Z" fill="white"/>
<path d="M194.989 437.614L187.21 455.919L185.127 455.777L179.617 436.566L181.448 436.691L186.267 454.411L193.193 437.491L194.989 437.614Z" fill="white"/>
<path d="M194.989 457.268L187.21 475.573L185.127 475.431L179.617 456.22L181.448 456.345L186.267 474.066L193.193 457.145L194.989 457.268Z" fill="white"/>
<path d="M209.955 163.465L202.176 181.771L200.093 181.629L194.582 162.418L196.414 162.542L201.233 180.263L208.159 163.343L209.955 163.465Z" fill="white"/>
<path d="M209.955 183.12L202.176 201.426L200.093 201.284L194.582 182.073L196.414 182.198L201.233 199.918L208.159 182.998L209.955 183.12Z" fill="white"/>
<path d="M209.955 202.776L202.176 221.081L200.093 220.939L194.582 201.728L196.414 201.853L201.233 219.574L208.159 202.653L209.955 202.776Z" fill="white"/>
<path d="M209.955 222.43L202.176 240.735L200.093 240.594L194.582 221.382L196.414 221.507L201.233 239.228L208.159 222.308L209.955 222.43Z" fill="white"/>
<path d="M209.955 242.084L202.176 260.39L200.093 260.248L194.582 241.037L196.414 241.162L201.233 258.882L208.159 241.962L209.955 242.084Z" fill="white"/>
<path d="M209.955 261.74L202.176 280.045L200.093 279.903L194.582 260.692L196.414 260.817L201.233 278.537L208.159 261.617L209.955 261.74Z" fill="white"/>
<path d="M209.955 281.395L202.176 299.7L200.093 299.558L194.582 280.347L196.414 280.472L201.233 298.193L208.159 281.272L209.955 281.395Z" fill="white"/>
<path d="M209.955 301.049L202.176 319.355L200.093 319.213L194.582 300.002L196.414 300.126L201.233 317.847L208.159 300.927L209.955 301.049Z" fill="white"/>
<path d="M209.955 320.703L202.176 339.009L200.093 338.867L194.582 319.656L196.414 319.781L201.233 337.501L208.159 320.581L209.955 320.703Z" fill="white"/>
<path d="M209.955 340.359L202.176 358.664L200.093 358.522L194.582 339.311L196.414 339.436L201.233 357.157L208.159 340.236L209.955 340.359Z" fill="white"/>
<path d="M209.955 360.014L202.176 378.319L200.093 378.177L194.582 358.966L196.414 359.091L201.233 376.812L208.159 359.892L209.955 360.014Z" fill="white"/>
<path d="M209.955 379.668L202.176 397.974L200.093 397.832L194.582 378.621L196.414 378.745L201.233 396.466L208.159 379.546L209.955 379.668Z" fill="white"/>
<path d="M209.955 399.323L202.176 417.628L200.093 417.486L194.582 398.275L196.414 398.4L201.233 416.12L208.159 399.2L209.955 399.323Z" fill="white"/>
<path d="M209.955 418.978L202.176 437.283L200.093 437.141L194.582 417.93L196.414 418.055L201.233 435.776L208.159 418.855L209.955 418.978Z" fill="white"/>
<path d="M209.955 438.633L202.176 456.939L200.093 456.797L194.582 437.586L196.414 437.71L201.233 455.431L208.159 438.511L209.955 438.633Z" fill="white"/>
<path d="M209.955 458.287L202.176 476.593L200.093 476.451L194.582 457.24L196.414 457.365L201.233 475.085L208.159 458.165L209.955 458.287Z" fill="white"/>
<path d="M209.955 477.942L202.176 496.247L200.093 496.105L194.582 476.894L196.414 477.019L201.233 494.74L208.159 477.819L209.955 477.942Z" fill="white"/>
<path d="M224.92 321.724L217.141 340.029L215.058 339.887L209.547 320.676L211.379 320.801L216.197 338.522L223.124 321.602L224.92 321.724Z" fill="white"/>
<path d="M224.92 341.379L217.141 359.685L215.058 359.543L209.547 340.332L211.379 340.456L216.197 358.177L223.124 341.257L224.92 341.379Z" fill="white"/>
<path d="M224.92 361.034L217.141 379.339L215.058 379.197L209.547 359.986L211.379 360.111L216.197 377.831L223.124 360.911L224.92 361.034Z" fill="white"/>
<path d="M224.92 380.688L217.141 398.993L215.058 398.851L209.547 379.64L211.379 379.765L216.197 397.486L223.124 380.565L224.92 380.688Z" fill="white"/>
<path d="M224.92 400.343L217.141 418.649L215.058 418.507L209.547 399.295L211.379 399.42L216.197 417.141L223.124 400.221L224.92 400.343Z" fill="white"/>
<path d="M224.92 419.998L217.141 438.304L215.058 438.162L209.547 418.951L211.379 419.076L216.197 436.796L223.124 419.876L224.92 419.998Z" fill="white"/>
<path d="M224.92 439.653L217.141 457.958L215.058 457.816L209.547 438.605L211.379 438.73L216.197 456.45L223.124 439.53L224.92 439.653Z" fill="white"/>
<path d="M224.92 459.307L217.141 477.612L215.058 477.47L209.547 458.259L211.379 458.384L216.197 476.105L223.124 459.185L224.92 459.307Z" fill="white"/>
<path d="M224.92 478.962L217.141 497.268L215.058 497.126L209.547 477.915L211.379 478.039L216.197 495.76L223.124 478.84L224.92 478.962Z" fill="white"/>
<path d="M239.873 478.962L232.094 497.268L230.011 497.126L224.5 477.915L226.332 478.039L231.15 495.76L238.077 478.84L239.873 478.962Z" fill="white"/>
<path d="M239.873 459.981L232.094 478.286L230.011 478.144L224.5 458.933L226.332 459.058L231.15 476.779L238.077 459.858L239.873 459.981Z" fill="white"/>
<path d="M239.873 441L232.094 459.306L230.011 459.164L224.5 439.953L226.332 440.078L231.15 457.798L238.077 440.878L239.873 441Z" fill="white"/>
<path d="M239.873 422.02L232.094 440.325L230.011 440.183L224.5 420.972L226.332 421.097L231.15 438.818L238.077 421.897L239.873 422.02Z" fill="white"/>
<path d="M239.873 403.038L232.094 421.344L230.011 421.202L224.5 401.991L226.332 402.116L231.15 419.836L238.077 402.916L239.873 403.038Z" fill="white"/>
<path d="M239.873 384.057L232.094 402.362L230.011 402.22L224.5 383.009L226.332 383.134L231.15 400.855L238.077 383.935L239.873 384.057Z" fill="white"/>
<path d="M239.873 365.076L232.094 383.382L230.011 383.24L224.5 364.029L226.332 364.154L231.15 381.874L238.077 364.954L239.873 365.076Z" fill="white"/>
<path d="M239.873 346.096L232.094 364.401L230.011 364.26L224.5 345.048L226.332 345.173L231.15 362.894L238.077 345.974L239.873 346.096Z" fill="white"/>
<path d="M254.825 478.962L247.046 497.268L244.963 497.126L239.453 477.915L241.284 478.039L246.103 495.76L253.029 478.84L254.825 478.962Z" fill="white"/>
<path d="M254.825 459.981L247.046 478.286L244.963 478.144L239.453 458.933L241.284 459.058L246.103 476.779L253.029 459.858L254.825 459.981Z" fill="white"/>
<path d="M254.825 441L247.046 459.306L244.963 459.164L239.453 439.953L241.284 440.078L246.103 457.798L253.029 440.878L254.825 441Z" fill="white"/>
<path d="M254.825 422.02L247.046 440.325L244.963 440.183L239.453 420.972L241.284 421.097L246.103 438.818L253.029 421.897L254.825 422.02Z" fill="white"/>
<path d="M254.825 403.038L247.046 421.344L244.963 421.202L239.453 401.991L241.284 402.116L246.103 419.836L253.029 402.916L254.825 403.038Z" fill="white"/>
<path d="M254.825 384.057L247.046 402.362L244.963 402.22L239.453 383.009L241.284 383.134L246.103 400.855L253.029 383.935L254.825 384.057Z" fill="white"/>
<path d="M254.825 365.076L247.046 383.382L244.963 383.24L239.453 364.029L241.284 364.154L246.103 381.874L253.029 364.954L254.825 365.076Z" fill="white"/>
<path d="M269.778 478.962L261.999 497.268L259.916 497.126L254.406 477.915L256.237 478.039L261.056 495.76L267.982 478.84L269.778 478.962Z" fill="white"/>
<path d="M269.778 459.981L261.999 478.286L259.916 478.144L254.406 458.933L256.237 459.058L261.056 476.779L267.982 459.858L269.778 459.981Z" fill="white"/>
<path d="M269.778 441L261.999 459.306L259.916 459.164L254.406 439.953L256.237 440.078L261.056 457.798L267.982 440.878L269.778 441Z" fill="white"/>
<path d="M269.778 422.02L261.999 440.325L259.916 440.183L254.406 420.972L256.237 421.097L261.056 438.818L267.982 421.897L269.778 422.02Z" fill="white"/>
<path d="M269.778 403.038L261.999 421.344L259.916 421.202L254.406 401.991L256.237 402.116L261.056 419.836L267.982 402.916L269.778 403.038Z" fill="white"/>
<path d="M269.778 384.057L261.999 402.362L259.916 402.22L254.406 383.009L256.237 383.134L261.056 400.855L267.982 383.935L269.778 384.057Z" fill="white"/>
<path d="M284.73 478.962L276.952 497.268L274.868 497.126L269.358 477.915L271.19 478.039L276.008 495.76L282.934 478.84L284.73 478.962Z" fill="white"/>
<path d="M284.73 459.981L276.952 478.286L274.868 478.144L269.358 458.933L271.19 459.058L276.008 476.779L282.934 459.858L284.73 459.981Z" fill="white"/>
<path d="M284.73 441L276.952 459.306L274.868 459.164L269.358 439.953L271.19 440.078L276.008 457.798L282.934 440.878L284.73 441Z" fill="white"/>
<path d="M284.73 422.02L276.952 440.325L274.868 440.183L269.358 420.972L271.19 421.097L276.008 438.818L282.934 421.897L284.73 422.02Z" fill="white"/>
<path d="M284.73 403.038L276.952 421.344L274.868 421.202L269.358 401.991L271.19 402.116L276.008 419.836L282.934 402.916L284.73 403.038Z" fill="white"/>
<path d="M299.683 478.962L291.905 497.268L289.822 497.126L284.311 477.915L286.143 478.039L290.961 495.76L297.887 478.84L299.683 478.962Z" fill="white"/>
<path d="M299.683 459.981L291.905 478.286L289.822 478.144L284.311 458.933L286.143 459.058L290.961 476.779L297.887 459.858L299.683 459.981Z" fill="white"/>
<path d="M299.683 441L291.905 459.306L289.822 459.164L284.311 439.953L286.143 440.078L290.961 457.798L297.887 440.878L299.683 441Z" fill="white"/>
<path d="M299.683 422.02L291.905 440.325L289.822 440.183L284.311 420.972L286.143 421.097L290.961 438.818L297.887 421.897L299.683 422.02Z" fill="white"/>
<path d="M239.873 498.617L232.094 516.923L230.011 516.781L224.5 497.57L226.332 497.695L231.15 515.415L238.077 498.495L239.873 498.617Z" fill="white"/>
<path d="M254.873 498.617L247.094 516.923L245.011 516.781L239.5 497.57L241.332 497.695L246.15 515.415L253.077 498.495L254.873 498.617Z" fill="white"/>
<path d="M269.873 498.617L262.094 516.923L260.011 516.781L254.5 497.57L256.332 497.695L261.15 515.415L268.077 498.495L269.873 498.617Z" fill="white"/>
<circle cx="164.498" cy="64.2188" r="38.5" fill="white"/>
<path d="M178.39 47.7188L166.806 81.1268H163.094L150.998 47.7188H154.262L164.95 78.5667L175.19 47.7188H178.39Z" fill="#268020"/>
</svg>
