<svg width="358" height="552" viewBox="0 0 358 552" fill="none" xmlns="http://www.w3.org/2000/svg">
<rect x="1.5" y="2.21875" width="355" height="548" rx="98.5" fill="#268020" stroke="#268020" stroke-width="3"/>
<path d="M95.998 144.369C95.998 144.369 118.998 47.391 170.498 51.8692C221.998 56.3474 215.498 154.369 215.498 154.369" stroke="white" stroke-width="3"/>
<path d="M107.277 155.794L100.118 174.538L92.5394 174.022L87.8818 154.472L94.8137 154.944L96.7031 169.579L100.776 155.351L107.277 155.794Z" fill="white"/>
<path d="M107.277 175.448L100.118 194.193L92.5394 193.676L87.8818 174.126L94.8137 174.599L96.7031 189.233L100.776 175.005L107.277 175.448Z" fill="white"/>
<path d="M107.277 195.103L100.118 213.848L92.5394 213.331L87.8818 193.782L94.8137 194.254L96.7031 208.888L100.776 194.66L107.277 195.103Z" fill="white"/>
<path d="M107.277 214.759L100.118 233.503L92.5394 232.987L87.8818 213.437L94.8137 213.909L96.7031 228.544L100.776 214.316L107.277 214.759Z" fill="white"/>
<path d="M107.277 234.413L100.118 253.158L92.5394 252.641L87.8818 233.091L94.8137 233.564L96.7031 248.198L100.776 233.97L107.277 234.413Z" fill="white"/>
<path d="M107.277 254.067L100.118 272.812L92.5394 272.295L87.8818 252.745L94.8137 253.218L96.7031 267.852L100.776 253.624L107.277 254.067Z" fill="white"/>
<path d="M107.277 273.722L100.118 292.467L92.5394 291.951L87.8818 272.401L94.8137 272.873L96.7031 287.507L100.776 273.279L107.277 273.722Z" fill="white"/>
<path d="M107.277 293.378L100.118 312.122L92.5394 311.606L87.8818 292.056L94.8137 292.528L96.7031 307.163L100.776 292.935L107.277 293.378Z" fill="white"/>
<path d="M107.277 313.032L100.118 331.777L92.5394 331.26L87.8818 311.71L94.8137 312.183L96.7031 326.817L100.776 312.589L107.277 313.032Z" fill="white"/>
<path d="M107.277 332.686L100.118 351.431L92.5394 350.914L87.8818 331.365L94.8137 331.837L96.7031 346.471L100.776 332.243L107.277 332.686Z" fill="white"/>
<path d="M107.277 352.342L100.118 371.086L92.5394 370.57L87.8818 351.02L94.8137 351.492L96.7031 366.127L100.776 351.899L107.277 352.342Z" fill="white"/>
<path d="M107.277 371.997L100.118 390.741L92.5394 390.225L87.8818 370.675L94.8137 371.148L96.7031 385.782L100.776 371.554L107.277 371.997Z" fill="white"/>
<path d="M107.277 391.651L100.118 410.396L92.5394 409.879L87.8818 390.329L94.8137 390.802L96.7031 405.436L100.776 391.208L107.277 391.651Z" fill="white"/>
<path d="M91.9526 391.651L84.7936 410.396L77.2152 409.879L72.5576 390.329L79.4895 390.802L81.3789 405.436L85.4517 391.208L91.9526 391.651Z" fill="white"/>
<path d="M91.9526 371.448L84.7936 390.193L77.2152 389.676L72.5576 370.126L79.4895 370.599L81.3789 385.233L85.4517 371.005L91.9526 371.448Z" fill="white"/>
<path d="M76.9526 371.448L69.7936 390.193L62.2152 389.676L57.5576 370.126L64.4895 370.599L66.3789 385.233L70.4517 371.005L76.9526 371.448Z" fill="white"/>
<path d="M91.9526 351.246L84.7936 369.991L77.2152 369.474L72.5576 349.924L79.4895 350.397L81.3789 365.031L85.4517 350.803L91.9526 351.246Z" fill="white"/>
<path d="M76.9526 351.246L69.7936 369.991L62.2152 369.474L57.5576 349.924L64.4895 350.397L66.3789 365.031L70.4517 350.803L76.9526 351.246Z" fill="white"/>
<path d="M91.9526 331.044L84.7936 349.788L77.2152 349.272L72.5576 329.722L79.4895 330.194L81.3789 344.829L85.4517 330.601L91.9526 331.044Z" fill="white"/>
<path d="M76.9526 331.044L69.7936 349.788L62.2152 349.272L57.5576 329.722L64.4895 330.194L66.3789 344.829L70.4517 330.601L76.9526 331.044Z" fill="white"/>
<path d="M91.9526 310.841L84.7936 329.585L77.2152 329.069L72.5576 309.519L79.4895 309.991L81.3789 324.626L85.4517 310.398L91.9526 310.841Z" fill="white"/>
<path d="M76.9526 310.841L69.7936 329.585L62.2152 329.069L57.5576 309.519L64.4895 309.991L66.3789 324.626L70.4517 310.398L76.9526 310.841Z" fill="white"/>
<path d="M91.9526 290.637L84.7936 309.382L77.2152 308.866L72.5576 289.316L79.4895 289.788L81.3789 304.422L85.4517 290.194L91.9526 290.637Z" fill="white"/>
<path d="M91.9526 270.435L84.7936 289.18L77.2152 288.664L72.5576 269.114L79.4895 269.586L81.3789 284.22L85.4517 269.992L91.9526 270.435Z" fill="white"/>
<path d="M122.243 156.813L115.084 175.558L107.505 175.041L102.848 155.492L109.78 155.964L111.669 170.598L115.742 156.37L122.243 156.813Z" fill="white"/>
<path d="M122.243 176.469L115.084 195.213L107.505 194.697L102.848 175.147L109.78 175.619L111.669 190.254L115.742 176.026L122.243 176.469Z" fill="white"/>
<path d="M122.243 196.124L115.084 214.868L107.505 214.352L102.848 194.802L109.78 195.274L111.669 209.909L115.742 195.681L122.243 196.124Z" fill="white"/>
<path d="M122.243 215.778L115.084 234.523L107.505 234.006L102.848 214.456L109.78 214.929L111.669 229.563L115.742 215.335L122.243 215.778Z" fill="white"/>
<path d="M122.243 235.432L115.084 254.177L107.505 253.661L102.848 234.111L109.78 234.583L111.669 249.217L115.742 234.989L122.243 235.432Z" fill="white"/>
<path d="M122.243 255.088L115.084 273.832L107.505 273.316L102.848 253.766L109.78 254.238L111.669 268.873L115.742 254.645L122.243 255.088Z" fill="white"/>
<path d="M122.243 274.743L115.084 293.488L107.505 292.971L102.848 273.421L109.78 273.894L111.669 288.528L115.742 274.3L122.243 274.743Z" fill="white"/>
<path d="M122.243 294.397L115.084 313.142L107.505 312.625L102.848 293.076L109.78 293.548L111.669 308.182L115.742 293.954L122.243 294.397Z" fill="white"/>
<path d="M122.243 314.052L115.084 332.796L107.505 332.28L102.848 312.73L109.78 313.202L111.669 327.837L115.742 313.609L122.243 314.052Z" fill="white"/>
<path d="M122.243 333.707L115.084 352.451L107.505 351.935L102.848 332.385L109.78 332.857L111.669 347.492L115.742 333.264L122.243 333.707Z" fill="white"/>
<path d="M122.243 353.362L115.084 372.107L107.505 371.59L102.848 352.04L109.78 352.513L111.669 367.147L115.742 352.919L122.243 353.362Z" fill="white"/>
<path d="M122.243 373.016L115.084 391.761L107.505 391.245L102.848 371.695L109.78 372.167L111.669 386.801L115.742 372.573L122.243 373.016Z" fill="white"/>
<path d="M122.243 392.671L115.084 411.415L107.505 410.899L102.848 391.349L109.78 391.821L111.669 406.456L115.742 392.228L122.243 392.671Z" fill="white"/>
<path d="M137.207 157.834L130.048 176.578L122.47 176.062L117.812 156.512L124.744 156.984L126.634 171.619L130.707 157.391L137.207 157.834Z" fill="white"/>
<path d="M137.207 177.489L130.048 196.234L122.47 195.717L117.812 176.167L124.744 176.64L126.634 191.274L130.707 177.046L137.207 177.489Z" fill="white"/>
<path d="M137.207 197.143L130.048 215.888L122.47 215.372L117.812 195.822L124.744 196.294L126.634 210.928L130.707 196.7L137.207 197.143Z" fill="white"/>
<path d="M137.207 216.798L130.048 235.542L122.47 235.026L117.812 215.476L124.744 215.948L126.634 230.583L130.707 216.355L137.207 216.798Z" fill="white"/>
<path d="M137.207 236.453L130.048 255.198L122.47 254.681L117.812 235.131L124.744 235.604L126.634 250.238L130.707 236.01L137.207 236.453Z" fill="white"/>
<path d="M137.207 256.108L130.048 274.853L122.47 274.336L117.812 254.786L124.744 255.259L126.634 269.893L130.707 255.665L137.207 256.108Z" fill="white"/>
<path d="M137.207 275.762L130.048 294.507L122.47 293.991L117.812 274.441L124.744 274.913L126.634 289.547L130.707 275.319L137.207 275.762Z" fill="white"/>
<path d="M137.207 295.417L130.048 314.161L122.47 313.645L117.812 294.095L124.744 294.567L126.634 309.202L130.707 294.974L137.207 295.417Z" fill="white"/>
<path d="M137.207 315.072L130.048 333.817L122.47 333.3L117.812 313.75L124.744 314.223L126.634 328.857L130.707 314.629L137.207 315.072Z" fill="white"/>
<path d="M137.207 334.727L130.048 353.472L122.47 352.956L117.812 333.406L124.744 333.878L126.634 348.512L130.707 334.284L137.207 334.727Z" fill="white"/>
<path d="M137.207 354.382L130.048 373.126L122.47 372.61L117.812 353.06L124.744 353.532L126.634 368.167L130.707 353.939L137.207 354.382Z" fill="white"/>
<path d="M137.207 374.036L130.048 392.781L122.47 392.264L117.812 372.714L124.744 373.187L126.634 387.821L130.707 373.593L137.207 374.036Z" fill="white"/>
<path d="M137.207 393.691L130.048 412.436L122.47 411.919L117.812 392.369L124.744 392.842L126.634 407.476L130.707 393.248L137.207 393.691Z" fill="white"/>
<path d="M137.207 413.346L130.048 432.091L122.47 431.575L117.812 412.025L124.744 412.497L126.634 427.131L130.707 412.903L137.207 413.346Z" fill="white"/>
<path d="M152.173 158.854L145.014 177.599L137.436 177.082L132.778 157.533L139.71 158.005L141.6 172.639L145.672 158.411L152.173 158.854Z" fill="white"/>
<path d="M152.173 178.509L145.014 197.253L137.436 196.737L132.778 177.187L139.71 177.659L141.6 192.294L145.672 178.066L152.173 178.509Z" fill="white"/>
<path d="M152.173 198.163L145.014 216.908L137.436 216.391L132.778 196.841L139.71 197.314L141.6 211.948L145.672 197.72L152.173 198.163Z" fill="white"/>
<path d="M152.173 217.818L145.014 236.563L137.436 236.046L132.778 216.496L139.71 216.969L141.6 231.603L145.672 217.375L152.173 217.818Z" fill="white"/>
<path d="M152.173 237.473L145.014 256.218L137.436 255.702L132.778 236.152L139.71 236.624L141.6 251.258L145.672 237.03L152.173 237.473Z" fill="white"/>
<path d="M152.173 257.128L145.014 275.872L137.436 275.356L132.778 255.806L139.71 256.278L141.6 270.913L145.672 256.685L152.173 257.128Z" fill="white"/>
<path d="M152.173 276.782L145.014 295.527L137.436 295.01L132.778 275.46L139.71 275.933L141.6 290.567L145.672 276.339L152.173 276.782Z" fill="white"/>
<path d="M152.173 296.437L145.014 315.182L137.436 314.665L132.778 295.116L139.71 295.588L141.6 310.222L145.672 295.994L152.173 296.437Z" fill="white"/>
<path d="M152.173 316.093L145.014 334.837L137.436 334.321L132.778 314.771L139.71 315.243L141.6 329.878L145.672 315.65L152.173 316.093Z" fill="white"/>
<path d="M152.173 335.747L145.014 354.491L137.436 353.975L132.778 334.425L139.71 334.898L141.6 349.532L145.672 335.304L152.173 335.747Z" fill="white"/>
<path d="M152.173 355.401L145.014 374.146L137.436 373.629L132.778 354.079L139.71 354.552L141.6 369.186L145.672 354.958L152.173 355.401Z" fill="white"/>
<path d="M152.173 375.056L145.014 393.801L137.436 393.285L132.778 373.735L139.71 374.207L141.6 388.841L145.672 374.613L152.173 375.056Z" fill="white"/>
<path d="M152.173 394.712L145.014 413.456L137.436 412.94L132.778 393.39L139.71 393.862L141.6 408.497L145.672 394.269L152.173 394.712Z" fill="white"/>
<path d="M152.173 414.366L145.014 433.111L137.436 432.594L132.778 413.044L139.71 413.517L141.6 428.151L145.672 413.923L152.173 414.366Z" fill="white"/>
<path d="M167.138 159.874L159.979 178.618L152.401 178.102L147.743 158.552L154.675 159.024L156.564 173.659L160.637 159.431L167.138 159.874Z" fill="white"/>
<path d="M167.138 179.528L159.979 198.273L152.401 197.756L147.743 178.206L154.675 178.679L156.564 193.313L160.637 179.085L167.138 179.528Z" fill="white"/>
<path d="M167.138 199.182L159.979 217.927L152.401 217.411L147.743 197.861L154.675 198.333L156.564 212.967L160.637 198.739L167.138 199.182Z" fill="white"/>
<path d="M167.138 218.838L159.979 237.582L152.401 237.066L147.743 217.516L154.675 217.988L156.564 232.623L160.637 218.395L167.138 218.838Z" fill="white"/>
<path d="M167.138 238.493L159.979 257.238L152.401 256.721L147.743 237.171L154.675 237.644L156.564 252.278L160.637 238.05L167.138 238.493Z" fill="white"/>
<path d="M167.138 258.147L159.979 276.892L152.401 276.375L147.743 256.826L154.675 257.298L156.564 271.932L160.637 257.704L167.138 258.147Z" fill="white"/>
<path d="M167.138 277.802L159.979 296.546L152.401 296.03L147.743 276.48L154.675 276.952L156.564 291.587L160.637 277.359L167.138 277.802Z" fill="white"/>
<path d="M167.138 297.457L159.979 316.201L152.401 315.685L147.743 296.135L154.675 296.607L156.564 311.242L160.637 297.014L167.138 297.457Z" fill="white"/>
<path d="M167.138 317.112L159.979 335.857L152.401 335.34L147.743 315.79L154.675 316.263L156.564 330.897L160.637 316.669L167.138 317.112Z" fill="white"/>
<path d="M167.138 336.766L159.979 355.511L152.401 354.995L147.743 335.445L154.675 335.917L156.564 350.551L160.637 336.323L167.138 336.766Z" fill="white"/>
<path d="M167.138 356.421L159.979 375.165L152.401 374.649L147.743 355.099L154.675 355.571L156.564 370.206L160.637 355.978L167.138 356.421Z" fill="white"/>
<path d="M167.138 376.076L159.979 394.821L152.401 394.304L147.743 374.754L154.675 375.227L156.564 389.861L160.637 375.633L167.138 376.076Z" fill="white"/>
<path d="M167.138 395.731L159.979 414.476L152.401 413.959L147.743 394.409L154.675 394.882L156.564 409.516L160.637 395.288L167.138 395.731Z" fill="white"/>
<path d="M167.138 415.386L159.979 434.13L152.401 433.614L147.743 414.064L154.675 414.536L156.564 429.171L160.637 414.943L167.138 415.386Z" fill="white"/>
<path d="M167.138 435.04L159.979 453.784L152.401 453.268L147.743 433.718L154.675 434.19L156.564 448.825L160.637 434.597L167.138 435.04Z" fill="white"/>
<path d="M182.104 160.893L174.945 179.638L167.367 179.122L162.709 159.572L169.641 160.044L171.53 174.678L175.603 160.45L182.104 160.893Z" fill="white"/>
<path d="M182.104 180.548L174.945 199.292L167.367 198.776L162.709 179.226L169.641 179.698L171.53 194.333L175.603 180.105L182.104 180.548Z" fill="white"/>
<path d="M182.104 200.202L174.945 218.947L167.367 218.43L162.709 198.88L169.641 199.353L171.53 213.987L175.603 199.759L182.104 200.202Z" fill="white"/>
<path d="M182.104 219.857L174.945 238.602L167.367 238.085L162.709 218.535L169.641 219.008L171.53 233.642L175.603 219.414L182.104 219.857Z" fill="white"/>
<path d="M182.104 239.512L174.945 258.257L167.367 257.741L162.709 238.191L169.641 238.663L171.53 253.297L175.603 239.069L182.104 239.512Z" fill="white"/>
<path d="M182.104 259.167L174.945 277.911L167.367 277.395L162.709 257.845L169.641 258.317L171.53 272.952L175.603 258.724L182.104 259.167Z" fill="white"/>
<path d="M182.104 278.821L174.945 297.566L167.367 297.049L162.709 277.499L169.641 277.972L171.53 292.606L175.603 278.378L182.104 278.821Z" fill="white"/>
<path d="M182.104 298.476L174.945 317.221L167.367 316.705L162.709 297.155L169.641 297.627L171.53 312.261L175.603 298.033L182.104 298.476Z" fill="white"/>
<path d="M182.104 318.132L174.945 336.876L167.367 336.36L162.709 316.81L169.641 317.282L171.53 331.917L175.603 317.689L182.104 318.132Z" fill="white"/>
<path d="M182.104 337.786L174.945 356.531L167.367 356.014L162.709 336.464L169.641 336.937L171.53 351.571L175.603 337.343L182.104 337.786Z" fill="white"/>
<path d="M182.104 357.44L174.945 376.185L167.367 375.668L162.709 356.118L169.641 356.591L171.53 371.225L175.603 356.997L182.104 357.44Z" fill="white"/>
<path d="M182.104 377.095L174.945 395.84L167.367 395.324L162.709 375.774L169.641 376.246L171.53 390.88L175.603 376.652L182.104 377.095Z" fill="white"/>
<path d="M182.104 396.751L174.945 415.495L167.367 414.979L162.709 395.429L169.641 395.901L171.53 410.536L175.603 396.308L182.104 396.751Z" fill="white"/>
<path d="M182.104 416.405L174.945 435.15L167.367 434.633L162.709 415.083L169.641 415.556L171.53 430.19L175.603 415.962L182.104 416.405Z" fill="white"/>
<path d="M182.104 436.059L174.945 454.804L167.367 454.288L162.709 434.738L169.641 435.21L171.53 449.844L175.603 435.616L182.104 436.059Z" fill="white"/>
<path d="M182.104 455.715L174.945 474.459L167.367 473.943L162.709 454.393L169.641 454.865L171.53 469.5L175.603 455.272L182.104 455.715Z" fill="white"/>
<path d="M197.069 161.913L189.91 180.658L182.331 180.141L177.674 160.591L184.606 161.064L186.495 175.698L190.568 161.47L197.069 161.913Z" fill="white"/>
<path d="M197.069 181.568L189.91 200.313L182.331 199.796L177.674 180.246L184.606 180.719L186.495 195.353L190.568 181.125L197.069 181.568Z" fill="white"/>
<path d="M197.069 201.223L189.91 219.968L182.331 219.452L177.674 199.902L184.606 200.374L186.495 215.008L190.568 200.78L197.069 201.223Z" fill="white"/>
<path d="M197.069 220.878L189.91 239.622L182.331 239.106L177.674 219.556L184.606 220.028L186.495 234.663L190.568 220.435L197.069 220.878Z" fill="white"/>
<path d="M197.069 240.532L189.91 259.277L182.331 258.76L177.674 239.21L184.606 239.683L186.495 254.317L190.568 240.089L197.069 240.532Z" fill="white"/>
<path d="M197.069 260.187L189.91 278.932L182.331 278.415L177.674 258.866L184.606 259.338L186.495 273.972L190.568 259.744L197.069 260.187Z" fill="white"/>
<path d="M197.069 279.843L189.91 298.587L182.331 298.071L177.674 278.521L184.606 278.993L186.495 293.628L190.568 279.4L197.069 279.843Z" fill="white"/>
<path d="M197.069 299.497L189.91 318.241L182.331 317.725L177.674 298.175L184.606 298.648L186.495 313.282L190.568 299.054L197.069 299.497Z" fill="white"/>
<path d="M197.069 319.151L189.91 337.896L182.331 337.379L177.674 317.829L184.606 318.302L186.495 332.936L190.568 318.708L197.069 319.151Z" fill="white"/>
<path d="M197.069 338.806L189.91 357.551L182.331 357.035L177.674 337.485L184.606 337.957L186.495 352.591L190.568 338.363L197.069 338.806Z" fill="white"/>
<path d="M197.069 358.462L189.91 377.206L182.331 376.69L177.674 357.14L184.606 357.612L186.495 372.247L190.568 358.019L197.069 358.462Z" fill="white"/>
<path d="M197.069 378.116L189.91 396.861L182.331 396.344L177.674 376.794L184.606 377.267L186.495 391.901L190.568 377.673L197.069 378.116Z" fill="white"/>
<path d="M197.069 397.77L189.91 416.515L182.331 415.998L177.674 396.449L184.606 396.921L186.495 411.555L190.568 397.327L197.069 397.77Z" fill="white"/>
<path d="M197.069 417.426L189.91 436.17L182.331 435.654L177.674 416.104L184.606 416.576L186.495 431.211L190.568 416.983L197.069 417.426Z" fill="white"/>
<path d="M197.069 437.081L189.91 455.825L182.331 455.309L177.674 435.759L184.606 436.232L186.495 450.866L190.568 436.638L197.069 437.081Z" fill="white"/>
<path d="M197.069 456.735L189.91 475.48L182.331 474.963L177.674 455.413L184.606 455.886L186.495 470.52L190.568 456.292L197.069 456.735Z" fill="white"/>
<path d="M212.035 162.932L204.876 181.677L197.297 181.161L192.64 161.611L199.572 162.083L201.461 176.717L205.534 162.489L212.035 162.932Z" fill="white"/>
<path d="M212.035 182.588L204.876 201.332L197.297 200.816L192.64 181.266L199.572 181.738L201.461 196.373L205.534 182.145L212.035 182.588Z" fill="white"/>
<path d="M212.035 202.243L204.876 220.988L197.297 220.471L192.64 200.921L199.572 201.394L201.461 216.028L205.534 201.8L212.035 202.243Z" fill="white"/>
<path d="M212.035 221.897L204.876 240.642L197.297 240.125L192.64 220.576L199.572 221.048L201.461 235.682L205.534 221.454L212.035 221.897Z" fill="white"/>
<path d="M212.035 241.552L204.876 260.296L197.297 259.78L192.64 240.23L199.572 240.702L201.461 255.337L205.534 241.109L212.035 241.552Z" fill="white"/>
<path d="M212.035 261.207L204.876 279.951L197.297 279.435L192.64 259.885L199.572 260.357L201.461 274.992L205.534 260.764L212.035 261.207Z" fill="white"/>
<path d="M212.035 280.862L204.876 299.607L197.297 299.09L192.64 279.54L199.572 280.013L201.461 294.647L205.534 280.419L212.035 280.862Z" fill="white"/>
<path d="M212.035 300.516L204.876 319.261L197.297 318.745L192.64 299.195L199.572 299.667L201.461 314.301L205.534 300.073L212.035 300.516Z" fill="white"/>
<path d="M212.035 320.171L204.876 338.915L197.297 338.399L192.64 318.849L199.572 319.321L201.461 333.956L205.534 319.728L212.035 320.171Z" fill="white"/>
<path d="M212.035 339.826L204.876 358.571L197.297 358.054L192.64 338.504L199.572 338.977L201.461 353.611L205.534 339.383L212.035 339.826Z" fill="white"/>
<path d="M212.035 359.481L204.876 378.226L197.297 377.709L192.64 358.159L199.572 358.632L201.461 373.266L205.534 359.038L212.035 359.481Z" fill="white"/>
<path d="M212.035 379.136L204.876 397.88L197.297 397.364L192.64 377.814L199.572 378.286L201.461 392.921L205.534 378.693L212.035 379.136Z" fill="white"/>
<path d="M212.035 398.79L204.876 417.534L197.297 417.018L192.64 397.468L199.572 397.94L201.461 412.575L205.534 398.347L212.035 398.79Z" fill="white"/>
<path d="M212.035 418.445L204.876 437.19L197.297 436.673L192.64 417.123L199.572 417.596L201.461 432.23L205.534 418.002L212.035 418.445Z" fill="white"/>
<path d="M212.035 438.1L204.876 456.845L197.297 456.329L192.64 436.779L199.572 437.251L201.461 451.885L205.534 437.657L212.035 438.1Z" fill="white"/>
<path d="M212.035 457.755L204.876 476.499L197.297 475.983L192.64 456.433L199.572 456.905L201.461 471.54L205.534 457.312L212.035 457.755Z" fill="white"/>
<path d="M212.035 477.409L204.876 496.154L197.297 495.637L192.64 476.087L199.572 476.56L201.461 491.194L205.534 476.966L212.035 477.409Z" fill="white"/>
<path d="M226.999 321.191L219.84 339.936L212.262 339.419L207.604 319.869L214.536 320.342L216.426 334.976L220.499 320.748L226.999 321.191Z" fill="white"/>
<path d="M226.999 340.846L219.84 359.591L212.262 359.075L207.604 339.525L214.536 339.997L216.426 354.631L220.499 340.403L226.999 340.846Z" fill="white"/>
<path d="M226.999 360.501L219.84 379.245L212.262 378.729L207.604 359.179L214.536 359.651L216.426 374.286L220.499 360.058L226.999 360.501Z" fill="white"/>
<path d="M226.999 380.155L219.84 398.9L212.262 398.383L207.604 378.833L214.536 379.306L216.426 393.94L220.499 379.712L226.999 380.155Z" fill="white"/>
<path d="M226.999 399.81L219.84 418.555L212.262 418.039L207.604 398.489L214.536 398.961L216.426 413.595L220.499 399.367L226.999 399.81Z" fill="white"/>
<path d="M226.999 419.466L219.84 438.21L212.262 437.694L207.604 418.144L214.536 418.616L216.426 433.251L220.499 419.023L226.999 419.466Z" fill="white"/>
<path d="M226.999 439.12L219.84 457.865L212.262 457.348L207.604 437.798L214.536 438.271L216.426 452.905L220.499 438.677L226.999 439.12Z" fill="white"/>
<path d="M226.999 458.774L219.84 477.519L212.262 477.002L207.604 457.452L214.536 457.925L216.426 472.559L220.499 458.331L226.999 458.774Z" fill="white"/>
<path d="M226.999 478.429L219.84 497.174L212.262 496.658L207.604 477.108L214.536 477.58L216.426 492.214L220.499 477.986L226.999 478.429Z" fill="white"/>
<path d="M241.953 478.429L234.794 497.174L227.215 496.658L222.558 477.108L229.49 477.58L231.379 492.214L235.452 477.986L241.953 478.429Z" fill="white"/>
<path d="M241.953 459.448L234.794 478.193L227.215 477.676L222.558 458.126L229.49 458.599L231.379 473.233L235.452 459.005L241.953 459.448Z" fill="white"/>
<path d="M241.953 440.468L234.794 459.212L227.215 458.696L222.558 439.146L229.49 439.618L231.379 454.253L235.452 440.025L241.953 440.468Z" fill="white"/>
<path d="M241.953 421.487L234.794 440.232L227.215 439.715L222.558 420.165L229.49 420.638L231.379 435.272L235.452 421.044L241.953 421.487Z" fill="white"/>
<path d="M241.953 402.506L234.794 421.25L227.215 420.734L222.558 401.184L229.49 401.656L231.379 416.291L235.452 402.063L241.953 402.506Z" fill="white"/>
<path d="M241.953 383.524L234.794 402.269L227.215 401.752L222.558 382.202L229.49 382.675L231.379 397.309L235.452 383.081L241.953 383.524Z" fill="white"/>
<path d="M241.953 364.544L234.794 383.288L227.215 382.772L222.558 363.222L229.49 363.694L231.379 378.329L235.452 364.101L241.953 364.544Z" fill="white"/>
<path d="M241.953 345.563L234.794 364.308L227.215 363.791L222.558 344.242L229.49 344.714L231.379 359.348L235.452 345.12L241.953 345.563Z" fill="white"/>
<path d="M256.905 478.429L249.746 497.174L242.167 496.658L237.51 477.108L244.442 477.58L246.331 492.214L250.404 477.986L256.905 478.429Z" fill="white"/>
<path d="M256.905 459.448L249.746 478.193L242.167 477.676L237.51 458.126L244.442 458.599L246.331 473.233L250.404 459.005L256.905 459.448Z" fill="white"/>
<path d="M256.905 440.468L249.746 459.212L242.167 458.696L237.51 439.146L244.442 439.618L246.331 454.253L250.404 440.025L256.905 440.468Z" fill="white"/>
<path d="M256.905 421.487L249.746 440.232L242.167 439.715L237.51 420.165L244.442 420.638L246.331 435.272L250.404 421.044L256.905 421.487Z" fill="white"/>
<path d="M256.905 402.506L249.746 421.25L242.167 420.734L237.51 401.184L244.442 401.656L246.331 416.291L250.404 402.063L256.905 402.506Z" fill="white"/>
<path d="M256.905 383.524L249.746 402.269L242.167 401.752L237.51 382.202L244.442 382.675L246.331 397.309L250.404 383.081L256.905 383.524Z" fill="white"/>
<path d="M256.905 364.544L249.746 383.288L242.167 382.772L237.51 363.222L244.442 363.694L246.331 378.329L250.404 364.101L256.905 364.544Z" fill="white"/>
<path d="M271.858 478.429L264.699 497.174L257.12 496.658L252.463 477.108L259.395 477.58L261.284 492.214L265.357 477.986L271.858 478.429Z" fill="white"/>
<path d="M271.858 459.448L264.699 478.193L257.12 477.676L252.463 458.126L259.395 458.599L261.284 473.233L265.357 459.005L271.858 459.448Z" fill="white"/>
<path d="M271.858 440.468L264.699 459.212L257.12 458.696L252.463 439.146L259.395 439.618L261.284 454.253L265.357 440.025L271.858 440.468Z" fill="white"/>
<path d="M271.858 421.487L264.699 440.232L257.12 439.715L252.463 420.165L259.395 420.638L261.284 435.272L265.357 421.044L271.858 421.487Z" fill="white"/>
<path d="M271.858 402.506L264.699 421.25L257.12 420.734L252.463 401.184L259.395 401.656L261.284 416.291L265.357 402.063L271.858 402.506Z" fill="white"/>
<path d="M271.858 383.524L264.699 402.269L257.12 401.752L252.463 382.202L259.395 382.675L261.284 397.309L265.357 383.081L271.858 383.524Z" fill="white"/>
<path d="M286.81 478.429L279.651 497.174L272.073 496.658L267.415 477.108L274.347 477.58L276.236 492.214L280.309 477.986L286.81 478.429Z" fill="white"/>
<path d="M286.81 459.448L279.651 478.193L272.073 477.676L267.415 458.126L274.347 458.599L276.236 473.233L280.309 459.005L286.81 459.448Z" fill="white"/>
<path d="M286.81 440.468L279.651 459.212L272.073 458.696L267.415 439.146L274.347 439.618L276.236 454.253L280.309 440.025L286.81 440.468Z" fill="white"/>
<path d="M286.81 421.487L279.651 440.232L272.073 439.715L267.415 420.165L274.347 420.638L276.236 435.272L280.309 421.044L286.81 421.487Z" fill="white"/>
<path d="M286.81 402.506L279.651 421.25L272.073 420.734L267.415 401.184L274.347 401.656L276.236 416.291L280.309 402.063L286.81 402.506Z" fill="white"/>
<path d="M301.763 478.429L294.604 497.174L287.026 496.658L282.368 477.108L289.3 477.58L291.189 492.214L295.262 477.986L301.763 478.429Z" fill="white"/>
<path d="M301.763 459.448L294.604 478.193L287.026 477.676L282.368 458.126L289.3 458.599L291.189 473.233L295.262 459.005L301.763 459.448Z" fill="white"/>
<path d="M301.763 440.468L294.604 459.212L287.026 458.696L282.368 439.146L289.3 439.618L291.189 454.253L295.262 440.025L301.763 440.468Z" fill="white"/>
<path d="M301.763 421.487L294.604 440.232L287.026 439.715L282.368 420.165L289.3 420.638L291.189 435.272L295.262 421.044L301.763 421.487Z" fill="white"/>
<path d="M241.953 498.085L234.794 516.829L227.215 516.313L222.558 496.763L229.49 497.235L231.379 511.87L235.452 497.642L241.953 498.085Z" fill="white"/>
<path d="M256.953 498.085L249.794 516.829L242.215 516.313L237.558 496.763L244.49 497.235L246.379 511.87L250.452 497.642L256.953 498.085Z" fill="white"/>
<path d="M271.953 498.085L264.794 516.829L257.215 516.313L252.558 496.763L259.49 497.235L261.379 511.87L265.452 497.642L271.953 498.085Z" fill="white"/>
<circle cx="166.498" cy="64.2188" r="38.5" fill="white"/>
<path d="M183.558 46.7188L173.126 80.8308H159.622L148.998 46.7188H161.35L166.47 72.4468L171.974 46.7188H183.558Z" fill="#268020"/>
</svg>
