<svg width="554" height="173" viewBox="0 0 554 173" fill="none" xmlns="http://www.w3.org/2000/svg">
<rect x="2.85938" y="10.0967" width="264.073" height="161.975" fill="#268020"/>
<rect width="15.8825" height="65.7407" transform="matrix(0.374824 0.927096 -0.854299 0.519782 57.9668 48.5312)" fill="white"/>
<rect width="16.2193" height="67.4568" transform="matrix(0.377444 -0.926032 -0.856162 -0.516707 57.7539 53.2246)" fill="white"/>
<rect width="15.8825" height="65.7407" transform="matrix(-0.374824 0.927096 0.854299 0.519782 81.8721 50.5928)" fill="white"/>
<rect width="15.8825" height="65.7407" transform="matrix(-0.374824 -0.927096 0.854299 -0.519782 81.8301 51.165)" fill="white"/>
<rect width="4.83947" height="59.6638" transform="matrix(0.3824 0.923997 -0.848833 0.528662 55.4795 58.6855)" fill="#268020"/>
<rect width="4.94232" height="61.2225" transform="matrix(0.385055 -0.922894 -0.850748 -0.525573 55.1963 42.8682)" fill="#268020"/>
<rect width="4.83947" height="62.6153" transform="matrix(-0.3824 0.923997 0.848833 0.528662 81.8633 59.1895)" fill="#268020"/>
<rect width="4.83947" height="62.5654" transform="matrix(-0.3824 -0.923997 0.848833 -0.528662 81.8184 42.5654)" fill="#268020"/>
<rect x="58.0967" y="10.0967" width="21.566" height="80.9876" fill="white"/>
<rect x="135.336" y="37.0938" width="27.2658" height="132.477" transform="rotate(90 135.336 37.0938)" fill="white"/>
<rect x="63.1582" y="10.0967" width="11.003" height="80.9876" fill="#268020"/>
<rect x="135.336" y="43.3027" width="14.5778" height="132.477" transform="rotate(90 135.336 43.3027)" fill="#268020"/>
<path d="M202.003 138.11H204.38L204.131 138.3L202.457 139.571L203.081 141.579L203.105 141.658L201.407 140.369L199.707 141.659L199.732 141.579L200.356 139.571L198.683 138.3L198.434 138.11H200.811L201.406 136.191L202.003 138.11Z" fill="#268020" stroke="white" stroke-width="6"/>
<path d="M228.539 82.4512H230.855L230.565 82.6816L228.981 83.9424L229.526 85.7773L228.101 84.6436L226.676 85.7764L227.22 83.9424L225.636 82.6816L225.346 82.4512H227.662L228.101 80.9717L228.539 82.4512Z" fill="#268020" stroke="white" stroke-width="6"/>
<path d="M202.003 38.3213H204.38L204.131 38.5107L202.457 39.7822L203.081 41.79L203.105 41.8691L201.407 40.5801L199.707 41.8701L199.732 41.79L200.356 39.7822L198.683 38.5107L198.434 38.3213H200.811L201.406 36.4023L202.003 38.3213Z" fill="#268020" stroke="white" stroke-width="6"/>
<path d="M172.501 83.3643H174.526L172.888 84.5537L173.513 86.4785L171.876 85.29L170.237 86.4795L170.863 84.5537L169.225 83.3643H171.25L171.875 81.4375L172.501 83.3643Z" fill="#268020" stroke="white" stroke-width="6"/>
<rect x="1.13428" width="159.024" height="9.75412" fill="white"/>
<rect x="290" y="9.80469" width="263.311" height="161.446" fill="#268020"/>
<rect x="369.185" y="9.80469" width="39.9771" height="159.524" fill="white"/>
<rect x="553.504" y="69.7705" width="39.5927" height="263.311" transform="rotate(90 553.504 69.7705)" fill="white"/>
<rect x="378.412" y="9.80469" width="20.3729" height="159.524" fill="#268020"/>
<rect x="553.312" y="79.3799" width="20.3729" height="263.311" transform="rotate(90 553.312 79.3799)" fill="#268020"/>
</svg>
