<svg width="1359" height="760" viewBox="0 0 1359 760" fill="none" xmlns="http://www.w3.org/2000/svg">
<path d="M209.199 116.381L148.038 178.129L170.892 275.902L136.855 266.782L118.701 185.502L99.6129 180.387L80.509 251.684L50.1513 243.55L92.5977 85.1377L122.955 93.272L105.817 157.233L125.366 162.471L178.381 108.123L209.199 116.381Z" fill="#1210A2"/>
<mask id="path-2-inside-1_203_2670" fill="white">
<path d="M123.376 39.1025C139.515 8.97225 163.297 -2.01481 189.724 8.04004C216.904 18.391 227.225 42.475 218.929 76.2275C241.371 93.4999 244.975 106.916 234.514 133.49C212.195 190.231 189.925 246.991 167.635 303.729C157.816 328.701 137.288 337.62 112.213 327.804C84.183 316.827 56.1576 305.837 28.1514 294.8C3.12034 284.944 -5.91536 264.307 3.8623 239.402C26.6684 181.278 49.4864 123.158 72.3242 65.0605C81.3265 42.0954 98.7135 33.1696 123.376 39.1025ZM120.744 108.521C81.2558 108.521 49.2441 140.532 49.2441 180.021C49.2442 219.509 81.2558 251.521 120.744 251.521C160.232 251.521 192.244 219.509 192.244 180.021C192.244 140.532 160.232 108.521 120.744 108.521Z"/>
</mask>
<path d="M123.376 39.1025C139.515 8.97225 163.297 -2.01481 189.724 8.04004C216.904 18.391 227.225 42.475 218.929 76.2275C241.371 93.4999 244.975 106.916 234.514 133.49C212.195 190.231 189.925 246.991 167.635 303.729C157.816 328.701 137.288 337.62 112.213 327.804C84.183 316.827 56.1576 305.837 28.1514 294.8C3.12034 284.944 -5.91536 264.307 3.8623 239.402C26.6684 181.278 49.4864 123.158 72.3242 65.0605C81.3265 42.0954 98.7135 33.1696 123.376 39.1025ZM120.744 108.521C81.2558 108.521 49.2441 140.532 49.2441 180.021C49.2442 219.509 81.2558 251.521 120.744 251.521C160.232 251.521 192.244 219.509 192.244 180.021C192.244 140.532 160.232 108.521 120.744 108.521Z" fill="#F8E184"/>
<path d="M123.376 39.1025L122.674 42.0193L124.927 42.5612L126.021 40.519L123.376 39.1025ZM189.724 8.04004L190.791 5.23645L190.79 5.23613L189.724 8.04004ZM218.929 76.2275L216.015 75.5114L215.548 77.4115L217.099 78.6049L218.929 76.2275ZM234.514 133.49L231.722 132.391L231.722 132.392L234.514 133.49ZM167.635 303.729L170.427 304.826L170.427 304.825L167.635 303.729ZM112.213 327.804L111.119 330.597L111.119 330.597L112.213 327.804ZM28.1514 294.8L29.2513 292.009L29.2504 292.008L28.1514 294.8ZM3.8623 239.402L6.6548 240.499L6.65502 240.498L3.8623 239.402ZM72.3242 65.0605L75.1162 66.1581L75.1173 66.1554L72.3242 65.0605ZM120.744 108.521V105.521V108.521ZM49.2441 180.021H46.2441H49.2441ZM120.744 251.521V254.521V251.521ZM192.244 180.021H195.244H192.244ZM123.376 39.1025L126.021 40.519C133.885 25.8367 143.449 16.1243 153.96 11.2205C164.405 6.34736 176.108 6.06927 188.657 10.8439L189.724 8.04004L190.79 5.23613C176.913 -0.0440497 163.51 0.143975 151.423 5.78319C139.402 11.3918 129.006 22.2381 120.731 37.6861L123.376 39.1025ZM189.724 8.04004L188.656 10.8436C201.598 15.7722 210.296 23.8561 214.873 34.5395C219.479 45.2941 220.063 59.046 216.015 75.5114L218.929 76.2275L221.842 76.9437C226.091 59.6566 225.662 44.4902 220.388 32.1769C215.083 19.7925 205.03 10.6588 190.791 5.23645L189.724 8.04004ZM218.929 76.2275L217.099 78.6049C228.15 87.1101 234.026 94.2776 236.165 102.157C238.306 110.045 236.879 119.292 231.722 132.391L234.514 133.49L237.305 134.589C242.61 121.115 244.611 110.366 241.955 100.585C239.297 90.7943 232.15 82.6174 220.758 73.8501L218.929 76.2275ZM234.514 133.49L231.722 132.392C209.403 189.133 187.132 245.895 164.843 302.632L167.635 303.729L170.427 304.825C192.718 248.086 214.987 191.328 237.305 134.588L234.514 133.49ZM167.635 303.729L164.843 302.631C160.149 314.568 153.042 322.328 144.45 326.06C135.855 329.794 125.3 329.706 113.307 325.01L112.213 327.804L111.119 330.597C124.2 335.718 136.447 336.079 146.84 331.564C157.235 327.048 165.302 317.861 170.427 304.826L167.635 303.729ZM112.213 327.804L113.307 325.01C85.2776 314.034 57.2545 303.045 29.2513 292.009L28.1514 294.8L27.0514 297.591C55.0606 308.629 83.0884 319.62 111.119 330.597L112.213 327.804ZM28.1514 294.8L29.2504 292.008C17.2834 287.297 9.47537 280.151 5.70126 271.54C1.92812 262.931 1.98422 252.395 6.6548 240.499L3.8623 239.402L1.06981 238.306C-4.03727 251.314 -4.35216 263.549 0.205894 273.949C4.76297 284.346 13.9883 292.448 27.0523 297.591L28.1514 294.8ZM3.8623 239.402L6.65502 240.498C29.4609 182.374 52.2788 124.255 75.1162 66.1581L72.3242 65.0605L69.5322 63.963C46.6941 122.062 23.8758 180.182 1.06959 238.307L3.8623 239.402ZM72.3242 65.0605L75.1173 66.1554C79.4271 55.1608 85.6043 47.8605 93.3399 43.9176C101.085 39.97 110.823 39.1682 122.674 42.0193L123.376 39.1025L124.078 36.1858C111.267 33.1039 99.98 33.7986 90.6151 38.572C81.241 43.35 74.2236 51.9951 69.5312 63.9657L72.3242 65.0605ZM120.744 108.521V105.521C79.5989 105.521 46.2441 138.875 46.2441 180.021H49.2441H52.2441C52.2441 142.189 82.9126 111.521 120.744 111.521V108.521ZM49.2441 180.021H46.2441C46.2442 221.166 79.599 254.521 120.744 254.521V251.521V248.521C82.9127 248.521 52.2442 217.852 52.2441 180.021H49.2441ZM120.744 251.521V254.521C161.889 254.521 195.244 221.166 195.244 180.021H192.244H189.244C189.244 217.852 158.576 248.521 120.744 248.521V251.521ZM192.244 180.021H195.244C195.244 138.875 161.889 105.521 120.744 105.521V108.521V111.521C158.576 111.521 189.244 142.189 189.244 180.021H192.244Z" fill="#1210A2" mask="url(#path-2-inside-1_203_2670)"/>
<path d="M180.244 27.0205C185.986 27.0205 190.744 31.8871 190.744 38.0205C190.744 44.1539 185.986 49.0205 180.244 49.0205C174.502 49.0205 169.744 44.1539 169.744 38.0205C169.744 31.8871 174.502 27.0205 180.244 27.0205Z" fill="white" stroke="#1210A2" stroke-width="3"/>
<path d="M541.275 148.654C541.275 155.089 542.213 159.864 544.089 162.978C545.965 165.884 549.091 168.064 553.468 169.517L544.089 198.787C534.293 197.957 526.269 195.674 520.016 191.937C513.972 188.2 509.283 182.388 505.948 174.499C495.11 191.106 478.541 199.41 456.24 199.41C439.775 199.41 426.644 194.739 416.849 185.398C407.261 175.848 402.468 163.497 402.468 148.343C402.468 130.282 409.033 116.477 422.163 106.928C435.294 97.3787 454.156 92.6041 478.749 92.6041H497.82V84.508C497.82 74.336 495.527 67.2779 490.942 63.3336C486.357 59.3894 478.749 57.4173 468.12 57.4173C456.448 57.4173 441.859 60.3235 424.352 66.1361L414.348 36.5543C434.981 28.4582 455.406 24.4102 475.623 24.4102C498.132 24.4102 514.702 29.2886 525.331 39.0454C535.961 48.5946 541.275 62.9184 541.275 82.0169V148.654ZM468.433 167.649C480.938 167.649 490.733 161.525 497.82 149.277V117.827H483.126C459.158 117.827 447.174 126.753 447.174 144.606C447.174 151.872 448.945 157.58 452.488 161.732C456.24 165.676 461.555 167.649 468.433 167.649Z" fill="#1210A2"/>
<mask id="path-6-inside-2_203_2670" fill="white">
<path d="M509.57 2.37207C533.653 -2.23707 552.175 9.95473 559.628 33.3457C580.281 98.1119 600.856 162.89 621.459 227.672C624.715 237.91 628.491 248.025 631.05 258.431C632.452 264.126 632.607 270.449 631.827 276.279C630.909 283.175 626.31 287.769 619.328 289.976C566.432 306.717 513.574 323.583 460.673 340.354C451.869 343.14 444.026 340.664 438.552 332.806C435.684 328.68 433.541 323.833 431.995 319.015C408.861 246.704 386.951 173.991 362.437 102.147C350.21 66.2362 373.209 35.4342 409.745 39.1729C417.645 4.62178 456.797 -9.16488 483.171 15.0576C492.313 10.5026 500.498 4.10005 509.57 2.37207ZM495.973 99.4131C456.484 99.4131 424.473 131.425 424.473 170.913C424.473 210.401 456.484 242.413 495.973 242.413C535.461 242.413 567.473 210.401 567.473 170.913C567.472 131.425 535.461 99.4131 495.973 99.4131Z"/>
</mask>
<path d="M509.57 2.37207C533.653 -2.23707 552.175 9.95473 559.628 33.3457C580.281 98.1119 600.856 162.89 621.459 227.672C624.715 237.91 628.491 248.025 631.05 258.431C632.452 264.126 632.607 270.449 631.827 276.279C630.909 283.175 626.31 287.769 619.328 289.976C566.432 306.717 513.574 323.583 460.673 340.354C451.869 343.14 444.026 340.664 438.552 332.806C435.684 328.68 433.541 323.833 431.995 319.015C408.861 246.704 386.951 173.991 362.437 102.147C350.21 66.2362 373.209 35.4342 409.745 39.1729C417.645 4.62178 456.797 -9.16488 483.171 15.0576C492.313 10.5026 500.498 4.10005 509.57 2.37207ZM495.973 99.4131C456.484 99.4131 424.473 131.425 424.473 170.913C424.473 210.401 456.484 242.413 495.973 242.413C535.461 242.413 567.473 210.401 567.473 170.913C567.472 131.425 535.461 99.4131 495.973 99.4131Z" fill="#F8E184"/>
<path d="M509.57 2.37207L510.132 5.31909L510.134 5.31859L509.57 2.37207ZM559.628 33.3457L556.77 34.2565L556.77 34.2571L559.628 33.3457ZM621.459 227.672L618.6 228.581L621.459 227.672ZM631.05 258.431L628.137 259.147L628.137 259.148L631.05 258.431ZM631.827 276.279L628.854 275.882L628.853 275.883L631.827 276.279ZM619.328 289.976L618.424 287.115L618.423 287.115L619.328 289.976ZM460.673 340.354L461.578 343.214L461.579 343.213L460.673 340.354ZM438.552 332.806L436.088 334.518L436.09 334.521L438.552 332.806ZM431.995 319.015L429.138 319.929L429.139 319.931L431.995 319.015ZM362.437 102.147L359.597 103.114L359.597 103.116L362.437 102.147ZM409.745 39.1729L409.44 42.1573L412.078 42.4273L412.67 39.8415L409.745 39.1729ZM483.171 15.0576L481.142 17.2671L482.662 18.6632L484.509 17.7428L483.171 15.0576ZM495.973 99.4131V96.4131V99.4131ZM424.473 170.913L421.473 170.913V170.913H424.473ZM495.973 242.413V245.413V242.413ZM567.473 170.913H570.473V170.913L567.473 170.913ZM509.57 2.37207L510.134 5.31859C521.532 3.13721 531.391 4.95925 539.237 9.89778C547.102 14.8481 553.215 23.1021 556.77 34.2565L559.628 33.3457L562.486 32.4349C558.587 20.1983 551.713 10.661 542.433 4.8199C533.134 -1.03293 521.691 -3.00222 509.006 -0.574449L509.57 2.37207ZM559.628 33.3457L556.77 34.2571C577.422 99.0219 597.996 163.798 618.6 228.581L621.459 227.672L624.318 226.763C603.715 161.982 583.14 97.202 562.486 32.4343L559.628 33.3457ZM621.459 227.672L618.6 228.581C621.918 239.013 625.609 248.867 628.137 259.147L631.05 258.431L633.963 257.714C631.373 247.183 627.513 236.808 624.318 226.763L621.459 227.672ZM631.05 258.431L628.137 259.148C629.434 264.419 629.592 270.358 628.854 275.882L631.827 276.279L634.801 276.677C635.621 270.54 635.469 263.832 633.963 257.714L631.05 258.431ZM631.827 276.279L628.853 275.883C628.12 281.386 624.546 285.18 618.424 287.115L619.328 289.976L620.232 292.836C628.073 290.358 633.697 284.964 634.801 276.675L631.827 276.279ZM619.328 289.976L618.423 287.115C565.531 303.856 512.655 320.728 459.766 337.494L460.673 340.354L461.579 343.213C514.493 326.439 567.332 309.579 620.233 292.836L619.328 289.976ZM460.673 340.354L459.768 337.493C455.862 338.729 452.359 338.744 449.316 337.726C446.276 336.709 443.443 334.578 441.013 331.091L438.552 332.806L436.09 334.521C439.135 338.891 442.961 341.927 447.412 343.416C451.859 344.904 456.68 344.764 461.578 343.214L460.673 340.354ZM438.552 332.806L441.015 331.093C438.364 327.28 436.336 322.725 434.852 318.098L431.995 319.015L429.139 319.931C430.746 324.941 433.003 330.079 436.088 334.518L438.552 332.806ZM431.995 319.015L434.852 318.1C411.74 245.858 389.802 173.056 365.276 101.179L362.437 102.147L359.597 103.116C384.1 174.927 405.982 247.551 429.138 319.929L431.995 319.015ZM362.437 102.147L365.276 101.181C359.437 84.0293 362.091 68.4134 370.205 57.591C378.301 46.7918 392.115 40.3845 409.44 42.1573L409.745 39.1729L410.05 36.1884C390.839 34.2226 374.885 41.3469 365.404 53.9919C355.941 66.6137 353.21 84.3544 359.597 103.114L362.437 102.147ZM409.745 39.1729L412.67 39.8415C420.098 7.35341 456.598 -5.27407 481.142 17.2671L483.171 15.0576L485.2 12.8481C456.996 -13.0557 415.192 1.89016 406.821 38.5042L409.745 39.1729ZM483.171 15.0576L484.509 17.7428C489.123 15.4439 493.765 12.5337 497.846 10.2812C502.097 7.93531 506.074 6.09191 510.132 5.31909L509.57 2.37207L509.009 -0.574946C503.994 0.380203 499.343 2.60207 494.947 5.02819C490.382 7.54776 486.361 10.1163 481.833 12.3725L483.171 15.0576ZM495.973 99.4131V96.4131C454.828 96.4131 421.473 129.768 421.473 170.913L424.473 170.913L427.473 170.913C427.473 133.082 458.141 102.413 495.973 102.413V99.4131ZM424.473 170.913H421.473C421.473 212.058 454.827 245.413 495.973 245.413V242.413V239.413C458.141 239.413 427.473 208.745 427.473 170.913H424.473ZM495.973 242.413V245.413C537.118 245.413 570.473 212.058 570.473 170.913H567.473H564.473C564.473 208.745 533.804 239.413 495.973 239.413V242.413ZM567.473 170.913L570.473 170.913C570.472 129.768 537.118 96.4131 495.973 96.4131V99.4131V102.413C533.804 102.413 564.472 133.082 564.473 170.913L567.473 170.913Z" fill="#1210A2" mask="url(#path-6-inside-2_203_2670)"/>
<path d="M451.468 22.9102C457.21 22.9102 461.968 27.7767 461.968 33.9102C461.968 40.0436 457.21 44.9102 451.468 44.9102C445.726 44.9102 440.968 40.0436 440.968 33.9102C440.968 27.7767 445.726 22.9102 451.468 22.9102Z" fill="white" stroke="#1210A2" stroke-width="3"/>
<path d="M900.548 194.54C894.636 213.214 885.306 227.635 872.558 237.804C859.994 247.973 842.905 253.797 821.288 255.276L817.131 226.988C831.173 225.139 841.427 221.811 847.893 217.004C854.544 212.197 859.994 204.617 864.244 194.263H850.664L804.938 47.2764H846.784L876.16 168.748L907.199 47.2764H947.938L900.548 194.54Z" fill="#1210A2"/>
<mask id="path-10-inside-3_203_2670" fill="white">
<path d="M878.892 3.09668C902.528 -3.86029 922.527 2.53105 937.138 22.3457C948.705 37.9722 949.819 38.8904 963.041 43.1641C963.854 60.3271 967.392 76.1864 980.397 88.4932C981.538 89.5775 981.702 92.1172 981.661 93.9648C981.362 109.115 979.449 124.387 980.782 139.394C983.847 173.982 974.951 204.837 955.414 233.031C948.445 243.083 942.33 253.426 940.562 265.887C940.242 268.16 937.942 270.999 935.804 272.048C921.067 279.269 908.228 288.363 900.629 303.512C899.945 304.866 897.492 305.662 895.706 306.103C884.508 308.839 872.882 310.374 862.095 314.215C835.34 323.742 816.658 319.186 798.521 297.136C791.62 288.745 785.359 279.711 773.635 277.145C772.361 276.869 770.845 274.101 770.764 272.424C769.996 255.673 766.699 240.088 752.695 228.724C751.622 227.857 751.025 225.33 751.415 223.916C756.024 207.293 753.554 190.642 752.225 173.886C749.357 137.689 761.8 106.054 781.73 76.54C786.668 69.2206 789.194 60.3143 793.232 52.3447C794.591 49.6737 796.786 46.6614 799.375 45.5244C813.562 39.3306 825.392 30.7352 832.727 16.7109C833.665 14.9248 836.141 12.5161 837.67 12.6807C852.601 14.2758 865.389 7.0672 878.892 3.09668ZM867.441 87.2695C827.953 87.2696 795.942 119.281 795.941 158.77C795.941 198.258 827.953 230.269 867.441 230.27C906.93 230.27 938.941 198.258 938.941 158.77C938.941 119.281 906.93 87.2695 867.441 87.2695Z"/>
</mask>
<path d="M878.892 3.09668C902.528 -3.86029 922.527 2.53105 937.138 22.3457C948.705 37.9722 949.819 38.8904 963.041 43.1641C963.854 60.3271 967.392 76.1864 980.397 88.4932C981.538 89.5775 981.702 92.1172 981.661 93.9648C981.362 109.115 979.449 124.387 980.782 139.394C983.847 173.982 974.951 204.837 955.414 233.031C948.445 243.083 942.33 253.426 940.562 265.887C940.242 268.16 937.942 270.999 935.804 272.048C921.067 279.269 908.228 288.363 900.629 303.512C899.945 304.866 897.492 305.662 895.706 306.103C884.508 308.839 872.882 310.374 862.095 314.215C835.34 323.742 816.658 319.186 798.521 297.136C791.62 288.745 785.359 279.711 773.635 277.145C772.361 276.869 770.845 274.101 770.764 272.424C769.996 255.673 766.699 240.088 752.695 228.724C751.622 227.857 751.025 225.33 751.415 223.916C756.024 207.293 753.554 190.642 752.225 173.886C749.357 137.689 761.8 106.054 781.73 76.54C786.668 69.2206 789.194 60.3143 793.232 52.3447C794.591 49.6737 796.786 46.6614 799.375 45.5244C813.562 39.3306 825.392 30.7352 832.727 16.7109C833.665 14.9248 836.141 12.5161 837.67 12.6807C852.601 14.2758 865.389 7.0672 878.892 3.09668ZM867.441 87.2695C827.953 87.2696 795.942 119.281 795.941 158.77C795.941 198.258 827.953 230.269 867.441 230.27C906.93 230.27 938.941 198.258 938.941 158.77C938.941 119.281 906.93 87.2695 867.441 87.2695Z" fill="#F8E184"/>
<path d="M878.892 3.09668L879.738 5.97483L879.739 5.97461L878.892 3.09668ZM937.138 22.3457L934.723 24.1261L934.726 24.1306L937.138 22.3457ZM963.041 43.1641L966.038 43.0221L965.939 40.9481L963.964 40.3095L963.041 43.1641ZM980.397 88.4932L982.464 86.3188L982.459 86.3141L980.397 88.4932ZM981.661 93.9648L978.662 93.8981L978.662 93.9056L981.661 93.9648ZM980.782 139.394L983.771 139.129L983.77 139.128L980.782 139.394ZM955.414 233.031L957.879 234.741L957.88 234.74L955.414 233.031ZM940.562 265.887L937.592 265.465L937.592 265.467L940.562 265.887ZM935.804 272.048L937.124 274.742L937.125 274.741L935.804 272.048ZM900.629 303.512L903.307 304.864L903.31 304.857L900.629 303.512ZM895.706 306.103L896.418 309.017L896.424 309.015L895.706 306.103ZM862.095 314.215L861.089 311.389L861.088 311.389L862.095 314.215ZM798.521 297.136L800.838 295.23L800.838 295.23L798.521 297.136ZM773.635 277.145L774.276 274.214L774.268 274.212L773.635 277.145ZM770.764 272.424L767.767 272.561L767.767 272.569L770.764 272.424ZM752.695 228.724L754.586 226.394L754.58 226.39L752.695 228.724ZM751.415 223.916L748.524 223.114L748.523 223.118L751.415 223.916ZM752.225 173.886L749.234 174.123L749.234 174.123L752.225 173.886ZM781.73 76.54L784.217 78.2189L784.217 78.2178L781.73 76.54ZM793.232 52.3447L790.558 50.9845L790.556 50.9887L793.232 52.3447ZM799.375 45.5244L798.175 42.775L798.169 42.7776L799.375 45.5244ZM832.727 16.7109L830.071 15.3155L830.068 15.3206L832.727 16.7109ZM837.67 12.6807L837.349 15.6635L837.351 15.6637L837.67 12.6807ZM867.441 87.2695V84.2695H867.441L867.441 87.2695ZM795.941 158.77L792.941 158.77V158.77H795.941ZM867.441 230.27L867.441 233.27H867.441V230.27ZM938.941 158.77H941.941V158.77L938.941 158.77ZM878.892 3.09668L879.739 5.97461C891.092 2.63303 901.368 2.5517 910.465 5.53267C919.556 8.51175 927.723 14.6321 934.723 24.1261L937.138 22.3457L939.552 20.5653C931.942 10.2447 922.804 3.262 912.333 -0.169007C901.869 -3.59813 890.328 -3.39665 878.045 0.218753L878.892 3.09668ZM937.138 22.3457L934.726 24.1306C940.427 31.8322 943.843 36.3368 947.588 39.3497C951.458 42.4632 955.566 43.9007 962.118 46.0186L963.041 43.1641L963.964 40.3095C957.294 38.1538 954.234 36.9954 951.349 34.6748C948.34 32.2535 945.415 28.4857 939.549 20.5608L937.138 22.3457ZM963.041 43.1641L960.044 43.306C960.871 60.7539 964.49 77.5711 978.335 90.6722L980.397 88.4932L982.459 86.3141C970.293 74.8017 966.837 59.9003 966.038 43.0221L963.041 43.1641ZM980.397 88.4932L978.331 90.6675C978.226 90.5678 978.244 90.536 978.314 90.7017C978.38 90.8608 978.455 91.1123 978.519 91.4691C978.648 92.1918 978.68 93.0658 978.662 93.8981L981.661 93.9648L984.66 94.0316C984.683 93.0163 984.654 91.6966 984.426 90.4164C984.218 89.2512 983.752 87.5431 982.464 86.3188L980.397 88.4932ZM981.661 93.9648L978.662 93.9056C978.513 101.435 977.967 108.894 977.613 116.595C977.262 124.223 977.109 131.953 977.794 139.659L980.782 139.394L983.77 139.128C983.122 131.828 983.259 124.418 983.606 116.871C983.95 109.397 984.51 101.645 984.661 94.0241L981.661 93.9648ZM980.782 139.394L977.794 139.658C980.793 173.507 972.109 203.67 952.948 231.323L955.414 233.031L957.88 234.74C977.792 206.003 986.9 174.457 983.771 139.129L980.782 139.394ZM955.414 233.031L952.949 231.322C945.927 241.45 939.463 252.276 937.592 265.465L940.562 265.887L943.533 266.308C945.197 254.576 950.963 244.716 957.879 234.741L955.414 233.031ZM940.562 265.887L937.592 265.467C937.532 265.89 937.205 266.681 936.504 267.575C935.818 268.449 935.042 269.08 934.483 269.354L935.804 272.048L937.125 274.741C938.704 273.967 940.146 272.654 941.225 271.278C942.289 269.922 943.272 268.157 943.533 266.306L940.562 265.887ZM935.804 272.048L934.484 269.354C919.493 276.699 905.973 286.168 897.947 302.167L900.629 303.512L903.31 304.857C910.483 290.558 922.64 281.838 937.124 274.742L935.804 272.048ZM900.629 303.512L897.951 302.159C898.047 301.97 898.124 301.948 897.995 302.047C897.874 302.14 897.659 302.272 897.329 302.424C896.66 302.731 895.812 302.987 894.988 303.19L895.706 306.103L896.424 309.015C897.387 308.778 898.658 308.416 899.833 307.876C900.874 307.398 902.479 306.502 903.307 304.864L900.629 303.512ZM895.706 306.103L894.994 303.188C889.449 304.543 883.878 305.583 878.12 306.811C872.43 308.024 866.672 309.401 861.089 311.389L862.095 314.215L863.101 317.041C868.305 315.188 873.753 313.877 879.372 312.679C884.924 311.495 890.765 310.398 896.418 309.017L895.706 306.103ZM862.095 314.215L861.088 311.389C848.043 316.034 837.334 317.113 827.84 314.616C818.36 312.122 809.655 305.949 800.838 295.23L798.521 297.136L796.205 299.041C805.525 310.373 815.229 317.503 826.313 320.418C837.383 323.33 849.392 321.923 863.101 317.041L862.095 314.215ZM798.521 297.136L800.838 295.23C794.203 287.163 787.244 277.053 774.276 274.214L773.635 277.145L772.993 280.075C783.475 282.37 789.036 290.327 796.205 299.042L798.521 297.136ZM773.635 277.145L774.268 274.212C774.548 274.273 774.718 274.374 774.773 274.409C774.832 274.447 774.834 274.459 774.788 274.412C774.689 274.312 774.524 274.107 774.341 273.794C774.163 273.49 774.009 273.156 773.902 272.847C773.788 272.519 773.762 272.324 773.76 272.278L770.764 272.424L767.767 272.569C767.84 274.059 768.473 275.647 769.163 276.826C769.528 277.449 769.987 278.093 770.533 278.642C771.028 279.14 771.86 279.83 773.001 280.077L773.635 277.145ZM770.764 272.424L773.761 272.286C772.981 255.284 769.61 238.587 754.586 226.394L752.695 228.724L750.805 231.053C763.787 241.588 767.011 256.063 767.767 272.561L770.764 272.424ZM752.695 228.724L754.58 226.39C754.733 226.513 754.726 226.567 754.641 226.406C754.568 226.267 754.482 226.052 754.413 225.781C754.344 225.513 754.306 225.247 754.297 225.023C754.288 224.782 754.315 224.685 754.307 224.714L751.415 223.916L748.523 223.118C748.14 224.507 748.291 226.06 748.6 227.269C748.894 228.417 749.526 230.02 750.81 231.058L752.695 228.724ZM751.415 223.916L754.306 224.718C759.095 207.447 756.521 190.101 755.215 173.648L752.225 173.886L749.234 174.123C750.588 191.183 752.954 207.139 748.524 223.114L751.415 223.916ZM752.225 173.886L755.215 173.649C752.419 138.35 764.52 107.386 784.217 78.2189L781.73 76.54L779.244 74.8611C759.08 104.722 746.295 137.027 749.234 174.123L752.225 173.886ZM781.73 76.54L784.217 78.2178C786.856 74.3059 788.814 70.0263 790.581 65.8568C792.382 61.6072 793.951 57.5641 795.908 53.7008L793.232 52.3447L790.556 50.9887C788.476 55.095 786.763 59.4898 785.056 63.5156C783.316 67.6215 781.542 71.4548 779.243 74.8623L781.73 76.54ZM793.232 52.3447L795.906 53.7049C796.504 52.5293 797.27 51.3142 798.13 50.2995C799.011 49.2615 799.858 48.5889 800.581 48.2712L799.375 45.5244L798.169 42.7776C796.303 43.597 794.758 44.999 793.554 46.4192C792.33 47.8626 791.319 49.4891 790.559 50.9845L793.232 52.3447ZM799.375 45.5244L800.575 48.2738C815.142 41.9142 827.628 32.9336 835.385 18.1013L832.727 16.7109L830.068 15.3206C823.156 28.5368 811.982 36.7469 798.175 42.775L799.375 45.5244ZM832.727 16.7109L835.382 18.1064C835.65 17.5975 836.248 16.8334 836.943 16.23C837.28 15.9377 837.553 15.7597 837.724 15.6738C837.944 15.5644 837.778 15.7096 837.349 15.6635L837.67 12.6807L837.991 9.69787C836.797 9.56944 835.749 9.95402 835.044 10.3058C834.292 10.6811 833.601 11.186 833.01 11.6987C831.851 12.7049 830.742 14.0382 830.071 15.3155L832.727 16.7109ZM837.67 12.6807L837.351 15.6637C845.395 16.5231 852.773 14.9965 859.707 12.8405C863.164 11.7656 866.569 10.5147 869.877 9.3135C873.213 8.10259 876.463 6.93781 879.738 5.97483L878.892 3.09668L878.045 0.218527C874.569 1.24081 871.156 2.46605 867.83 3.67363C864.477 4.8909 861.219 6.0869 857.925 7.11108C851.357 9.15327 844.875 10.4334 837.989 9.69764L837.67 12.6807ZM867.441 87.2695L867.441 84.2695C826.296 84.2696 792.942 117.624 792.941 158.77L795.941 158.77L798.941 158.77C798.942 120.938 829.61 90.2696 867.441 90.2695L867.441 87.2695ZM795.941 158.77H792.941C792.941 199.915 826.296 233.269 867.441 233.27L867.441 230.27L867.441 227.27C829.61 227.269 798.941 196.601 798.941 158.77H795.941ZM867.441 230.27V233.27C908.587 233.27 941.941 199.915 941.941 158.77H938.941H935.941C935.941 196.601 905.273 227.27 867.441 227.27V230.27ZM938.941 158.77L941.941 158.77C941.941 117.624 908.587 84.2695 867.441 84.2695V87.2695V90.2695C905.273 90.2695 935.941 120.938 935.941 158.77L938.941 158.77Z" fill="#1210A2" mask="url(#path-10-inside-3_203_2670)"/>
<path d="M901.938 22.7764C907.679 22.7764 912.438 27.6429 912.438 33.7764C912.438 39.9098 907.679 44.7764 901.938 44.7764C896.196 44.7764 891.438 39.9098 891.438 33.7764C891.438 27.6429 896.196 22.7764 901.938 22.7764Z" fill="white" stroke="#1210A2" stroke-width="3"/>
<path d="M92.4424 453.756C98.7746 453.756 103.942 459.109 103.942 465.756C103.942 472.403 98.7746 477.756 92.4424 477.756C86.1101 477.756 80.9424 472.403 80.9424 465.756C80.9424 459.109 86.1101 453.756 92.4424 453.756Z" fill="#1210A2" stroke="#F8E184"/>
<path d="M156.426 552.547C184.335 546.86 201.976 562.111 209.351 598.299C211.581 609.246 211.763 619.202 209.896 628.167C208.157 636.971 204.509 644.287 198.952 650.114C193.368 655.813 186.181 659.557 177.392 661.348C166.291 663.611 156.252 661.632 147.276 655.413L157.038 703.321L126.675 712.728L116.283 661.729C110.457 670.964 101.684 676.776 89.9654 679.163C81.4848 680.892 73.6375 680.21 66.4234 677.12C59.183 673.901 52.9629 668.596 47.7632 661.205C42.6914 653.654 39.0402 644.405 36.8096 633.458C33.2931 616.201 34.0462 602.165 39.0692 591.35C44.22 580.374 53.9654 573.426 68.3053 570.504C79.5613 568.21 89.6625 569.706 98.6088 574.992L88.2166 523.993L119.839 520.769L129.72 569.256C135.651 560.536 144.553 554.966 156.426 552.547ZM95.5857 657.094C102.679 655.648 108.344 651.14 112.583 643.57L102.506 594.117C95.5411 589.097 88.5123 587.311 81.4194 588.756C75.4059 589.981 71.4855 593.597 69.658 599.603C67.8043 605.48 68.1109 614.472 70.5777 626.577C75.2227 649.372 83.5587 659.544 95.5857 657.094ZM164.278 643.096C176.614 640.582 180.459 627.928 175.814 605.133C173.347 593.027 170.111 584.633 166.105 579.95C162.073 575.138 156.974 573.36 150.806 574.617C143.867 576.031 138.111 580.49 133.538 587.994L143.536 637.061C146.84 639.876 150.127 641.821 153.398 642.899C156.797 643.816 160.424 643.881 164.278 643.096Z" fill="#1210A2"/>
<mask id="path-15-inside-4_203_2670" fill="white">
<path d="M82.8252 418.41C114.171 434.956 144.904 452.356 176.73 467.448C192.592 474.972 199.306 485.088 202.466 502.116C215.391 571.581 229.999 640.732 244.003 709.992C244.576 712.827 245.148 715.663 245.84 719.086C179.555 732.476 113.846 745.749 47.6514 759.12C47.0252 756.615 46.3358 754.321 45.8662 751.997C30.6031 676.504 15.3138 601.016 0.255859 525.482C-0.363303 522.351 0.113692 517.842 1.99805 515.547C28.5559 483.224 55.4396 451.193 82.8252 418.41ZM122.942 543.256C83.454 543.256 51.4424 575.268 51.4424 614.756C51.4424 654.244 83.454 686.256 122.942 686.256C162.431 686.256 194.442 654.244 194.442 614.756C194.442 575.268 162.431 543.256 122.942 543.256Z"/>
</mask>
<path d="M82.8252 418.41C114.171 434.956 144.904 452.356 176.73 467.448C192.592 474.972 199.306 485.088 202.466 502.116C215.391 571.581 229.999 640.732 244.003 709.992C244.576 712.827 245.148 715.663 245.84 719.086C179.555 732.476 113.846 745.749 47.6514 759.12C47.0252 756.615 46.3358 754.321 45.8662 751.997C30.6031 676.504 15.3138 601.016 0.255859 525.482C-0.363303 522.351 0.113692 517.842 1.99805 515.547C28.5559 483.224 55.4396 451.193 82.8252 418.41ZM122.942 543.256C83.454 543.256 51.4424 575.268 51.4424 614.756C51.4424 654.244 83.454 686.256 122.942 686.256C162.431 686.256 194.442 654.244 194.442 614.756C194.442 575.268 162.431 543.256 122.942 543.256Z" fill="#F8E184"/>
<path d="M82.8252 418.41L84.2256 415.757L82.079 414.624L80.5228 416.487L82.8252 418.41ZM176.73 467.448L178.016 464.738L178.016 464.738L176.73 467.448ZM202.466 502.116L199.516 502.664L199.516 502.665L202.466 502.116ZM244.003 709.992L246.944 709.398L246.943 709.398L244.003 709.992ZM245.84 719.086L246.434 722.027L249.374 721.433L248.78 718.492L245.84 719.086ZM47.6514 759.12L44.7409 759.848L45.4359 762.628L48.2454 762.061L47.6514 759.12ZM45.8662 751.997L48.8068 751.403L48.8067 751.403L45.8662 751.997ZM0.255859 525.482L-2.68717 526.064L-2.68625 526.069L0.255859 525.482ZM1.99805 515.547L-0.319897 513.642L-0.320493 513.643L1.99805 515.547ZM82.8252 418.41L81.4248 421.063C112.665 437.553 143.542 455.03 175.445 470.159L176.73 467.448L178.016 464.738C146.265 449.681 115.678 432.358 84.2256 415.757L82.8252 418.41ZM176.73 467.448L175.445 470.159C183.04 473.761 188.24 477.883 191.932 482.978C195.638 488.093 197.985 494.41 199.516 502.664L202.466 502.116L205.415 501.569C203.787 492.794 201.197 485.539 196.791 479.458C192.37 473.357 186.283 468.659 178.016 464.738L176.73 467.448ZM202.466 502.116L199.516 502.665C212.447 572.16 227.065 641.361 241.062 710.587L244.003 709.992L246.943 709.398C232.932 640.104 218.334 571.002 205.415 501.567L202.466 502.116ZM244.003 709.992L241.062 710.586C241.349 712.004 241.635 713.422 241.936 714.913C242.237 716.404 242.554 717.969 242.899 719.68L245.84 719.086L248.78 718.492C248.435 716.781 248.119 715.216 247.817 713.725C247.516 712.234 247.23 710.816 246.944 709.398L244.003 709.992ZM245.84 719.086L245.246 716.145C212.103 722.84 179.105 729.506 146.118 736.169C113.131 742.833 80.1549 749.494 47.0574 756.18L47.6514 759.12L48.2454 762.061C81.3429 755.375 114.319 748.714 147.306 742.05C180.293 735.387 213.291 728.721 246.434 722.027L245.84 719.086ZM47.6514 759.12L50.5618 758.393C49.887 755.693 49.2608 753.651 48.8068 751.403L45.8662 751.997L42.9256 752.591C43.4107 754.992 44.1634 757.537 44.7409 759.848L47.6514 759.12ZM45.8662 751.997L48.8067 751.403C33.5433 675.908 18.2549 600.425 3.19797 524.896L0.255859 525.482L-2.68625 526.069C12.3727 601.608 27.663 677.101 42.9257 752.592L45.8662 751.997ZM0.255859 525.482L3.19889 524.901C2.96232 523.704 2.92445 522.146 3.15334 520.656C3.39001 519.116 3.85412 518.014 4.31659 517.451L1.99805 515.547L-0.320493 513.643C-1.74238 515.375 -2.45895 517.675 -2.77708 519.745C-3.10298 521.867 -3.06977 524.129 -2.68717 526.064L0.255859 525.482ZM1.99805 515.547L4.31599 517.451C30.8638 485.14 57.7358 453.124 85.1276 420.333L82.8252 418.41L80.5228 416.487C53.1435 449.262 26.2481 481.307 -0.319897 513.642L1.99805 515.547ZM122.942 543.256V540.256C81.7972 540.256 48.4424 573.611 48.4424 614.756H51.4424H54.4424C54.4424 576.924 85.1109 546.256 122.942 546.256V543.256ZM51.4424 614.756H48.4424C48.4424 655.901 81.7972 689.256 122.942 689.256V686.256V683.256C85.1109 683.256 54.4424 652.587 54.4424 614.756H51.4424ZM122.942 686.256V689.256C164.088 689.256 197.442 655.901 197.442 614.756H194.442H191.442C191.442 652.587 160.774 683.256 122.942 683.256V686.256ZM194.442 614.756H197.442C197.442 573.611 164.088 540.256 122.942 540.256V543.256V546.256C160.774 546.256 191.442 576.924 191.442 614.756H194.442Z" fill="#1210A2" mask="url(#path-15-inside-4_203_2670)"/>
<path d="M88.4424 437.756C94.1843 437.756 98.9424 442.622 98.9424 448.756C98.9424 454.889 94.1843 459.756 88.4424 459.756C82.7005 459.756 77.9424 454.889 77.9424 448.756C77.9424 442.622 82.7005 437.756 88.4424 437.756Z" fill="white" stroke="#1210A2" stroke-width="3"/>
<path d="M562.79 650.502V716.34H538.055L533.892 676.542H459.688L455.525 716.34H430.79V650.502H439.117C442.219 648.209 444.749 645.425 446.708 642.149C448.831 638.874 450.708 633.305 452.341 625.444C453.974 617.583 455.361 606.282 456.504 591.542L459.933 546.34H549.076V650.502H562.79ZM516.259 570.169H490.055L488.586 588.103C487.443 601.86 485.974 612.751 484.178 620.776C482.545 628.638 480.259 634.861 477.321 639.447C474.545 643.869 470.708 647.554 465.81 650.502H516.259V570.169Z" fill="#1210A2"/>
<mask id="path-19-inside-5_203_2670" fill="white">
<path d="M529.576 419.179C545.234 415.729 566.005 424.305 573.938 436.751C581.156 448.075 583.823 460.463 584.985 473.448C585.085 474.565 586.252 476.43 587.091 476.524C597.336 477.751 606.428 487.665 605.671 497.764C605.417 501.178 605.655 502.513 609.128 504.279C612.17 505.815 614.983 509.81 615.807 513.213C617.108 518.618 617.961 524.712 616.783 530.029C601.478 599.749 585.805 669.373 570.142 739.013C568.476 746.451 564.34 752.201 556.695 754.481C554.133 755.243 551.078 755.507 548.494 754.929C499.097 744 449.735 732.918 400.372 721.836C390.854 719.704 385.1 710.124 387.312 700.124C391.581 680.824 395.936 661.555 400.256 642.267C411.666 591.317 422.984 540.36 434.622 489.475C435.735 484.623 438.173 479.801 441.031 475.674C445.079 469.837 451.244 468.107 458.49 470.063C463.823 455.849 470.553 452.255 487.429 454.405C489.574 449.865 491.223 444.959 493.988 440.771C502.356 428.064 515.119 422.364 529.576 419.179ZM505.29 527.341C465.802 527.341 433.79 559.352 433.79 598.841C433.79 638.329 465.802 670.341 505.29 670.341C544.778 670.341 576.79 638.329 576.79 598.841C576.79 559.352 544.778 527.341 505.29 527.341Z"/>
</mask>
<path d="M529.576 419.179C545.234 415.729 566.005 424.305 573.938 436.751C581.156 448.075 583.823 460.463 584.985 473.448C585.085 474.565 586.252 476.43 587.091 476.524C597.336 477.751 606.428 487.665 605.671 497.764C605.417 501.178 605.655 502.513 609.128 504.279C612.17 505.815 614.983 509.81 615.807 513.213C617.108 518.618 617.961 524.712 616.783 530.029C601.478 599.749 585.805 669.373 570.142 739.013C568.476 746.451 564.34 752.201 556.695 754.481C554.133 755.243 551.078 755.507 548.494 754.929C499.097 744 449.735 732.918 400.372 721.836C390.854 719.704 385.1 710.124 387.312 700.124C391.581 680.824 395.936 661.555 400.256 642.267C411.666 591.317 422.984 540.36 434.622 489.475C435.735 484.623 438.173 479.801 441.031 475.674C445.079 469.837 451.244 468.107 458.49 470.063C463.823 455.849 470.553 452.255 487.429 454.405C489.574 449.865 491.223 444.959 493.988 440.771C502.356 428.064 515.119 422.364 529.576 419.179ZM505.29 527.341C465.802 527.341 433.79 559.352 433.79 598.841C433.79 638.329 465.802 670.341 505.29 670.341C544.778 670.341 576.79 638.329 576.79 598.841C576.79 559.352 544.778 527.341 505.29 527.341Z" fill="#F8E184"/>
<path d="M529.576 419.179L530.222 422.108L530.222 422.108L529.576 419.179ZM573.938 436.751L576.468 435.139L576.468 435.138L573.938 436.751ZM584.985 473.448L587.974 473.183L587.973 473.181L584.985 473.448ZM587.091 476.524L587.447 473.546L587.437 473.544L587.427 473.543L587.091 476.524ZM605.671 497.764L602.679 497.539L602.679 497.541L605.671 497.764ZM609.128 504.279L607.768 506.954L607.776 506.957L609.128 504.279ZM615.807 513.213L618.723 512.511L618.722 512.507L615.807 513.213ZM616.783 530.029L613.854 529.381L613.853 529.386L616.783 530.029ZM570.142 739.013L567.215 738.354L567.214 738.357L570.142 739.013ZM556.695 754.481L557.55 757.357L557.553 757.356L556.695 754.481ZM548.494 754.929L549.15 752.001L549.142 752L548.494 754.929ZM400.372 721.836L401.029 718.909L401.028 718.908L400.372 721.836ZM387.312 700.124L390.242 700.772L390.242 700.772L387.312 700.124ZM400.256 642.267L403.183 642.922L400.256 642.267ZM434.622 489.475L431.698 488.804L431.698 488.806L434.622 489.475ZM441.031 475.674L438.566 473.964L438.565 473.965L441.031 475.674ZM458.49 470.063L457.708 472.96L460.341 473.671L461.299 471.117L458.49 470.063ZM487.429 454.405L487.05 457.381L489.21 457.657L490.141 455.687L487.429 454.405ZM493.988 440.771L496.492 442.424L496.494 442.421L493.988 440.771ZM505.29 527.341V524.341V527.341ZM433.79 598.841H430.79V598.841L433.79 598.841ZM505.29 670.341V673.341V670.341ZM576.79 598.841L579.79 598.841V598.841H576.79ZM529.576 419.179L530.222 422.108C537.319 420.545 545.802 421.683 553.536 424.788C561.285 427.899 567.874 432.818 571.409 438.364L573.938 436.751L576.468 435.138C572.07 428.238 564.306 422.646 555.772 419.22C547.223 415.788 537.491 414.363 528.931 416.249L529.576 419.179ZM573.938 436.751L571.409 438.363C578.258 449.11 580.855 460.953 581.997 473.716L584.985 473.448L587.973 473.181C586.791 459.972 584.053 447.039 576.468 435.139L573.938 436.751ZM584.985 473.448L581.997 473.714C582.108 474.961 582.705 476.189 583.26 477.027C583.562 477.483 583.949 477.973 584.418 478.393C584.816 478.751 585.621 479.378 586.755 479.506L587.091 476.524L587.427 473.543C587.819 473.588 588.09 473.716 588.217 473.786C588.35 473.86 588.418 473.921 588.426 473.929C588.437 473.938 588.369 473.875 588.262 473.713C588.161 473.561 588.074 473.394 588.014 473.25C587.986 473.18 587.971 473.132 587.964 473.109C587.957 473.082 587.967 473.108 587.974 473.183L584.985 473.448ZM587.091 476.524L586.734 479.503C591.035 480.018 595.225 482.388 598.264 485.809C601.303 489.231 602.985 493.463 602.679 497.539L605.671 497.764L608.663 497.988C609.114 491.965 606.628 486.191 602.749 481.824C598.87 477.457 593.392 474.257 587.447 473.546L587.091 476.524ZM605.671 497.764L602.679 497.541C602.558 499.167 602.444 501.126 603.287 502.917C604.187 504.83 605.872 505.989 607.768 506.953L609.128 504.279L610.488 501.605C608.911 500.804 608.74 500.413 608.716 500.362C608.635 500.191 608.529 499.775 608.663 497.986L605.671 497.764ZM609.128 504.279L607.776 506.957C608.747 507.448 609.874 508.45 610.881 509.822C611.877 511.179 612.589 512.671 612.891 513.918L615.807 513.213L618.722 512.507C618.201 510.353 617.094 508.146 615.717 506.271C614.351 504.409 612.55 502.647 610.48 501.601L609.128 504.279ZM615.807 513.213L612.89 513.915C614.163 519.201 614.88 524.748 613.854 529.381L616.783 530.029L619.712 530.678C621.041 524.676 620.054 518.036 618.723 512.511L615.807 513.213ZM616.783 530.029L613.853 529.386C598.55 599.097 582.878 668.713 567.215 738.354L570.142 739.013L573.068 739.671C588.731 670.033 604.407 600.401 619.713 530.673L616.783 530.029ZM570.142 739.013L567.214 738.357C565.723 745.014 562.194 749.71 555.838 751.607L556.695 754.481L557.553 757.356C566.486 754.691 571.228 747.888 573.069 739.668L570.142 739.013ZM556.695 754.481L555.841 751.606C553.649 752.257 551.124 752.443 549.15 752.001L548.494 754.929L547.839 757.856C551.032 758.571 554.618 758.229 557.55 757.357L556.695 754.481ZM548.494 754.929L549.142 752C499.751 741.072 450.393 729.991 401.029 718.909L400.372 721.836L399.715 724.763C449.077 735.844 498.444 746.928 547.846 757.858L548.494 754.929ZM400.372 721.836L401.028 718.908C393.26 717.169 388.356 709.297 390.242 700.772L387.312 700.124L384.383 699.476C381.845 710.951 388.448 722.24 399.716 724.763L400.372 721.836ZM387.312 700.124L390.242 700.772C394.509 681.477 398.862 662.219 403.183 642.922L400.256 642.267L397.328 641.611C393.01 660.892 388.653 680.171 384.383 699.476L387.312 700.124ZM400.256 642.267L403.183 642.922C414.595 591.966 425.911 541.02 437.547 490.143L434.622 489.475L431.698 488.806C420.058 539.7 408.737 590.668 397.328 641.611L400.256 642.267ZM434.622 489.475L437.546 490.146C438.551 485.768 440.787 481.295 443.497 477.382L441.031 475.674L438.565 473.965C435.558 478.306 432.92 483.478 431.698 488.804L434.622 489.475ZM441.031 475.674L443.496 477.383C445.174 474.965 447.194 473.512 449.451 472.811C451.741 472.099 454.499 472.093 457.708 472.96L458.49 470.063L459.272 467.167C455.235 466.077 451.287 465.958 447.671 467.081C444.023 468.215 440.936 470.546 438.566 473.964L441.031 475.674ZM458.49 470.063L461.299 471.117C463.875 464.25 466.552 460.628 470.056 458.737C473.648 456.798 478.746 456.323 487.05 457.381L487.429 454.405L487.808 451.429C479.235 450.337 472.53 450.583 467.206 453.457C461.792 456.379 458.438 461.662 455.681 469.01L458.49 470.063ZM487.429 454.405L490.141 455.687C491.226 453.392 492.259 450.84 493.219 448.671C494.223 446.403 495.247 444.309 496.492 442.424L493.988 440.771L491.485 439.119C489.964 441.421 488.781 443.874 487.733 446.242C486.641 448.707 485.777 450.879 484.716 453.124L487.429 454.405ZM493.988 440.771L496.494 442.421C504.244 430.651 516.113 425.217 530.222 422.108L529.576 419.179L528.931 416.249C514.126 419.511 500.467 425.477 491.483 439.122L493.988 440.771ZM505.29 527.341V524.341C464.145 524.341 430.79 557.696 430.79 598.841H433.79H436.79C436.79 561.009 467.459 530.341 505.29 530.341V527.341ZM433.79 598.841L430.79 598.841C430.79 639.986 464.145 673.341 505.29 673.341V670.341V667.341C467.459 667.341 436.79 636.672 436.79 598.841L433.79 598.841ZM505.29 670.341V673.341C546.435 673.341 579.79 639.986 579.79 598.841L576.79 598.841L573.79 598.841C573.79 636.672 543.121 667.341 505.29 667.341V670.341ZM576.79 598.841H579.79C579.79 557.696 546.435 524.341 505.29 524.341V527.341V530.341C543.122 530.341 573.79 561.009 573.79 598.841H576.79Z" fill="#1210A2" mask="url(#path-19-inside-5_203_2670)"/>
<path d="M539.79 437.84C545.532 437.84 550.29 442.706 550.29 448.84C550.29 454.973 545.532 459.84 539.79 459.84C534.048 459.84 529.29 454.973 529.29 448.84C529.29 442.706 534.048 437.84 539.79 437.84Z" fill="white" stroke="#1210A2" stroke-width="3"/>
<path d="M928.894 516.891V651.891H892.835V600.183C887.926 604.259 882.085 607.485 875.314 609.862C868.712 612.07 861.855 613.174 854.745 613.174C841.71 613.174 831.976 609.608 825.543 602.476C819.11 595.174 815.894 584.985 815.894 571.909V516.891H851.952V567.325C851.952 574.117 853.222 578.957 855.761 581.843C858.3 584.73 862.194 586.174 867.442 586.174C872.013 586.174 876.583 585.325 881.154 583.626C885.894 581.759 889.788 579.381 892.835 576.494V516.891H928.894Z" fill="#1210A2"/>
<mask id="path-23-inside-6_203_2670" fill="white">
<path d="M857.172 410.967C860.436 409.899 862.718 410.375 865.449 412.349C881.486 423.893 897.703 435.189 913.748 446.718C915.518 447.986 917.203 450.062 917.852 452.098C944.881 536.492 971.77 620.917 998.688 705.347C998.992 706.302 999.206 707.274 999.603 708.774L840.398 759.531C839.738 757.458 839.14 755.583 838.542 753.709C826.728 716.652 814.988 679.572 803.074 642.547C788.571 597.485 773.961 552.471 759.276 507.481C758.06 503.753 757.987 500.48 759.334 496.741C766.156 477.841 772.776 458.867 779.307 439.867C780.387 436.705 781.978 434.927 785.27 433.904C809.286 426.412 833.251 418.757 857.172 410.967ZM872.395 516.888C832.906 516.888 800.895 548.899 800.895 588.388C800.895 627.876 832.906 659.888 872.395 659.888C911.883 659.888 943.895 627.876 943.895 588.388C943.894 548.9 911.883 516.888 872.395 516.888Z"/>
</mask>
<path d="M857.172 410.967C860.436 409.899 862.718 410.375 865.449 412.349C881.486 423.893 897.703 435.189 913.748 446.718C915.518 447.986 917.203 450.062 917.852 452.098C944.881 536.492 971.77 620.917 998.688 705.347C998.992 706.302 999.206 707.274 999.603 708.774L840.398 759.531C839.738 757.458 839.14 755.583 838.542 753.709C826.728 716.652 814.988 679.572 803.074 642.547C788.571 597.485 773.961 552.471 759.276 507.481C758.06 503.753 757.987 500.48 759.334 496.741C766.156 477.841 772.776 458.867 779.307 439.867C780.387 436.705 781.978 434.927 785.27 433.904C809.286 426.412 833.251 418.757 857.172 410.967ZM872.395 516.888C832.906 516.888 800.895 548.899 800.895 588.388C800.895 627.876 832.906 659.888 872.395 659.888C911.883 659.888 943.895 627.876 943.895 588.388C943.894 548.9 911.883 516.888 872.395 516.888Z" fill="#F8E184"/>
<path d="M857.172 410.967L858.101 413.819L858.105 413.818L857.172 410.967ZM865.449 412.349L863.692 414.78L863.696 414.783L865.449 412.349ZM913.748 446.718L911.998 449.154L912 449.156L913.748 446.718ZM917.852 452.098L914.993 453.009L914.995 453.013L917.852 452.098ZM998.688 705.347L1001.55 704.436L1001.55 704.435L998.688 705.347ZM999.603 708.774L1000.51 711.633L1003.23 710.766L1002.5 708.008L999.603 708.774ZM840.398 759.531L837.54 760.443L838.451 763.301L841.31 762.389L840.398 759.531ZM838.542 753.709L835.684 754.62L838.542 753.709ZM803.074 642.547L805.93 641.628L805.93 641.628L803.074 642.547ZM759.276 507.481L756.424 508.412L756.424 508.412L759.276 507.481ZM759.334 496.741L756.512 495.723L756.512 495.724L759.334 496.741ZM779.307 439.867L782.144 440.842L782.145 440.838L779.307 439.867ZM785.27 433.904L786.159 436.769L786.163 436.768L785.27 433.904ZM872.395 516.888L872.395 513.888H872.395V516.888ZM800.895 588.388L797.895 588.388V588.388H800.895ZM872.395 659.888V662.888H872.395L872.395 659.888ZM943.895 588.388H946.895V588.388L943.895 588.388ZM857.172 410.967L858.105 413.818C859.406 413.392 860.281 413.347 860.99 413.472C861.716 413.6 862.549 413.955 863.692 414.78L865.449 412.349L867.206 409.917C865.617 408.769 863.944 407.899 862.03 407.563C860.1 407.223 858.202 407.473 856.239 408.116L857.172 410.967ZM865.449 412.349L863.696 414.783C871.726 420.564 879.799 426.281 887.862 431.988C895.929 437.698 903.985 443.397 911.998 449.154L913.748 446.718L915.499 444.281C907.466 438.51 899.391 432.797 891.329 427.091C883.263 421.382 875.209 415.678 867.202 409.914L865.449 412.349ZM913.748 446.718L912 449.156C913.358 450.129 914.579 451.709 914.993 453.009L917.852 452.098L920.71 451.186C919.826 448.415 917.678 445.843 915.496 444.279L913.748 446.718ZM917.852 452.098L914.995 453.013C942.023 537.404 968.911 621.827 995.829 706.258L998.688 705.347L1001.55 704.435C974.629 620.007 947.738 535.579 920.709 451.183L917.852 452.098ZM998.688 705.347L995.829 706.258C996.104 707.121 996.264 707.884 996.702 709.541L999.603 708.774L1002.5 708.008C1002.15 706.664 1001.88 705.483 1001.55 704.436L998.688 705.347ZM999.603 708.774L998.691 705.916L839.487 756.673L840.398 759.531L841.31 762.389L1000.51 711.633L999.603 708.774ZM840.398 759.531L843.257 758.62C842.926 757.583 842.611 756.596 842.305 755.634C841.998 754.672 841.699 753.735 841.4 752.798L838.542 753.709L835.684 754.62C835.983 755.557 836.281 756.495 836.588 757.457C836.895 758.419 837.21 759.406 837.54 760.443L840.398 759.531ZM838.542 753.709L841.4 752.798C829.589 715.749 817.845 678.658 805.93 641.628L803.074 642.547L800.218 643.466C812.13 680.486 823.867 717.556 835.684 754.62L838.542 753.709ZM803.074 642.547L805.93 641.628C791.426 596.562 776.814 551.543 762.128 506.551L759.276 507.481L756.424 508.412C771.108 553.399 785.717 598.409 800.218 643.466L803.074 642.547ZM759.276 507.481L762.129 506.551C761.097 503.389 761.058 500.806 762.156 497.758L759.334 496.741L756.512 495.724C754.915 500.155 755.023 504.116 756.424 508.412L759.276 507.481ZM759.334 496.741L762.156 497.76C768.984 478.84 775.61 459.85 782.144 440.842L779.307 439.867L776.47 438.892C769.942 457.883 763.327 476.842 756.512 495.723L759.334 496.741ZM779.307 439.867L782.145 440.838C782.598 439.513 783.076 438.722 783.606 438.178C784.122 437.65 784.867 437.171 786.159 436.769L785.27 433.904L784.38 431.039C782.381 431.66 780.685 432.581 779.312 433.988C777.954 435.38 777.096 437.06 776.468 438.897L779.307 439.867ZM785.27 433.904L786.163 436.768C810.192 429.272 834.169 421.613 858.101 413.819L857.172 410.967L856.243 408.114C832.333 415.901 808.379 423.552 784.376 431.04L785.27 433.904ZM872.395 516.888V513.888C831.249 513.888 797.895 547.243 797.895 588.388L800.895 588.388L803.895 588.388C803.895 550.556 834.563 519.888 872.395 519.888V516.888ZM800.895 588.388H797.895C797.895 629.533 831.249 662.888 872.395 662.888V659.888V656.888C834.563 656.888 803.895 626.219 803.895 588.388H800.895ZM872.395 659.888L872.395 662.888C913.54 662.888 946.895 629.533 946.895 588.388H943.895H940.895C940.895 626.219 910.226 656.888 872.395 656.888L872.395 659.888ZM943.895 588.388L946.895 588.388C946.894 547.243 913.54 513.888 872.395 513.888L872.395 516.888L872.395 519.888C910.226 519.888 940.894 550.556 940.895 588.388L943.895 588.388Z" fill="#1210A2" mask="url(#path-23-inside-6_203_2670)"/>
<path d="M832.895 437.39C838.636 437.39 843.395 442.256 843.395 448.39C843.395 454.523 838.636 459.39 832.895 459.39C827.153 459.39 822.395 454.523 822.395 448.39C822.395 442.256 827.153 437.39 832.895 437.39Z" fill="white" stroke="#1210A2" stroke-width="3"/>
<path d="M1313.81 566.716C1313.81 568.602 1313.53 573.789 1312.96 582.277H1219.18C1220.5 595.857 1224.18 605.476 1230.23 611.134C1236.27 616.793 1244.49 619.622 1254.88 619.622C1261.3 619.622 1267.34 618.585 1273.01 616.51C1278.68 614.435 1284.82 611.134 1291.43 606.608L1308.14 629.241C1291.33 642.821 1272.35 649.611 1251.19 649.611C1227.58 649.611 1209.45 642.538 1196.79 628.392C1184.14 614.247 1177.81 595.102 1177.81 570.96C1177.81 555.682 1180.45 542.008 1185.74 529.937C1191.22 517.677 1199.06 508.058 1209.26 501.079C1219.65 494.101 1231.93 490.611 1246.09 490.611C1267.44 490.611 1284.06 497.307 1295.96 510.699C1307.86 524.09 1313.81 542.763 1313.81 566.716ZM1273.86 555.4C1273.86 530.503 1264.89 518.054 1246.94 518.054C1238.63 518.054 1232.12 521.166 1227.39 527.391C1222.86 533.426 1220.12 543.328 1219.18 557.097H1273.86V555.4Z" fill="#1210A2"/>
<mask id="path-27-inside-7_203_2670" fill="white">
<path d="M1246.78 418.156C1252.64 412.873 1261.93 413.092 1268.28 419.379C1270.39 421.469 1272.08 424.105 1273.53 426.733C1274.87 429.197 1275.64 431.977 1276.78 434.959C1279.5 432.181 1281.79 429.465 1284.47 427.222C1291.21 421.613 1299.23 420.643 1305.57 424.739C1307.47 425.969 1309.32 427.812 1310.31 429.825C1316.49 442.229 1324.74 452.171 1338.83 455.114C1337.38 469.277 1348.16 473.62 1357.49 479.322C1357.36 480.41 1357.28 481.577 1357.07 482.717C1343.13 560.477 1329.16 638.23 1315.32 716.009C1314.56 720.294 1313.27 722.624 1308.54 723.69C1295.36 726.668 1286.27 735.074 1280.07 746.947C1279.41 748.216 1277.03 749.614 1275.72 749.384C1239.09 743.005 1202.48 736.419 1165.88 729.861C1165.56 729.802 1165.27 729.576 1164.67 729.293C1164.57 719.957 1162.38 710.906 1156.36 703.488C1152.69 698.975 1148.12 695.074 1143.45 691.566C1140.84 689.608 1140.23 688.062 1140.79 684.974C1152.56 620.237 1164.24 555.468 1175.89 490.707C1178.11 478.384 1180.4 466.073 1182.15 453.677C1182.84 448.887 1184.95 446.922 1189.48 446.573C1196.09 446.069 1202.1 443.942 1206.43 438.639C1208.16 436.536 1209.19 433.905 1210.93 430.811C1224.96 434.061 1236.42 427.516 1246.78 418.156ZM1249.3 527.612C1209.81 527.612 1177.8 559.624 1177.8 599.112C1177.8 638.601 1209.81 670.612 1249.3 670.612C1288.79 670.612 1320.8 638.601 1320.8 599.112C1320.8 559.624 1288.79 527.612 1249.3 527.612Z"/>
</mask>
<path d="M1246.78 418.156C1252.64 412.873 1261.93 413.092 1268.28 419.379C1270.39 421.469 1272.08 424.105 1273.53 426.733C1274.87 429.197 1275.64 431.977 1276.78 434.959C1279.5 432.181 1281.79 429.465 1284.47 427.222C1291.21 421.613 1299.23 420.643 1305.57 424.739C1307.47 425.969 1309.32 427.812 1310.31 429.825C1316.49 442.229 1324.74 452.171 1338.83 455.114C1337.38 469.277 1348.16 473.62 1357.49 479.322C1357.36 480.41 1357.28 481.577 1357.07 482.717C1343.13 560.477 1329.16 638.23 1315.32 716.009C1314.56 720.294 1313.27 722.624 1308.54 723.69C1295.36 726.668 1286.27 735.074 1280.07 746.947C1279.41 748.216 1277.03 749.614 1275.72 749.384C1239.09 743.005 1202.48 736.419 1165.88 729.861C1165.56 729.802 1165.27 729.576 1164.67 729.293C1164.57 719.957 1162.38 710.906 1156.36 703.488C1152.69 698.975 1148.12 695.074 1143.45 691.566C1140.84 689.608 1140.23 688.062 1140.79 684.974C1152.56 620.237 1164.24 555.468 1175.89 490.707C1178.11 478.384 1180.4 466.073 1182.15 453.677C1182.84 448.887 1184.95 446.922 1189.48 446.573C1196.09 446.069 1202.1 443.942 1206.43 438.639C1208.16 436.536 1209.19 433.905 1210.93 430.811C1224.96 434.061 1236.42 427.516 1246.78 418.156ZM1249.3 527.612C1209.81 527.612 1177.8 559.624 1177.8 599.112C1177.8 638.601 1209.81 670.612 1249.3 670.612C1288.79 670.612 1320.8 638.601 1320.8 599.112C1320.8 559.624 1288.79 527.612 1249.3 527.612Z" fill="#F8E184"/>
<path d="M1246.78 418.156L1244.78 415.928L1244.77 415.93L1246.78 418.156ZM1268.28 419.379L1266.17 421.511L1266.17 421.512L1268.28 419.379ZM1273.53 426.733L1276.16 425.298L1276.16 425.289L1273.53 426.733ZM1276.78 434.959L1273.97 436.03L1275.64 440.395L1278.92 437.062L1276.78 434.959ZM1284.47 427.222L1282.55 424.916L1282.54 424.92L1284.47 427.222ZM1305.57 424.739L1303.94 427.258L1303.94 427.259L1305.57 424.739ZM1310.31 429.825L1307.62 431.148L1307.62 431.155L1307.63 431.163L1310.31 429.825ZM1338.83 455.114L1341.81 455.419L1342.09 452.731L1339.44 452.178L1338.83 455.114ZM1357.49 479.322L1360.47 479.696L1360.71 477.773L1359.06 476.762L1357.49 479.322ZM1357.07 482.717L1354.12 482.167L1354.12 482.177L1354.12 482.187L1357.07 482.717ZM1315.32 716.009L1312.37 715.483L1312.37 715.486L1315.32 716.009ZM1308.54 723.69L1307.88 720.764L1307.88 720.764L1308.54 723.69ZM1280.07 746.947L1277.41 745.559L1277.41 745.562L1280.07 746.947ZM1275.72 749.384L1276.24 746.429L1276.24 746.428L1275.72 749.384ZM1165.88 729.861L1165.32 732.81L1165.33 732.812L1165.35 732.814L1165.88 729.861ZM1164.67 729.293L1161.67 729.325L1161.69 731.198L1163.38 732.002L1164.67 729.293ZM1156.36 703.488L1154.03 705.379L1154.03 705.379L1156.36 703.488ZM1143.45 691.566L1145.25 689.168L1145.25 689.165L1143.45 691.566ZM1140.79 684.974L1143.74 685.511L1143.74 685.511L1140.79 684.974ZM1175.89 490.707L1172.94 490.176L1172.94 490.176L1175.89 490.707ZM1182.15 453.677L1179.18 453.254L1179.18 453.256L1182.15 453.677ZM1189.48 446.573L1189.25 443.582L1189.25 443.582L1189.48 446.573ZM1206.43 438.639L1204.11 436.733L1204.1 436.742L1206.43 438.639ZM1210.93 430.811L1211.61 427.888L1209.42 427.381L1208.32 429.339L1210.93 430.811ZM1249.3 527.612V524.612H1249.3L1249.3 527.612ZM1177.8 599.112L1174.8 599.112V599.112H1177.8ZM1249.3 670.612L1249.3 673.612H1249.3V670.612ZM1320.8 599.112H1323.8V599.112L1320.8 599.112ZM1246.78 418.156L1248.79 420.384C1253.38 416.252 1260.85 416.251 1266.17 421.511L1268.28 419.379L1270.39 417.247C1263 409.934 1251.91 409.494 1244.78 415.928L1246.78 418.156ZM1268.28 419.379L1266.17 421.512C1267.98 423.303 1269.51 425.646 1270.9 428.178L1273.53 426.733L1276.16 425.289C1274.66 422.565 1272.8 419.636 1270.39 417.246L1268.28 419.379ZM1273.53 426.733L1270.89 428.168C1272.11 430.402 1272.69 432.678 1273.97 436.03L1276.78 434.959L1279.58 433.888C1278.58 431.276 1277.63 427.991 1276.16 425.298L1273.53 426.733ZM1276.78 434.959L1278.92 437.062C1281.87 434.054 1283.85 431.647 1286.39 429.523L1284.47 427.222L1282.54 424.92C1279.72 427.284 1277.14 430.308 1274.64 432.856L1276.78 434.959ZM1284.47 427.222L1286.39 429.528C1292.35 424.567 1298.94 424.025 1303.94 427.258L1305.57 424.739L1307.19 422.22C1299.53 417.261 1290.07 418.659 1282.55 424.916L1284.47 427.222ZM1305.57 424.739L1303.94 427.259C1305.51 428.276 1306.93 429.743 1307.62 431.148L1310.31 429.825L1313.01 428.503C1311.72 425.881 1309.43 423.662 1307.19 422.219L1305.57 424.739ZM1310.31 429.825L1307.63 431.163C1313.98 443.918 1322.82 454.833 1338.21 458.051L1338.83 455.114L1339.44 452.178C1326.67 449.508 1319 440.54 1313 428.488L1310.31 429.825ZM1338.83 455.114L1335.84 454.809C1335.02 462.875 1337.74 468.388 1342.03 472.545C1346.03 476.422 1351.59 479.231 1355.93 481.882L1357.49 479.322L1359.06 476.762C1354.06 473.711 1349.57 471.497 1346.21 468.237C1343.13 465.257 1341.19 461.517 1341.81 455.419L1338.83 455.114ZM1357.49 479.322L1354.52 478.949C1354.34 480.311 1354.32 481.124 1354.12 482.167L1357.07 482.717L1360.02 483.267C1360.25 482.029 1360.37 480.509 1360.47 479.696L1357.49 479.322ZM1357.07 482.717L1354.12 482.187C1340.18 559.945 1326.2 637.702 1312.37 715.483L1315.32 716.009L1318.27 716.534C1332.11 638.758 1346.09 561.008 1360.02 483.246L1357.07 482.717ZM1315.32 716.009L1312.37 715.486C1312.01 717.51 1311.6 718.534 1311.08 719.172C1310.64 719.724 1309.84 720.321 1307.88 720.764L1308.54 723.69L1309.2 726.617C1311.96 725.993 1314.18 724.892 1315.75 722.94C1317.26 721.076 1317.87 718.792 1318.27 716.532L1315.32 716.009ZM1308.54 723.69L1307.88 720.764C1293.66 723.978 1283.93 733.087 1277.41 745.559L1280.07 746.947L1282.73 748.336C1288.62 737.062 1297.06 729.359 1309.2 726.617L1308.54 723.69ZM1280.07 746.947L1277.41 745.562C1277.46 745.462 1277.46 745.514 1277.28 745.676C1277.12 745.82 1276.9 745.98 1276.66 746.121C1276.4 746.264 1276.19 746.352 1276.04 746.393C1275.86 746.444 1275.96 746.379 1276.24 746.429L1275.72 749.384L1275.2 752.338C1276.14 752.504 1277.03 752.35 1277.68 752.164C1278.37 751.968 1279.04 751.67 1279.63 751.334C1280.7 750.722 1282.02 749.697 1282.73 748.333L1280.07 746.947ZM1275.72 749.384L1276.24 746.428C1239.61 740.051 1203.01 733.467 1166.4 726.908L1165.88 729.861L1165.35 732.814C1201.94 739.371 1238.56 745.959 1275.21 752.339L1275.72 749.384ZM1165.88 729.861L1166.43 726.912C1166.6 726.946 1166.73 726.994 1166.79 727.018C1166.84 727.039 1166.85 727.048 1166.78 727.011C1166.75 726.995 1166.72 726.975 1166.66 726.946C1166.61 726.918 1166.55 726.883 1166.48 726.846C1166.34 726.771 1166.16 726.681 1165.96 726.584L1164.67 729.293L1163.38 732.002C1163.6 732.106 1163.69 732.161 1163.97 732.311C1164.17 732.42 1164.68 732.689 1165.32 732.81L1165.88 729.861ZM1164.67 729.293L1167.67 729.261C1167.56 719.491 1165.26 709.704 1158.68 701.598L1156.36 703.488L1154.03 705.379C1159.49 712.108 1161.57 720.423 1161.67 729.325L1164.67 729.293ZM1156.36 703.488L1158.69 701.598C1154.8 696.81 1150.01 692.739 1145.25 689.168L1143.45 691.566L1141.65 693.965C1146.24 697.41 1150.59 701.14 1154.03 705.379L1156.36 703.488ZM1143.45 691.566L1145.25 689.165C1144.12 688.316 1143.82 687.843 1143.71 687.573C1143.61 687.319 1143.5 686.818 1143.74 685.511L1140.79 684.974L1137.84 684.436C1137.51 686.218 1137.43 688.035 1138.15 689.815C1138.86 691.579 1140.17 692.859 1141.65 693.967L1143.45 691.566ZM1140.79 684.974L1143.74 685.511C1155.52 620.771 1167.19 555.999 1178.84 491.238L1175.89 490.707L1172.94 490.176C1161.29 554.936 1149.61 619.703 1137.84 684.437L1140.79 684.974ZM1175.89 490.707L1178.84 491.238C1181.05 478.943 1183.36 466.564 1185.12 454.097L1182.15 453.677L1179.18 453.256C1177.44 465.583 1175.16 477.824 1172.94 490.176L1175.89 490.707ZM1182.15 453.677L1185.12 454.099C1185.42 452.027 1185.96 451.1 1186.45 450.623C1186.93 450.161 1187.8 449.711 1189.71 449.564L1189.48 446.573L1189.25 443.582C1186.62 443.784 1184.17 444.491 1182.3 446.296C1180.43 448.086 1179.57 450.536 1179.18 453.254L1182.15 453.677ZM1189.48 446.573L1189.71 449.565C1196.82 449.022 1203.73 446.687 1208.75 440.535L1206.43 438.639L1204.1 436.742C1200.47 441.197 1195.36 443.116 1189.25 443.582L1189.48 446.573ZM1206.43 438.639L1208.74 440.544C1209.8 439.255 1210.61 437.858 1211.33 436.501C1212.09 435.058 1212.69 433.8 1213.55 432.282L1210.93 430.811L1208.32 429.339C1207.43 430.916 1206.64 432.52 1206.02 433.692C1205.36 434.95 1204.78 435.919 1204.11 436.733L1206.43 438.639ZM1210.93 430.811L1210.25 433.733C1225.74 437.323 1238.2 429.951 1248.79 420.383L1246.78 418.156L1244.77 415.93C1234.64 425.081 1224.18 430.8 1211.61 427.888L1210.93 430.811ZM1249.3 527.612L1249.3 524.612C1208.16 524.612 1174.8 557.967 1174.8 599.112L1177.8 599.112L1180.8 599.112C1180.8 561.281 1211.47 530.612 1249.3 530.612L1249.3 527.612ZM1177.8 599.112H1174.8C1174.8 640.257 1208.16 673.612 1249.3 673.612L1249.3 670.612L1249.3 667.612C1211.47 667.612 1180.8 636.944 1180.8 599.112H1177.8ZM1249.3 670.612V673.612C1290.45 673.612 1323.8 640.258 1323.8 599.112H1320.8H1317.8C1317.8 636.944 1287.13 667.612 1249.3 667.612V670.612ZM1320.8 599.112L1323.8 599.112C1323.8 557.967 1290.45 524.612 1249.3 524.612V527.612V530.612C1287.13 530.612 1317.8 561.281 1317.8 599.112L1320.8 599.112Z" fill="#1210A2" mask="url(#path-27-inside-7_203_2670)"/>
<path d="M1271.81 446.111C1277.55 446.111 1282.31 450.978 1282.31 457.111C1282.31 463.245 1277.55 468.111 1271.81 468.111C1266.07 468.111 1261.31 463.245 1261.31 457.111C1261.31 450.978 1266.07 446.111 1271.81 446.111Z" fill="white" stroke="#1210A2" stroke-width="3"/>
<path d="M1179.66 24.9082C1185.99 24.9082 1191.16 30.2614 1191.16 36.9082C1191.16 43.5551 1185.99 48.9082 1179.66 48.9082C1173.33 48.9082 1168.16 43.5551 1168.16 36.9082C1168.16 30.2614 1173.33 24.9082 1179.66 24.9082Z" fill="#1210A2" stroke="#F8E184"/>
<path d="M1215.3 306.408C1192.18 306.408 1173.63 298.686 1159.66 283.24L1177.49 266.106C1182.62 271.254 1188.08 275.116 1193.87 277.69C1199.65 280.264 1206.15 281.551 1213.38 281.551C1223.33 281.551 1231.04 279.138 1236.5 274.311C1242.12 269.484 1244.93 262.727 1244.93 254.039C1244.93 245.351 1242.12 238.674 1236.5 234.009C1231.04 229.182 1222.85 226.769 1211.93 226.769H1195.31L1199.17 202.877H1212.41C1221.09 202.877 1227.91 200.785 1232.89 196.602C1237.87 192.258 1240.36 186.386 1240.36 178.985C1240.36 172.389 1238.35 166.999 1234.34 162.816C1230.32 158.633 1224.14 156.541 1215.79 156.541C1203.74 156.541 1191.78 161.368 1179.89 171.021L1164.48 153.887C1180.05 139.568 1198.36 132.408 1219.4 132.408C1230.8 132.408 1240.52 134.339 1248.55 138.2C1256.74 141.901 1262.92 147.049 1267.1 153.645C1271.27 160.081 1273.36 167.401 1273.36 175.607C1273.36 185.582 1270.31 193.867 1264.21 200.464C1258.1 207.06 1249.51 211.565 1238.43 213.978C1250.47 215.265 1260.19 219.448 1267.58 226.527C1274.97 233.446 1278.66 243.018 1278.66 255.246C1278.66 265.382 1275.93 274.311 1270.47 282.034C1265.17 289.756 1257.7 295.79 1248.07 300.134C1238.59 304.317 1227.67 306.408 1215.3 306.408Z" fill="#1210A2"/>
<mask id="path-32-inside-8_203_2670" fill="white">
<path d="M1149.6 20.6748C1158.86 3.61462 1172.72 -0.400292 1189.08 6.85254C1216.93 19.1971 1245.5 29.9331 1273.79 41.2783C1281.13 44.2208 1286.05 49.2073 1288.69 56.7227C1300.37 89.9148 1312.22 123.051 1324 156.208C1324.18 156.723 1324.49 157.898 1324.5 157.908C1335.8 189.72 1344.7 220.493 1355.9 252.345C1362.99 272.532 1357.28 283.209 1336.77 290.163C1292.98 305.006 1249.15 319.755 1205.61 335.307C1190.87 340.572 1175.51 336.652 1169.13 317.575C1147.61 253.086 1125.08 188.921 1102.73 124.712C1099.14 114.42 1100.22 105.527 1105.92 96.0781C1120.94 71.2187 1135.75 46.195 1149.6 20.6748ZM1225.15 99.4072C1185.67 99.4072 1153.65 131.419 1153.65 170.907C1153.65 210.396 1185.67 242.407 1225.15 242.407C1264.64 242.407 1296.65 210.396 1296.65 170.907C1296.65 131.419 1264.64 99.4073 1225.15 99.4072Z"/>
</mask>
<path d="M1149.6 20.6748C1158.86 3.61462 1172.72 -0.400292 1189.08 6.85254C1216.93 19.1971 1245.5 29.9331 1273.79 41.2783C1281.13 44.2208 1286.05 49.2073 1288.69 56.7227C1300.37 89.9148 1312.22 123.051 1324 156.208C1324.18 156.723 1324.49 157.898 1324.5 157.908C1335.8 189.72 1344.7 220.493 1355.9 252.345C1362.99 272.532 1357.28 283.209 1336.77 290.163C1292.98 305.006 1249.15 319.755 1205.61 335.307C1190.87 340.572 1175.51 336.652 1169.13 317.575C1147.61 253.086 1125.08 188.921 1102.73 124.712C1099.14 114.42 1100.22 105.527 1105.92 96.0781C1120.94 71.2187 1135.75 46.195 1149.6 20.6748ZM1225.15 99.4072C1185.67 99.4072 1153.65 131.419 1153.65 170.907C1153.65 210.396 1185.67 242.407 1225.15 242.407C1264.64 242.407 1296.65 210.396 1296.65 170.907C1296.65 131.419 1264.64 99.4073 1225.15 99.4072Z" fill="#F8E184"/>
<path d="M1149.6 20.6748L1146.97 19.2434L1146.96 19.2439L1149.6 20.6748ZM1189.08 6.85254L1190.3 4.10999L1190.3 4.10988L1189.08 6.85254ZM1273.79 41.2783L1274.91 38.494L1274.91 38.4939L1273.79 41.2783ZM1288.69 56.7227L1285.86 57.7178L1285.86 57.7187L1288.69 56.7227ZM1324 156.208L1326.82 155.204L1326.82 155.204L1324 156.208ZM1324.5 157.908L1321.6 158.681L1321.63 158.798L1321.67 158.913L1324.5 157.908ZM1355.9 252.345L1358.73 251.351L1358.73 251.35L1355.9 252.345ZM1336.77 290.163L1337.74 293.004L1337.74 293.004L1336.77 290.163ZM1205.61 335.307L1206.62 338.132L1206.62 338.132L1205.61 335.307ZM1169.13 317.575L1166.29 318.525L1166.29 318.526L1169.13 317.575ZM1102.73 124.712L1105.56 123.725L1105.56 123.724L1102.73 124.712ZM1105.92 96.0781L1103.35 94.5273L1103.35 94.5276L1105.92 96.0781ZM1225.15 99.4072V96.4072V99.4072ZM1153.65 170.907H1150.65H1153.65ZM1225.15 242.407V245.407V242.407ZM1296.65 170.907H1299.65H1296.65ZM1149.6 20.6748L1152.24 22.1062C1156.62 14.0343 1161.88 9.41393 1167.63 7.49141C1173.39 5.56641 1180.15 6.17354 1187.87 9.5952L1189.08 6.85254L1190.3 4.10988C1181.66 0.27871 1173.31 -0.733121 1165.73 1.80117C1158.14 4.33795 1151.85 10.2551 1146.97 19.2434L1149.6 20.6748ZM1189.08 6.85254L1187.87 9.59508C1215.78 21.9686 1244.47 32.7505 1272.68 44.0628L1273.79 41.2783L1274.91 38.4939C1246.54 27.1157 1218.08 16.4256 1190.3 4.10999L1189.08 6.85254ZM1273.79 41.2783L1272.68 44.0627C1279.24 46.6938 1283.51 51.0438 1285.86 57.7178L1288.69 56.7227L1291.52 55.7275C1288.58 47.3709 1283.02 41.7479 1274.91 38.494L1273.79 41.2783ZM1288.69 56.7227L1285.86 57.7187C1297.54 90.9164 1309.39 124.062 1321.17 157.212L1324 156.208L1326.82 155.204C1315.04 122.039 1303.2 88.9132 1291.52 55.7266L1288.69 56.7227ZM1324 156.208L1321.17 157.212C1321.22 157.363 1321.32 157.695 1321.43 158.063C1321.52 158.402 1321.6 158.683 1321.6 158.681L1324.5 157.908L1327.39 157.135C1327.39 157.124 1327.31 156.811 1327.2 156.432C1327.1 156.081 1326.95 155.568 1326.82 155.204L1324 156.208ZM1324.5 157.908L1321.67 158.913C1327.3 174.77 1332.34 190.376 1337.38 206.031C1342.42 221.674 1347.46 237.369 1353.07 253.339L1355.9 252.345L1358.73 251.35C1353.15 235.469 1348.13 219.852 1343.09 204.192C1338.06 188.545 1332.99 172.858 1327.32 156.904L1324.5 157.908ZM1355.9 252.345L1353.07 253.339C1356.51 263.132 1356.56 269.871 1354.01 274.849C1351.44 279.864 1345.81 283.93 1335.81 287.322L1336.77 290.163L1337.74 293.004C1348.24 289.442 1355.71 284.693 1359.35 277.584C1363.01 270.438 1362.38 261.744 1358.73 251.351L1355.9 252.345ZM1336.77 290.163L1335.81 287.322C1292.03 302.161 1248.17 316.919 1204.6 332.481L1205.61 335.307L1206.62 338.132C1250.13 322.59 1293.94 307.851 1337.74 293.004L1336.77 290.163ZM1205.61 335.307L1204.6 332.481C1197.73 334.935 1191.01 335.147 1185.39 332.801C1179.85 330.487 1174.94 325.497 1171.98 316.624L1169.13 317.575L1166.29 318.526C1169.7 328.731 1175.66 335.239 1183.08 338.338C1190.42 341.405 1198.75 340.944 1206.62 338.132L1205.61 335.307ZM1169.13 317.575L1171.98 316.625C1150.44 252.112 1127.91 187.924 1105.56 123.725L1102.73 124.712L1099.89 125.698C1122.25 189.918 1144.77 254.059 1166.29 318.525L1169.13 317.575ZM1102.73 124.712L1105.56 123.724C1102.28 114.316 1103.23 106.349 1108.49 97.6286L1105.92 96.0781L1103.35 94.5276C1097.21 104.704 1096 114.525 1099.89 125.699L1102.73 124.712ZM1105.92 96.0781L1108.49 97.629C1123.51 72.7585 1138.36 47.6877 1152.24 22.1057L1149.6 20.6748L1146.96 19.2439C1133.15 44.7023 1118.36 69.6789 1103.35 94.5273L1105.92 96.0781ZM1225.15 99.4072V96.4072C1184.01 96.4072 1150.65 129.762 1150.65 170.907H1153.65H1156.65C1156.65 133.076 1187.32 102.407 1225.15 102.407V99.4072ZM1153.65 170.907H1150.65C1150.65 212.052 1184.01 245.407 1225.15 245.407V242.407V239.407C1187.32 239.407 1156.65 208.739 1156.65 170.907H1153.65ZM1225.15 242.407V245.407C1266.3 245.407 1299.65 212.052 1299.65 170.907H1296.65H1293.65C1293.65 208.739 1262.99 239.407 1225.15 239.407V242.407ZM1296.65 170.907H1299.65C1299.65 129.762 1266.3 96.4073 1225.15 96.4072V99.4072V102.407C1262.99 102.407 1293.65 133.076 1293.65 170.907H1296.65Z" fill="#1210A2" mask="url(#path-32-inside-8_203_2670)"/>
<path d="M1176.66 22.9082C1182.4 22.9082 1187.16 27.7748 1187.16 33.9082C1187.16 40.0416 1182.4 44.9082 1176.66 44.9082C1170.92 44.9082 1166.16 40.0416 1166.16 33.9082C1166.16 27.7748 1170.92 22.9082 1176.66 22.9082Z" fill="white" stroke="#1210A2" stroke-width="3"/>
</svg>
