<svg width="358" height="552" viewBox="0 0 358 552" fill="none" xmlns="http://www.w3.org/2000/svg">
<rect x="1.5" y="2.21875" width="355" height="548" rx="98.5" fill="#268020" stroke="#268020" stroke-width="3"/>
<path d="M92 149.369C92 149.369 115 52.391 166.5 56.8692C218 61.3474 211.5 159.369 211.5 159.369" stroke="#268020" stroke-width="3"/>
<path d="M105.559 156.315L97.7775 174.656L95.1915 174.48L89.7552 155.238L92.0539 155.395L96.6094 172.737L103.332 156.163L105.559 156.315Z" fill="white"/>
<path d="M105.559 175.969L97.7775 194.311L95.1915 194.135L89.7552 174.892L92.0539 175.049L96.6094 192.391L103.332 175.818L105.559 175.969Z" fill="white"/>
<path d="M105.559 195.625L97.7775 213.966L95.1915 213.79L89.7552 194.548L92.0539 194.704L96.6094 212.046L103.332 195.473L105.559 195.625Z" fill="white"/>
<path d="M105.559 215.28L97.7775 233.621L95.1915 233.445L89.7552 214.203L92.0539 214.36L96.6094 231.701L103.332 215.128L105.559 215.28Z" fill="white"/>
<path d="M105.559 234.934L97.7775 253.276L95.1915 253.099L89.7552 233.857L92.0539 234.014L96.6094 251.356L103.332 234.782L105.559 234.934Z" fill="white"/>
<path d="M105.559 254.588L97.7775 272.93L95.1915 272.754L89.7552 253.511L92.0539 253.668L96.6094 271.01L103.332 254.437L105.559 254.588Z" fill="white"/>
<path d="M105.559 274.244L97.7775 292.585L95.1915 292.409L89.7552 273.167L92.0539 273.323L96.6094 290.665L103.332 274.092L105.559 274.244Z" fill="white"/>
<path d="M105.559 293.899L97.7775 312.24L95.1915 312.064L89.7552 292.822L92.0539 292.979L96.6094 310.321L103.332 293.747L105.559 293.899Z" fill="white"/>
<path d="M105.559 313.553L97.7775 331.895L95.1915 331.718L89.7552 312.476L92.0539 312.633L96.6094 329.975L103.332 313.402L105.559 313.553Z" fill="white"/>
<path d="M105.559 333.208L97.7775 351.549L95.1915 351.373L89.7552 332.131L92.0539 332.287L96.6094 349.629L103.332 333.056L105.559 333.208Z" fill="white"/>
<path d="M105.559 352.863L97.7775 371.204L95.1915 371.028L89.7552 351.786L92.0539 351.943L96.6094 369.284L103.332 352.711L105.559 352.863Z" fill="white"/>
<path d="M105.559 372.518L97.7775 390.86L95.1915 390.683L89.7552 371.441L92.0539 371.598L96.6094 388.94L103.332 372.366L105.559 372.518Z" fill="white"/>
<path d="M105.559 392.172L97.7775 410.514L95.1915 410.338L89.7552 391.095L92.0539 391.252L96.6094 408.594L103.332 392.021L105.559 392.172Z" fill="white"/>
<path d="M90.2344 392.172L82.4533 410.514L79.8673 410.338L74.431 391.095L76.7297 391.252L81.2852 408.594L88.0075 392.021L90.2344 392.172Z" fill="white"/>
<path d="M90.2344 371.969L82.4533 390.311L79.8673 390.135L74.431 370.892L76.7297 371.049L81.2852 388.391L88.0075 371.818L90.2344 371.969Z" fill="white"/>
<path d="M75.2344 371.969L67.4533 390.311L64.8673 390.135L59.431 370.892L61.7297 371.049L66.2852 388.391L73.0075 371.818L75.2344 371.969Z" fill="white"/>
<path d="M90.2344 351.767L82.4533 370.109L79.8673 369.932L74.431 350.69L76.7297 350.847L81.2852 368.189L88.0075 351.615L90.2344 351.767Z" fill="white"/>
<path d="M75.2344 351.767L67.4533 370.109L64.8673 369.932L59.431 350.69L61.7297 350.847L66.2852 368.189L73.0075 351.615L75.2344 351.767Z" fill="white"/>
<path d="M90.2344 331.565L82.4533 349.906L79.8673 349.73L74.431 330.488L76.7297 330.645L81.2852 347.987L88.0075 331.413L90.2344 331.565Z" fill="white"/>
<path d="M75.2344 331.565L67.4533 349.906L64.8673 349.73L59.431 330.488L61.7297 330.645L66.2852 347.987L73.0075 331.413L75.2344 331.565Z" fill="white"/>
<path d="M90.2344 311.362L82.4533 329.703L79.8673 329.527L74.431 310.285L76.7297 310.442L81.2852 327.783L88.0075 311.21L90.2344 311.362Z" fill="white"/>
<path d="M75.2344 311.362L67.4533 329.703L64.8673 329.527L59.431 310.285L61.7297 310.442L66.2852 327.783L73.0075 311.21L75.2344 311.362Z" fill="white"/>
<path d="M90.2344 291.159L82.4533 309.5L79.8673 309.324L74.431 290.082L76.7297 290.238L81.2852 307.58L88.0075 291.007L90.2344 291.159Z" fill="white"/>
<path d="M90.2344 270.957L82.4533 289.298L79.8673 289.122L74.431 269.88L76.7297 270.036L81.2852 287.378L88.0075 270.805L90.2344 270.957Z" fill="white"/>
<path d="M120.524 157.335L112.743 175.676L110.157 175.5L104.721 156.258L107.02 156.414L111.575 173.756L118.298 157.183L120.524 157.335Z" fill="white"/>
<path d="M120.524 176.99L112.743 195.331L110.157 195.155L104.721 175.913L107.02 176.07L111.575 193.411L118.298 176.838L120.524 176.99Z" fill="white"/>
<path d="M120.524 196.645L112.743 214.987L110.157 214.81L104.721 195.568L107.02 195.725L111.575 213.067L118.298 196.493L120.524 196.645Z" fill="white"/>
<path d="M120.524 216.299L112.743 234.641L110.157 234.465L104.721 215.222L107.02 215.379L111.575 232.721L118.298 216.148L120.524 216.299Z" fill="white"/>
<path d="M120.524 235.954L112.743 254.295L110.157 254.119L104.721 234.877L107.02 235.033L111.575 252.375L118.298 235.802L120.524 235.954Z" fill="white"/>
<path d="M120.524 255.609L112.743 273.95L110.157 273.774L104.721 254.532L107.02 254.689L111.575 272.031L118.298 255.457L120.524 255.609Z" fill="white"/>
<path d="M120.524 275.264L112.743 293.606L110.157 293.429L104.721 274.187L107.02 274.344L111.575 291.686L118.298 275.112L120.524 275.264Z" fill="white"/>
<path d="M120.524 294.919L112.743 313.26L110.157 313.084L104.721 293.842L107.02 293.998L111.575 311.34L118.298 294.767L120.524 294.919Z" fill="white"/>
<path d="M120.524 314.573L112.743 332.914L110.157 332.738L104.721 313.496L107.02 313.653L111.575 330.994L118.298 314.421L120.524 314.573Z" fill="white"/>
<path d="M120.524 334.228L112.743 352.57L110.157 352.393L104.721 333.151L107.02 333.308L111.575 350.65L118.298 334.076L120.524 334.228Z" fill="white"/>
<path d="M120.524 353.883L112.743 372.225L110.157 372.049L104.721 352.806L107.02 352.963L111.575 370.305L118.298 353.732L120.524 353.883Z" fill="white"/>
<path d="M120.524 373.538L112.743 391.879L110.157 391.703L104.721 372.461L107.02 372.617L111.575 389.959L118.298 373.386L120.524 373.538Z" fill="white"/>
<path d="M120.524 393.192L112.743 411.533L110.157 411.357L104.721 392.115L107.02 392.272L111.575 409.614L118.298 393.04L120.524 393.192Z" fill="white"/>
<path d="M135.489 158.355L127.708 176.696L125.122 176.52L119.686 157.278L121.985 157.435L126.54 174.777L133.262 158.203L135.489 158.355Z" fill="white"/>
<path d="M135.489 178.01L127.708 196.352L125.122 196.176L119.686 176.933L121.985 177.09L126.54 194.432L133.262 177.859L135.489 178.01Z" fill="white"/>
<path d="M135.489 197.665L127.708 216.006L125.122 215.83L119.686 196.588L121.985 196.744L126.54 214.086L133.262 197.513L135.489 197.665Z" fill="white"/>
<path d="M135.489 217.319L127.708 235.66L125.122 235.484L119.686 216.242L121.985 216.399L126.54 233.74L133.262 217.167L135.489 217.319Z" fill="white"/>
<path d="M135.489 236.974L127.708 255.316L125.122 255.139L119.686 235.897L121.985 236.054L126.54 253.396L133.262 236.822L135.489 236.974Z" fill="white"/>
<path d="M135.489 256.629L127.708 274.971L125.122 274.795L119.686 255.553L121.985 255.709L126.54 273.051L133.262 256.478L135.489 256.629Z" fill="white"/>
<path d="M135.489 276.284L127.708 294.625L125.122 294.449L119.686 275.207L121.985 275.363L126.54 292.705L133.262 276.132L135.489 276.284Z" fill="white"/>
<path d="M135.489 295.938L127.708 314.279L125.122 314.103L119.686 294.861L121.985 295.018L126.54 312.36L133.262 295.786L135.489 295.938Z" fill="white"/>
<path d="M135.489 315.593L127.708 333.935L125.122 333.759L119.686 314.516L121.985 314.673L126.54 332.015L133.262 315.442L135.489 315.593Z" fill="white"/>
<path d="M135.489 335.249L127.708 353.59L125.122 353.414L119.686 334.172L121.985 334.328L126.54 351.67L133.262 335.097L135.489 335.249Z" fill="white"/>
<path d="M135.489 354.903L127.708 373.244L125.122 373.068L119.686 353.826L121.985 353.983L126.54 371.324L133.262 354.751L135.489 354.903Z" fill="white"/>
<path d="M135.489 374.557L127.708 392.899L125.122 392.722L119.686 373.48L121.985 373.637L126.54 390.979L133.262 374.405L135.489 374.557Z" fill="white"/>
<path d="M135.489 394.212L127.708 412.554L125.122 412.378L119.686 393.136L121.985 393.292L126.54 410.634L133.262 394.061L135.489 394.212Z" fill="white"/>
<path d="M135.489 413.868L127.708 432.209L125.122 432.033L119.686 412.791L121.985 412.947L126.54 430.289L133.262 413.716L135.489 413.868Z" fill="white"/>
<path d="M150.455 159.376L142.674 177.717L140.088 177.541L134.652 158.299L136.95 158.455L141.506 175.797L148.228 159.224L150.455 159.376Z" fill="white"/>
<path d="M150.455 179.03L142.674 197.371L140.088 197.195L134.652 177.953L136.95 178.11L141.506 195.451L148.228 178.878L150.455 179.03Z" fill="white"/>
<path d="M150.455 198.684L142.674 217.026L140.088 216.849L134.652 197.607L136.95 197.764L141.506 215.106L148.228 198.532L150.455 198.684Z" fill="white"/>
<path d="M150.455 218.339L142.674 236.681L140.088 236.505L134.652 217.262L136.95 217.419L141.506 234.761L148.228 218.188L150.455 218.339Z" fill="white"/>
<path d="M150.455 237.995L142.674 256.336L140.088 256.16L134.652 236.918L136.95 237.074L141.506 254.416L148.228 237.843L150.455 237.995Z" fill="white"/>
<path d="M150.455 257.649L142.674 275.99L140.088 275.814L134.652 256.572L136.95 256.729L141.506 274.071L148.228 257.497L150.455 257.649Z" fill="white"/>
<path d="M150.455 277.303L142.674 295.645L140.088 295.468L134.652 276.226L136.95 276.383L141.506 293.725L148.228 277.152L150.455 277.303Z" fill="white"/>
<path d="M150.455 296.959L142.674 315.3L140.088 315.124L134.652 295.882L136.95 296.038L141.506 313.38L148.228 296.807L150.455 296.959Z" fill="white"/>
<path d="M150.455 316.614L142.674 334.955L140.088 334.779L134.652 315.537L136.95 315.694L141.506 333.035L148.228 316.462L150.455 316.614Z" fill="white"/>
<path d="M150.455 336.268L142.674 354.61L140.088 354.433L134.652 335.191L136.95 335.348L141.506 352.69L148.228 336.116L150.455 336.268Z" fill="white"/>
<path d="M150.455 355.922L142.674 374.264L140.088 374.088L134.652 354.845L136.95 355.002L141.506 372.344L148.228 355.771L150.455 355.922Z" fill="white"/>
<path d="M150.455 375.578L142.674 393.919L140.088 393.743L134.652 374.501L136.95 374.657L141.506 391.999L148.228 375.426L150.455 375.578Z" fill="white"/>
<path d="M150.455 395.233L142.674 413.574L140.088 413.398L134.652 394.156L136.95 394.313L141.506 411.655L148.228 395.081L150.455 395.233Z" fill="white"/>
<path d="M150.455 414.887L142.674 433.229L140.088 433.052L134.652 413.81L136.95 413.967L141.506 431.309L148.228 414.736L150.455 414.887Z" fill="white"/>
<path d="M165.42 160.395L157.639 178.737L155.053 178.56L149.617 159.318L151.915 159.475L156.471 176.817L163.193 160.243L165.42 160.395Z" fill="white"/>
<path d="M165.42 180.049L157.639 198.391L155.053 198.215L149.617 178.972L151.915 179.129L156.471 196.471L163.193 179.898L165.42 180.049Z" fill="white"/>
<path d="M165.42 199.704L157.639 218.045L155.053 217.869L149.617 198.627L151.915 198.783L156.471 216.125L163.193 199.552L165.42 199.704Z" fill="white"/>
<path d="M165.42 219.359L157.639 237.7L155.053 237.524L149.617 218.282L151.915 218.439L156.471 235.781L163.193 219.207L165.42 219.359Z" fill="white"/>
<path d="M165.42 239.014L157.639 257.356L155.053 257.179L149.617 237.937L151.915 238.094L156.471 255.436L163.193 238.862L165.42 239.014Z" fill="white"/>
<path d="M165.42 258.669L157.639 277.01L155.053 276.834L149.617 257.592L151.915 257.748L156.471 275.09L163.193 258.517L165.42 258.669Z" fill="white"/>
<path d="M165.42 278.323L157.639 296.664L155.053 296.488L149.617 277.246L151.915 277.403L156.471 294.744L163.193 278.171L165.42 278.323Z" fill="white"/>
<path d="M165.42 297.978L157.639 316.32L155.053 316.143L149.617 296.901L151.915 297.058L156.471 314.4L163.193 297.826L165.42 297.978Z" fill="white"/>
<path d="M165.42 317.633L157.639 335.975L155.053 335.799L149.617 316.556L151.915 316.713L156.471 334.055L163.193 317.482L165.42 317.633Z" fill="white"/>
<path d="M165.42 337.288L157.639 355.629L155.053 355.453L149.617 336.211L151.915 336.367L156.471 353.709L163.193 337.136L165.42 337.288Z" fill="white"/>
<path d="M165.42 356.942L157.639 375.283L155.053 375.107L149.617 355.865L151.915 356.022L156.471 373.364L163.193 356.79L165.42 356.942Z" fill="white"/>
<path d="M165.42 376.597L157.639 394.939L155.053 394.762L149.617 375.52L151.915 375.677L156.471 393.019L163.193 376.446L165.42 376.597Z" fill="white"/>
<path d="M165.42 396.253L157.639 414.594L155.053 414.418L149.617 395.176L151.915 395.332L156.471 412.674L163.193 396.101L165.42 396.253Z" fill="white"/>
<path d="M165.42 415.907L157.639 434.248L155.053 434.072L149.617 414.83L151.915 414.987L156.471 432.328L163.193 415.755L165.42 415.907Z" fill="white"/>
<path d="M165.42 435.561L157.639 453.903L155.053 453.726L149.617 434.484L151.915 434.641L156.471 451.983L163.193 435.409L165.42 435.561Z" fill="white"/>
<path d="M180.386 161.415L172.605 179.756L170.019 179.58L164.582 160.338L166.881 160.494L171.437 177.836L178.159 161.263L180.386 161.415Z" fill="white"/>
<path d="M180.386 181.069L172.605 199.41L170.019 199.234L164.582 179.992L166.881 180.149L171.437 197.49L178.159 180.917L180.386 181.069Z" fill="white"/>
<path d="M180.386 200.723L172.605 219.065L170.019 218.888L164.582 199.646L166.881 199.803L171.437 217.145L178.159 200.571L180.386 200.723Z" fill="white"/>
<path d="M180.386 220.379L172.605 238.72L170.019 238.544L164.582 219.302L166.881 219.458L171.437 236.8L178.159 220.227L180.386 220.379Z" fill="white"/>
<path d="M180.386 240.034L172.605 258.375L170.019 258.199L164.582 238.957L166.881 239.113L171.437 256.455L178.159 239.882L180.386 240.034Z" fill="white"/>
<path d="M180.386 259.688L172.605 278.029L170.019 277.853L164.582 258.611L166.881 258.768L171.437 276.11L178.159 259.536L180.386 259.688Z" fill="white"/>
<path d="M180.386 279.342L172.605 297.684L170.019 297.508L164.582 278.265L166.881 278.422L171.437 295.764L178.159 279.191L180.386 279.342Z" fill="white"/>
<path d="M180.386 298.998L172.605 317.339L170.019 317.163L164.582 297.921L166.881 298.077L171.437 315.419L178.159 298.846L180.386 298.998Z" fill="white"/>
<path d="M180.386 318.653L172.605 336.994L170.019 336.818L164.582 317.576L166.881 317.733L171.437 335.074L178.159 318.501L180.386 318.653Z" fill="white"/>
<path d="M180.386 338.307L172.605 356.649L170.019 356.472L164.582 337.23L166.881 337.387L171.437 354.729L178.159 338.155L180.386 338.307Z" fill="white"/>
<path d="M180.386 357.962L172.605 376.303L170.019 376.127L164.582 356.885L166.881 357.041L171.437 374.383L178.159 357.81L180.386 357.962Z" fill="white"/>
<path d="M180.386 377.617L172.605 395.958L170.019 395.782L164.582 376.54L166.881 376.696L171.437 394.038L178.159 377.465L180.386 377.617Z" fill="white"/>
<path d="M180.386 397.272L172.605 415.613L170.019 415.437L164.582 396.195L166.881 396.352L171.437 413.694L178.159 397.12L180.386 397.272Z" fill="white"/>
<path d="M180.386 416.926L172.605 435.268L170.019 435.092L164.582 415.849L166.881 416.006L171.437 433.348L178.159 416.775L180.386 416.926Z" fill="white"/>
<path d="M180.386 436.581L172.605 454.922L170.019 454.746L164.582 435.504L166.881 435.66L171.437 453.002L178.159 436.429L180.386 436.581Z" fill="white"/>
<path d="M180.386 456.236L172.605 474.577L170.019 474.401L164.582 455.159L166.881 455.316L171.437 472.657L178.159 456.084L180.386 456.236Z" fill="white"/>
<path d="M195.351 162.434L187.57 180.776L184.984 180.599L179.547 161.357L181.846 161.514L186.401 178.856L193.124 162.282L195.351 162.434Z" fill="white"/>
<path d="M195.351 182.089L187.57 200.431L184.984 200.255L179.547 181.012L181.846 181.169L186.401 198.511L193.124 181.938L195.351 182.089Z" fill="white"/>
<path d="M195.351 201.745L187.57 220.086L184.984 219.91L179.547 200.668L181.846 200.824L186.401 218.166L193.124 201.593L195.351 201.745Z" fill="white"/>
<path d="M195.351 221.399L187.57 239.74L184.984 239.564L179.547 220.322L181.846 220.479L186.401 237.821L193.124 221.247L195.351 221.399Z" fill="white"/>
<path d="M195.351 241.053L187.57 259.395L184.984 259.218L179.547 239.976L181.846 240.133L186.401 257.475L193.124 240.902L195.351 241.053Z" fill="white"/>
<path d="M195.351 260.709L187.57 279.05L184.984 278.874L179.547 259.632L181.846 259.788L186.401 277.13L193.124 260.557L195.351 260.709Z" fill="white"/>
<path d="M195.351 280.364L187.57 298.705L184.984 298.529L179.547 279.287L181.846 279.444L186.401 296.785L193.124 280.212L195.351 280.364Z" fill="white"/>
<path d="M195.351 300.018L187.57 318.36L184.984 318.183L179.547 298.941L181.846 299.098L186.401 316.44L193.124 299.866L195.351 300.018Z" fill="white"/>
<path d="M195.351 319.672L187.57 338.014L184.984 337.838L179.547 318.595L181.846 318.752L186.401 336.094L193.124 319.521L195.351 319.672Z" fill="white"/>
<path d="M195.351 339.328L187.57 357.669L184.984 357.493L179.547 338.251L181.846 338.407L186.401 355.749L193.124 339.176L195.351 339.328Z" fill="white"/>
<path d="M195.351 358.983L187.57 377.324L184.984 377.148L179.547 357.906L181.846 358.063L186.401 375.405L193.124 358.831L195.351 358.983Z" fill="white"/>
<path d="M195.351 378.637L187.57 396.979L184.984 396.802L179.547 377.56L181.846 377.717L186.401 395.059L193.124 378.486L195.351 378.637Z" fill="white"/>
<path d="M195.351 398.292L187.57 416.633L184.984 416.457L179.547 397.215L181.846 397.371L186.401 414.713L193.124 398.14L195.351 398.292Z" fill="white"/>
<path d="M195.351 417.947L187.57 436.288L184.984 436.112L179.547 416.87L181.846 417.027L186.401 434.368L193.124 417.795L195.351 417.947Z" fill="white"/>
<path d="M195.351 437.602L187.57 455.944L184.984 455.767L179.547 436.525L181.846 436.682L186.401 454.024L193.124 437.45L195.351 437.602Z" fill="white"/>
<path d="M195.351 457.256L187.57 475.598L184.984 475.422L179.547 456.179L181.846 456.336L186.401 473.678L193.124 457.105L195.351 457.256Z" fill="white"/>
<path d="M210.316 163.454L202.535 181.795L199.949 181.619L194.513 162.377L196.812 162.533L201.367 179.875L208.09 163.302L210.316 163.454Z" fill="white"/>
<path d="M210.316 183.109L202.535 201.45L199.949 201.274L194.513 182.032L196.812 182.189L201.367 199.531L208.09 182.957L210.316 183.109Z" fill="white"/>
<path d="M210.316 202.764L202.535 221.106L199.949 220.929L194.513 201.687L196.812 201.844L201.367 219.186L208.09 202.612L210.316 202.764Z" fill="white"/>
<path d="M210.316 222.419L202.535 240.76L199.949 240.584L194.513 221.342L196.812 221.498L201.367 238.84L208.09 222.267L210.316 222.419Z" fill="white"/>
<path d="M210.316 242.073L202.535 260.414L199.949 260.238L194.513 240.996L196.812 241.153L201.367 258.494L208.09 241.921L210.316 242.073Z" fill="white"/>
<path d="M210.316 261.728L202.535 280.07L199.949 279.893L194.513 260.651L196.812 260.808L201.367 278.15L208.09 261.576L210.316 261.728Z" fill="white"/>
<path d="M210.316 281.383L202.535 299.725L199.949 299.549L194.513 280.306L196.812 280.463L201.367 297.805L208.09 281.232L210.316 281.383Z" fill="white"/>
<path d="M210.316 301.038L202.535 319.379L199.949 319.203L194.513 299.961L196.812 300.117L201.367 317.459L208.09 300.886L210.316 301.038Z" fill="white"/>
<path d="M210.316 320.692L202.535 339.033L199.949 338.857L194.513 319.615L196.812 319.772L201.367 337.114L208.09 320.54L210.316 320.692Z" fill="white"/>
<path d="M210.316 340.347L202.535 358.689L199.949 358.512L194.513 339.27L196.812 339.427L201.367 356.769L208.09 340.196L210.316 340.347Z" fill="white"/>
<path d="M210.316 360.003L202.535 378.344L199.949 378.168L194.513 358.926L196.812 359.082L201.367 376.424L208.09 359.851L210.316 360.003Z" fill="white"/>
<path d="M210.316 379.657L202.535 397.998L199.949 397.822L194.513 378.58L196.812 378.737L201.367 396.078L208.09 379.505L210.316 379.657Z" fill="white"/>
<path d="M210.316 399.311L202.535 417.653L199.949 417.476L194.513 398.234L196.812 398.391L201.367 415.733L208.09 399.159L210.316 399.311Z" fill="white"/>
<path d="M210.316 418.966L202.535 437.308L199.949 437.132L194.513 417.889L196.812 418.046L201.367 435.388L208.09 418.815L210.316 418.966Z" fill="white"/>
<path d="M210.316 438.622L202.535 456.963L199.949 456.787L194.513 437.545L196.812 437.701L201.367 455.043L208.09 438.47L210.316 438.622Z" fill="white"/>
<path d="M210.316 458.276L202.535 476.617L199.949 476.441L194.513 457.199L196.812 457.356L201.367 474.698L208.09 458.124L210.316 458.276Z" fill="white"/>
<path d="M210.316 477.93L202.535 496.272L199.949 496.095L194.513 476.853L196.812 477.01L201.367 494.352L208.09 477.779L210.316 477.93Z" fill="white"/>
<path d="M225.281 321.712L217.5 340.054L214.914 339.878L209.478 320.636L211.777 320.792L216.332 338.134L223.054 321.561L225.281 321.712Z" fill="white"/>
<path d="M225.281 341.368L217.5 359.709L214.914 359.533L209.478 340.291L211.777 340.447L216.332 357.789L223.054 341.216L225.281 341.368Z" fill="white"/>
<path d="M225.281 361.022L217.5 379.363L214.914 379.187L209.478 359.945L211.777 360.102L216.332 377.444L223.054 360.87L225.281 361.022Z" fill="white"/>
<path d="M225.281 380.676L217.5 399.018L214.914 398.842L209.478 379.599L211.777 379.756L216.332 397.098L223.054 380.525L225.281 380.676Z" fill="white"/>
<path d="M225.281 400.332L217.5 418.673L214.914 418.497L209.478 399.255L211.777 399.411L216.332 416.753L223.054 400.18L225.281 400.332Z" fill="white"/>
<path d="M225.281 419.987L217.5 438.328L214.914 438.152L209.478 418.91L211.777 419.067L216.332 436.408L223.054 419.835L225.281 419.987Z" fill="white"/>
<path d="M225.281 439.641L217.5 457.983L214.914 457.806L209.478 438.564L211.777 438.721L216.332 456.063L223.054 439.489L225.281 439.641Z" fill="white"/>
<path d="M225.281 459.295L217.5 477.637L214.914 477.461L209.478 458.219L211.777 458.375L216.332 475.717L223.054 459.144L225.281 459.295Z" fill="white"/>
<path d="M225.281 478.951L217.5 497.292L214.914 497.116L209.478 477.874L211.777 478.03L216.332 495.372L223.054 478.799L225.281 478.951Z" fill="white"/>
<path d="M240.234 478.951L232.453 497.292L229.867 497.116L224.431 477.874L226.73 478.03L231.285 495.372L238.008 478.799L240.234 478.951Z" fill="white"/>
<path d="M240.234 459.969L232.453 478.311L229.867 478.135L224.431 458.892L226.73 459.049L231.285 476.391L238.008 459.818L240.234 459.969Z" fill="white"/>
<path d="M240.234 440.989L232.453 459.33L229.867 459.154L224.431 439.912L226.73 440.069L231.285 457.41L238.008 440.837L240.234 440.989Z" fill="white"/>
<path d="M240.234 422.008L232.453 440.35L229.867 440.174L224.431 420.931L226.73 421.088L231.285 438.43L238.008 421.857L240.234 422.008Z" fill="white"/>
<path d="M240.234 403.027L232.453 421.368L229.867 421.192L224.431 401.95L226.73 402.107L231.285 419.448L238.008 402.875L240.234 403.027Z" fill="white"/>
<path d="M240.234 384.045L232.453 402.387L229.867 402.211L224.431 382.969L226.73 383.125L231.285 400.467L238.008 383.894L240.234 384.045Z" fill="white"/>
<path d="M240.234 365.065L232.453 383.406L229.867 383.23L224.431 363.988L226.73 364.145L231.285 381.487L238.008 364.913L240.234 365.065Z" fill="white"/>
<path d="M240.234 346.085L232.453 364.426L229.867 364.25L224.431 345.008L226.73 345.164L231.285 362.506L238.008 345.933L240.234 346.085Z" fill="white"/>
<path d="M255.187 478.951L247.405 497.292L244.819 497.116L239.383 477.874L241.682 478.03L246.237 495.372L252.96 478.799L255.187 478.951Z" fill="white"/>
<path d="M255.187 459.969L247.405 478.311L244.819 478.135L239.383 458.892L241.682 459.049L246.237 476.391L252.96 459.818L255.187 459.969Z" fill="white"/>
<path d="M255.187 440.989L247.405 459.33L244.819 459.154L239.383 439.912L241.682 440.069L246.237 457.41L252.96 440.837L255.187 440.989Z" fill="white"/>
<path d="M255.187 422.008L247.405 440.35L244.819 440.174L239.383 420.931L241.682 421.088L246.237 438.43L252.96 421.857L255.187 422.008Z" fill="white"/>
<path d="M255.187 403.027L247.405 421.368L244.819 421.192L239.383 401.95L241.682 402.107L246.237 419.448L252.96 402.875L255.187 403.027Z" fill="white"/>
<path d="M255.187 384.045L247.405 402.387L244.819 402.211L239.383 382.969L241.682 383.125L246.237 400.467L252.96 383.894L255.187 384.045Z" fill="white"/>
<path d="M255.187 365.065L247.405 383.406L244.819 383.23L239.383 363.988L241.682 364.145L246.237 381.487L252.96 364.913L255.187 365.065Z" fill="white"/>
<path d="M270.14 478.951L262.359 497.292L259.773 497.116L254.336 477.874L256.635 478.03L261.19 495.372L267.913 478.799L270.14 478.951Z" fill="white"/>
<path d="M270.14 459.969L262.359 478.311L259.773 478.135L254.336 458.892L256.635 459.049L261.19 476.391L267.913 459.818L270.14 459.969Z" fill="white"/>
<path d="M270.14 440.989L262.359 459.33L259.773 459.154L254.336 439.912L256.635 440.069L261.19 457.41L267.913 440.837L270.14 440.989Z" fill="white"/>
<path d="M270.14 422.008L262.359 440.35L259.773 440.174L254.336 420.931L256.635 421.088L261.19 438.43L267.913 421.857L270.14 422.008Z" fill="white"/>
<path d="M270.14 403.027L262.359 421.368L259.773 421.192L254.336 401.95L256.635 402.107L261.19 419.448L267.913 402.875L270.14 403.027Z" fill="white"/>
<path d="M270.14 384.045L262.359 402.387L259.773 402.211L254.336 382.969L256.635 383.125L261.19 400.467L267.913 383.894L270.14 384.045Z" fill="white"/>
<path d="M285.092 478.951L277.311 497.292L274.725 497.116L269.288 477.874L271.587 478.03L276.143 495.372L282.865 478.799L285.092 478.951Z" fill="white"/>
<path d="M285.092 459.969L277.311 478.311L274.725 478.135L269.288 458.892L271.587 459.049L276.143 476.391L282.865 459.818L285.092 459.969Z" fill="white"/>
<path d="M285.092 440.989L277.311 459.33L274.725 459.154L269.288 439.912L271.587 440.069L276.143 457.41L282.865 440.837L285.092 440.989Z" fill="white"/>
<path d="M285.092 422.008L277.311 440.35L274.725 440.174L269.288 420.931L271.587 421.088L276.143 438.43L282.865 421.857L285.092 422.008Z" fill="white"/>
<path d="M285.092 403.027L277.311 421.368L274.725 421.192L269.288 401.95L271.587 402.107L276.143 419.448L282.865 402.875L285.092 403.027Z" fill="white"/>
<path d="M300.045 478.951L292.264 497.292L289.678 497.116L284.242 477.874L286.54 478.03L291.096 495.372L297.818 478.799L300.045 478.951Z" fill="white"/>
<path d="M300.045 459.969L292.264 478.311L289.678 478.135L284.242 458.892L286.54 459.049L291.096 476.391L297.818 459.818L300.045 459.969Z" fill="white"/>
<path d="M300.045 440.989L292.264 459.33L289.678 459.154L284.242 439.912L286.54 440.069L291.096 457.41L297.818 440.837L300.045 440.989Z" fill="white"/>
<path d="M300.045 422.008L292.264 440.35L289.678 440.174L284.242 420.931L286.54 421.088L291.096 438.43L297.818 421.857L300.045 422.008Z" fill="white"/>
<path d="M240.234 498.606L232.453 516.947L229.867 516.771L224.431 497.529L226.73 497.686L231.285 515.028L238.008 498.454L240.234 498.606Z" fill="white"/>
<path d="M255.234 498.606L247.453 516.947L244.867 516.771L239.431 497.529L241.73 497.686L246.285 515.028L253.008 498.454L255.234 498.606Z" fill="white"/>
<path d="M270.234 498.606L262.453 516.947L259.867 516.771L254.431 497.529L256.73 497.686L261.285 515.028L268.008 498.454L270.234 498.606Z" fill="white"/>
<circle cx="164.5" cy="64.2188" r="38.5" fill="white"/>
<path d="M178.16 47.7188L166.576 81.1908H161.968L150 47.7188H154.096L164.272 77.9268L174.192 47.7188H178.16Z" fill="#268020"/>
</svg>
