<svg width="358" height="552" viewBox="0 0 358 552" fill="none" xmlns="http://www.w3.org/2000/svg">
<rect x="1.5" y="2.21875" width="355" height="548" rx="98.5" fill="#268020" stroke="#268020" stroke-width="3"/>
<path d="M92.998 145.219C92.998 145.219 115.998 48.2406 167.498 52.7188C218.998 57.197 212.498 155.219 212.498 155.219" stroke="white" stroke-width="3"/>
<path d="M106.261 154.869L98.7889 173.448L93.2936 173.073L88.303 153.645L93.2954 153.985L96.3113 169.562L101.52 154.546L106.261 154.869Z" fill="white"/>
<path d="M106.261 174.523L98.7889 193.102L93.2936 192.728L88.303 173.299L93.2954 173.64L96.3113 189.217L101.52 174.2L106.261 174.523Z" fill="white"/>
<path d="M106.261 194.178L98.7889 212.757L93.2936 212.383L88.303 192.955L93.2954 193.295L96.3113 208.872L101.52 193.855L106.261 194.178Z" fill="white"/>
<path d="M106.261 213.834L98.7889 232.413L93.2936 232.038L88.303 212.61L93.2954 212.95L96.3113 228.527L101.52 213.511L106.261 213.834Z" fill="white"/>
<path d="M106.261 233.488L98.7889 252.067L93.2936 251.692L88.303 232.264L93.2954 232.604L96.3113 248.181L101.52 233.165L106.261 233.488Z" fill="white"/>
<path d="M106.261 253.142L98.7889 271.721L93.2936 271.347L88.303 251.918L93.2954 252.259L96.3113 267.836L101.52 252.819L106.261 253.142Z" fill="white"/>
<path d="M106.261 272.798L98.7889 291.377L93.2936 291.002L88.303 271.574L93.2954 271.914L96.3113 287.491L101.52 272.474L106.261 272.798Z" fill="white"/>
<path d="M106.261 292.453L98.7889 311.032L93.2936 310.657L88.303 291.229L93.2954 291.569L96.3113 307.146L101.52 292.13L106.261 292.453Z" fill="white"/>
<path d="M106.261 312.107L98.7889 330.686L93.2936 330.312L88.303 310.883L93.2954 311.224L96.3113 326.801L101.52 311.784L106.261 312.107Z" fill="white"/>
<path d="M106.261 331.761L98.7889 350.34L93.2936 349.966L88.303 330.538L93.2954 330.878L96.3113 346.455L101.52 331.438L106.261 331.761Z" fill="white"/>
<path d="M106.261 351.417L98.7889 369.996L93.2936 369.621L88.303 350.193L93.2954 350.533L96.3113 366.11L101.52 351.094L106.261 351.417Z" fill="white"/>
<path d="M106.261 371.072L98.7889 389.651L93.2936 389.276L88.303 369.848L93.2954 370.188L96.3113 385.765L101.52 370.749L106.261 371.072Z" fill="white"/>
<path d="M106.261 390.726L98.7889 409.305L93.2936 408.931L88.303 389.502L93.2954 389.843L96.3113 405.42L101.52 390.403L106.261 390.726Z" fill="white"/>
<path d="M90.9371 390.726L83.4647 409.305L77.9694 408.931L72.9788 389.502L77.9712 389.843L80.9871 405.42L86.1961 390.403L90.9371 390.726Z" fill="white"/>
<path d="M90.9371 370.523L83.4647 389.102L77.9694 388.728L72.9788 369.299L77.9712 369.64L80.9871 385.217L86.1961 370.2L90.9371 370.523Z" fill="white"/>
<path d="M75.9371 370.523L68.4647 389.102L62.9694 388.728L57.9788 369.299L62.9712 369.64L65.9871 385.217L71.1961 370.2L75.9371 370.523Z" fill="white"/>
<path d="M90.9371 350.321L83.4647 368.9L77.9694 368.525L72.9788 349.097L77.9712 349.437L80.9871 365.015L86.1961 349.998L90.9371 350.321Z" fill="white"/>
<path d="M75.9371 350.321L68.4647 368.9L62.9694 368.525L57.9788 349.097L62.9712 349.437L65.9871 365.015L71.1961 349.998L75.9371 350.321Z" fill="white"/>
<path d="M90.9371 330.119L83.4647 348.698L77.9694 348.323L72.9788 328.895L77.9712 329.235L80.9871 344.812L86.1961 329.796L90.9371 330.119Z" fill="white"/>
<path d="M75.9371 330.119L68.4647 348.698L62.9694 348.323L57.9788 328.895L62.9712 329.235L65.9871 344.812L71.1961 329.796L75.9371 330.119Z" fill="white"/>
<path d="M90.9371 309.916L83.4647 328.495L77.9694 328.12L72.9788 308.692L77.9712 309.032L80.9871 324.609L86.1961 309.593L90.9371 309.916Z" fill="white"/>
<path d="M75.9371 309.916L68.4647 328.495L62.9694 328.12L57.9788 308.692L62.9712 309.032L65.9871 324.609L71.1961 309.593L75.9371 309.916Z" fill="white"/>
<path d="M90.9371 289.713L83.4647 308.292L77.9694 307.917L72.9788 288.489L77.9712 288.829L80.9871 304.406L86.1961 289.39L90.9371 289.713Z" fill="white"/>
<path d="M90.9371 269.51L83.4647 288.089L77.9694 287.715L72.9788 268.287L77.9712 268.627L80.9871 284.204L86.1961 269.187L90.9371 269.51Z" fill="white"/>
<path d="M121.227 155.888L113.755 174.467L108.259 174.093L103.269 154.665L108.261 155.005L111.277 170.582L116.486 155.565L121.227 155.888Z" fill="white"/>
<path d="M121.227 175.544L113.755 194.123L108.259 193.748L103.269 174.32L108.261 174.66L111.277 190.237L116.486 175.221L121.227 175.544Z" fill="white"/>
<path d="M121.227 195.199L113.755 213.778L108.259 213.403L103.269 193.975L108.261 194.315L111.277 209.892L116.486 194.876L121.227 195.199Z" fill="white"/>
<path d="M121.227 214.853L113.755 233.432L108.259 233.058L103.269 213.629L108.261 213.97L111.277 229.547L116.486 214.53L121.227 214.853Z" fill="white"/>
<path d="M121.227 234.508L113.755 253.086L108.259 252.712L103.269 233.284L108.261 233.624L111.277 249.201L116.486 234.184L121.227 234.508Z" fill="white"/>
<path d="M121.227 254.163L113.755 272.742L108.259 272.367L103.269 252.939L108.261 253.279L111.277 268.856L116.486 253.84L121.227 254.163Z" fill="white"/>
<path d="M121.227 273.818L113.755 292.397L108.259 292.023L103.269 272.594L108.261 272.934L111.277 288.512L116.486 273.495L121.227 273.818Z" fill="white"/>
<path d="M121.227 293.472L113.755 312.051L108.259 311.677L103.269 292.249L108.261 292.589L111.277 308.166L116.486 293.149L121.227 293.472Z" fill="white"/>
<path d="M121.227 313.127L113.755 331.706L108.259 331.331L103.269 311.903L108.261 312.243L111.277 327.82L116.486 312.804L121.227 313.127Z" fill="white"/>
<path d="M121.227 332.782L113.755 351.361L108.259 350.986L103.269 331.558L108.261 331.898L111.277 347.475L116.486 332.459L121.227 332.782Z" fill="white"/>
<path d="M121.227 352.437L113.755 371.016L108.259 370.642L103.269 351.213L108.261 351.554L111.277 367.131L116.486 352.114L121.227 352.437Z" fill="white"/>
<path d="M121.227 372.092L113.755 390.67L108.259 390.296L103.269 370.868L108.261 371.208L111.277 386.785L116.486 371.768L121.227 372.092Z" fill="white"/>
<path d="M121.227 391.746L113.755 410.325L108.259 409.95L103.269 390.522L108.261 390.862L111.277 406.439L116.486 391.423L121.227 391.746Z" fill="white"/>
<path d="M136.192 156.909L128.72 175.488L123.224 175.113L118.234 155.685L123.226 156.025L126.242 171.602L131.451 156.586L136.192 156.909Z" fill="white"/>
<path d="M136.192 176.564L128.72 195.143L123.224 194.769L118.234 175.34L123.226 175.681L126.242 191.258L131.451 176.241L136.192 176.564Z" fill="white"/>
<path d="M136.192 196.218L128.72 214.797L123.224 214.423L118.234 194.995L123.226 195.335L126.242 210.912L131.451 195.895L136.192 196.218Z" fill="white"/>
<path d="M136.192 215.873L128.72 234.452L123.224 234.077L118.234 214.649L123.226 214.989L126.242 230.566L131.451 215.55L136.192 215.873Z" fill="white"/>
<path d="M136.192 235.528L128.72 254.107L123.224 253.732L118.234 234.304L123.226 234.644L126.242 250.222L131.451 235.205L136.192 235.528Z" fill="white"/>
<path d="M136.192 255.183L128.72 273.762L123.224 273.388L118.234 253.959L123.226 254.3L126.242 269.877L131.451 254.86L136.192 255.183Z" fill="white"/>
<path d="M136.192 274.838L128.72 293.417L123.224 293.042L118.234 273.614L123.226 273.954L126.242 289.531L131.451 274.515L136.192 274.838Z" fill="white"/>
<path d="M136.192 294.492L128.72 313.071L123.224 312.696L118.234 293.268L123.226 293.608L126.242 309.185L131.451 294.169L136.192 294.492Z" fill="white"/>
<path d="M136.192 314.147L128.72 332.726L123.224 332.352L118.234 312.923L123.226 313.264L126.242 328.841L131.451 313.824L136.192 314.147Z" fill="white"/>
<path d="M136.192 333.802L128.72 352.381L123.224 352.007L118.234 332.579L123.226 332.919L126.242 348.496L131.451 333.479L136.192 333.802Z" fill="white"/>
<path d="M136.192 353.457L128.72 372.036L123.224 371.661L118.234 352.233L123.226 352.573L126.242 368.15L131.451 353.134L136.192 353.457Z" fill="white"/>
<path d="M136.192 373.111L128.72 391.69L123.224 391.315L118.234 371.887L123.226 372.227L126.242 387.805L131.451 372.788L136.192 373.111Z" fill="white"/>
<path d="M136.192 392.766L128.72 411.345L123.224 410.971L118.234 391.542L123.226 391.883L126.242 407.46L131.451 392.443L136.192 392.766Z" fill="white"/>
<path d="M136.192 412.422L128.72 431.001L123.224 430.626L118.234 411.198L123.226 411.538L126.242 427.115L131.451 412.099L136.192 412.422Z" fill="white"/>
<path d="M151.158 157.929L143.685 176.508L138.19 176.134L133.199 156.706L138.192 157.046L141.208 172.623L146.417 157.606L151.158 157.929Z" fill="white"/>
<path d="M151.158 177.584L143.685 196.163L138.19 195.788L133.199 176.36L138.192 176.7L141.208 192.277L146.417 177.261L151.158 177.584Z" fill="white"/>
<path d="M151.158 197.238L143.685 215.817L138.19 215.442L133.199 196.014L138.192 196.354L141.208 211.931L146.417 196.915L151.158 197.238Z" fill="white"/>
<path d="M151.158 216.893L143.685 235.472L138.19 235.098L133.199 215.669L138.192 216.01L141.208 231.587L146.417 216.57L151.158 216.893Z" fill="white"/>
<path d="M151.158 236.549L143.685 255.127L138.19 254.753L133.199 235.325L138.192 235.665L141.208 251.242L146.417 236.225L151.158 236.549Z" fill="white"/>
<path d="M151.158 256.203L143.685 274.782L138.19 274.407L133.199 254.979L138.192 255.319L141.208 270.896L146.417 255.88L151.158 256.203Z" fill="white"/>
<path d="M151.158 275.857L143.685 294.436L138.19 294.062L133.199 274.633L138.192 274.974L141.208 290.551L146.417 275.534L151.158 275.857Z" fill="white"/>
<path d="M151.158 295.512L143.685 314.091L138.19 313.717L133.199 294.289L138.192 294.629L141.208 310.206L146.417 295.189L151.158 295.512Z" fill="white"/>
<path d="M151.158 315.168L143.685 333.747L138.19 333.372L133.199 313.944L138.192 314.284L141.208 329.861L146.417 314.845L151.158 315.168Z" fill="white"/>
<path d="M151.158 334.822L143.685 353.401L138.19 353.026L133.199 333.598L138.192 333.938L141.208 349.515L146.417 334.499L151.158 334.822Z" fill="white"/>
<path d="M151.158 354.476L143.685 373.055L138.19 372.681L133.199 353.252L138.192 353.593L141.208 369.17L146.417 354.153L151.158 354.476Z" fill="white"/>
<path d="M151.158 374.132L143.685 392.71L138.19 392.336L133.199 372.908L138.192 373.248L141.208 388.825L146.417 373.808L151.158 374.132Z" fill="white"/>
<path d="M151.158 393.787L143.685 412.366L138.19 411.991L133.199 392.563L138.192 392.903L141.208 408.48L146.417 393.464L151.158 393.787Z" fill="white"/>
<path d="M151.158 413.441L143.685 432.02L138.19 431.646L133.199 412.217L138.192 412.558L141.208 428.135L146.417 413.118L151.158 413.441Z" fill="white"/>
<path d="M166.123 158.949L158.65 177.528L153.155 177.153L148.164 157.725L153.157 158.065L156.173 173.642L161.382 158.626L166.123 158.949Z" fill="white"/>
<path d="M166.123 178.603L158.65 197.182L153.155 196.808L148.164 177.379L153.157 177.72L156.173 193.297L161.382 178.28L166.123 178.603Z" fill="white"/>
<path d="M166.123 198.258L158.65 216.836L153.155 216.462L148.164 197.034L153.157 197.374L156.173 212.951L161.382 197.934L166.123 198.258Z" fill="white"/>
<path d="M166.123 217.913L158.65 236.492L153.155 236.117L148.164 216.689L153.157 217.029L156.173 232.606L161.382 217.59L166.123 217.913Z" fill="white"/>
<path d="M166.123 237.568L158.65 256.147L153.155 255.773L148.164 236.344L153.157 236.684L156.173 252.262L161.382 237.245L166.123 237.568Z" fill="white"/>
<path d="M166.123 257.222L158.65 275.801L153.155 275.427L148.164 255.999L153.157 256.339L156.173 271.916L161.382 256.899L166.123 257.222Z" fill="white"/>
<path d="M166.123 276.877L158.65 295.456L153.155 295.081L148.164 275.653L153.157 275.993L156.173 291.57L161.382 276.554L166.123 276.877Z" fill="white"/>
<path d="M166.123 296.532L158.65 315.111L153.155 314.736L148.164 295.308L153.157 295.648L156.173 311.225L161.382 296.209L166.123 296.532Z" fill="white"/>
<path d="M166.123 316.187L158.65 334.766L153.155 334.392L148.164 314.963L153.157 315.304L156.173 330.881L161.382 315.864L166.123 316.187Z" fill="white"/>
<path d="M166.123 335.842L158.65 354.42L153.155 354.046L148.164 334.618L153.157 334.958L156.173 350.535L161.382 335.518L166.123 335.842Z" fill="white"/>
<path d="M166.123 355.496L158.65 374.075L153.155 373.7L148.164 354.272L153.157 354.612L156.173 370.189L161.382 355.173L166.123 355.496Z" fill="white"/>
<path d="M166.123 375.151L158.65 393.73L153.155 393.356L148.164 373.927L153.157 374.267L156.173 389.845L161.382 374.828L166.123 375.151Z" fill="white"/>
<path d="M166.123 394.806L158.65 413.385L153.155 413.011L148.164 393.583L153.157 393.923L156.173 409.5L161.382 394.483L166.123 394.806Z" fill="white"/>
<path d="M166.123 414.461L158.65 433.04L153.155 432.665L148.164 413.237L153.157 413.577L156.173 429.154L161.382 414.138L166.123 414.461Z" fill="white"/>
<path d="M166.123 434.115L158.65 452.694L153.155 452.319L148.164 432.891L153.157 433.231L156.173 448.808L161.382 433.792L166.123 434.115Z" fill="white"/>
<path d="M181.089 159.968L173.616 178.547L168.121 178.173L163.13 158.745L168.123 159.085L171.138 174.662L176.348 159.645L181.089 159.968Z" fill="white"/>
<path d="M181.089 179.623L173.616 198.202L168.121 197.827L163.13 178.399L168.123 178.739L171.138 194.316L176.348 179.3L181.089 179.623Z" fill="white"/>
<path d="M181.089 199.277L173.616 217.856L168.121 217.482L163.13 198.053L168.123 198.393L171.138 213.971L176.348 198.954L181.089 199.277Z" fill="white"/>
<path d="M181.089 218.932L173.616 237.511L168.121 237.137L163.13 217.709L168.123 218.049L171.138 233.626L176.348 218.609L181.089 218.932Z" fill="white"/>
<path d="M181.089 238.588L173.616 257.167L168.121 256.792L163.13 237.364L168.123 237.704L171.138 253.281L176.348 238.265L181.089 238.588Z" fill="white"/>
<path d="M181.089 258.242L173.616 276.821L168.121 276.446L163.13 257.018L168.123 257.358L171.138 272.935L176.348 257.919L181.089 258.242Z" fill="white"/>
<path d="M181.089 277.896L173.616 296.475L168.121 296.101L163.13 276.672L168.123 277.013L171.138 292.59L176.348 277.573L181.089 277.896Z" fill="white"/>
<path d="M181.089 297.551L173.616 316.13L168.121 315.756L163.13 296.328L168.123 296.668L171.138 312.245L176.348 297.228L181.089 297.551Z" fill="white"/>
<path d="M181.089 317.207L173.616 335.786L168.121 335.411L163.13 315.983L168.123 316.323L171.138 331.9L176.348 316.884L181.089 317.207Z" fill="white"/>
<path d="M181.089 336.861L173.616 355.44L168.121 355.065L163.13 335.637L168.123 335.977L171.138 351.555L176.348 336.538L181.089 336.861Z" fill="white"/>
<path d="M181.089 356.515L173.616 375.094L168.121 374.72L163.13 355.292L168.123 355.632L171.138 371.209L176.348 356.192L181.089 356.515Z" fill="white"/>
<path d="M181.089 376.171L173.616 394.75L168.121 394.375L163.13 374.947L168.123 375.287L171.138 390.864L176.348 375.848L181.089 376.171Z" fill="white"/>
<path d="M181.089 395.826L173.616 414.405L168.121 414.03L163.13 394.602L168.123 394.942L171.138 410.519L176.348 395.503L181.089 395.826Z" fill="white"/>
<path d="M181.089 415.48L173.616 434.059L168.121 433.685L163.13 414.256L168.123 414.597L171.138 430.174L176.348 415.157L181.089 415.48Z" fill="white"/>
<path d="M181.089 435.134L173.616 453.713L168.121 453.339L163.13 433.911L168.123 434.251L171.138 449.828L176.348 434.811L181.089 435.134Z" fill="white"/>
<path d="M181.089 454.79L173.616 473.369L168.121 472.994L163.13 453.566L168.123 453.906L171.138 469.483L176.348 454.467L181.089 454.79Z" fill="white"/>
<path d="M196.053 160.988L188.581 179.567L183.086 179.192L178.095 159.764L183.087 160.104L186.103 175.681L191.312 160.665L196.053 160.988Z" fill="white"/>
<path d="M196.053 180.643L188.581 199.222L183.086 198.848L178.095 179.419L183.087 179.76L186.103 195.337L191.312 180.32L196.053 180.643Z" fill="white"/>
<path d="M196.053 200.299L188.581 218.877L183.086 218.503L178.095 199.075L183.087 199.415L186.103 214.992L191.312 199.975L196.053 200.299Z" fill="white"/>
<path d="M196.053 219.953L188.581 238.532L183.086 238.157L178.095 218.729L183.087 219.069L186.103 234.646L191.312 219.63L196.053 219.953Z" fill="white"/>
<path d="M196.053 239.607L188.581 258.186L183.086 257.812L178.095 238.383L183.087 238.724L186.103 254.301L191.312 239.284L196.053 239.607Z" fill="white"/>
<path d="M196.053 259.262L188.581 277.841L183.086 277.467L178.095 258.039L183.087 258.379L186.103 273.956L191.312 258.939L196.053 259.262Z" fill="white"/>
<path d="M196.053 278.918L188.581 297.497L183.086 297.122L178.095 277.694L183.087 278.034L186.103 293.611L191.312 278.595L196.053 278.918Z" fill="white"/>
<path d="M196.053 298.572L188.581 317.151L183.086 316.776L178.095 297.348L183.087 297.688L186.103 313.265L191.312 298.249L196.053 298.572Z" fill="white"/>
<path d="M196.053 318.226L188.581 336.805L183.086 336.431L178.095 317.002L183.087 317.343L186.103 332.92L191.312 317.903L196.053 318.226Z" fill="white"/>
<path d="M196.053 337.882L188.581 356.46L183.086 356.086L178.095 336.658L183.087 336.998L186.103 352.575L191.312 337.558L196.053 337.882Z" fill="white"/>
<path d="M196.053 357.537L188.581 376.116L183.086 375.741L178.095 356.313L183.087 356.653L186.103 372.23L191.312 357.214L196.053 357.537Z" fill="white"/>
<path d="M196.053 377.191L188.581 395.77L183.086 395.396L178.095 375.967L183.087 376.308L186.103 391.885L191.312 376.868L196.053 377.191Z" fill="white"/>
<path d="M196.053 396.845L188.581 415.424L183.086 415.05L178.095 395.622L183.087 395.962L186.103 411.539L191.312 396.522L196.053 396.845Z" fill="white"/>
<path d="M196.053 416.501L188.581 435.08L183.086 434.705L178.095 415.277L183.087 415.617L186.103 431.194L191.312 416.178L196.053 416.501Z" fill="white"/>
<path d="M196.053 436.156L188.581 454.735L183.086 454.36L178.095 434.932L183.087 435.272L186.103 450.849L191.312 435.833L196.053 436.156Z" fill="white"/>
<path d="M196.053 455.81L188.581 474.389L183.086 474.015L178.095 454.586L183.087 454.927L186.103 470.504L191.312 455.487L196.053 455.81Z" fill="white"/>
<path d="M211.019 162.008L203.547 180.586L198.051 180.212L193.061 160.784L198.053 161.124L201.069 176.701L206.278 161.684L211.019 162.008Z" fill="white"/>
<path d="M211.019 181.663L203.547 200.242L198.051 199.867L193.061 180.439L198.053 180.779L201.069 196.356L206.278 181.34L211.019 181.663Z" fill="white"/>
<path d="M211.019 201.318L203.547 219.897L198.051 219.523L193.061 200.094L198.053 200.434L201.069 216.012L206.278 200.995L211.019 201.318Z" fill="white"/>
<path d="M211.019 220.972L203.547 239.551L198.051 239.177L193.061 219.749L198.053 220.089L201.069 235.666L206.278 220.649L211.019 220.972Z" fill="white"/>
<path d="M211.019 240.627L203.547 259.206L198.051 258.831L193.061 239.403L198.053 239.743L201.069 255.32L206.278 240.304L211.019 240.627Z" fill="white"/>
<path d="M211.019 260.282L203.547 278.861L198.051 278.486L193.061 259.058L198.053 259.398L201.069 274.975L206.278 259.959L211.019 260.282Z" fill="white"/>
<path d="M211.019 279.937L203.547 298.516L198.051 298.142L193.061 278.713L198.053 279.054L201.069 294.631L206.278 279.614L211.019 279.937Z" fill="white"/>
<path d="M211.019 299.592L203.547 318.17L198.051 317.796L193.061 298.368L198.053 298.708L201.069 314.285L206.278 299.268L211.019 299.592Z" fill="white"/>
<path d="M211.019 319.246L203.547 337.825L198.051 337.45L193.061 318.022L198.053 318.362L201.069 333.939L206.278 318.923L211.019 319.246Z" fill="white"/>
<path d="M211.019 338.901L203.547 357.48L198.051 357.106L193.061 337.677L198.053 338.017L201.069 353.595L206.278 338.578L211.019 338.901Z" fill="white"/>
<path d="M211.019 358.556L203.547 377.135L198.051 376.761L193.061 357.333L198.053 357.673L201.069 373.25L206.278 358.233L211.019 358.556Z" fill="white"/>
<path d="M211.019 378.211L203.547 396.79L198.051 396.415L193.061 376.987L198.053 377.327L201.069 392.904L206.278 377.888L211.019 378.211Z" fill="white"/>
<path d="M211.019 397.865L203.547 416.444L198.051 416.069L193.061 396.641L198.053 396.981L201.069 412.558L206.278 397.542L211.019 397.865Z" fill="white"/>
<path d="M211.019 417.52L203.547 436.099L198.051 435.725L193.061 416.296L198.053 416.637L201.069 432.214L206.278 417.197L211.019 417.52Z" fill="white"/>
<path d="M211.019 437.176L203.547 455.754L198.051 455.38L193.061 435.952L198.053 436.292L201.069 451.869L206.278 436.852L211.019 437.176Z" fill="white"/>
<path d="M211.019 456.83L203.547 475.409L198.051 475.034L193.061 455.606L198.053 455.946L201.069 471.523L206.278 456.507L211.019 456.83Z" fill="white"/>
<path d="M211.019 476.484L203.547 495.063L198.051 494.689L193.061 475.26L198.053 475.6L201.069 491.178L206.278 476.161L211.019 476.484Z" fill="white"/>
<path d="M225.984 320.266L218.512 338.845L213.016 338.471L208.026 319.042L213.018 319.383L216.034 334.96L221.243 319.943L225.984 320.266Z" fill="white"/>
<path d="M225.984 339.922L218.512 358.501L213.016 358.126L208.026 338.698L213.018 339.038L216.034 354.615L221.243 339.599L225.984 339.922Z" fill="white"/>
<path d="M225.984 359.576L218.512 378.155L213.016 377.78L208.026 358.352L213.018 358.692L216.034 374.269L221.243 359.253L225.984 359.576Z" fill="white"/>
<path d="M225.984 379.23L218.512 397.809L213.016 397.435L208.026 378.006L213.018 378.347L216.034 393.924L221.243 378.907L225.984 379.23Z" fill="white"/>
<path d="M225.984 398.885L218.512 417.464L213.016 417.09L208.026 397.662L213.018 398.002L216.034 413.579L221.243 398.562L225.984 398.885Z" fill="white"/>
<path d="M225.984 418.541L218.512 437.12L213.016 436.745L208.026 417.317L213.018 417.657L216.034 433.234L221.243 418.218L225.984 418.541Z" fill="white"/>
<path d="M225.984 438.195L218.512 456.774L213.016 456.399L208.026 436.971L213.018 437.311L216.034 452.889L221.243 437.872L225.984 438.195Z" fill="white"/>
<path d="M225.984 457.849L218.512 476.428L213.016 476.054L208.026 456.626L213.018 456.966L216.034 472.543L221.243 457.526L225.984 457.849Z" fill="white"/>
<path d="M225.984 477.505L218.512 496.084L213.016 495.709L208.026 476.281L213.018 476.621L216.034 492.198L221.243 477.182L225.984 477.505Z" fill="white"/>
<path d="M240.937 477.505L233.465 496.084L227.969 495.709L222.979 476.281L227.971 476.621L230.987 492.198L236.196 477.182L240.937 477.505Z" fill="white"/>
<path d="M240.937 458.523L233.465 477.102L227.969 476.728L222.979 457.299L227.971 457.64L230.987 473.217L236.196 458.2L240.937 458.523Z" fill="white"/>
<path d="M240.937 439.543L233.465 458.122L227.969 457.747L222.979 438.319L227.971 438.659L230.987 454.236L236.196 439.22L240.937 439.543Z" fill="white"/>
<path d="M240.937 420.562L233.465 439.141L227.969 438.767L222.979 419.338L227.971 419.679L230.987 435.256L236.196 420.239L240.937 420.562Z" fill="white"/>
<path d="M240.937 401.581L233.465 420.16L227.969 419.785L222.979 400.357L227.971 400.697L230.987 416.274L236.196 401.258L240.937 401.581Z" fill="white"/>
<path d="M240.937 382.599L233.465 401.178L227.969 400.804L222.979 381.376L227.971 381.716L230.987 397.293L236.196 382.276L240.937 382.599Z" fill="white"/>
<path d="M240.937 363.619L233.465 382.198L227.969 381.823L222.979 362.395L227.971 362.735L230.987 378.312L236.196 363.296L240.937 363.619Z" fill="white"/>
<path d="M240.937 344.638L233.465 363.217L227.969 362.843L222.979 343.415L227.971 343.755L230.987 359.332L236.196 344.315L240.937 344.638Z" fill="white"/>
<path d="M255.889 477.505L248.417 496.084L242.922 495.709L237.931 476.281L242.923 476.621L245.939 492.198L251.148 477.182L255.889 477.505Z" fill="white"/>
<path d="M255.889 458.523L248.417 477.102L242.922 476.728L237.931 457.299L242.923 457.64L245.939 473.217L251.148 458.2L255.889 458.523Z" fill="white"/>
<path d="M255.889 439.543L248.417 458.122L242.922 457.747L237.931 438.319L242.923 438.659L245.939 454.236L251.148 439.22L255.889 439.543Z" fill="white"/>
<path d="M255.889 420.562L248.417 439.141L242.922 438.767L237.931 419.338L242.923 419.679L245.939 435.256L251.148 420.239L255.889 420.562Z" fill="white"/>
<path d="M255.889 401.581L248.417 420.16L242.922 419.785L237.931 400.357L242.923 400.697L245.939 416.274L251.148 401.258L255.889 401.581Z" fill="white"/>
<path d="M255.889 382.599L248.417 401.178L242.922 400.804L237.931 381.376L242.923 381.716L245.939 397.293L251.148 382.276L255.889 382.599Z" fill="white"/>
<path d="M255.889 363.619L248.417 382.198L242.922 381.823L237.931 362.395L242.923 362.735L245.939 378.312L251.148 363.296L255.889 363.619Z" fill="white"/>
<path d="M270.842 477.505L263.37 496.084L257.875 495.709L252.884 476.281L257.876 476.621L260.892 492.198L266.101 477.182L270.842 477.505Z" fill="white"/>
<path d="M270.842 458.523L263.37 477.102L257.875 476.728L252.884 457.299L257.876 457.64L260.892 473.217L266.101 458.2L270.842 458.523Z" fill="white"/>
<path d="M270.842 439.543L263.37 458.122L257.875 457.747L252.884 438.319L257.876 438.659L260.892 454.236L266.101 439.22L270.842 439.543Z" fill="white"/>
<path d="M270.842 420.562L263.37 439.141L257.875 438.767L252.884 419.338L257.876 419.679L260.892 435.256L266.101 420.239L270.842 420.562Z" fill="white"/>
<path d="M270.842 401.581L263.37 420.16L257.875 419.785L252.884 400.357L257.876 400.697L260.892 416.274L266.101 401.258L270.842 401.581Z" fill="white"/>
<path d="M270.842 382.599L263.37 401.178L257.875 400.804L252.884 381.376L257.876 381.716L260.892 397.293L266.101 382.276L270.842 382.599Z" fill="white"/>
<path d="M285.795 477.505L278.322 496.084L272.827 495.709L267.836 476.281L272.829 476.621L275.845 492.198L281.054 477.182L285.795 477.505Z" fill="white"/>
<path d="M285.795 458.523L278.322 477.102L272.827 476.728L267.836 457.299L272.829 457.64L275.845 473.217L281.054 458.2L285.795 458.523Z" fill="white"/>
<path d="M285.795 439.543L278.322 458.122L272.827 457.747L267.836 438.319L272.829 438.659L275.845 454.236L281.054 439.22L285.795 439.543Z" fill="white"/>
<path d="M285.795 420.562L278.322 439.141L272.827 438.767L267.836 419.338L272.829 419.679L275.845 435.256L281.054 420.239L285.795 420.562Z" fill="white"/>
<path d="M285.795 401.581L278.322 420.16L272.827 419.785L267.836 400.357L272.829 400.697L275.845 416.274L281.054 401.258L285.795 401.581Z" fill="white"/>
<path d="M300.748 477.505L293.275 496.084L287.78 495.709L282.789 476.281L287.782 476.621L290.798 492.198L296.007 477.182L300.748 477.505Z" fill="white"/>
<path d="M300.748 458.523L293.275 477.102L287.78 476.728L282.789 457.299L287.782 457.64L290.798 473.217L296.007 458.2L300.748 458.523Z" fill="white"/>
<path d="M300.748 439.543L293.275 458.122L287.78 457.747L282.789 438.319L287.782 438.659L290.798 454.236L296.007 439.22L300.748 439.543Z" fill="white"/>
<path d="M300.748 420.562L293.275 439.141L287.78 438.767L282.789 419.338L287.782 419.679L290.798 435.256L296.007 420.239L300.748 420.562Z" fill="white"/>
<path d="M240.937 497.16L233.465 515.739L227.969 515.364L222.979 495.936L227.971 496.276L230.987 511.853L236.196 496.837L240.937 497.16Z" fill="white"/>
<path d="M255.937 497.16L248.465 515.739L242.969 515.364L237.979 495.936L242.971 496.276L245.987 511.853L251.196 496.837L255.937 497.16Z" fill="white"/>
<path d="M270.937 497.16L263.465 515.739L257.969 515.364L252.979 495.936L257.971 496.276L260.987 511.853L266.196 496.837L270.937 497.16Z" fill="white"/>
<circle cx="163.498" cy="65.2188" r="38.5" fill="white"/>
<path d="M178.998 48.7188L167.99 82.5748H158.198L146.998 48.7188H155.894L163.126 75.9828L170.55 48.7188H178.998Z" fill="#268020"/>
</svg>
