<svg width="358" height="552" viewBox="0 0 358 552" fill="none" xmlns="http://www.w3.org/2000/svg">
<rect x="1.5" y="2.21875" width="355" height="548" rx="98.5" fill="#268020" stroke="#268020" stroke-width="3"/>
<path d="M89.5 145.219C89.5 145.219 112.5 48.2406 164 52.7188C215.5 57.197 209 155.219 209 155.219" stroke="white" stroke-width="3"/>
<path d="M105.538 154.892L97.8191 173.382L93.8324 173.11L88.5855 153.736L92.1771 153.981L96.0444 170.302L102.054 154.654L105.538 154.892Z" fill="white"/>
<path d="M105.538 174.546L97.8191 193.036L93.8324 192.764L88.5855 173.391L92.1771 173.636L96.0444 189.956L102.054 174.309L105.538 174.546Z" fill="white"/>
<path d="M105.538 194.201L97.8191 212.691L93.8324 212.42L88.5855 193.046L92.1771 193.291L96.0444 209.611L102.054 193.964L105.538 194.201Z" fill="white"/>
<path d="M105.538 213.857L97.8191 232.347L93.8324 232.075L88.5855 212.701L92.1771 212.946L96.0444 229.267L102.054 213.619L105.538 213.857Z" fill="white"/>
<path d="M105.538 233.511L97.8191 252.001L93.8324 251.729L88.5855 232.356L92.1771 232.6L96.0444 248.921L102.054 233.273L105.538 233.511Z" fill="white"/>
<path d="M105.538 253.165L97.8191 271.655L93.8324 271.383L88.5855 252.01L92.1771 252.255L96.0444 268.575L102.054 252.928L105.538 253.165Z" fill="white"/>
<path d="M105.538 272.82L97.8191 291.31L93.8324 291.039L88.5855 271.665L92.1771 271.91L96.0444 288.231L102.054 272.583L105.538 272.82Z" fill="white"/>
<path d="M105.538 292.476L97.8191 310.966L93.8324 310.694L88.5855 291.32L92.1771 291.565L96.0444 307.886L102.054 292.238L105.538 292.476Z" fill="white"/>
<path d="M105.538 312.13L97.8191 330.62L93.8324 330.348L88.5855 310.975L92.1771 311.219L96.0444 327.54L102.054 311.893L105.538 312.13Z" fill="white"/>
<path d="M105.538 331.784L97.8191 350.274L93.8324 350.003L88.5855 330.629L92.1771 330.874L96.0444 347.195L102.054 331.547L105.538 331.784Z" fill="white"/>
<path d="M105.538 351.44L97.8191 369.93L93.8324 369.658L88.5855 350.284L92.1771 350.529L96.0444 366.85L102.054 351.202L105.538 351.44Z" fill="white"/>
<path d="M105.538 371.095L97.8191 389.585L93.8324 389.313L88.5855 369.94L92.1771 370.184L96.0444 386.505L102.054 370.857L105.538 371.095Z" fill="white"/>
<path d="M105.538 390.749L97.8191 409.239L93.8324 408.967L88.5855 389.594L92.1771 389.839L96.0444 406.159L102.054 390.512L105.538 390.749Z" fill="white"/>
<path d="M90.2139 390.749L82.4949 409.239L78.5082 408.967L73.2612 389.594L76.8529 389.839L80.7202 406.159L86.73 390.512L90.2139 390.749Z" fill="white"/>
<path d="M90.2139 370.546L82.4949 389.036L78.5082 388.764L73.2612 369.391L76.8529 369.636L80.7202 385.956L86.73 370.309L90.2139 370.546Z" fill="white"/>
<path d="M75.2139 370.546L67.4949 389.036L63.5082 388.764L58.2612 369.391L61.8529 369.636L65.7202 385.956L71.73 370.309L75.2139 370.546Z" fill="white"/>
<path d="M90.2139 350.344L82.4949 368.834L78.5082 368.562L73.2612 349.189L76.8529 349.433L80.7202 365.754L86.73 350.106L90.2139 350.344Z" fill="white"/>
<path d="M75.2139 350.344L67.4949 368.834L63.5082 368.562L58.2612 349.189L61.8529 349.433L65.7202 365.754L71.73 350.106L75.2139 350.344Z" fill="white"/>
<path d="M90.2139 330.142L82.4949 348.632L78.5082 348.36L73.2612 328.986L76.8529 329.231L80.7202 345.552L86.73 329.904L90.2139 330.142Z" fill="white"/>
<path d="M75.2139 330.142L67.4949 348.632L63.5082 348.36L58.2612 328.986L61.8529 329.231L65.7202 345.552L71.73 329.904L75.2139 330.142Z" fill="white"/>
<path d="M90.2139 309.939L82.4949 328.429L78.5082 328.157L73.2612 308.783L76.8529 309.028L80.7202 325.349L86.73 309.701L90.2139 309.939Z" fill="white"/>
<path d="M75.2139 309.939L67.4949 328.429L63.5082 328.157L58.2612 308.783L61.8529 309.028L65.7202 325.349L71.73 309.701L75.2139 309.939Z" fill="white"/>
<path d="M90.2139 289.735L82.4949 308.225L78.5082 307.954L73.2612 288.58L76.8529 288.825L80.7202 305.146L86.73 289.498L90.2139 289.735Z" fill="white"/>
<path d="M90.2139 269.533L82.4949 288.023L78.5082 287.752L73.2612 268.378L76.8529 268.623L80.7202 284.944L86.73 269.296L90.2139 269.533Z" fill="white"/>
<path d="M120.504 155.911L112.785 174.401L108.798 174.13L103.551 154.756L107.143 155.001L111.01 171.321L117.02 155.674L120.504 155.911Z" fill="white"/>
<path d="M120.504 175.567L112.785 194.057L108.798 193.785L103.551 174.411L107.143 174.656L111.01 190.977L117.02 175.329L120.504 175.567Z" fill="white"/>
<path d="M120.504 195.222L112.785 213.712L108.798 213.44L103.551 194.067L107.143 194.311L111.01 210.632L117.02 194.984L120.504 195.222Z" fill="white"/>
<path d="M120.504 214.876L112.785 233.366L108.798 233.094L103.551 213.721L107.143 213.966L111.01 230.286L117.02 214.639L120.504 214.876Z" fill="white"/>
<path d="M120.504 234.53L112.785 253.02L108.798 252.749L103.551 233.375L107.143 233.62L111.01 249.941L117.02 234.293L120.504 234.53Z" fill="white"/>
<path d="M120.504 254.186L112.785 272.676L108.798 272.404L103.551 253.03L107.143 253.275L111.01 269.596L117.02 253.948L120.504 254.186Z" fill="white"/>
<path d="M120.504 273.841L112.785 292.331L108.798 292.059L103.551 272.686L107.143 272.93L111.01 289.251L117.02 273.604L120.504 273.841Z" fill="white"/>
<path d="M120.504 293.495L112.785 311.985L108.798 311.714L103.551 292.34L107.143 292.585L111.01 308.905L117.02 293.258L120.504 293.495Z" fill="white"/>
<path d="M120.504 313.15L112.785 331.64L108.798 331.368L103.551 311.994L107.143 312.239L111.01 328.56L117.02 312.912L120.504 313.15Z" fill="white"/>
<path d="M120.504 332.805L112.785 351.295L108.798 351.023L103.551 331.65L107.143 331.894L111.01 348.215L117.02 332.567L120.504 332.805Z" fill="white"/>
<path d="M120.504 352.46L112.785 370.95L108.798 370.678L103.551 351.305L107.143 351.55L111.01 367.87L117.02 352.223L120.504 352.46Z" fill="white"/>
<path d="M120.504 372.114L112.785 390.604L108.798 390.333L103.551 370.959L107.143 371.204L111.01 387.525L117.02 371.877L120.504 372.114Z" fill="white"/>
<path d="M120.504 391.769L112.785 410.259L108.798 409.987L103.551 390.613L107.143 390.858L111.01 407.179L117.02 391.531L120.504 391.769Z" fill="white"/>
<path d="M135.469 156.932L127.75 175.422L123.763 175.15L118.516 155.776L122.108 156.021L125.975 172.342L131.985 156.694L135.469 156.932Z" fill="white"/>
<path d="M135.469 176.587L127.75 195.077L123.763 194.805L118.516 175.432L122.108 175.677L125.975 191.997L131.985 176.35L135.469 176.587Z" fill="white"/>
<path d="M135.469 196.241L127.75 214.731L123.763 214.46L118.516 195.086L122.108 195.331L125.975 211.652L131.985 196.004L135.469 196.241Z" fill="white"/>
<path d="M135.469 215.896L127.75 234.386L123.763 234.114L118.516 214.74L122.108 214.985L125.975 231.306L131.985 215.658L135.469 215.896Z" fill="white"/>
<path d="M135.469 235.551L127.75 254.041L123.763 253.769L118.516 234.396L122.108 234.64L125.975 250.961L131.985 235.314L135.469 235.551Z" fill="white"/>
<path d="M135.469 255.206L127.75 273.696L123.763 273.424L118.516 254.051L122.108 254.296L125.975 270.616L131.985 254.969L135.469 255.206Z" fill="white"/>
<path d="M135.469 274.86L127.75 293.35L123.763 293.079L118.516 273.705L122.108 273.95L125.975 290.271L131.985 274.623L135.469 274.86Z" fill="white"/>
<path d="M135.469 294.515L127.75 313.005L123.763 312.733L118.516 293.359L122.108 293.604L125.975 309.925L131.985 294.277L135.469 294.515Z" fill="white"/>
<path d="M135.469 314.17L127.75 332.66L123.763 332.388L118.516 313.015L122.108 313.26L125.975 329.58L131.985 313.933L135.469 314.17Z" fill="white"/>
<path d="M135.469 333.825L127.75 352.315L123.763 352.044L118.516 332.67L122.108 332.915L125.975 349.236L131.985 333.588L135.469 333.825Z" fill="white"/>
<path d="M135.469 353.48L127.75 371.97L123.763 371.698L118.516 352.324L122.108 352.569L125.975 368.89L131.985 353.242L135.469 353.48Z" fill="white"/>
<path d="M135.469 373.134L127.75 391.624L123.763 391.352L118.516 371.979L122.108 372.223L125.975 388.544L131.985 372.897L135.469 373.134Z" fill="white"/>
<path d="M135.469 392.789L127.75 411.279L123.763 411.007L118.516 391.634L122.108 391.879L125.975 408.199L131.985 392.552L135.469 392.789Z" fill="white"/>
<path d="M135.469 412.444L127.75 430.934L123.763 430.663L118.516 411.289L122.108 411.534L125.975 427.855L131.985 412.207L135.469 412.444Z" fill="white"/>
<path d="M150.435 157.952L142.716 176.442L138.729 176.171L133.482 156.797L137.074 157.042L140.941 173.362L146.951 157.715L150.435 157.952Z" fill="white"/>
<path d="M150.435 177.607L142.716 196.097L138.729 195.825L133.482 176.451L137.074 176.696L140.941 193.017L146.951 177.369L150.435 177.607Z" fill="white"/>
<path d="M150.435 197.261L142.716 215.751L138.729 215.479L133.482 196.106L137.074 196.35L140.941 212.671L146.951 197.023L150.435 197.261Z" fill="white"/>
<path d="M150.435 216.916L142.716 235.406L138.729 235.134L133.482 215.761L137.074 216.006L140.941 232.326L146.951 216.679L150.435 216.916Z" fill="white"/>
<path d="M150.435 236.571L142.716 255.061L138.729 254.79L133.482 235.416L137.074 235.661L140.941 251.982L146.951 236.334L150.435 236.571Z" fill="white"/>
<path d="M150.435 256.226L142.716 274.716L138.729 274.444L133.482 255.07L137.074 255.315L140.941 271.636L146.951 255.988L150.435 256.226Z" fill="white"/>
<path d="M150.435 275.88L142.716 294.37L138.729 294.098L133.482 274.725L137.074 274.969L140.941 291.29L146.951 275.643L150.435 275.88Z" fill="white"/>
<path d="M150.435 295.535L142.716 314.025L138.729 313.754L133.482 294.38L137.074 294.625L140.941 310.945L146.951 295.298L150.435 295.535Z" fill="white"/>
<path d="M150.435 315.191L142.716 333.681L138.729 333.409L133.482 314.035L137.074 314.28L140.941 330.601L146.951 314.953L150.435 315.191Z" fill="white"/>
<path d="M150.435 334.845L142.716 353.335L138.729 353.063L133.482 333.69L137.074 333.934L140.941 350.255L146.951 334.607L150.435 334.845Z" fill="white"/>
<path d="M150.435 354.499L142.716 372.989L138.729 372.717L133.482 353.344L137.074 353.589L140.941 369.909L146.951 354.262L150.435 354.499Z" fill="white"/>
<path d="M150.435 374.154L142.716 392.644L138.729 392.373L133.482 372.999L137.074 373.244L140.941 389.565L146.951 373.917L150.435 374.154Z" fill="white"/>
<path d="M150.435 393.81L142.716 412.3L138.729 412.028L133.482 392.654L137.074 392.899L140.941 409.22L146.951 393.572L150.435 393.81Z" fill="white"/>
<path d="M150.435 413.464L142.716 431.954L138.729 431.682L133.482 412.309L137.074 412.553L140.941 428.874L146.951 413.227L150.435 413.464Z" fill="white"/>
<path d="M165.399 158.972L157.68 177.462L153.694 177.19L148.447 157.817L152.038 158.061L155.906 174.382L161.916 158.734L165.399 158.972Z" fill="white"/>
<path d="M165.399 178.626L157.68 197.116L153.694 196.844L148.447 177.471L152.038 177.716L155.906 194.036L161.916 178.389L165.399 178.626Z" fill="white"/>
<path d="M165.399 198.28L157.68 216.77L153.694 216.499L148.447 197.125L152.038 197.37L155.906 213.691L161.916 198.043L165.399 198.28Z" fill="white"/>
<path d="M165.399 217.936L157.68 236.426L153.694 236.154L148.447 216.78L152.038 217.025L155.906 233.346L161.916 217.698L165.399 217.936Z" fill="white"/>
<path d="M165.399 237.591L157.68 256.081L153.694 255.809L148.447 236.436L152.038 236.68L155.906 253.001L161.916 237.354L165.399 237.591Z" fill="white"/>
<path d="M165.399 257.245L157.68 275.735L153.694 275.464L148.447 256.09L152.038 256.335L155.906 272.655L161.916 257.008L165.399 257.245Z" fill="white"/>
<path d="M165.399 276.9L157.68 295.39L153.694 295.118L148.447 275.744L152.038 275.989L155.906 292.31L161.916 276.662L165.399 276.9Z" fill="white"/>
<path d="M165.399 296.555L157.68 315.045L153.694 314.773L148.447 295.4L152.038 295.644L155.906 311.965L161.916 296.317L165.399 296.555Z" fill="white"/>
<path d="M165.399 316.21L157.68 334.7L153.694 334.428L148.447 315.055L152.038 315.3L155.906 331.62L161.916 315.973L165.399 316.21Z" fill="white"/>
<path d="M165.399 335.864L157.68 354.354L153.694 354.083L148.447 334.709L152.038 334.954L155.906 351.275L161.916 335.627L165.399 335.864Z" fill="white"/>
<path d="M165.399 355.519L157.68 374.009L153.694 373.737L148.447 354.363L152.038 354.608L155.906 370.929L161.916 355.281L165.399 355.519Z" fill="white"/>
<path d="M165.399 375.174L157.68 393.664L153.694 393.392L148.447 374.019L152.038 374.263L155.906 390.584L161.916 374.937L165.399 375.174Z" fill="white"/>
<path d="M165.399 394.829L157.68 413.319L153.694 413.048L148.447 393.674L152.038 393.919L155.906 410.239L161.916 394.592L165.399 394.829Z" fill="white"/>
<path d="M165.399 414.484L157.68 432.974L153.694 432.702L148.447 413.328L152.038 413.573L155.906 429.894L161.916 414.246L165.399 414.484Z" fill="white"/>
<path d="M165.399 434.138L157.68 452.628L153.694 452.356L148.447 432.983L152.038 433.227L155.906 449.548L161.916 433.9L165.399 434.138Z" fill="white"/>
<path d="M180.365 159.991L172.646 178.481L168.66 178.21L163.413 158.836L167.004 159.081L170.872 175.402L176.881 159.754L180.365 159.991Z" fill="white"/>
<path d="M180.365 179.646L172.646 198.136L168.66 197.864L163.413 178.49L167.004 178.735L170.872 195.056L176.881 179.408L180.365 179.646Z" fill="white"/>
<path d="M180.365 199.3L172.646 217.79L168.66 217.518L163.413 198.145L167.004 198.389L170.872 214.71L176.881 199.063L180.365 199.3Z" fill="white"/>
<path d="M180.365 218.955L172.646 237.445L168.66 237.174L163.413 217.8L167.004 218.045L170.872 234.365L176.881 218.718L180.365 218.955Z" fill="white"/>
<path d="M180.365 238.61L172.646 257.1L168.66 256.829L163.413 237.455L167.004 237.7L170.872 254.021L176.881 238.373L180.365 238.61Z" fill="white"/>
<path d="M180.365 258.265L172.646 276.755L168.66 276.483L163.413 257.109L167.004 257.354L170.872 273.675L176.881 258.027L180.365 258.265Z" fill="white"/>
<path d="M180.365 277.919L172.646 296.409L168.66 296.137L163.413 276.764L167.004 277.009L170.872 293.329L176.881 277.682L180.365 277.919Z" fill="white"/>
<path d="M180.365 297.574L172.646 316.064L168.66 315.793L163.413 296.419L167.004 296.664L170.872 312.985L176.881 297.337L180.365 297.574Z" fill="white"/>
<path d="M180.365 317.23L172.646 335.72L168.66 335.448L163.413 316.074L167.004 316.319L170.872 332.64L176.881 316.992L180.365 317.23Z" fill="white"/>
<path d="M180.365 336.884L172.646 355.374L168.66 355.102L163.413 335.729L167.004 335.973L170.872 352.294L176.881 336.647L180.365 336.884Z" fill="white"/>
<path d="M180.365 356.538L172.646 375.028L168.66 374.757L163.413 355.383L167.004 355.628L170.872 371.948L176.881 356.301L180.365 356.538Z" fill="white"/>
<path d="M180.365 376.194L172.646 394.683L168.66 394.412L163.413 375.038L167.004 375.283L170.872 391.604L176.881 375.956L180.365 376.194Z" fill="white"/>
<path d="M180.365 395.849L172.646 414.339L168.66 414.067L163.413 394.693L167.004 394.938L170.872 411.259L176.881 395.611L180.365 395.849Z" fill="white"/>
<path d="M180.365 415.503L172.646 433.993L168.66 433.721L163.413 414.348L167.004 414.593L170.872 430.913L176.881 415.266L180.365 415.503Z" fill="white"/>
<path d="M180.365 435.157L172.646 453.647L168.66 453.376L163.413 434.002L167.004 434.247L170.872 450.568L176.881 434.92L180.365 435.157Z" fill="white"/>
<path d="M180.365 454.813L172.646 473.303L168.66 473.031L163.413 453.657L167.004 453.902L170.872 470.223L176.881 454.575L180.365 454.813Z" fill="white"/>
<path d="M195.33 161.011L187.611 179.501L183.624 179.229L178.377 159.856L181.969 160.1L185.836 176.421L191.846 160.773L195.33 161.011Z" fill="white"/>
<path d="M195.33 180.666L187.611 199.156L183.624 198.884L178.377 179.511L181.969 179.756L185.836 196.076L191.846 180.429L195.33 180.666Z" fill="white"/>
<path d="M195.33 200.321L187.611 218.811L183.624 218.54L178.377 199.166L181.969 199.411L185.836 215.732L191.846 200.084L195.33 200.321Z" fill="white"/>
<path d="M195.33 219.976L187.611 238.466L183.624 238.194L178.377 218.82L181.969 219.065L185.836 235.386L191.846 219.738L195.33 219.976Z" fill="white"/>
<path d="M195.33 239.63L187.611 258.12L183.624 257.848L178.377 238.475L181.969 238.719L185.836 255.04L191.846 239.393L195.33 239.63Z" fill="white"/>
<path d="M195.33 259.285L187.611 277.775L183.624 277.504L178.377 258.13L181.969 258.375L185.836 274.695L191.846 259.048L195.33 259.285Z" fill="white"/>
<path d="M195.33 278.941L187.611 297.431L183.624 297.159L178.377 277.785L181.969 278.03L185.836 294.351L191.846 278.703L195.33 278.941Z" fill="white"/>
<path d="M195.33 298.595L187.611 317.085L183.624 316.813L178.377 297.44L181.969 297.684L185.836 314.005L191.846 298.357L195.33 298.595Z" fill="white"/>
<path d="M195.33 318.249L187.611 336.739L183.624 336.467L178.377 317.094L181.969 317.339L185.836 333.659L191.846 318.012L195.33 318.249Z" fill="white"/>
<path d="M195.33 337.904L187.611 356.394L183.624 356.123L178.377 336.749L181.969 336.994L185.836 353.315L191.846 337.667L195.33 337.904Z" fill="white"/>
<path d="M195.33 357.56L187.611 376.05L183.624 375.778L178.377 356.404L181.969 356.649L185.836 372.97L191.846 357.322L195.33 357.56Z" fill="white"/>
<path d="M195.33 377.214L187.611 395.704L183.624 395.432L178.377 376.059L181.969 376.303L185.836 392.624L191.846 376.977L195.33 377.214Z" fill="white"/>
<path d="M195.33 396.868L187.611 415.358L183.624 415.087L178.377 395.713L181.969 395.958L185.836 412.278L191.846 396.631L195.33 396.868Z" fill="white"/>
<path d="M195.33 416.524L187.611 435.014L183.624 434.742L178.377 415.368L181.969 415.613L185.836 431.934L191.846 416.286L195.33 416.524Z" fill="white"/>
<path d="M195.33 436.179L187.611 454.669L183.624 454.397L178.377 435.024L181.969 435.268L185.836 451.589L191.846 435.941L195.33 436.179Z" fill="white"/>
<path d="M195.33 455.833L187.611 474.323L183.624 474.051L178.377 454.678L181.969 454.923L185.836 471.243L191.846 455.596L195.33 455.833Z" fill="white"/>
<path d="M210.296 162.03L202.577 180.52L198.59 180.249L193.343 160.875L196.935 161.12L200.802 177.441L206.812 161.793L210.296 162.03Z" fill="white"/>
<path d="M210.296 181.686L202.577 200.176L198.59 199.904L193.343 180.53L196.935 180.775L200.802 197.096L206.812 181.448L210.296 181.686Z" fill="white"/>
<path d="M210.296 201.341L202.577 219.831L198.59 219.559L193.343 200.186L196.935 200.43L200.802 216.751L206.812 201.104L210.296 201.341Z" fill="white"/>
<path d="M210.296 220.995L202.577 239.485L198.59 239.214L193.343 219.84L196.935 220.085L200.802 236.405L206.812 220.758L210.296 220.995Z" fill="white"/>
<path d="M210.296 240.65L202.577 259.14L198.59 258.868L193.343 239.494L196.935 239.739L200.802 256.06L206.812 240.412L210.296 240.65Z" fill="white"/>
<path d="M210.296 260.305L202.577 278.795L198.59 278.523L193.343 259.15L196.935 259.394L200.802 275.715L206.812 260.067L210.296 260.305Z" fill="white"/>
<path d="M210.296 279.96L202.577 298.45L198.59 298.178L193.343 278.805L196.935 279.05L200.802 295.37L206.812 279.723L210.296 279.96Z" fill="white"/>
<path d="M210.296 299.614L202.577 318.104L198.59 317.833L193.343 298.459L196.935 298.704L200.802 315.025L206.812 299.377L210.296 299.614Z" fill="white"/>
<path d="M210.296 319.269L202.577 337.759L198.59 337.487L193.343 318.113L196.935 318.358L200.802 334.679L206.812 319.031L210.296 319.269Z" fill="white"/>
<path d="M210.296 338.924L202.577 357.414L198.59 357.142L193.343 337.769L196.935 338.013L200.802 354.334L206.812 338.687L210.296 338.924Z" fill="white"/>
<path d="M210.296 358.579L202.577 377.069L198.59 376.798L193.343 357.424L196.935 357.669L200.802 373.989L206.812 358.342L210.296 358.579Z" fill="white"/>
<path d="M210.296 378.234L202.577 396.724L198.59 396.452L193.343 377.078L196.935 377.323L200.802 393.644L206.812 377.996L210.296 378.234Z" fill="white"/>
<path d="M210.296 397.888L202.577 416.378L198.59 416.106L193.343 396.733L196.935 396.977L200.802 413.298L206.812 397.65L210.296 397.888Z" fill="white"/>
<path d="M210.296 417.543L202.577 436.033L198.59 435.761L193.343 416.388L196.935 416.633L200.802 432.953L206.812 417.306L210.296 417.543Z" fill="white"/>
<path d="M210.296 437.198L202.577 455.688L198.59 455.417L193.343 436.043L196.935 436.288L200.802 452.609L206.812 436.961L210.296 437.198Z" fill="white"/>
<path d="M210.296 456.853L202.577 475.343L198.59 475.071L193.343 455.697L196.935 455.942L200.802 472.263L206.812 456.615L210.296 456.853Z" fill="white"/>
<path d="M210.296 476.507L202.577 494.997L198.59 494.725L193.343 475.352L196.935 475.596L200.802 491.917L206.812 476.27L210.296 476.507Z" fill="white"/>
<path d="M225.261 320.289L217.542 338.779L213.555 338.507L208.308 319.134L211.9 319.379L215.767 335.699L221.777 320.052L225.261 320.289Z" fill="white"/>
<path d="M225.261 339.944L217.542 358.434L213.555 358.163L208.308 338.789L211.9 339.034L215.767 355.355L221.777 339.707L225.261 339.944Z" fill="white"/>
<path d="M225.261 359.599L217.542 378.089L213.555 377.817L208.308 358.443L211.9 358.688L215.767 375.009L221.777 359.361L225.261 359.599Z" fill="white"/>
<path d="M225.261 379.253L217.542 397.743L213.555 397.471L208.308 378.098L211.9 378.343L215.767 394.663L221.777 379.016L225.261 379.253Z" fill="white"/>
<path d="M225.261 398.908L217.542 417.398L213.555 417.127L208.308 397.753L211.9 397.998L215.767 414.319L221.777 398.671L225.261 398.908Z" fill="white"/>
<path d="M225.261 418.564L217.542 437.054L213.555 436.782L208.308 417.408L211.9 417.653L215.767 433.974L221.777 418.326L225.261 418.564Z" fill="white"/>
<path d="M225.261 438.218L217.542 456.708L213.555 456.436L208.308 437.063L211.9 437.307L215.767 453.628L221.777 437.98L225.261 438.218Z" fill="white"/>
<path d="M225.261 457.872L217.542 476.362L213.555 476.09L208.308 456.717L211.9 456.962L215.767 473.282L221.777 457.635L225.261 457.872Z" fill="white"/>
<path d="M225.261 477.527L217.542 496.017L213.555 495.746L208.308 476.372L211.9 476.617L215.767 492.938L221.777 477.29L225.261 477.527Z" fill="white"/>
<path d="M240.214 477.527L232.495 496.017L228.508 495.746L223.261 476.372L226.853 476.617L230.72 492.938L236.73 477.29L240.214 477.527Z" fill="white"/>
<path d="M240.214 458.546L232.495 477.036L228.508 476.764L223.261 457.391L226.853 457.636L230.72 473.956L236.73 458.309L240.214 458.546Z" fill="white"/>
<path d="M240.214 439.566L232.495 458.056L228.508 457.784L223.261 438.41L226.853 438.655L230.72 454.976L236.73 439.328L240.214 439.566Z" fill="white"/>
<path d="M240.214 420.585L232.495 439.075L228.508 438.803L223.261 419.43L226.853 419.675L230.72 435.995L236.73 420.348L240.214 420.585Z" fill="white"/>
<path d="M240.214 401.604L232.495 420.094L228.508 419.822L223.261 400.448L226.853 400.693L230.72 417.014L236.73 401.366L240.214 401.604Z" fill="white"/>
<path d="M240.214 382.622L232.495 401.112L228.508 400.84L223.261 381.467L226.853 381.712L230.72 398.032L236.73 382.385L240.214 382.622Z" fill="white"/>
<path d="M240.214 363.642L232.495 382.132L228.508 381.86L223.261 362.486L226.853 362.731L230.72 379.052L236.73 363.404L240.214 363.642Z" fill="white"/>
<path d="M240.214 344.661L232.495 363.151L228.508 362.88L223.261 343.506L226.853 343.751L230.72 360.071L236.73 344.424L240.214 344.661Z" fill="white"/>
<path d="M255.166 477.527L247.447 496.017L243.46 495.746L238.213 476.372L241.805 476.617L245.672 492.938L251.682 477.29L255.166 477.527Z" fill="white"/>
<path d="M255.166 458.546L247.447 477.036L243.46 476.764L238.213 457.391L241.805 457.636L245.672 473.956L251.682 458.309L255.166 458.546Z" fill="white"/>
<path d="M255.166 439.566L247.447 458.056L243.46 457.784L238.213 438.41L241.805 438.655L245.672 454.976L251.682 439.328L255.166 439.566Z" fill="white"/>
<path d="M255.166 420.585L247.447 439.075L243.46 438.803L238.213 419.43L241.805 419.675L245.672 435.995L251.682 420.348L255.166 420.585Z" fill="white"/>
<path d="M255.166 401.604L247.447 420.094L243.46 419.822L238.213 400.448L241.805 400.693L245.672 417.014L251.682 401.366L255.166 401.604Z" fill="white"/>
<path d="M255.166 382.622L247.447 401.112L243.46 400.84L238.213 381.467L241.805 381.712L245.672 398.032L251.682 382.385L255.166 382.622Z" fill="white"/>
<path d="M255.166 363.642L247.447 382.132L243.46 381.86L238.213 362.486L241.805 362.731L245.672 379.052L251.682 363.404L255.166 363.642Z" fill="white"/>
<path d="M270.119 477.527L262.4 496.017L258.413 495.746L253.167 476.372L256.758 476.617L260.625 492.938L266.635 477.29L270.119 477.527Z" fill="white"/>
<path d="M270.119 458.546L262.4 477.036L258.413 476.764L253.167 457.391L256.758 457.636L260.625 473.956L266.635 458.309L270.119 458.546Z" fill="white"/>
<path d="M270.119 439.566L262.4 458.056L258.413 457.784L253.167 438.41L256.758 438.655L260.625 454.976L266.635 439.328L270.119 439.566Z" fill="white"/>
<path d="M270.119 420.585L262.4 439.075L258.413 438.803L253.167 419.43L256.758 419.675L260.625 435.995L266.635 420.348L270.119 420.585Z" fill="white"/>
<path d="M270.119 401.604L262.4 420.094L258.413 419.822L253.167 400.448L256.758 400.693L260.625 417.014L266.635 401.366L270.119 401.604Z" fill="white"/>
<path d="M270.119 382.622L262.4 401.112L258.413 400.84L253.167 381.467L256.758 381.712L260.625 398.032L266.635 382.385L270.119 382.622Z" fill="white"/>
<path d="M285.071 477.527L277.352 496.017L273.366 495.746L268.119 476.372L271.71 476.617L275.578 492.938L281.587 477.29L285.071 477.527Z" fill="white"/>
<path d="M285.071 458.546L277.352 477.036L273.366 476.764L268.119 457.391L271.71 457.636L275.578 473.956L281.587 458.309L285.071 458.546Z" fill="white"/>
<path d="M285.071 439.566L277.352 458.056L273.366 457.784L268.119 438.41L271.71 438.655L275.578 454.976L281.587 439.328L285.071 439.566Z" fill="white"/>
<path d="M285.071 420.585L277.352 439.075L273.366 438.803L268.119 419.43L271.71 419.675L275.578 435.995L281.587 420.348L285.071 420.585Z" fill="white"/>
<path d="M285.071 401.604L277.352 420.094L273.366 419.822L268.119 400.448L271.71 400.693L275.578 417.014L281.587 401.366L285.071 401.604Z" fill="white"/>
<path d="M300.024 477.527L292.305 496.017L288.319 495.746L283.072 476.372L286.663 476.617L290.531 492.938L296.541 477.29L300.024 477.527Z" fill="white"/>
<path d="M300.024 458.546L292.305 477.036L288.319 476.764L283.072 457.391L286.663 457.636L290.531 473.956L296.541 458.309L300.024 458.546Z" fill="white"/>
<path d="M300.024 439.566L292.305 458.056L288.319 457.784L283.072 438.41L286.663 438.655L290.531 454.976L296.541 439.328L300.024 439.566Z" fill="white"/>
<path d="M300.024 420.585L292.305 439.075L288.319 438.803L283.072 419.43L286.663 419.675L290.531 435.995L296.541 420.348L300.024 420.585Z" fill="white"/>
<path d="M240.214 497.183L232.495 515.673L228.508 515.401L223.261 496.027L226.853 496.272L230.72 512.593L236.73 496.945L240.214 497.183Z" fill="white"/>
<path d="M255.214 497.183L247.495 515.673L243.508 515.401L238.261 496.027L241.853 496.272L245.72 512.593L251.73 496.945L255.214 497.183Z" fill="white"/>
<path d="M270.214 497.183L262.495 515.673L258.508 515.401L253.261 496.027L256.853 496.272L260.72 512.593L266.73 496.945L270.214 497.183Z" fill="white"/>
<circle cx="163.5" cy="65.2188" r="38.5" fill="white"/>
<path d="M178.208 48.7188L166.752 82.4468H159.648L148 48.7188H154.4L163.232 77.1987L172 48.7188H178.208Z" fill="#268020"/>
</svg>
