<svg width="413" height="420" viewBox="0 0 413 420" fill="none" xmlns="http://www.w3.org/2000/svg">
<path d="M206.055 201.116C208.413 201.116 210.25 201.933 211.565 203.565C212.903 205.175 213.571 207.431 213.571 210.334C213.571 213.213 212.891 215.492 211.531 217.17C210.193 218.825 208.356 219.653 206.021 219.653C203.662 219.653 201.814 218.837 200.477 217.204C199.161 215.549 198.504 213.281 198.504 210.402C198.504 208.52 198.81 206.876 199.422 205.47C200.034 204.064 200.907 202.987 202.041 202.239C203.175 201.49 204.513 201.116 206.055 201.116ZM206.055 202.783C204.331 202.783 202.994 203.429 202.041 204.722C201.089 206.014 200.613 207.907 200.613 210.402C200.613 212.873 201.078 214.755 202.007 216.048C202.96 217.34 204.297 217.986 206.021 217.986C207.744 217.986 209.082 217.34 210.034 216.048C211.009 214.755 211.497 212.851 211.497 210.334C211.497 207.862 211.021 205.991 210.068 204.722C209.138 203.429 207.801 202.783 206.055 202.783Z" fill="#1210A2"/>
<path d="M96.4044 28.8141C95.4067 29.585 94.2503 29.9705 92.9351 29.9705C91.6426 29.9705 90.6109 29.585 89.84 28.8141C89.069 28.0431 88.6835 26.9094 88.6835 25.4128V6.80797H85.6904V5.20938H88.6835V0.957815L90.6563 0.719727V5.20938H95.248L95.0099 6.80797H90.6563V25.5149C90.6563 27.3969 91.4385 28.3379 93.0031 28.3379C93.5473 28.3379 94.0008 28.2699 94.3636 28.1338C94.7491 28.0205 95.1573 27.8277 95.5881 27.5556L96.4044 28.8141Z" fill="#1210A2"/>
<path d="M125.457 69.9108C124.459 70.6817 123.303 71.0672 121.988 71.0672C120.695 71.0672 119.664 70.6817 118.893 69.9108C118.122 69.1398 117.736 68.0061 117.736 66.5095V47.9047H114.743V46.3061H117.736V42.0545L119.709 41.8164V46.3061H124.301L124.063 47.9047H119.709V66.6115C119.709 68.4936 120.491 69.4346 122.056 69.4346C122.6 69.4346 123.054 69.3666 123.416 69.2305C123.802 69.1171 124.21 68.9244 124.641 68.6523L125.457 69.9108Z" fill="#1210A2"/>
<path d="M154.509 111.012C153.511 111.783 152.355 112.169 151.04 112.169C149.747 112.169 148.715 111.783 147.944 111.012C147.174 110.241 146.788 109.108 146.788 107.611V89.0062H143.795V87.4076H146.788V83.1561L148.761 82.918V87.4076H153.352L153.114 89.0062H148.761V107.713C148.761 109.595 149.543 110.536 151.108 110.536C151.652 110.536 152.105 110.468 152.468 110.332C152.854 110.219 153.262 110.026 153.693 109.754L154.509 111.012Z" fill="#1210A2"/>
<path d="M181.436 152.109C180.438 152.88 179.282 153.265 177.966 153.265C176.674 153.265 175.642 152.88 174.871 152.109C174.1 151.338 173.715 150.204 173.715 148.708V130.103H170.722V128.504H173.715V124.253L175.688 124.015V128.504H180.279L180.041 130.103H175.688V148.81C175.688 150.692 176.47 151.633 178.034 151.633C178.579 151.633 179.032 151.565 179.395 151.429C179.78 151.315 180.189 151.123 180.619 150.851L181.436 152.109Z" fill="#1210A2"/>
<path d="M323.863 28.8141C322.866 29.585 321.709 29.9705 320.394 29.9705C319.102 29.9705 318.07 29.585 317.299 28.8141C316.528 28.0431 316.143 26.9094 316.143 25.4128V6.80797H313.149V5.20938H316.143V0.957815L318.115 0.719727V5.20938H322.707L322.469 6.80797H318.115V25.5149C318.115 27.3969 318.898 28.3379 320.462 28.3379C321.006 28.3379 321.46 28.2699 321.823 28.1338C322.208 28.0205 322.616 27.8277 323.047 27.5556L323.863 28.8141Z" fill="#1210A2"/>
<path d="M294.811 69.9108C293.813 70.6817 292.657 71.0672 291.341 71.0672C290.049 71.0672 289.017 70.6817 288.246 69.9108C287.475 69.1398 287.09 68.0061 287.09 66.5095V47.9047H284.097V46.3061H287.09V42.0545L289.063 41.8164V46.3061H293.654L293.416 47.9047H289.063V66.6115C289.063 68.4936 289.845 69.4346 291.409 69.4346C291.954 69.4346 292.407 69.3666 292.77 69.2305C293.155 69.1171 293.564 68.9244 293.994 68.6523L294.811 69.9108Z" fill="#1210A2"/>
<path d="M265.759 111.012C264.761 111.783 263.605 112.169 262.29 112.169C260.997 112.169 259.965 111.783 259.194 111.012C258.424 110.241 258.038 109.108 258.038 107.611V89.0062H255.045V87.4076H258.038V83.1561L260.011 82.918V87.4076H264.602L264.364 89.0062H260.011V107.713C260.011 109.595 260.793 110.536 262.358 110.536C262.902 110.536 263.355 110.468 263.718 110.332C264.104 110.219 264.512 110.026 264.943 109.754L265.759 111.012Z" fill="#1210A2"/>
<path d="M238.832 152.109C237.834 152.88 236.678 153.265 235.363 153.265C234.07 153.265 233.039 152.88 232.268 152.109C231.497 151.338 231.111 150.204 231.111 148.708V130.103H228.118V128.504H231.111V124.253L233.084 124.015V128.504H237.676L237.438 130.103H233.084V148.81C233.084 150.692 233.866 151.633 235.431 151.633C235.975 151.633 236.429 151.565 236.791 151.429C237.177 151.315 237.585 151.123 238.016 150.851L238.832 152.109Z" fill="#1210A2"/>
<path d="M118.49 5.71973V10.8896H123.592V12.5903H118.49V17.7602H116.619V12.5903H111.518V10.8896H116.619V5.71973H118.49Z" fill="#1210A2"/>
<path d="M147.542 5.71973V10.8896H152.644V12.5903H147.542V17.7602H145.671V12.5903H140.569V10.8896H145.671V5.71973H147.542Z" fill="#1210A2"/>
<path d="M147.542 46.8184V51.9883H152.644V53.6889H147.542V58.8588H145.671V53.6889H140.569V51.9883H145.671V46.8184H147.542Z" fill="#1210A2"/>
<path d="M176.595 5.71973V10.8896H181.697V12.5903H176.595V17.7602H174.724V12.5903H169.622V10.8896H174.724V5.71973H176.595Z" fill="#1210A2"/>
<path d="M176.595 46.8184V51.9883H181.697V53.6889H176.595V58.8588H174.724V53.6889H169.622V51.9883H174.724V46.8184H176.595Z" fill="#1210A2"/>
<path d="M176.595 87.917V93.0869H181.697V94.7875H176.595V99.9574H174.724V94.7875H169.622V93.0869H174.724V87.917H176.595Z" fill="#1210A2"/>
<path d="M205.647 5.71973V10.8896H210.749V12.5903H205.647V17.7602H203.777V12.5903H198.675V10.8896H203.777V5.71973H205.647Z" fill="#1210A2"/>
<path d="M205.647 46.8184V51.9883H210.749V53.6889H205.647V58.8588H203.777V53.6889H198.675V51.9883H203.777V46.8184H205.647Z" fill="#1210A2"/>
<path d="M205.647 87.917V93.0869H210.749V94.7875H205.647V99.9574H203.777V94.7875H198.675V93.0869H203.777V87.917H205.647Z" fill="#1210A2"/>
<path d="M205.647 129.016V134.186H210.749V135.886H205.647V141.056H203.777V135.886H198.675V134.186H203.777V129.016H205.647Z" fill="#1210A2"/>
<path d="M205.647 170.113V175.283H210.749V176.984H205.647V182.154H203.777V176.984H198.675V175.283H203.777V170.113H205.647Z" fill="#1210A2"/>
<path d="M234.699 5.71973V10.8896H239.801V12.5903H234.699V17.7602H232.828V12.5903H227.727V10.8896H232.828V5.71973H234.699Z" fill="#1210A2"/>
<path d="M234.699 46.8184V51.9883H239.801V53.6889H234.699V58.8588H232.828V53.6889H227.727V51.9883H232.828V46.8184H234.699Z" fill="#1210A2"/>
<path d="M234.699 87.917V93.0869H239.801V94.7875H234.699V99.9574H232.828V94.7875H227.727V93.0869H232.828V87.917H234.699Z" fill="#1210A2"/>
<path d="M263.752 5.71973V10.8896H268.854V12.5903H263.752V17.7602H261.881V12.5903H256.779V10.8896H261.881V5.71973H263.752Z" fill="#1210A2"/>
<path d="M263.752 46.8184V51.9883H268.854V53.6889H263.752V58.8588H261.881V53.6889H256.779V51.9883H261.881V46.8184H263.752Z" fill="#1210A2"/>
<path d="M292.805 5.71973V10.8896H297.906V12.5903H292.805V17.7602H290.934V12.5903H285.832V10.8896H290.934V5.71973H292.805Z" fill="#1210A2"/>
<path d="M238.824 178.15L235.168 181.806L238.776 185.413L237.573 186.616L233.966 183.008L230.31 186.664L228.987 185.341L232.643 181.686L229.035 178.078L230.238 176.875L233.845 180.483L237.501 176.827L238.824 178.15Z" fill="#1210A2"/>
<path d="M254.323 165.942C253.073 165.781 251.983 165.236 251.053 164.306C250.139 163.392 249.682 162.39 249.682 161.3C249.682 160.21 250.211 159.135 251.269 158.077L264.425 144.921L262.308 142.805L263.439 141.675L265.555 143.791L268.561 140.785L270.125 142.011L266.95 145.186L270.197 148.433L268.898 149.395L265.82 146.316L252.592 159.544C251.261 160.875 251.149 162.094 252.255 163.2C252.64 163.585 253.009 163.857 253.361 164.018C253.714 164.21 254.139 164.362 254.636 164.475L254.323 165.942Z" fill="#1210A2"/>
<path d="M254.323 251.984C253.073 252.145 251.983 252.69 251.053 253.62C250.139 254.534 249.682 255.536 249.682 256.626C249.682 257.716 250.211 258.79 251.269 259.849L264.425 273.004L262.308 275.121L263.439 276.251L265.555 274.135L268.561 277.141L270.125 275.914L266.95 272.74L270.197 269.493L268.898 268.531L265.82 271.609L252.592 258.382C251.261 257.051 251.149 255.832 252.255 254.726C252.64 254.341 253.009 254.069 253.361 253.908C253.714 253.716 254.139 253.563 254.636 253.451L254.323 251.984Z" fill="#1210A2"/>
<path d="M161.632 168.068C162.882 167.907 163.973 167.362 164.902 166.432C165.816 165.518 166.273 164.516 166.273 163.426C166.273 162.336 165.744 161.261 164.686 160.203L151.53 147.047L153.647 144.931L152.516 143.801L150.4 145.917L147.394 142.911L145.83 144.137L149.005 147.312L145.758 150.559L147.057 151.521L150.135 148.442L163.363 161.67C164.694 163.001 164.806 164.22 163.7 165.326C163.315 165.711 162.946 165.983 162.594 166.144C162.241 166.336 161.816 166.488 161.319 166.601L161.632 168.068Z" fill="#1210A2"/>
<path d="M161.632 249.858C162.882 250.019 163.973 250.564 164.902 251.494C165.816 252.408 166.273 253.41 166.273 254.5C166.273 255.59 165.744 256.664 164.686 257.723L151.53 270.878L153.647 272.995L152.516 274.125L150.4 272.009L147.394 275.015L145.83 273.788L149.005 270.614L145.758 267.367L147.057 266.405L150.135 269.483L163.363 256.256C164.694 254.925 164.806 253.706 163.7 252.6C163.315 252.215 162.946 251.943 162.594 251.782C162.241 251.59 161.816 251.438 161.319 251.325L161.632 249.858Z" fill="#1210A2"/>
<path d="M289.752 128.385C288.502 128.225 287.411 127.679 286.481 126.75C285.567 125.836 285.11 124.834 285.11 123.743C285.11 122.653 285.64 121.579 286.698 120.52L299.853 107.365L297.737 105.248L298.867 104.118L300.984 106.234L303.99 103.228L305.553 104.455L302.379 107.629L305.626 110.876L304.327 111.838L301.248 108.76L288.021 121.988C286.69 123.318 286.578 124.537 287.684 125.643C288.069 126.028 288.437 126.301 288.79 126.461C289.143 126.653 289.568 126.806 290.065 126.918L289.752 128.385Z" fill="#1210A2"/>
<path d="M289.752 289.539C288.502 289.699 287.411 290.244 286.481 291.174C285.567 292.088 285.11 293.09 285.11 294.181C285.11 295.271 285.64 296.345 286.698 297.403L299.853 310.559L297.737 312.675L298.867 313.806L300.984 311.689L303.99 314.696L305.553 313.469L302.379 310.294L305.626 307.048L304.327 306.086L301.248 309.164L288.021 295.936C286.69 294.605 286.578 293.387 287.684 292.281C288.069 291.896 288.437 291.623 288.79 291.463C289.143 291.27 289.568 291.118 290.065 291.006L289.752 289.539Z" fill="#1210A2"/>
<path d="M126.201 130.51C127.452 130.35 128.542 129.804 129.472 128.875C130.386 127.961 130.843 126.959 130.843 125.868C130.843 124.778 130.314 123.704 129.255 122.645L116.1 109.49L118.216 107.373L117.086 106.243L114.969 108.359L111.963 105.353L110.4 106.58L113.574 109.754L110.328 113.001L111.626 113.963L114.705 110.885L127.933 124.113C129.263 125.443 129.376 126.662 128.269 127.768C127.884 128.153 127.516 128.426 127.163 128.586C126.81 128.778 126.385 128.931 125.888 129.043L126.201 130.51Z" fill="#1210A2"/>
<path d="M126.201 287.413C127.452 287.573 128.542 288.118 129.472 289.048C130.386 289.962 130.843 290.964 130.843 292.055C130.843 293.145 130.314 294.219 129.255 295.277L116.1 308.433L118.216 310.549L117.086 311.68L114.969 309.563L111.963 312.57L110.4 311.343L113.574 308.168L110.328 304.922L111.626 303.96L114.705 307.038L127.933 293.81C129.263 292.48 129.376 291.261 128.269 290.155C127.884 289.77 127.516 289.497 127.163 289.337C126.81 289.145 126.385 288.992 125.888 288.88L126.201 287.413Z" fill="#1210A2"/>
<path d="M325.183 91.5373C323.932 91.377 322.842 90.8318 321.912 89.9019C320.998 88.988 320.541 87.9859 320.541 86.8956C320.541 85.8053 321.07 84.731 322.128 83.6728L335.284 70.5172L333.168 68.4007L334.298 67.2704L336.414 69.3868L339.421 66.3805L340.984 67.6071L337.809 70.7817L341.056 74.0286L339.757 74.9906L336.679 71.9121L323.451 85.1399C322.12 86.4707 322.008 87.6892 323.115 88.7956C323.499 89.1804 323.868 89.4529 324.221 89.6133C324.574 89.8057 324.998 89.958 325.496 90.0702L325.183 91.5373Z" fill="#1210A2"/>
<path d="M325.183 326.386C323.932 326.546 322.842 327.091 321.912 328.021C320.998 328.935 320.541 329.937 320.541 331.027C320.541 332.118 321.07 333.192 322.128 334.25L335.284 347.406L333.168 349.522L334.298 350.652L336.414 348.536L339.421 351.542L340.984 350.316L337.809 347.141L341.056 343.894L339.757 342.932L336.679 346.011L323.451 332.783C322.12 331.452 322.008 330.234 323.115 329.127C323.499 328.742 323.868 328.47 324.221 328.31C324.574 328.117 324.998 327.965 325.496 327.853L325.183 326.386Z" fill="#1210A2"/>
<path d="M90.7713 93.6643C92.0219 93.5039 93.1122 92.9588 94.0421 92.0288C94.956 91.1149 95.413 90.1128 95.413 89.0225C95.413 87.9322 94.8839 86.858 93.8257 85.7998L80.67 72.6441L82.7865 70.5277L81.6561 69.3973L79.5397 71.5138L76.5334 68.5075L74.9701 69.734L78.1447 72.9087L74.8979 76.1555L76.1966 77.1175L79.2751 74.0391L92.5029 87.2668C93.8337 88.5976 93.9459 89.8162 92.8396 90.9225C92.4548 91.3073 92.086 91.5799 91.7333 91.7402C91.3805 91.9326 90.9556 92.085 90.4586 92.1972L90.7713 93.6643Z" fill="#1210A2"/>
<path d="M90.7713 324.259C92.0219 324.419 93.1122 324.964 94.0421 325.894C94.956 326.808 95.413 327.81 95.413 328.9C95.413 329.991 94.8839 331.065 93.8257 332.123L80.67 345.279L82.7865 347.395L81.6561 348.526L79.5397 346.409L76.5334 349.415L74.9701 348.189L78.1447 345.014L74.8979 341.767L76.1966 340.805L79.2751 343.884L92.5029 330.656C93.8337 329.325 93.9459 328.107 92.8396 327C92.4548 326.616 92.086 326.343 91.7333 326.183C91.3805 325.99 90.9556 325.838 90.4586 325.726L90.7713 324.259Z" fill="#1210A2"/>
<path d="M360.613 54.6916C359.362 54.5313 358.272 53.9861 357.342 53.0562C356.428 52.1423 355.971 51.1402 355.971 50.0499C355.971 48.9596 356.5 47.8853 357.558 46.8271L370.714 33.6715L368.597 31.555L369.728 30.4247L371.844 32.5411L374.85 29.5348L376.414 30.7614L373.239 33.936L376.486 37.1829L375.187 38.1449L372.109 35.0664L358.881 48.2942C357.55 49.625 357.438 50.8435 358.544 51.9499C358.929 52.3347 359.298 52.6072 359.651 52.7676C360.003 52.96 360.428 53.1123 360.925 53.2245L360.613 54.6916Z" fill="#1210A2"/>
<path d="M360.613 363.232C359.362 363.393 358.272 363.938 357.342 364.868C356.428 365.782 355.971 366.784 355.971 367.874C355.971 368.964 356.5 370.039 357.558 371.097L370.714 384.252L368.597 386.369L369.728 387.499L371.844 385.383L374.85 388.389L376.414 387.162L373.239 383.988L376.486 380.741L375.187 379.779L372.109 382.857L358.881 369.63C357.55 368.299 357.438 367.08 358.544 365.974C358.929 365.589 359.298 365.317 359.651 365.156C360.003 364.964 360.428 364.812 360.925 364.699L360.613 363.232Z" fill="#1210A2"/>
<path d="M55.3416 56.8176C56.5922 56.6573 57.6825 56.1121 58.6124 55.1822C59.5263 54.2682 59.9833 53.2661 59.9833 52.1758C59.9833 51.0856 59.4542 50.0113 58.396 48.9531L45.2404 35.7975L47.3568 33.681L46.2264 32.5506L44.11 34.6671L41.1037 31.6608L39.5404 32.8873L42.7151 36.062L39.4682 39.3088L40.767 40.2709L43.8454 37.1924L57.0732 50.4202C58.404 51.751 58.5162 52.9695 57.4099 54.0758C57.0251 54.4606 56.6563 54.7332 56.3036 54.8936C55.9508 55.086 55.5259 55.2383 55.0289 55.3505L55.3416 56.8176Z" fill="#1210A2"/>
<path d="M55.3416 361.107C56.5922 361.268 57.6825 361.813 58.6124 362.743C59.5263 363.657 59.9833 364.659 59.9833 365.749C59.9833 366.839 59.4542 367.914 58.396 368.972L45.2404 382.127L47.3568 384.244L46.2264 385.374L44.11 383.258L41.1037 386.264L39.5404 385.037L42.7151 381.863L39.4682 378.616L40.767 377.654L43.8454 380.732L57.0732 367.505C58.404 366.174 58.5162 364.955 57.4099 363.849C57.0251 363.464 56.6563 363.192 56.3036 363.031C55.9508 362.839 55.5259 362.687 55.0289 362.574L55.3416 361.107Z" fill="#1210A2"/>
<path d="M383.957 98.0977C383.186 97.1 382.801 95.9436 382.801 94.6285C382.801 93.336 383.186 92.3043 383.957 91.5333C384.728 90.7624 385.862 90.3769 387.359 90.3769L405.964 90.3769L405.964 87.3838L407.562 87.3838L407.562 90.3769L411.814 90.3769L412.052 92.3496L407.562 92.3496L407.562 96.9413L405.964 96.7032L405.964 92.3496L387.257 92.3496C385.375 92.3496 384.434 93.1319 384.434 94.6965C384.434 95.2407 384.502 95.6942 384.638 96.057C384.751 96.4425 384.944 96.8506 385.216 97.2814L383.957 98.0977Z" fill="#1210A2"/>
<path d="M342.859 127.149C342.088 126.152 341.702 124.995 341.702 123.68C341.702 122.388 342.088 121.356 342.859 120.585C343.63 119.814 344.763 119.429 346.26 119.429L364.865 119.429L364.865 116.436L366.463 116.436L366.463 119.429L370.715 119.429L370.953 121.401L366.463 121.401L366.463 125.993L364.865 125.755L364.865 121.401L346.158 121.401C344.276 121.401 343.335 122.184 343.335 123.748C343.335 124.292 343.403 124.746 343.539 125.109C343.652 125.494 343.845 125.902 344.117 126.333L342.859 127.149Z" fill="#1210A2"/>
<path d="M301.76 156.202C300.989 155.205 300.604 154.048 300.604 152.733C300.604 151.44 300.989 150.409 301.76 149.638C302.531 148.867 303.665 148.481 305.161 148.481L323.766 148.481L323.766 145.488L325.365 145.488L325.365 148.481L329.616 148.481L329.854 150.454L325.365 150.454L325.365 155.046L323.766 154.808L323.766 150.454L305.059 150.454C303.177 150.454 302.236 151.236 302.236 152.801C302.236 153.345 302.304 153.799 302.44 154.161C302.554 154.547 302.746 154.955 303.019 155.386L301.76 156.202Z" fill="#1210A2"/>
<path d="M260.662 183.129C259.892 182.131 259.506 180.975 259.506 179.66C259.506 178.367 259.892 177.336 260.662 176.565C261.433 175.794 262.567 175.408 264.064 175.408L282.669 175.408L282.669 172.415L284.267 172.415L284.267 175.408L288.519 175.408L288.757 177.381L284.267 177.381L284.267 181.973L282.669 181.734L282.669 177.381L263.962 177.381C262.08 177.381 261.139 178.163 261.139 179.728C261.139 180.272 261.207 180.725 261.343 181.088C261.456 181.474 261.649 181.882 261.921 182.313L260.662 183.129Z" fill="#1210A2"/>
<path d="M383.957 325.557C383.186 324.559 382.801 323.403 382.801 322.087C382.801 320.795 383.186 319.763 383.957 318.992C384.728 318.221 385.862 317.836 387.359 317.836L405.964 317.836L405.964 314.843L407.562 314.843L407.562 317.836L411.814 317.836L412.052 319.809L407.562 319.809L407.562 324.4L405.964 324.162L405.964 319.809L387.257 319.809C385.375 319.809 384.434 320.591 384.434 322.155C384.434 322.7 384.502 323.153 384.638 323.516C384.751 323.901 384.944 324.31 385.216 324.74L383.957 325.557Z" fill="#1210A2"/>
<path d="M342.859 296.505C342.088 295.507 341.702 294.351 341.702 293.036C341.702 291.743 342.088 290.711 342.859 289.941C343.63 289.17 344.763 288.784 346.26 288.784L364.865 288.784L364.865 285.791L366.463 285.791L366.463 288.784L370.715 288.784L370.953 290.757L366.463 290.757L366.463 295.349L364.865 295.11L364.865 290.757L346.158 290.757C344.276 290.757 343.335 291.539 343.335 293.104C343.335 293.648 343.403 294.101 343.539 294.464C343.652 294.85 343.845 295.258 344.117 295.689L342.859 296.505Z" fill="#1210A2"/>
<path d="M301.76 267.451C300.989 266.454 300.604 265.297 300.604 263.982C300.604 262.689 300.989 261.658 301.76 260.887C302.531 260.116 303.665 259.73 305.161 259.73L323.766 259.73L323.766 256.737L325.365 256.737L325.365 259.73L329.616 259.73L329.854 261.703L325.365 261.703L325.365 266.295L323.766 266.057L323.766 261.703L305.059 261.703C303.177 261.703 302.236 262.485 302.236 264.05C302.236 264.594 302.304 265.048 302.44 265.411C302.554 265.796 302.746 266.204 303.019 266.635L301.76 267.451Z" fill="#1210A2"/>
<path d="M260.662 240.524C259.892 239.527 259.506 238.37 259.506 237.055C259.506 235.763 259.892 234.731 260.662 233.96C261.433 233.189 262.567 232.804 264.064 232.804L282.669 232.804L282.669 229.811L284.267 229.811L284.267 232.804L288.519 232.804L288.757 234.776L284.267 234.776L284.267 239.368L282.669 239.13L282.669 234.776L263.962 234.776C262.08 234.776 261.139 235.559 261.139 237.123C261.139 237.667 261.207 238.121 261.343 238.484C261.456 238.869 261.649 239.277 261.921 239.708L260.662 240.524Z" fill="#1210A2"/>
<path d="M407.052 120.182L401.882 120.182L401.882 125.283L400.181 125.283L400.181 120.182L395.011 120.182L395.011 118.311L400.181 118.311L400.181 113.209L401.882 113.209L401.882 118.311L407.052 118.311L407.052 120.182Z" fill="#1210A2"/>
<path d="M407.052 149.235L401.882 149.235L401.882 154.337L400.181 154.337L400.181 149.235L395.011 149.235L395.011 147.365L400.181 147.365L400.181 142.263L401.882 142.263L401.882 147.365L407.052 147.365L407.052 149.235Z" fill="#1210A2"/>
<path d="M365.953 149.235L360.783 149.235L360.783 154.337L359.083 154.337L359.083 149.235L353.913 149.235L353.913 147.365L359.083 147.365L359.083 142.263L360.783 142.263L360.783 147.365L365.953 147.365L365.953 149.235Z" fill="#1210A2"/>
<path d="M407.052 178.287L401.882 178.287L401.882 183.389L400.181 183.389L400.181 178.287L395.011 178.287L395.011 176.416L400.181 176.416L400.181 171.314L401.882 171.314L401.882 176.416L407.052 176.416L407.052 178.287Z" fill="#1210A2"/>
<path d="M365.953 178.287L360.783 178.287L360.783 183.389L359.083 183.389L359.083 178.287L353.913 178.287L353.913 176.416L359.083 176.416L359.083 171.314L360.783 171.314L360.783 176.416L365.953 176.416L365.953 178.287Z" fill="#1210A2"/>
<path d="M324.854 178.287L319.685 178.287L319.685 183.389L317.984 183.389L317.984 178.287L312.814 178.287L312.814 176.416L317.984 176.416L317.984 171.314L319.685 171.314L319.685 176.416L324.854 176.416L324.854 178.287Z" fill="#1210A2"/>
<path d="M407.052 207.339L401.882 207.339L401.882 212.441L400.181 212.441L400.181 207.339L395.011 207.339L395.011 205.468L400.181 205.468L400.181 200.366L401.882 200.366L401.882 205.468L407.052 205.468L407.052 207.339Z" fill="#1210A2"/>
<path d="M365.953 207.339L360.783 207.339L360.783 212.441L359.083 212.441L359.083 207.339L353.913 207.339L353.913 205.468L359.083 205.468L359.083 200.366L360.783 200.366L360.783 205.468L365.953 205.468L365.953 207.339Z" fill="#1210A2"/>
<path d="M324.854 207.339L319.685 207.339L319.685 212.441L317.984 212.441L317.984 207.339L312.814 207.339L312.814 205.468L317.984 205.468L317.984 200.366L319.685 200.366L319.685 205.468L324.854 205.468L324.854 207.339Z" fill="#1210A2"/>
<path d="M283.757 207.339L278.587 207.339L278.587 212.441L276.886 212.441L276.886 207.339L271.716 207.339L271.716 205.468L276.886 205.468L276.886 200.366L278.587 200.366L278.587 205.468L283.757 205.468L283.757 207.339Z" fill="#1210A2"/>
<path d="M242.658 207.339L237.488 207.339L237.488 212.441L235.788 212.441L235.788 207.339L230.618 207.339L230.618 205.468L235.788 205.468L235.788 200.366L237.488 200.366L237.488 205.468L242.658 205.468L242.658 207.339Z" fill="#1210A2"/>
<path d="M407.052 236.393L401.882 236.393L401.882 241.495L400.181 241.495L400.181 236.393L395.011 236.393L395.011 234.523L400.181 234.523L400.181 229.421L401.882 229.421L401.882 234.523L407.052 234.523L407.052 236.393Z" fill="#1210A2"/>
<path d="M365.953 236.393L360.783 236.393L360.783 241.495L359.083 241.495L359.083 236.393L353.913 236.393L353.913 234.523L359.083 234.523L359.083 229.421L360.783 229.421L360.783 234.523L365.953 234.523L365.953 236.393Z" fill="#1210A2"/>
<path d="M324.854 236.393L319.685 236.393L319.685 241.495L317.984 241.495L317.984 236.393L312.814 236.393L312.814 234.523L317.984 234.523L317.984 229.421L319.685 229.421L319.685 234.523L324.854 234.523L324.854 236.393Z" fill="#1210A2"/>
<path d="M407.052 265.445L401.882 265.445L401.882 270.547L400.181 270.547L400.181 265.445L395.011 265.445L395.011 263.575L400.181 263.575L400.181 258.473L401.882 258.473L401.882 263.575L407.052 263.575L407.052 265.445Z" fill="#1210A2"/>
<path d="M365.953 265.445L360.783 265.445L360.783 270.547L359.083 270.547L359.083 265.445L353.913 265.445L353.913 263.575L359.083 263.575L359.083 258.473L360.783 258.473L360.783 263.575L365.953 263.575L365.953 265.445Z" fill="#1210A2"/>
<path d="M407.052 294.497L401.882 294.497L401.882 299.599L400.181 299.599L400.181 294.497L395.011 294.497L395.011 292.626L400.181 292.626L400.181 287.524L401.882 287.524L401.882 292.626L407.052 292.626L407.052 294.497Z" fill="#1210A2"/>
<path d="M28.5377 98.0977C29.3087 97.1 29.6941 95.9436 29.6941 94.6285C29.6941 93.336 29.3087 92.3043 28.5377 91.5333C27.7668 90.7624 26.633 90.3769 25.1365 90.3769L6.53161 90.3769L6.53161 87.3838L4.93302 87.3838L4.93302 90.3769L0.681448 90.3769L0.44336 92.3496L4.93302 92.3496L4.93302 96.9413L6.53161 96.7032L6.53161 92.3496L25.2385 92.3496C27.1205 92.3496 28.0615 93.1319 28.0615 94.6965C28.0615 95.2407 27.9935 95.6942 27.8575 96.057C27.7441 96.4425 27.5514 96.8506 27.2793 97.2814L28.5377 98.0977Z" fill="#1210A2"/>
<path d="M69.6383 127.149C70.4093 126.152 70.7947 124.995 70.7947 123.68C70.7947 122.388 70.4093 121.356 69.6383 120.585C68.8674 119.814 67.7336 119.429 66.2371 119.429L47.6322 119.429L47.6322 116.436L46.0336 116.436L46.0336 119.429L41.782 119.429L41.5439 121.401L46.0336 121.401L46.0336 125.993L47.6322 125.755L47.6322 121.401L66.3391 121.401C68.2211 121.401 69.1621 122.184 69.1621 123.748C69.1621 124.292 69.0941 124.746 68.9581 125.109C68.8447 125.494 68.6519 125.902 68.3798 126.333L69.6383 127.149Z" fill="#1210A2"/>
<path d="M110.735 156.202C111.506 155.205 111.891 154.048 111.891 152.733C111.891 151.44 111.506 150.409 110.735 149.638C109.964 148.867 108.83 148.481 107.334 148.481L88.7289 148.481L88.7289 145.488L87.1303 145.488L87.1303 148.481L82.8787 148.481L82.6406 150.454L87.1303 150.454L87.1303 155.046L88.7289 154.808L88.7289 150.454L107.436 150.454C109.318 150.454 110.259 151.236 110.259 152.801C110.259 153.345 110.191 153.799 110.055 154.161C109.941 154.547 109.749 154.955 109.477 155.386L110.735 156.202Z" fill="#1210A2"/>
<path d="M151.834 183.129C152.605 182.131 152.99 180.975 152.99 179.66C152.99 178.367 152.605 177.336 151.834 176.565C151.063 175.794 149.929 175.408 148.432 175.408L129.828 175.408L129.828 172.415L128.229 172.415L128.229 175.408L123.977 175.408L123.739 177.381L128.229 177.381L128.229 181.973L129.828 181.734L129.828 177.381L148.534 177.381C150.416 177.381 151.357 178.163 151.357 179.728C151.357 180.272 151.289 180.725 151.153 181.088C151.04 181.474 150.847 181.882 150.575 182.313L151.834 183.129Z" fill="#1210A2"/>
<path d="M28.5377 325.557C29.3087 324.559 29.6941 323.403 29.6941 322.087C29.6941 320.795 29.3087 319.763 28.5377 318.992C27.7668 318.221 26.633 317.836 25.1365 317.836L6.53161 317.836L6.53161 314.843L4.93302 314.843L4.93302 317.836L0.681448 317.836L0.44336 319.809L4.93302 319.809L4.93302 324.4L6.53161 324.162L6.53161 319.809L25.2385 319.809C27.1205 319.809 28.0615 320.591 28.0615 322.155C28.0615 322.7 27.9935 323.153 27.8575 323.516C27.7441 323.901 27.5514 324.31 27.2793 324.74L28.5377 325.557Z" fill="#1210A2"/>
<path d="M69.6383 296.505C70.4093 295.507 70.7947 294.351 70.7947 293.036C70.7947 291.743 70.4093 290.711 69.6383 289.941C68.8674 289.17 67.7336 288.784 66.2371 288.784L47.6322 288.784L47.6322 285.791L46.0336 285.791L46.0336 288.784L41.782 288.784L41.5439 290.757L46.0336 290.757L46.0336 295.349L47.6322 295.11L47.6322 290.757L66.3391 290.757C68.2211 290.757 69.1621 291.539 69.1621 293.104C69.1621 293.648 69.0941 294.101 68.9581 294.464C68.8447 294.85 68.6519 295.258 68.3798 295.689L69.6383 296.505Z" fill="#1210A2"/>
<path d="M110.735 267.451C111.506 266.454 111.891 265.297 111.891 263.982C111.891 262.689 111.506 261.658 110.735 260.887C109.964 260.116 108.83 259.73 107.334 259.73L88.7289 259.73L88.7289 256.737L87.1303 256.737L87.1303 259.73L82.8787 259.73L82.6406 261.703L87.1303 261.703L87.1303 266.295L88.7289 266.057L88.7289 261.703L107.436 261.703C109.318 261.703 110.259 262.485 110.259 264.05C110.259 264.594 110.191 265.048 110.055 265.411C109.941 265.796 109.749 266.204 109.477 266.635L110.735 267.451Z" fill="#1210A2"/>
<path d="M151.834 240.524C152.605 239.527 152.99 238.37 152.99 237.055C152.99 235.763 152.605 234.731 151.834 233.96C151.063 233.189 149.929 232.804 148.432 232.804L129.828 232.804L129.828 229.811L128.229 229.811L128.229 232.804L123.977 232.804L123.739 234.776L128.229 234.776L128.229 239.368L129.828 239.13L129.828 234.776L148.534 234.776C150.416 234.776 151.357 235.559 151.357 237.123C151.357 237.667 151.289 238.121 151.153 238.484C151.04 238.869 150.847 239.277 150.575 239.708L151.834 240.524Z" fill="#1210A2"/>
<path d="M5.44434 120.182L10.6142 120.182L10.6142 125.283L12.3149 125.283L12.3149 120.182L17.4848 120.182L17.4848 118.311L12.3149 118.311L12.3149 113.209L10.6142 113.209L10.6142 118.311L5.44434 118.311L5.44434 120.182Z" fill="#1210A2"/>
<path d="M5.44434 149.235L10.6142 149.235L10.6142 154.337L12.3149 154.337L12.3149 149.235L17.4848 149.235L17.4848 147.365L12.3149 147.365L12.3149 142.263L10.6142 142.263L10.6142 147.365L5.44434 147.365L5.44434 149.235Z" fill="#1210A2"/>
<path d="M46.542 149.235L51.7119 149.235L51.7119 154.337L53.4125 154.337L53.4125 149.235L58.5824 149.235L58.5824 147.365L53.4125 147.365L53.4125 142.263L51.7119 142.263L51.7119 147.365L46.542 147.365L46.542 149.235Z" fill="#1210A2"/>
<path d="M5.44434 178.287L10.6142 178.287L10.6142 183.389L12.3149 183.389L12.3149 178.287L17.4848 178.287L17.4848 176.416L12.3149 176.416L12.3149 171.314L10.6142 171.314L10.6142 176.416L5.44434 176.416L5.44434 178.287Z" fill="#1210A2"/>
<path d="M46.542 178.287L51.7119 178.287L51.7119 183.389L53.4125 183.389L53.4125 178.287L58.5824 178.287L58.5824 176.416L53.4125 176.416L53.4125 171.314L51.7119 171.314L51.7119 176.416L46.542 176.416L46.542 178.287Z" fill="#1210A2"/>
<path d="M87.6396 178.287L92.8096 178.287L92.8096 183.389L94.5102 183.389L94.5102 178.287L99.6801 178.287L99.6801 176.416L94.5102 176.416L94.5102 171.314L92.8096 171.314L92.8096 176.416L87.6396 176.416L87.6396 178.287Z" fill="#1210A2"/>
<path d="M5.44434 207.339L10.6142 207.339L10.6142 212.441L12.3149 212.441L12.3149 207.339L17.4848 207.339L17.4848 205.468L12.3149 205.468L12.3149 200.366L10.6142 200.366L10.6142 205.468L5.44434 205.468L5.44434 207.339Z" fill="#1210A2"/>
<path d="M46.542 207.339L51.7119 207.339L51.7119 212.441L53.4125 212.441L53.4125 207.339L58.5824 207.339L58.5824 205.468L53.4125 205.468L53.4125 200.366L51.7119 200.366L51.7119 205.468L46.542 205.468L46.542 207.339Z" fill="#1210A2"/>
<path d="M87.6396 207.339L92.8096 207.339L92.8096 212.441L94.5102 212.441L94.5102 207.339L99.6801 207.339L99.6801 205.468L94.5102 205.468L94.5102 200.366L92.8096 200.366L92.8096 205.468L87.6396 205.468L87.6396 207.339Z" fill="#1210A2"/>
<path d="M128.739 207.339L133.909 207.339L133.909 212.441L135.61 212.441L135.61 207.339L140.78 207.339L140.78 205.468L135.61 205.468L135.61 200.366L133.909 200.366L133.909 205.468L128.739 205.468L128.739 207.339Z" fill="#1210A2"/>
<path d="M169.838 207.339L175.008 207.339L175.008 212.441L176.708 212.441L176.708 207.339L181.878 207.339L181.878 205.468L176.708 205.468L176.708 200.366L175.008 200.366L175.008 205.468L169.838 205.468L169.838 207.339Z" fill="#1210A2"/>
<path d="M5.44434 236.393L10.6142 236.393L10.6142 241.495L12.3149 241.495L12.3149 236.393L17.4848 236.393L17.4848 234.523L12.3149 234.523L12.3149 229.421L10.6142 229.421L10.6142 234.523L5.44434 234.523L5.44434 236.393Z" fill="#1210A2"/>
<path d="M46.542 236.393L51.7119 236.393L51.7119 241.495L53.4125 241.495L53.4125 236.393L58.5824 236.393L58.5824 234.523L53.4125 234.523L53.4125 229.421L51.7119 229.421L51.7119 234.523L46.542 234.523L46.542 236.393Z" fill="#1210A2"/>
<path d="M87.6396 236.393L92.8096 236.393L92.8096 241.495L94.5102 241.495L94.5102 236.393L99.6801 236.393L99.6801 234.523L94.5102 234.523L94.5102 229.421L92.8096 229.421L92.8096 234.523L87.6396 234.523L87.6396 236.393Z" fill="#1210A2"/>
<path d="M5.44434 265.445L10.6142 265.445L10.6142 270.547L12.3149 270.547L12.3149 265.445L17.4848 265.445L17.4848 263.575L12.3149 263.575L12.3149 258.473L10.6142 258.473L10.6142 263.575L5.44434 263.575L5.44434 265.445Z" fill="#1210A2"/>
<path d="M46.542 265.445L51.7119 265.445L51.7119 270.547L53.4125 270.547L53.4125 265.445L58.5824 265.445L58.5824 263.575L53.4125 263.575L53.4125 258.473L51.7119 258.473L51.7119 263.575L46.542 263.575L46.542 265.445Z" fill="#1210A2"/>
<path d="M5.44434 294.497L10.6142 294.497L10.6142 299.599L12.3149 299.599L12.3149 294.497L17.4848 294.497L17.4848 292.626L12.3149 292.626L12.3149 287.524L10.6142 287.524L10.6142 292.626L5.44434 292.626L5.44434 294.497Z" fill="#1210A2"/>
<path d="M97.8204 391.32C96.8227 390.549 95.6663 390.163 94.3511 390.163C93.0586 390.163 92.0269 390.549 91.256 391.32C90.485 392.091 90.0995 393.224 90.0995 394.721V413.326H87.1064V414.924H90.0995V419.176L92.0723 419.414V414.924H96.664L96.4259 413.326H92.0723V394.619C92.0723 392.737 92.8546 391.796 94.4191 391.796C94.9633 391.796 95.4168 391.864 95.7796 392C96.1651 392.113 96.5733 392.306 97.0041 392.578L97.8204 391.32Z" fill="#1210A2"/>
<path d="M126.874 350.222C125.876 349.451 124.72 349.066 123.405 349.066C122.112 349.066 121.081 349.451 120.31 350.222C119.539 350.993 119.153 352.127 119.153 353.623V372.228H116.16V373.827H119.153V378.078L121.126 378.316V373.827H125.718L125.48 372.228H121.126V353.521C121.126 351.639 121.908 350.698 123.473 350.698C124.017 350.698 124.471 350.766 124.833 350.902C125.219 351.016 125.627 351.208 126.058 351.481L126.874 350.222Z" fill="#1210A2"/>
<path d="M155.926 309.121C154.928 308.351 153.772 307.965 152.457 307.965C151.164 307.965 150.132 308.351 149.361 309.121C148.59 309.892 148.205 311.026 148.205 312.523V331.128H145.212V332.726H148.205V336.978L150.178 337.216V332.726H154.769L154.531 331.128H150.178V312.421C150.178 310.539 150.96 309.598 152.525 309.598C153.069 309.598 153.522 309.666 153.885 309.802C154.271 309.915 154.679 310.108 155.11 310.38L155.926 309.121Z" fill="#1210A2"/>
<path d="M182.853 268.024C181.855 267.253 180.698 266.867 179.383 266.867C178.091 266.867 177.059 267.253 176.288 268.024C175.517 268.795 175.132 269.929 175.132 271.425V290.03H172.139V291.629H175.132V295.88L177.105 296.118V291.629H181.696L181.458 290.03H177.105V271.323C177.105 269.441 177.887 268.5 179.451 268.5C179.996 268.5 180.449 268.568 180.812 268.704C181.197 268.817 181.605 269.01 182.036 269.282L182.853 268.024Z" fill="#1210A2"/>
<path d="M325.279 391.32C324.282 390.549 323.125 390.163 321.81 390.163C320.518 390.163 319.486 390.549 318.715 391.32C317.944 392.091 317.559 393.224 317.559 394.721V413.326H314.565V414.924H317.559V419.176L319.531 419.414V414.924H324.123L323.885 413.326H319.531V394.619C319.531 392.737 320.314 391.796 321.878 391.796C322.422 391.796 322.876 391.864 323.239 392C323.624 392.113 324.032 392.306 324.463 392.578L325.279 391.32Z" fill="#1210A2"/>
<path d="M296.228 350.222C295.23 349.451 294.073 349.066 292.758 349.066C291.466 349.066 290.434 349.451 289.663 350.222C288.892 350.993 288.507 352.127 288.507 353.623V372.228H285.514V373.827H288.507V378.078L290.48 378.316V373.827H295.071L294.833 372.228H290.48V353.521C290.48 351.639 291.262 350.698 292.826 350.698C293.371 350.698 293.824 350.766 294.187 350.902C294.572 351.016 294.98 351.208 295.411 351.481L296.228 350.222Z" fill="#1210A2"/>
<path d="M267.176 309.121C266.178 308.351 265.022 307.965 263.707 307.965C262.414 307.965 261.382 308.351 260.611 309.121C259.84 309.892 259.455 311.026 259.455 312.523V331.128H256.462V332.726H259.455V336.978L261.428 337.216V332.726H266.019L265.781 331.128H261.428V312.421C261.428 310.539 262.21 309.598 263.775 309.598C264.319 309.598 264.772 309.666 265.135 309.802C265.521 309.915 265.929 310.108 266.36 310.38L267.176 309.121Z" fill="#1210A2"/>
<path d="M240.248 268.024C239.25 267.253 238.094 266.867 236.779 266.867C235.486 266.867 234.455 267.253 233.684 268.024C232.913 268.795 232.527 269.929 232.527 271.425V290.03H229.534V291.629H232.527V295.88L234.5 296.118V291.629H239.092L238.854 290.03H234.5V271.323C234.5 269.441 235.282 268.5 236.847 268.5C237.391 268.5 237.845 268.568 238.207 268.704C238.593 268.817 239.001 269.01 239.432 269.282L240.248 268.024Z" fill="#1210A2"/>
<path d="M119.908 414.413V409.243H125.01V407.543H119.908V402.373H118.037V407.543H112.936V409.243H118.037V414.413H119.908Z" fill="#1210A2"/>
<path d="M148.96 414.413V409.243H154.062V407.543H148.96V402.373H147.089V407.543H141.987V409.243H147.089V414.413H148.96Z" fill="#1210A2"/>
<path d="M148.96 373.315V368.146H154.062V366.445H148.96V361.275H147.089V366.445H141.987V368.146H147.089V373.315H148.96Z" fill="#1210A2"/>
<path d="M178.012 414.413V409.243H183.114V407.543H178.012V402.373H176.141V407.543H171.039V409.243H176.141V414.413H178.012Z" fill="#1210A2"/>
<path d="M178.012 373.315V368.146H183.114V366.445H178.012V361.275H176.141V366.445H171.039V368.146H176.141V373.315H178.012Z" fill="#1210A2"/>
<path d="M178.012 332.217V327.047H183.114V325.346H178.012V320.176H176.141V325.346H171.039V327.047H176.141V332.217H178.012Z" fill="#1210A2"/>
<path d="M207.065 414.413V409.243H212.167V407.543H207.065V402.373H205.195V407.543H200.093V409.243H205.195V414.413H207.065Z" fill="#1210A2"/>
<path d="M207.065 373.315V368.146H212.167V366.445H207.065V361.275H205.195V366.445H200.093V368.146H205.195V373.315H207.065Z" fill="#1210A2"/>
<path d="M207.065 332.217V327.047H212.167V325.346H207.065V320.176H205.195V325.346H200.093V327.047H205.195V332.217H207.065Z" fill="#1210A2"/>
<path d="M207.065 291.119V285.949H212.167V284.249H207.065V279.079H205.195V284.249H200.093V285.949H205.195V291.119H207.065Z" fill="#1210A2"/>
<path d="M207.065 250.02V244.85H212.167V243.149H207.065V237.979H205.195V243.149H200.093V244.85H205.195V250.02H207.065Z" fill="#1210A2"/>
<path d="M236.117 414.413V409.243H241.219V407.543H236.117V402.373H234.246V407.543H229.145V409.243H234.246V414.413H236.117Z" fill="#1210A2"/>
<path d="M236.117 373.315V368.146H241.219V366.445H236.117V361.275H234.246V366.445H229.145V368.146H234.246V373.315H236.117Z" fill="#1210A2"/>
<path d="M236.117 332.217V327.047H241.219V325.346H236.117V320.176H234.246V325.346H229.145V327.047H234.246V332.217H236.117Z" fill="#1210A2"/>
<path d="M265.169 414.413V409.243H270.271V407.543H265.169V402.373H263.298V407.543H258.196V409.243H263.298V414.413H265.169Z" fill="#1210A2"/>
<path d="M265.169 373.315V368.146H270.271V366.445H265.169V361.275H263.298V366.445H258.196V368.146H263.298V373.315H265.169Z" fill="#1210A2"/>
<path d="M294.222 414.413V409.243H299.323V407.543H294.222V402.373H292.351V407.543H287.249V409.243H292.351V414.413H294.222Z" fill="#1210A2"/>
</svg>
