<svg width="358" height="552" viewBox="0 0 358 552" fill="none" xmlns="http://www.w3.org/2000/svg">
<rect x="1.5" y="2.21875" width="355" height="548" rx="98.5" fill="#268020" stroke="#268020" stroke-width="3"/>
<path d="M89 145.219C89 145.219 112 48.2406 163.5 52.7188C215 57.197 208.5 155.219 208.5 155.219" stroke="white" stroke-width="3"/>
<path d="M106.551 154.853L99.148 173.472L93.0781 173.059L88.1618 153.599L93.693 153.976L96.4386 169.282L101.307 154.495L106.551 154.853Z" fill="white"/>
<path d="M106.551 174.507L99.148 193.127L93.0781 192.713L88.1618 173.254L93.693 173.631L96.4386 188.937L101.307 174.149L106.551 174.507Z" fill="white"/>
<path d="M106.551 194.162L99.148 212.782L93.0781 212.368L88.1618 192.909L93.693 193.286L96.4386 208.592L101.307 193.805L106.551 194.162Z" fill="white"/>
<path d="M106.551 213.817L99.148 232.437L93.0781 232.023L88.1618 212.564L93.693 212.941L96.4386 228.247L101.307 213.46L106.551 213.817Z" fill="white"/>
<path d="M106.551 233.472L99.148 252.091L93.0781 251.678L88.1618 232.218L93.693 232.595L96.4386 247.902L101.307 233.114L106.551 233.472Z" fill="white"/>
<path d="M106.551 253.126L99.148 271.746L93.0781 271.332L88.1618 251.873L93.693 252.25L96.4386 267.556L101.307 252.769L106.551 253.126Z" fill="white"/>
<path d="M106.551 272.781L99.148 291.401L93.0781 290.987L88.1618 271.528L93.693 271.905L96.4386 287.211L101.307 272.424L106.551 272.781Z" fill="white"/>
<path d="M106.551 292.437L99.148 311.056L93.0781 310.643L88.1618 291.183L93.693 291.56L96.4386 306.866L101.307 292.079L106.551 292.437Z" fill="white"/>
<path d="M106.551 312.091L99.148 330.711L93.0781 330.297L88.1618 310.838L93.693 311.215L96.4386 326.521L101.307 311.733L106.551 312.091Z" fill="white"/>
<path d="M106.551 331.745L99.148 350.365L93.0781 349.951L88.1618 330.492L93.693 330.869L96.4386 346.175L101.307 331.388L106.551 331.745Z" fill="white"/>
<path d="M106.551 351.4L99.148 370.02L93.0781 369.606L88.1618 350.147L93.693 350.524L96.4386 365.83L101.307 351.043L106.551 351.4Z" fill="white"/>
<path d="M106.551 371.056L99.148 389.675L93.0781 389.262L88.1618 369.802L93.693 370.179L96.4386 385.485L101.307 370.698L106.551 371.056Z" fill="white"/>
<path d="M106.551 390.71L99.148 409.33L93.0781 408.916L88.1618 389.457L93.693 389.834L96.4386 405.14L101.307 390.353L106.551 390.71Z" fill="white"/>
<path d="M91.2269 390.71L83.8238 409.33L77.7539 408.916L72.8376 389.457L78.3687 389.834L81.1144 405.14L85.9831 390.353L91.2269 390.71Z" fill="white"/>
<path d="M91.2269 370.507L83.8238 389.127L77.7539 388.713L72.8376 369.254L78.3687 369.631L81.1144 384.937L85.9831 370.149L91.2269 370.507Z" fill="white"/>
<path d="M76.2269 370.507L68.8238 389.127L62.7539 388.713L57.8376 369.254L63.3687 369.631L66.1144 384.937L70.9831 370.149L76.2269 370.507Z" fill="white"/>
<path d="M91.2269 350.305L83.8238 368.924L77.7539 368.511L72.8376 349.051L78.3687 349.428L81.1144 364.735L85.9831 349.947L91.2269 350.305Z" fill="white"/>
<path d="M76.2269 350.305L68.8238 368.924L62.7539 368.511L57.8376 349.051L63.3687 349.428L66.1144 364.735L70.9831 349.947L76.2269 350.305Z" fill="white"/>
<path d="M91.2269 330.103L83.8238 348.722L77.7539 348.309L72.8376 328.849L78.3687 329.226L81.1144 344.532L85.9831 329.745L91.2269 330.103Z" fill="white"/>
<path d="M76.2269 330.103L68.8238 348.722L62.7539 348.309L57.8376 328.849L63.3687 329.226L66.1144 344.532L70.9831 329.745L76.2269 330.103Z" fill="white"/>
<path d="M91.2269 309.899L83.8238 328.519L77.7539 328.105L72.8376 308.646L78.3687 309.023L81.1144 324.329L85.9831 309.542L91.2269 309.899Z" fill="white"/>
<path d="M76.2269 309.899L68.8238 328.519L62.7539 328.105L57.8376 308.646L63.3687 309.023L66.1144 324.329L70.9831 309.542L76.2269 309.899Z" fill="white"/>
<path d="M91.2269 289.696L83.8238 308.316L77.7539 307.902L72.8376 288.443L78.3687 288.82L81.1144 304.126L85.9831 289.339L91.2269 289.696Z" fill="white"/>
<path d="M91.2269 269.494L83.8238 288.114L77.7539 287.7L72.8376 268.241L78.3687 268.618L81.1144 283.924L85.9831 269.137L91.2269 269.494Z" fill="white"/>
<path d="M121.517 155.872L114.114 174.492L108.044 174.078L103.128 154.619L108.659 154.996L111.404 170.302L116.273 155.515L121.517 155.872Z" fill="white"/>
<path d="M121.517 175.527L114.114 194.147L108.044 193.733L103.128 174.274L108.659 174.651L111.404 189.957L116.273 175.17L121.517 175.527Z" fill="white"/>
<path d="M121.517 195.183L114.114 213.802L108.044 213.389L103.128 193.929L108.659 194.306L111.404 209.612L116.273 194.825L121.517 195.183Z" fill="white"/>
<path d="M121.517 214.837L114.114 233.457L108.044 233.043L103.128 213.584L108.659 213.961L111.404 229.267L116.273 214.48L121.517 214.837Z" fill="white"/>
<path d="M121.517 234.491L114.114 253.111L108.044 252.697L103.128 233.238L108.659 233.615L111.404 248.921L116.273 234.134L121.517 234.491Z" fill="white"/>
<path d="M121.517 254.146L114.114 272.766L108.044 272.353L103.128 252.893L108.659 253.27L111.404 268.576L116.273 253.789L121.517 254.146Z" fill="white"/>
<path d="M121.517 273.802L114.114 292.421L108.044 292.008L103.128 272.549L108.659 272.925L111.404 288.232L116.273 273.444L121.517 273.802Z" fill="white"/>
<path d="M121.517 293.456L114.114 312.076L108.044 311.662L103.128 292.203L108.659 292.58L111.404 307.886L116.273 293.099L121.517 293.456Z" fill="white"/>
<path d="M121.517 313.11L114.114 331.73L108.044 331.316L103.128 311.857L108.659 312.234L111.404 327.54L116.273 312.753L121.517 313.11Z" fill="white"/>
<path d="M121.517 332.766L114.114 351.385L108.044 350.972L103.128 331.512L108.659 331.889L111.404 347.195L116.273 332.408L121.517 332.766Z" fill="white"/>
<path d="M121.517 352.421L114.114 371.041L108.044 370.627L103.128 351.168L108.659 351.545L111.404 366.851L116.273 352.064L121.517 352.421Z" fill="white"/>
<path d="M121.517 372.075L114.114 390.695L108.044 390.281L103.128 370.822L108.659 371.199L111.404 386.505L116.273 371.718L121.517 372.075Z" fill="white"/>
<path d="M121.517 391.729L114.114 410.349L108.044 409.936L103.128 390.476L108.659 390.853L111.404 406.159L116.273 391.372L121.517 391.729Z" fill="white"/>
<path d="M136.482 156.893L129.079 175.512L123.009 175.099L118.092 155.639L123.624 156.016L126.369 171.322L131.238 156.535L136.482 156.893Z" fill="white"/>
<path d="M136.482 176.548L129.079 195.168L123.009 194.754L118.092 175.295L123.624 175.672L126.369 190.978L131.238 176.19L136.482 176.548Z" fill="white"/>
<path d="M136.482 196.202L129.079 214.822L123.009 214.408L118.092 194.949L123.624 195.326L126.369 210.632L131.238 195.845L136.482 196.202Z" fill="white"/>
<path d="M136.482 215.856L129.079 234.476L123.009 234.063L118.092 214.603L123.624 214.98L126.369 230.286L131.238 215.499L136.482 215.856Z" fill="white"/>
<path d="M136.482 235.512L129.079 254.131L123.009 253.718L118.092 234.259L123.624 234.635L126.369 249.942L131.238 235.154L136.482 235.512Z" fill="white"/>
<path d="M136.482 255.167L129.079 273.787L123.009 273.373L118.092 253.914L123.624 254.291L126.369 269.597L131.238 254.81L136.482 255.167Z" fill="white"/>
<path d="M136.482 274.821L129.079 293.441L123.009 293.027L118.092 273.568L123.624 273.945L126.369 289.251L131.238 274.464L136.482 274.821Z" fill="white"/>
<path d="M136.482 294.476L129.079 313.095L123.009 312.682L118.092 293.222L123.624 293.599L126.369 308.905L131.238 294.118L136.482 294.476Z" fill="white"/>
<path d="M136.482 314.131L129.079 332.751L123.009 332.337L118.092 312.878L123.624 313.255L126.369 328.561L131.238 313.773L136.482 314.131Z" fill="white"/>
<path d="M136.482 333.786L129.079 352.406L123.009 351.992L118.092 332.533L123.624 332.91L126.369 348.216L131.238 333.429L136.482 333.786Z" fill="white"/>
<path d="M136.482 353.44L129.079 372.06L123.009 371.647L118.092 352.187L123.624 352.564L126.369 367.87L131.238 353.083L136.482 353.44Z" fill="white"/>
<path d="M136.482 373.095L129.079 391.714L123.009 391.301L118.092 371.842L123.624 372.218L126.369 387.525L131.238 372.737L136.482 373.095Z" fill="white"/>
<path d="M136.482 392.75L129.079 411.37L123.009 410.956L118.092 391.497L123.624 391.874L126.369 407.18L131.238 392.393L136.482 392.75Z" fill="white"/>
<path d="M136.482 412.405L129.079 431.025L123.009 430.611L118.092 411.152L123.624 411.529L126.369 426.835L131.238 412.048L136.482 412.405Z" fill="white"/>
<path d="M151.448 157.913L144.045 176.533L137.975 176.119L133.058 156.66L138.589 157.037L141.335 172.343L146.204 157.556L151.448 157.913Z" fill="white"/>
<path d="M151.448 177.567L144.045 196.187L137.975 195.773L133.058 176.314L138.589 176.691L141.335 191.997L146.204 177.21L151.448 177.567Z" fill="white"/>
<path d="M151.448 197.222L144.045 215.841L137.975 215.428L133.058 195.968L138.589 196.345L141.335 211.652L146.204 196.864L151.448 197.222Z" fill="white"/>
<path d="M151.448 216.877L144.045 235.497L137.975 235.083L133.058 215.624L138.589 216.001L141.335 231.307L146.204 216.52L151.448 216.877Z" fill="white"/>
<path d="M151.448 236.532L144.045 255.152L137.975 254.738L133.058 235.279L138.589 235.656L141.335 250.962L146.204 236.175L151.448 236.532Z" fill="white"/>
<path d="M151.448 256.187L144.045 274.806L137.975 274.393L133.058 254.933L138.589 255.31L141.335 270.616L146.204 255.829L151.448 256.187Z" fill="white"/>
<path d="M151.448 275.841L144.045 294.461L137.975 294.047L133.058 274.588L138.589 274.965L141.335 290.271L146.204 275.483L151.448 275.841Z" fill="white"/>
<path d="M151.448 295.496L144.045 314.116L137.975 313.702L133.058 294.243L138.589 294.62L141.335 309.926L146.204 295.139L151.448 295.496Z" fill="white"/>
<path d="M151.448 315.151L144.045 333.771L137.975 333.357L133.058 313.898L138.589 314.275L141.335 329.581L146.204 314.794L151.448 315.151Z" fill="white"/>
<path d="M151.448 334.806L144.045 353.425L137.975 353.012L133.058 333.552L138.589 333.929L141.335 349.235L146.204 334.448L151.448 334.806Z" fill="white"/>
<path d="M151.448 354.46L144.045 373.08L137.975 372.666L133.058 353.207L138.589 353.584L141.335 368.89L146.204 354.103L151.448 354.46Z" fill="white"/>
<path d="M151.448 374.115L144.045 392.735L137.975 392.321L133.058 372.862L138.589 373.239L141.335 388.545L146.204 373.758L151.448 374.115Z" fill="white"/>
<path d="M151.448 393.77L144.045 412.39L137.975 411.977L133.058 392.517L138.589 392.894L141.335 408.2L146.204 393.413L151.448 393.77Z" fill="white"/>
<path d="M151.448 413.425L144.045 432.045L137.975 431.631L133.058 412.172L138.589 412.549L141.335 427.855L146.204 413.067L151.448 413.425Z" fill="white"/>
<path d="M166.412 158.933L159.009 177.552L152.939 177.139L148.023 157.679L153.554 158.056L156.3 173.362L161.169 158.575L166.412 158.933Z" fill="white"/>
<path d="M166.412 178.587L159.009 197.207L152.939 196.793L148.023 177.334L153.554 177.711L156.3 193.017L161.169 178.23L166.412 178.587Z" fill="white"/>
<path d="M166.412 198.241L159.009 216.861L152.939 216.447L148.023 196.988L153.554 197.365L156.3 212.671L161.169 197.884L166.412 198.241Z" fill="white"/>
<path d="M166.412 217.896L159.009 236.516L152.939 236.103L148.023 216.643L153.554 217.02L156.3 232.326L161.169 217.539L166.412 217.896Z" fill="white"/>
<path d="M166.412 237.552L159.009 256.171L152.939 255.758L148.023 236.299L153.554 236.675L156.3 251.982L161.169 237.194L166.412 237.552Z" fill="white"/>
<path d="M166.412 257.206L159.009 275.826L152.939 275.412L148.023 255.953L153.554 256.33L156.3 271.636L161.169 256.849L166.412 257.206Z" fill="white"/>
<path d="M166.412 276.86L159.009 295.48L152.939 295.066L148.023 275.607L153.554 275.984L156.3 291.29L161.169 276.503L166.412 276.86Z" fill="white"/>
<path d="M166.412 296.516L159.009 315.135L152.939 314.722L148.023 295.262L153.554 295.639L156.3 310.945L161.169 296.158L166.412 296.516Z" fill="white"/>
<path d="M166.412 316.171L159.009 334.791L152.939 334.377L148.023 314.918L153.554 315.295L156.3 330.601L161.169 315.814L166.412 316.171Z" fill="white"/>
<path d="M166.412 335.825L159.009 354.445L152.939 354.031L148.023 334.572L153.554 334.949L156.3 350.255L161.169 335.468L166.412 335.825Z" fill="white"/>
<path d="M166.412 355.479L159.009 374.099L152.939 373.686L148.023 354.226L153.554 354.603L156.3 369.909L161.169 355.122L166.412 355.479Z" fill="white"/>
<path d="M166.412 375.135L159.009 393.755L152.939 393.341L148.023 373.882L153.554 374.258L156.3 389.565L161.169 374.777L166.412 375.135Z" fill="white"/>
<path d="M166.412 394.79L159.009 413.41L152.939 412.996L148.023 393.537L153.554 393.914L156.3 409.22L161.169 394.433L166.412 394.79Z" fill="white"/>
<path d="M166.412 414.444L159.009 433.064L152.939 432.65L148.023 413.191L153.554 413.568L156.3 428.874L161.169 414.087L166.412 414.444Z" fill="white"/>
<path d="M166.412 434.099L159.009 452.718L152.939 452.305L148.023 432.845L153.554 433.222L156.3 448.528L161.169 433.741L166.412 434.099Z" fill="white"/>
<path d="M181.378 159.952L173.975 178.572L167.905 178.158L162.989 158.699L168.52 159.076L171.266 174.382L176.134 159.595L181.378 159.952Z" fill="white"/>
<path d="M181.378 179.606L173.975 198.226L167.905 197.813L162.989 178.353L168.52 178.73L171.266 194.036L176.134 179.249L181.378 179.606Z" fill="white"/>
<path d="M181.378 199.261L173.975 217.88L167.905 217.467L162.989 198.008L168.52 198.384L171.266 213.691L176.134 198.903L181.378 199.261Z" fill="white"/>
<path d="M181.378 218.916L173.975 237.536L167.905 237.122L162.989 217.663L168.52 218.04L171.266 233.346L176.134 218.559L181.378 218.916Z" fill="white"/>
<path d="M181.378 238.571L173.975 257.191L167.905 256.777L162.989 237.318L168.52 237.695L171.266 253.001L176.134 238.214L181.378 238.571Z" fill="white"/>
<path d="M181.378 258.226L173.975 276.845L167.905 276.432L162.989 256.972L168.52 257.349L171.266 272.655L176.134 257.868L181.378 258.226Z" fill="white"/>
<path d="M181.378 277.88L173.975 296.5L167.905 296.086L162.989 276.627L168.52 277.004L171.266 292.31L176.134 277.523L181.378 277.88Z" fill="white"/>
<path d="M181.378 297.535L173.975 316.155L167.905 315.741L162.989 296.282L168.52 296.659L171.266 311.965L176.134 297.178L181.378 297.535Z" fill="white"/>
<path d="M181.378 317.19L173.975 335.81L167.905 335.397L162.989 315.937L168.52 316.314L171.266 331.62L176.134 316.833L181.378 317.19Z" fill="white"/>
<path d="M181.378 336.845L173.975 355.464L167.905 355.051L162.989 335.592L168.52 335.968L171.266 351.275L176.134 336.487L181.378 336.845Z" fill="white"/>
<path d="M181.378 356.499L173.975 375.119L167.905 374.705L162.989 355.246L168.52 355.623L171.266 370.929L176.134 356.142L181.378 356.499Z" fill="white"/>
<path d="M181.378 376.154L173.975 394.774L167.905 394.36L162.989 374.901L168.52 375.278L171.266 390.584L176.134 375.797L181.378 376.154Z" fill="white"/>
<path d="M181.378 395.81L173.975 414.429L167.905 414.016L162.989 394.556L168.52 394.933L171.266 410.239L176.134 395.452L181.378 395.81Z" fill="white"/>
<path d="M181.378 415.464L173.975 434.084L167.905 433.67L162.989 414.211L168.52 414.588L171.266 429.894L176.134 415.107L181.378 415.464Z" fill="white"/>
<path d="M181.378 435.118L173.975 453.738L167.905 453.324L162.989 433.865L168.52 434.242L171.266 449.548L176.134 434.761L181.378 435.118Z" fill="white"/>
<path d="M181.378 454.773L173.975 473.393L167.905 472.98L162.989 453.52L168.52 453.897L171.266 469.203L176.134 454.416L181.378 454.773Z" fill="white"/>
<path d="M196.343 160.972L188.94 179.591L182.87 179.178L177.954 159.718L183.485 160.095L186.231 175.402L191.099 160.614L196.343 160.972Z" fill="white"/>
<path d="M196.343 180.627L188.94 199.247L182.87 198.833L177.954 179.374L183.485 179.751L186.231 195.057L191.099 180.27L196.343 180.627Z" fill="white"/>
<path d="M196.343 200.282L188.94 218.902L182.87 218.488L177.954 199.029L183.485 199.406L186.231 214.712L191.099 199.925L196.343 200.282Z" fill="white"/>
<path d="M196.343 219.937L188.94 238.556L182.87 238.143L177.954 218.683L183.485 219.06L186.231 234.366L191.099 219.579L196.343 219.937Z" fill="white"/>
<path d="M196.343 239.591L188.94 258.211L182.87 257.797L177.954 238.338L183.485 238.715L186.231 254.021L191.099 239.233L196.343 239.591Z" fill="white"/>
<path d="M196.343 259.246L188.94 277.866L182.87 277.452L177.954 257.993L183.485 258.37L186.231 273.676L191.099 258.889L196.343 259.246Z" fill="white"/>
<path d="M196.343 278.901L188.94 297.521L182.87 297.107L177.954 277.648L183.485 278.025L186.231 293.331L191.099 278.544L196.343 278.901Z" fill="white"/>
<path d="M196.343 298.556L188.94 317.175L182.87 316.762L177.954 297.302L183.485 297.679L186.231 312.985L191.099 298.198L196.343 298.556Z" fill="white"/>
<path d="M196.343 318.21L188.94 336.83L182.87 336.416L177.954 316.957L183.485 317.334L186.231 332.64L191.099 317.853L196.343 318.21Z" fill="white"/>
<path d="M196.343 337.865L188.94 356.485L182.87 356.071L177.954 336.612L183.485 336.989L186.231 352.295L191.099 337.508L196.343 337.865Z" fill="white"/>
<path d="M196.343 357.52L188.94 376.14L182.87 375.727L177.954 356.267L183.485 356.644L186.231 371.95L191.099 357.163L196.343 357.52Z" fill="white"/>
<path d="M196.343 377.175L188.94 395.795L182.87 395.381L177.954 375.922L183.485 376.299L186.231 391.605L191.099 376.817L196.343 377.175Z" fill="white"/>
<path d="M196.343 396.829L188.94 415.449L182.87 415.035L177.954 395.576L183.485 395.953L186.231 411.259L191.099 396.472L196.343 396.829Z" fill="white"/>
<path d="M196.343 416.484L188.94 435.104L182.87 434.69L177.954 415.231L183.485 415.608L186.231 430.914L191.099 416.127L196.343 416.484Z" fill="white"/>
<path d="M196.343 436.14L188.94 454.759L182.87 454.346L177.954 434.886L183.485 435.263L186.231 450.569L191.099 435.782L196.343 436.14Z" fill="white"/>
<path d="M196.343 455.794L188.94 474.414L182.87 474L177.954 454.541L183.485 454.918L186.231 470.224L191.099 455.437L196.343 455.794Z" fill="white"/>
<path d="M211.309 161.991L203.906 180.611L197.836 180.197L192.92 160.738L198.451 161.115L201.196 176.421L206.065 161.634L211.309 161.991Z" fill="white"/>
<path d="M211.309 181.646L203.906 200.266L197.836 199.853L192.92 180.393L198.451 180.77L201.196 196.076L206.065 181.289L211.309 181.646Z" fill="white"/>
<path d="M211.309 201.302L203.906 219.921L197.836 219.508L192.92 200.049L198.451 200.425L201.196 215.732L206.065 200.944L211.309 201.302Z" fill="white"/>
<path d="M211.309 220.956L203.906 239.576L197.836 239.162L192.92 219.703L198.451 220.08L201.196 235.386L206.065 220.599L211.309 220.956Z" fill="white"/>
<path d="M211.309 240.61L203.906 259.23L197.836 258.816L192.92 239.357L198.451 239.734L201.196 255.04L206.065 240.253L211.309 240.61Z" fill="white"/>
<path d="M211.309 260.266L203.906 278.885L197.836 278.472L192.92 259.012L198.451 259.389L201.196 274.695L206.065 259.908L211.309 260.266Z" fill="white"/>
<path d="M211.309 279.921L203.906 298.541L197.836 298.127L192.92 278.668L198.451 279.045L201.196 294.351L206.065 279.564L211.309 279.921Z" fill="white"/>
<path d="M211.309 299.575L203.906 318.195L197.836 317.781L192.92 298.322L198.451 298.699L201.196 314.005L206.065 299.218L211.309 299.575Z" fill="white"/>
<path d="M211.309 319.229L203.906 337.849L197.836 337.436L192.92 317.976L198.451 318.353L201.196 333.659L206.065 318.872L211.309 319.229Z" fill="white"/>
<path d="M211.309 338.885L203.906 357.505L197.836 357.091L192.92 337.632L198.451 338.008L201.196 353.315L206.065 338.527L211.309 338.885Z" fill="white"/>
<path d="M211.309 358.54L203.906 377.16L197.836 376.746L192.92 357.287L198.451 357.664L201.196 372.97L206.065 358.183L211.309 358.54Z" fill="white"/>
<path d="M211.309 378.194L203.906 396.814L197.836 396.4L192.92 376.941L198.451 377.318L201.196 392.624L206.065 377.837L211.309 378.194Z" fill="white"/>
<path d="M211.309 397.849L203.906 416.468L197.836 416.055L192.92 396.595L198.451 396.972L201.196 412.278L206.065 397.491L211.309 397.849Z" fill="white"/>
<path d="M211.309 417.504L203.906 436.124L197.836 435.71L192.92 416.251L198.451 416.628L201.196 431.934L206.065 417.147L211.309 417.504Z" fill="white"/>
<path d="M211.309 437.159L203.906 455.779L197.836 455.365L192.92 435.906L198.451 436.283L201.196 451.589L206.065 436.802L211.309 437.159Z" fill="white"/>
<path d="M211.309 456.813L203.906 475.433L197.836 475.02L192.92 455.56L198.451 455.937L201.196 471.243L206.065 456.456L211.309 456.813Z" fill="white"/>
<path d="M211.309 476.468L203.906 495.088L197.836 494.674L192.92 475.215L198.451 475.592L201.196 490.898L206.065 476.11L211.309 476.468Z" fill="white"/>
<path d="M226.274 320.25L218.871 338.87L212.801 338.456L207.884 318.997L213.416 319.374L216.161 334.68L221.03 319.893L226.274 320.25Z" fill="white"/>
<path d="M226.274 339.905L218.871 358.525L212.801 358.111L207.884 338.652L213.416 339.029L216.161 354.335L221.03 339.548L226.274 339.905Z" fill="white"/>
<path d="M226.274 359.56L218.871 378.179L212.801 377.766L207.884 358.306L213.416 358.683L216.161 373.989L221.03 359.202L226.274 359.56Z" fill="white"/>
<path d="M226.274 379.214L218.871 397.834L212.801 397.42L207.884 377.961L213.416 378.338L216.161 393.644L221.03 378.857L226.274 379.214Z" fill="white"/>
<path d="M226.274 398.869L218.871 417.489L212.801 417.075L207.884 397.616L213.416 397.993L216.161 413.299L221.03 398.512L226.274 398.869Z" fill="white"/>
<path d="M226.274 418.524L218.871 437.144L212.801 436.73L207.884 417.271L213.416 417.648L216.161 432.954L221.03 418.167L226.274 418.524Z" fill="white"/>
<path d="M226.274 438.179L218.871 456.798L212.801 456.385L207.884 436.926L213.416 437.302L216.161 452.609L221.03 437.821L226.274 438.179Z" fill="white"/>
<path d="M226.274 457.833L218.871 476.453L212.801 476.039L207.884 456.58L213.416 456.957L216.161 472.263L221.03 457.476L226.274 457.833Z" fill="white"/>
<path d="M226.274 477.488L218.871 496.108L212.801 495.694L207.884 476.235L213.416 476.612L216.161 491.918L221.03 477.131L226.274 477.488Z" fill="white"/>
<path d="M241.227 477.488L233.824 496.108L227.754 495.694L222.838 476.235L228.369 476.612L231.114 491.918L235.983 477.131L241.227 477.488Z" fill="white"/>
<path d="M241.227 458.507L233.824 477.127L227.754 476.713L222.838 457.254L228.369 457.631L231.114 472.937L235.983 458.149L241.227 458.507Z" fill="white"/>
<path d="M241.227 439.526L233.824 458.146L227.754 457.732L222.838 438.273L228.369 438.65L231.114 453.956L235.983 439.169L241.227 439.526Z" fill="white"/>
<path d="M241.227 420.546L233.824 439.166L227.754 438.752L222.838 419.293L228.369 419.67L231.114 434.976L235.983 420.189L241.227 420.546Z" fill="white"/>
<path d="M241.227 401.564L233.824 420.184L227.754 419.771L222.838 400.311L228.369 400.688L231.114 415.994L235.983 401.207L241.227 401.564Z" fill="white"/>
<path d="M241.227 382.583L233.824 401.203L227.754 400.789L222.838 381.33L228.369 381.707L231.114 397.013L235.983 382.226L241.227 382.583Z" fill="white"/>
<path d="M241.227 363.603L233.824 382.222L227.754 381.809L222.838 362.349L228.369 362.726L231.114 378.032L235.983 363.245L241.227 363.603Z" fill="white"/>
<path d="M241.227 344.622L233.824 363.242L227.754 362.828L222.838 343.369L228.369 343.746L231.114 359.052L235.983 344.265L241.227 344.622Z" fill="white"/>
<path d="M256.179 477.488L248.776 496.108L242.706 495.694L237.79 476.235L243.321 476.612L246.067 491.918L250.935 477.131L256.179 477.488Z" fill="white"/>
<path d="M256.179 458.507L248.776 477.127L242.706 476.713L237.79 457.254L243.321 457.631L246.067 472.937L250.935 458.149L256.179 458.507Z" fill="white"/>
<path d="M256.179 439.526L248.776 458.146L242.706 457.732L237.79 438.273L243.321 438.65L246.067 453.956L250.935 439.169L256.179 439.526Z" fill="white"/>
<path d="M256.179 420.546L248.776 439.166L242.706 438.752L237.79 419.293L243.321 419.67L246.067 434.976L250.935 420.189L256.179 420.546Z" fill="white"/>
<path d="M256.179 401.564L248.776 420.184L242.706 419.771L237.79 400.311L243.321 400.688L246.067 415.994L250.935 401.207L256.179 401.564Z" fill="white"/>
<path d="M256.179 382.583L248.776 401.203L242.706 400.789L237.79 381.33L243.321 381.707L246.067 397.013L250.935 382.226L256.179 382.583Z" fill="white"/>
<path d="M256.179 363.603L248.776 382.222L242.706 381.809L237.79 362.349L243.321 362.726L246.067 378.032L250.935 363.245L256.179 363.603Z" fill="white"/>
<path d="M271.132 477.488L263.729 496.108L257.659 495.694L252.743 476.235L258.274 476.612L261.02 491.918L265.888 477.131L271.132 477.488Z" fill="white"/>
<path d="M271.132 458.507L263.729 477.127L257.659 476.713L252.743 457.254L258.274 457.631L261.02 472.937L265.888 458.149L271.132 458.507Z" fill="white"/>
<path d="M271.132 439.526L263.729 458.146L257.659 457.732L252.743 438.273L258.274 438.65L261.02 453.956L265.888 439.169L271.132 439.526Z" fill="white"/>
<path d="M271.132 420.546L263.729 439.166L257.659 438.752L252.743 419.293L258.274 419.67L261.02 434.976L265.888 420.189L271.132 420.546Z" fill="white"/>
<path d="M271.132 401.564L263.729 420.184L257.659 419.771L252.743 400.311L258.274 400.688L261.02 415.994L265.888 401.207L271.132 401.564Z" fill="white"/>
<path d="M271.132 382.583L263.729 401.203L257.659 400.789L252.743 381.33L258.274 381.707L261.02 397.013L265.888 382.226L271.132 382.583Z" fill="white"/>
<path d="M286.084 477.488L278.681 496.108L272.611 495.694L267.695 476.235L273.226 476.612L275.972 491.918L280.841 477.131L286.084 477.488Z" fill="white"/>
<path d="M286.084 458.507L278.681 477.127L272.611 476.713L267.695 457.254L273.226 457.631L275.972 472.937L280.841 458.149L286.084 458.507Z" fill="white"/>
<path d="M286.084 439.526L278.681 458.146L272.611 457.732L267.695 438.273L273.226 438.65L275.972 453.956L280.841 439.169L286.084 439.526Z" fill="white"/>
<path d="M286.084 420.546L278.681 439.166L272.611 438.752L267.695 419.293L273.226 419.67L275.972 434.976L280.841 420.189L286.084 420.546Z" fill="white"/>
<path d="M286.084 401.564L278.681 420.184L272.611 419.771L267.695 400.311L273.226 400.688L275.972 415.994L280.841 401.207L286.084 401.564Z" fill="white"/>
<path d="M301.037 477.488L293.634 496.108L287.564 495.694L282.648 476.235L288.179 476.612L290.925 491.918L295.794 477.131L301.037 477.488Z" fill="white"/>
<path d="M301.037 458.507L293.634 477.127L287.564 476.713L282.648 457.254L288.179 457.631L290.925 472.937L295.794 458.149L301.037 458.507Z" fill="white"/>
<path d="M301.037 439.526L293.634 458.146L287.564 457.732L282.648 438.273L288.179 438.65L290.925 453.956L295.794 439.169L301.037 439.526Z" fill="white"/>
<path d="M301.037 420.546L293.634 439.166L287.564 438.752L282.648 419.293L288.179 419.67L290.925 434.976L295.794 420.189L301.037 420.546Z" fill="white"/>
<path d="M241.227 497.144L233.824 515.763L227.754 515.35L222.838 495.89L228.369 496.267L231.114 511.573L235.983 496.786L241.227 497.144Z" fill="white"/>
<path d="M256.227 497.144L248.824 515.763L242.754 515.35L237.838 495.89L243.369 496.267L246.114 511.573L250.983 496.786L256.227 497.144Z" fill="white"/>
<path d="M271.227 497.144L263.824 515.763L257.754 515.35L252.838 495.89L258.369 496.267L261.114 511.573L265.983 496.786L271.227 497.144Z" fill="white"/>
<circle cx="161.5" cy="65.2188" r="38.5" fill="white"/>
<path d="M177.768 48.7188L166.888 82.6388H156.072L145 48.7188H154.856L161.576 75.5348L168.424 48.7188H177.768Z" fill="#268020"/>
</svg>
