<svg width="1359" height="797" viewBox="0 0 1359 797" fill="none" xmlns="http://www.w3.org/2000/svg">
<circle cx="266.5" cy="744.219" r="51" fill="white" stroke="#1210A2" stroke-width="3"/>
<circle cx="1068.5" cy="744.219" r="51" fill="white" stroke="#1210A2" stroke-width="3"/>
<rect x="1.5" y="2.21875" width="1356" height="741" fill="white" stroke="#1210A2" stroke-width="3"/>
<rect x="51" y="72.0273" width="1232" height="620" fill="white"/>
<rect x="78.5" y="89.7012" width="1204" height="584" fill="#F8E184" stroke="#1210A2" stroke-width="3"/>
<line x1="267.5" y1="88.2012" x2="267.5" y2="675.201" stroke="#1210A2" stroke-width="3"/>
<line x1="467.5" y1="88.2012" x2="467.5" y2="675.201" stroke="#1210A2" stroke-width="3"/>
<line x1="667.5" y1="88.2012" x2="667.5" y2="675.201" stroke="#1210A2" stroke-width="3"/>
<line x1="867.5" y1="88.2012" x2="867.5" y2="675.201" stroke="#1210A2" stroke-width="3"/>
<line x1="1067.5" y1="88.2012" x2="1067.5" y2="675.201" stroke="#1210A2" stroke-width="3"/>
<line x1="77" y1="287.701" x2="1284" y2="287.701" stroke="#1210A2" stroke-width="3"/>
<line x1="77" y1="478.701" x2="1284" y2="478.701" stroke="#1210A2" stroke-width="3"/>
<path d="M377.392 248.233C373.589 250.129 369.628 251.802 365.968 254.001C354.969 260.613 350.961 259.96 346.701 248.137C342.788 237.27 335.829 233.255 324.909 233.048C314.574 232.857 311.402 227.981 314.463 217.959C317.509 207.984 316.609 199.603 307.094 193.564C305.232 192.385 303.765 190.473 302.313 188.736C299.126 184.96 299.284 181.024 302.471 177.391C304.459 175.113 306.605 172.85 309.051 171.113C315.663 166.397 317.351 160.167 315.41 152.55C314.716 149.778 313.895 147.006 313.58 144.185C312.885 138.178 314.858 135.31 320.744 133.876C324.026 133.079 327.45 132.474 330.811 132.442C337.833 132.394 342.077 128.841 344.602 122.579C345.817 119.583 346.938 116.524 348.5 113.72C351.656 108.063 355.537 106.9 361.344 109.736C364.058 111.059 366.741 112.525 369.234 114.23C375.341 118.42 381.068 117.719 387.191 113.991C402.071 104.908 404.249 105.705 411.049 122.181C413.7 128.618 417.803 132.458 425.125 132.426C428.486 132.41 431.894 133.127 435.192 133.924C440.904 135.294 443.019 138.577 442.293 144.329C442.182 145.269 442.009 146.225 441.693 147.117C437.859 157.793 439.595 166.238 449.283 173.567C458.483 180.514 457.93 185.199 449.473 192.927C447.658 194.584 445.859 196.289 443.997 197.898C440.178 201.18 438.821 205.244 439.91 210.199C440.652 213.545 441.299 216.907 441.993 220.269C443.539 227.806 440.573 232.044 433.03 232.968C429.653 233.383 426.277 233.781 422.884 234.084C417.14 234.594 413.779 238.035 411.476 243.054C403.286 260.9 403.27 260.853 385.834 251.547C383.341 250.257 380.627 249.492 377.392 248.233Z" fill="#1210A2"/>
<circle cx="377.5" cy="183.701" r="59.5" fill="white"/>
<path d="M976.392 248.233C972.589 250.129 968.628 251.802 964.968 254.001C953.969 260.613 949.961 259.96 945.701 248.137C941.788 237.27 934.829 233.255 923.909 233.048C913.574 232.857 910.402 227.981 913.463 217.959C916.509 207.984 915.609 199.603 906.094 193.564C904.232 192.385 902.765 190.473 901.313 188.736C898.126 184.96 898.284 181.024 901.471 177.391C903.459 175.113 905.605 172.85 908.051 171.113C914.663 166.397 916.351 160.167 914.41 152.55C913.716 149.778 912.895 147.006 912.58 144.185C911.885 138.178 913.858 135.31 919.744 133.876C923.026 133.079 926.45 132.474 929.811 132.442C936.833 132.394 941.077 128.841 943.602 122.579C944.817 119.583 945.938 116.524 947.5 113.72C950.656 108.063 954.537 106.9 960.344 109.736C963.058 111.059 965.741 112.525 968.234 114.23C974.341 118.42 980.068 117.719 986.191 113.991C1001.07 104.908 1003.25 105.705 1010.05 122.181C1012.7 128.618 1016.8 132.458 1024.12 132.426C1027.49 132.41 1030.89 133.127 1034.19 133.924C1039.9 135.294 1042.02 138.577 1041.29 144.329C1041.18 145.269 1041.01 146.225 1040.69 147.117C1036.86 157.793 1038.59 166.238 1048.28 173.567C1057.48 180.514 1056.93 185.199 1048.47 192.927C1046.66 194.584 1044.86 196.289 1043 197.898C1039.18 201.18 1037.82 205.244 1038.91 210.199C1039.65 213.545 1040.3 216.907 1040.99 220.269C1042.54 227.806 1039.57 232.044 1032.03 232.968C1028.65 233.383 1025.28 233.781 1021.88 234.084C1016.14 234.594 1012.78 238.035 1010.48 243.054C1002.29 260.9 1002.27 260.853 984.834 251.547C982.341 250.257 979.627 249.492 976.392 248.233Z" fill="#1210A2"/>
<circle cx="976.5" cy="183.701" r="59.5" fill="white"/>
<path d="M576.392 438.233C572.589 440.129 568.628 441.802 564.968 444.001C553.969 450.613 549.961 449.96 545.701 438.137C541.788 427.27 534.829 423.255 523.909 423.048C513.574 422.857 510.402 417.981 513.463 407.959C516.509 397.984 515.609 389.603 506.094 383.564C504.232 382.385 502.765 380.473 501.313 378.736C498.126 374.96 498.284 371.024 501.471 367.391C503.459 365.113 505.605 362.85 508.051 361.113C514.663 356.397 516.351 350.167 514.41 342.55C513.716 339.778 512.895 337.006 512.58 334.185C511.885 328.178 513.858 325.31 519.744 323.876C523.026 323.079 526.45 322.474 529.811 322.442C536.833 322.394 541.077 318.841 543.602 312.579C544.817 309.583 545.938 306.524 547.5 303.72C550.656 298.063 554.537 296.9 560.344 299.736C563.058 301.059 565.741 302.525 568.234 304.23C574.341 308.42 580.068 307.719 586.191 303.991C601.071 294.908 603.249 295.705 610.049 312.181C612.7 318.618 616.803 322.458 624.125 322.426C627.486 322.41 630.894 323.127 634.192 323.924C639.904 325.294 642.019 328.577 641.293 334.329C641.182 335.269 641.009 336.225 640.693 337.117C636.859 347.793 638.595 356.238 648.283 363.567C657.483 370.514 656.93 375.199 648.473 382.927C646.658 384.584 644.859 386.289 642.997 387.898C639.178 391.18 637.821 395.244 638.91 400.199C639.652 403.545 640.299 406.907 640.993 410.269C642.539 417.806 639.573 422.044 632.03 422.968C628.653 423.383 625.277 423.781 621.884 424.084C616.14 424.594 612.779 428.035 610.476 433.054C602.286 450.9 602.27 450.853 584.834 441.547C582.341 440.257 579.627 439.492 576.392 438.233Z" fill="#1210A2"/>
<circle cx="576.5" cy="373.701" r="59.5" fill="white"/>
<path d="M1175.39 438.233C1171.59 440.129 1167.63 441.802 1163.97 444.001C1152.97 450.613 1148.96 449.96 1144.7 438.137C1140.79 427.27 1133.83 423.255 1122.91 423.048C1112.57 422.857 1109.4 417.981 1112.46 407.959C1115.51 397.984 1114.61 389.603 1105.09 383.564C1103.23 382.385 1101.76 380.473 1100.31 378.736C1097.13 374.96 1097.28 371.024 1100.47 367.391C1102.46 365.113 1104.61 362.85 1107.05 361.113C1113.66 356.397 1115.35 350.167 1113.41 342.55C1112.72 339.778 1111.9 337.006 1111.58 334.185C1110.89 328.178 1112.86 325.31 1118.74 323.876C1122.03 323.079 1125.45 322.474 1128.81 322.442C1135.83 322.394 1140.08 318.841 1142.6 312.579C1143.82 309.583 1144.94 306.524 1146.5 303.72C1149.66 298.063 1153.54 296.9 1159.34 299.736C1162.06 301.059 1164.74 302.525 1167.23 304.23C1173.34 308.42 1179.07 307.719 1185.19 303.991C1200.07 294.908 1202.25 295.705 1209.05 312.181C1211.7 318.618 1215.8 322.458 1223.12 322.426C1226.49 322.41 1229.89 323.127 1233.19 323.924C1238.9 325.294 1241.02 328.577 1240.29 334.329C1240.18 335.269 1240.01 336.225 1239.69 337.117C1235.86 347.793 1237.59 356.238 1247.28 363.567C1256.48 370.514 1255.93 375.199 1247.47 382.927C1245.66 384.584 1243.86 386.289 1242 387.898C1238.18 391.18 1236.82 395.244 1237.91 400.199C1238.65 403.545 1239.3 406.907 1239.99 410.269C1241.54 417.806 1238.57 422.044 1231.03 422.968C1227.65 423.383 1224.28 423.781 1220.88 424.084C1215.14 424.594 1211.78 428.035 1209.48 433.054C1201.29 450.9 1201.27 450.853 1183.83 441.547C1181.34 440.257 1178.63 439.492 1175.39 438.233Z" fill="#1210A2"/>
<circle cx="1175.5" cy="373.701" r="59.5" fill="white"/>
<path d="M566.968 117.57C568.595 113.291 571.821 110.6 575.91 108.854C576.717 108.51 577.638 108.195 578.589 108.267C581.598 108.095 584.579 108.181 587.388 109.498C588.208 109.884 588.856 110.6 589.807 110.743C592.385 112.346 594.141 114.593 595.178 117.427C595.265 117.684 595.437 117.913 595.509 118.171C595.668 118.743 595.87 118.615 596.287 118.357C597.41 117.699 598.202 116.64 599.383 116.038C602.638 114.335 606.108 113.577 609.694 114.164C614.619 114.965 618.435 117.641 620.754 122.05C622.208 124.812 622.943 127.846 622.309 131.052C622.266 131.281 622.079 131.539 622.309 131.725C622.511 131.896 622.741 131.739 622.971 131.667C625.42 130.837 627.882 130.408 630.517 130.866C633.628 131.41 636.321 132.612 638.639 134.73C640.411 136.333 641.721 138.237 642.513 140.484C642.859 142.172 643.492 143.804 643.348 145.564C643.291 146.337 643.334 147.124 643.334 147.912C642.931 149.944 642.427 151.933 641.145 153.651C640.439 154.595 640.526 154.824 641.707 154.882C644.256 154.982 646.43 156.055 648.518 157.372C651.153 159.047 652.91 161.451 654.077 164.313C654.25 164.743 654.61 165.115 654.552 165.63C654.379 166.503 654.955 167.262 654.97 168.135C655.013 170.067 654.998 171.999 654.566 173.903C654.365 174.303 654.293 174.718 654.336 175.176C654.005 175.276 653.875 175.548 653.745 175.835C652.521 178.711 650.549 180.958 647.856 182.561C647.568 182.733 647.107 182.919 647.193 183.22C647.28 183.492 647.654 183.807 648.086 183.778C650.491 185.367 652.334 187.456 653.688 189.975C653.774 190.734 654.091 191.406 654.523 192.022C654.883 193.868 655.056 195.729 654.984 197.618C654.926 199.235 654.624 200.795 653.89 202.255C653.256 203.514 652.608 204.76 651.96 206.019C651.427 206.277 651.125 206.778 650.721 207.164C648.245 209.568 645.321 211.071 641.851 211.415C640.627 211.544 640.583 211.572 641.246 212.646C641.39 213.204 641.62 213.705 642.067 214.091C642.081 214.163 642.081 214.234 642.095 214.291C642.671 216.152 643.32 217.97 643.363 219.973C643.392 221.548 643.118 223.079 642.916 224.611C641.98 228.06 639.95 230.765 637.084 232.869C636.076 233.341 635.054 233.785 634.204 234.515C633.369 234.772 632.548 235.13 631.684 235.287C628.674 235.846 625.693 235.86 622.813 234.586C622.539 234.457 622.179 234.343 622.251 235.015C622.295 235.545 622.453 236.06 622.467 236.604C622.525 238.98 621.992 241.256 621.099 243.431C620.221 245.549 618.939 247.41 617.053 248.855C614.792 250.587 612.301 251.875 609.478 252.176C604.697 252.705 600.377 251.489 596.777 248.154C595.725 247.181 595.726 247.224 595.178 248.612C593.997 251.646 592.039 254.036 589.274 255.797C587.373 257.013 585.314 257.715 583.139 258.201C582.031 258.201 580.922 258.201 579.827 258.201C578.718 258.044 577.667 257.486 576.501 257.6C574.686 256.956 572.973 256.126 571.489 254.881C571.23 254.666 571.057 254.337 570.683 254.28C570.683 253.922 570.38 253.75 570.193 253.535C569.156 252.362 568.206 251.117 567.5 249.728C567.054 248.855 566.737 247.911 566.334 246.909C565.931 247.367 565.542 247.653 565.369 248.111C563.295 249.871 561.078 251.303 558.298 251.89C555.778 252.419 553.301 252.448 550.882 251.804C547.555 250.916 544.791 249.084 542.702 246.279C541.896 245.191 541.133 244.089 540.773 242.758C540.643 242.372 540.485 242 540.398 241.613C539.923 239.653 539.578 237.692 539.909 235.66C540.096 234.472 539.981 234.429 538.843 234.772C535.718 235.717 532.564 235.803 529.425 234.887C528.936 234.744 528.489 234.5 527.956 234.529C526.401 233.727 524.889 232.869 523.564 231.681C521.793 230.106 520.598 228.189 519.676 226.056C518.553 223.451 518.596 220.703 518.884 217.998C519.086 216.08 519.964 214.32 520.9 212.631C521.332 212.445 521.706 212.073 521.577 211.672C521.433 211.257 520.871 211.486 520.497 211.458C514.449 210.842 510.474 207.465 508.083 202.083C506.831 199.278 506.802 196.315 507.306 193.367C507.421 192.666 507.608 191.922 507.839 191.206C508.386 190.619 508.789 189.961 508.89 189.131C509.495 187.785 510.632 186.841 511.583 185.753C512.303 184.937 513.196 184.307 514.132 183.778C514.837 183.377 514.765 182.948 514.132 182.59C512.951 181.932 512.044 180.958 511.093 180.057C509.639 178.683 508.631 177.037 508.026 175.133C507.738 173.516 507.162 171.97 507.147 170.282C507.133 168.564 507.565 166.918 507.651 165.229C508.343 163.626 509.02 162.023 510.143 160.664C511.093 159.705 512.044 158.76 512.994 157.801C515.154 156.256 517.516 155.154 520.209 154.91C521.073 154.839 521.289 154.495 520.886 153.751C520.655 153.307 520.382 152.878 520.137 152.449C520.079 152.019 519.993 151.604 519.834 151.189C519.316 149.844 518.855 148.47 518.826 146.996C518.783 145.149 518.884 143.332 519.258 141.528C519.806 139.281 520.914 137.349 522.542 135.703C522.858 135.389 523.132 135.059 523.434 134.73C524.572 134.143 525.451 133.184 526.603 132.598C527.409 132.183 528.345 132.039 529.051 131.438C530.649 131.123 532.176 130.551 533.861 130.608C535.92 130.68 537.85 131.267 540.024 131.796C539.275 129.692 539.808 127.674 540.01 125.642C540.715 123.796 541.507 122.007 542.472 120.289C544.791 117.341 547.613 115.251 551.386 114.435C555.188 113.62 558.745 114.135 562.172 115.824C563.007 116.239 563.727 116.883 564.505 117.412C564.75 117.956 565.311 118.214 565.657 118.672C566.161 119.33 566.463 119.073 566.78 118.514C566.939 118.171 566.982 117.885 566.968 117.57ZM630.877 215.909C631.122 215.866 631.266 215.751 631.223 215.479C631.237 215.408 631.266 215.351 631.281 215.279C632.058 214.52 632.605 213.633 632.937 212.603C633.585 212.23 633.671 211.501 633.974 210.942C634.838 209.354 635.759 207.779 636.234 206.005C636.969 204.559 637.502 203.028 637.919 201.468C638.596 201.139 638.351 200.423 638.481 199.922C638.87 198.376 639.647 196.931 639.575 195.285V195.271C640.108 194.097 640.223 192.823 640.339 191.564C641.015 186.068 641.102 180.586 640.353 175.09C640.439 173.888 640.137 172.772 639.619 171.713C639.547 169.967 638.798 168.392 638.452 166.718C637.775 163.569 636.364 160.692 635.126 157.773C633.714 154.467 631.813 151.432 629.682 148.513C627.09 144.949 624.167 141.686 620.869 138.766C617.802 136.061 614.547 133.614 610.918 131.667C609.694 131.009 608.528 130.236 607.217 129.735C606.8 129.206 606.209 128.991 605.561 128.919C605.417 128.834 605.273 128.719 605.129 128.647C602.422 127.531 599.686 126.472 596.849 125.742C595.351 125.356 593.853 124.898 592.284 124.783C592.039 124.669 591.794 124.497 591.535 124.454C589.389 124.168 587.258 123.781 585.112 123.653C580.288 123.338 575.478 123.724 570.712 124.497C569.776 124.654 568.696 124.554 567.846 125.198C567.673 125.213 567.5 125.184 567.328 125.227C564.102 126.043 560.948 127.059 557.866 128.304C556.858 128.69 555.764 128.919 554.957 129.707C552.956 130.494 551.17 131.682 549.341 132.798C544.675 135.646 540.514 139.11 536.841 143.131C534.969 145.178 533.169 147.296 531.686 149.672C531.6 149.729 531.484 149.758 531.427 149.844C528.777 153.665 526.689 157.773 525.033 162.109C523.91 165.072 523.06 168.092 522.412 171.198C521.922 173.573 521.447 175.963 521.375 178.368C521.217 182.919 521.073 187.485 521.836 192.007C522.023 193.095 521.966 194.269 522.585 195.256C522.527 195.857 522.83 196.373 522.93 196.931C523.42 199.536 524.241 202.04 525.177 204.488C526.315 207.479 527.783 210.341 529.411 213.104C531.628 216.853 534.221 220.36 537.201 223.537C540.283 226.829 543.639 229.82 547.57 232.139C548.463 232.668 549.399 233.169 550.263 233.727C550.997 234.2 551.616 234.887 552.466 235.244C552.538 235.745 553.042 235.674 553.345 235.817C554.813 236.518 556.153 237.534 557.838 237.749C558.788 238.221 559.71 238.751 560.761 238.966C562.979 240.068 565.369 240.64 567.803 241.012C570.366 241.628 572.973 242.1 575.594 242.243C578.747 242.415 581.915 242.587 585.098 242.358C588.079 242.143 591.045 241.828 593.925 241.041C594.487 240.926 595.164 241.299 595.596 240.64C595.956 240.64 596.258 240.311 596.647 240.397C597.238 240.74 597.713 240.254 598.188 240.111C599.988 239.595 601.803 239.066 603.459 238.121C603.747 238.035 604.02 237.964 604.308 237.878C605.028 237.534 606.022 237.649 606.411 236.719C607.692 236.604 608.585 235.645 609.709 235.202C610.76 234.829 611.825 234.5 612.56 233.57C613.741 232.84 614.936 232.139 615.944 231.151C616.765 231.08 617.168 230.45 617.643 229.906C618.738 229.563 619.4 228.632 620.235 227.96C622.136 226.414 623.907 224.725 625.463 222.836C626.356 222.177 626.975 221.304 627.536 220.374C627.781 220.345 627.925 220.231 627.911 219.959C628.616 218.986 629.538 218.184 630.028 217.082C630.273 217.054 630.417 216.925 630.388 216.667C630.402 216.596 630.431 216.538 630.445 216.467C630.791 216.438 630.906 216.224 630.877 215.909Z" fill="#1210A2"/>
<circle cx="581" cy="183.201" r="60" fill="white"/>
<path d="M1165.97 117.57C1167.59 113.291 1170.82 110.6 1174.91 108.854C1175.72 108.51 1176.64 108.195 1177.59 108.267C1180.6 108.095 1183.58 108.181 1186.39 109.498C1187.21 109.884 1187.86 110.6 1188.81 110.743C1191.38 112.346 1193.14 114.593 1194.18 117.427C1194.26 117.684 1194.44 117.913 1194.51 118.171C1194.67 118.743 1194.87 118.615 1195.29 118.357C1196.41 117.699 1197.2 116.64 1198.38 116.038C1201.64 114.335 1205.11 113.577 1208.69 114.164C1213.62 114.965 1217.44 117.641 1219.75 122.05C1221.21 124.812 1221.94 127.846 1221.31 131.052C1221.27 131.281 1221.08 131.539 1221.31 131.725C1221.51 131.896 1221.74 131.739 1221.97 131.667C1224.42 130.837 1226.88 130.408 1229.52 130.866C1232.63 131.41 1235.32 132.612 1237.64 134.73C1239.41 136.333 1240.72 138.237 1241.51 140.484C1241.86 142.172 1242.49 143.804 1242.35 145.564C1242.29 146.337 1242.33 147.124 1242.33 147.912C1241.93 149.944 1241.43 151.933 1240.14 153.651C1239.44 154.595 1239.53 154.824 1240.71 154.882C1243.26 154.982 1245.43 156.055 1247.52 157.372C1250.15 159.047 1251.91 161.451 1253.08 164.313C1253.25 164.743 1253.61 165.115 1253.55 165.63C1253.38 166.503 1253.96 167.262 1253.97 168.135C1254.01 170.067 1254 171.999 1253.57 173.903C1253.36 174.303 1253.29 174.718 1253.34 175.176C1253 175.276 1252.88 175.548 1252.75 175.835C1251.52 178.711 1249.55 180.958 1246.86 182.561C1246.57 182.733 1246.11 182.919 1246.19 183.22C1246.28 183.492 1246.65 183.807 1247.09 183.778C1249.49 185.367 1251.33 187.456 1252.69 189.975C1252.77 190.734 1253.09 191.406 1253.52 192.022C1253.88 193.868 1254.06 195.729 1253.98 197.618C1253.93 199.235 1253.62 200.795 1252.89 202.255C1252.26 203.514 1251.61 204.76 1250.96 206.019C1250.43 206.277 1250.12 206.778 1249.72 207.164C1247.24 209.568 1244.32 211.071 1240.85 211.415C1239.63 211.544 1239.58 211.572 1240.25 212.646C1240.39 213.204 1240.62 213.705 1241.07 214.091C1241.08 214.163 1241.08 214.234 1241.1 214.291C1241.67 216.152 1242.32 217.97 1242.36 219.973C1242.39 221.548 1242.12 223.079 1241.92 224.611C1240.98 228.06 1238.95 230.765 1236.08 232.869C1235.08 233.341 1234.05 233.785 1233.2 234.515C1232.37 234.772 1231.55 235.13 1230.68 235.287C1227.67 235.846 1224.69 235.86 1221.81 234.586C1221.54 234.457 1221.18 234.343 1221.25 235.015C1221.29 235.545 1221.45 236.06 1221.47 236.604C1221.53 238.98 1220.99 241.256 1220.1 243.431C1219.22 245.549 1217.94 247.41 1216.05 248.855C1213.79 250.587 1211.3 251.875 1208.48 252.176C1203.7 252.705 1199.38 251.489 1195.78 248.154C1194.73 247.181 1194.73 247.224 1194.18 248.612C1193 251.646 1191.04 254.036 1188.27 255.797C1186.37 257.013 1184.31 257.715 1182.14 258.201C1181.03 258.201 1179.92 258.201 1178.83 258.201C1177.72 258.044 1176.67 257.486 1175.5 257.6C1173.69 256.956 1171.97 256.126 1170.49 254.881C1170.23 254.666 1170.06 254.337 1169.68 254.28C1169.68 253.922 1169.38 253.75 1169.19 253.535C1168.16 252.362 1167.21 251.117 1166.5 249.728C1166.05 248.855 1165.74 247.911 1165.33 246.909C1164.93 247.367 1164.54 247.653 1164.37 248.111C1162.3 249.871 1160.08 251.303 1157.3 251.89C1154.78 252.419 1152.3 252.448 1149.88 251.804C1146.56 250.916 1143.79 249.084 1141.7 246.279C1140.9 245.191 1140.13 244.089 1139.77 242.758C1139.64 242.372 1139.48 242 1139.4 241.613C1138.92 239.653 1138.58 237.692 1138.91 235.66C1139.1 234.472 1138.98 234.429 1137.84 234.772C1134.72 235.717 1131.56 235.803 1128.43 234.887C1127.94 234.744 1127.49 234.5 1126.96 234.529C1125.4 233.727 1123.89 232.869 1122.56 231.681C1120.79 230.106 1119.6 228.189 1118.68 226.056C1117.55 223.451 1117.6 220.703 1117.88 217.998C1118.09 216.08 1118.96 214.32 1119.9 212.631C1120.33 212.445 1120.71 212.073 1120.58 211.672C1120.43 211.257 1119.87 211.486 1119.5 211.458C1113.45 210.842 1109.47 207.465 1107.08 202.083C1105.83 199.278 1105.8 196.315 1106.31 193.367C1106.42 192.666 1106.61 191.922 1106.84 191.206C1107.39 190.619 1107.79 189.961 1107.89 189.131C1108.49 187.785 1109.63 186.841 1110.58 185.753C1111.3 184.937 1112.2 184.307 1113.13 183.778C1113.84 183.377 1113.77 182.948 1113.13 182.59C1111.95 181.932 1111.04 180.958 1110.09 180.057C1108.64 178.683 1107.63 177.037 1107.03 175.133C1106.74 173.516 1106.16 171.97 1106.15 170.282C1106.13 168.564 1106.57 166.918 1106.65 165.229C1107.34 163.626 1108.02 162.023 1109.14 160.664C1110.09 159.705 1111.04 158.76 1111.99 157.801C1114.15 156.256 1116.52 155.154 1119.21 154.91C1120.07 154.839 1120.29 154.495 1119.89 153.751C1119.66 153.307 1119.38 152.878 1119.14 152.449C1119.08 152.019 1118.99 151.604 1118.83 151.189C1118.32 149.844 1117.86 148.47 1117.83 146.996C1117.78 145.149 1117.88 143.332 1118.26 141.528C1118.81 139.281 1119.91 137.349 1121.54 135.703C1121.86 135.389 1122.13 135.059 1122.43 134.73C1123.57 134.143 1124.45 133.184 1125.6 132.598C1126.41 132.183 1127.35 132.039 1128.05 131.438C1129.65 131.123 1131.18 130.551 1132.86 130.608C1134.92 130.68 1136.85 131.267 1139.02 131.796C1138.28 129.692 1138.81 127.674 1139.01 125.642C1139.72 123.796 1140.51 122.007 1141.47 120.289C1143.79 117.341 1146.61 115.251 1150.39 114.435C1154.19 113.62 1157.74 114.135 1161.17 115.824C1162.01 116.239 1162.73 116.883 1163.51 117.412C1163.75 117.956 1164.31 118.214 1164.66 118.672C1165.16 119.33 1165.46 119.073 1165.78 118.514C1165.94 118.171 1165.98 117.885 1165.97 117.57ZM1229.88 215.909C1230.12 215.866 1230.27 215.751 1230.22 215.479C1230.24 215.408 1230.27 215.351 1230.28 215.279C1231.06 214.52 1231.61 213.633 1231.94 212.603C1232.58 212.23 1232.67 211.501 1232.97 210.942C1233.84 209.354 1234.76 207.779 1235.23 206.005C1235.97 204.559 1236.5 203.028 1236.92 201.468C1237.6 201.139 1237.35 200.423 1237.48 199.922C1237.87 198.376 1238.65 196.931 1238.58 195.285V195.271C1239.11 194.097 1239.22 192.823 1239.34 191.564C1240.02 186.068 1240.1 180.586 1239.35 175.09C1239.44 173.888 1239.14 172.772 1238.62 171.713C1238.55 169.967 1237.8 168.392 1237.45 166.718C1236.78 163.569 1235.36 160.692 1234.13 157.773C1232.71 154.467 1230.81 151.432 1228.68 148.513C1226.09 144.949 1223.17 141.686 1219.87 138.766C1216.8 136.061 1213.55 133.614 1209.92 131.667C1208.69 131.009 1207.53 130.236 1206.22 129.735C1205.8 129.206 1205.21 128.991 1204.56 128.919C1204.42 128.834 1204.27 128.719 1204.13 128.647C1201.42 127.531 1198.69 126.472 1195.85 125.742C1194.35 125.356 1192.85 124.898 1191.28 124.783C1191.04 124.669 1190.79 124.497 1190.53 124.454C1188.39 124.168 1186.26 123.781 1184.11 123.653C1179.29 123.338 1174.48 123.724 1169.71 124.497C1168.78 124.654 1167.7 124.554 1166.85 125.198C1166.67 125.213 1166.5 125.184 1166.33 125.227C1163.1 126.043 1159.95 127.059 1156.87 128.304C1155.86 128.69 1154.76 128.919 1153.96 129.707C1151.96 130.494 1150.17 131.682 1148.34 132.798C1143.68 135.646 1139.51 139.11 1135.84 143.131C1133.97 145.178 1132.17 147.296 1130.69 149.672C1130.6 149.729 1130.48 149.758 1130.43 149.844C1127.78 153.665 1125.69 157.773 1124.03 162.109C1122.91 165.072 1122.06 168.092 1121.41 171.198C1120.92 173.573 1120.45 175.963 1120.38 178.368C1120.22 182.919 1120.07 187.485 1120.84 192.007C1121.02 193.095 1120.97 194.269 1121.58 195.256C1121.53 195.857 1121.83 196.373 1121.93 196.931C1122.42 199.536 1123.24 202.04 1124.18 204.488C1125.31 207.479 1126.78 210.341 1128.41 213.104C1130.63 216.853 1133.22 220.36 1136.2 223.537C1139.28 226.829 1142.64 229.82 1146.57 232.139C1147.46 232.668 1148.4 233.169 1149.26 233.727C1150 234.2 1150.62 234.887 1151.47 235.244C1151.54 235.745 1152.04 235.674 1152.34 235.817C1153.81 236.518 1155.15 237.534 1156.84 237.749C1157.79 238.221 1158.71 238.751 1159.76 238.966C1161.98 240.068 1164.37 240.64 1166.8 241.012C1169.37 241.628 1171.97 242.1 1174.59 242.243C1177.75 242.415 1180.92 242.587 1184.1 242.358C1187.08 242.143 1190.05 241.828 1192.93 241.041C1193.49 240.926 1194.16 241.299 1194.6 240.64C1194.96 240.64 1195.26 240.311 1195.65 240.397C1196.24 240.74 1196.71 240.254 1197.19 240.111C1198.99 239.595 1200.8 239.066 1202.46 238.121C1202.75 238.035 1203.02 237.964 1203.31 237.878C1204.03 237.534 1205.02 237.649 1205.41 236.719C1206.69 236.604 1207.59 235.645 1208.71 235.202C1209.76 234.829 1210.83 234.5 1211.56 233.57C1212.74 232.84 1213.94 232.139 1214.94 231.151C1215.76 231.08 1216.17 230.45 1216.64 229.906C1217.74 229.563 1218.4 228.632 1219.24 227.96C1221.14 226.414 1222.91 224.725 1224.46 222.836C1225.36 222.177 1225.97 221.304 1226.54 220.374C1226.78 220.345 1226.93 220.231 1226.91 219.959C1227.62 218.986 1228.54 218.184 1229.03 217.082C1229.27 217.054 1229.42 216.925 1229.39 216.667C1229.4 216.596 1229.43 216.538 1229.45 216.467C1229.79 216.438 1229.91 216.224 1229.88 215.909Z" fill="#1210A2"/>
<circle cx="1180" cy="183.201" r="60" fill="white"/>
<path d="M353.229 302.201C357.525 302.824 361.821 303.783 366.133 303.975C373.651 304.31 381.201 304.198 388.735 304.182C390.046 304.182 391.341 303.703 392.652 303.479C414.053 299.964 421.129 303.591 429.01 323.866C433.29 334.907 439.308 344.541 446.621 353.68C457.708 367.548 457.835 376.831 446.747 390.603C438.534 400.813 432.264 411.821 427.715 424.172C422.124 439.382 412.947 444.191 396.932 441.411C384.297 439.222 371.74 439.206 359.105 441.427C343.074 444.239 334.15 439.59 328.353 424.172C323.726 411.869 317.439 400.893 309.321 390.603C298.076 376.336 298.234 367.181 309.763 353.201C317.882 343.359 323.836 332.59 328.211 320.623C333.186 306.962 340.215 302.233 353.229 302.201Z" fill="#1210A2"/>
<circle cx="377.5" cy="372.701" r="59.5" fill="white"/>
<path d="M952.229 302.201C956.525 302.824 960.821 303.783 965.133 303.975C972.651 304.31 980.201 304.198 987.735 304.182C989.046 304.182 990.341 303.703 991.652 303.479C1013.05 299.964 1020.13 303.591 1028.01 323.866C1032.29 334.907 1038.31 344.541 1045.62 353.68C1056.71 367.548 1056.83 376.831 1045.75 390.603C1037.53 400.813 1031.26 411.821 1026.72 424.172C1021.12 439.382 1011.95 444.191 995.932 441.411C983.297 439.222 970.74 439.206 958.105 441.427C942.074 444.239 933.15 439.59 927.353 424.172C922.726 411.869 916.439 400.893 908.321 390.603C897.076 376.336 897.234 367.181 908.763 353.201C916.882 343.359 922.836 332.59 927.211 320.623C932.186 306.962 939.215 302.233 952.229 302.201Z" fill="#1210A2"/>
<circle cx="976.5" cy="372.701" r="59.5" fill="white"/>
<path d="M379.324 497.859C380.553 496.718 381.704 495.561 382.965 494.531C389.048 489.556 397.701 489.984 403.265 495.894C406.354 499.158 408.214 503.167 410.263 507.065C411.571 509.536 412.722 512.151 414.377 514.385C417.954 519.202 421.91 519.392 426.718 517.617C428.057 517.126 429.318 516.381 430.658 515.858C431.036 515.716 431.682 515.748 431.982 516.001C433.668 517.427 433.558 517.427 432.786 519.534C432.013 521.642 431.32 523.781 430.831 525.952C430.106 529.136 431.068 531.989 433.653 533.89C436.316 535.839 439.279 537.376 442.132 539.071C445.127 540.846 448.279 542.383 451.1 544.379C456.317 548.055 458.681 553.205 457.83 559.638C457.389 562.981 455.482 565.659 453.291 568.131C452.55 568.97 451.778 569.778 450.958 570.523C450.375 571.062 450.47 571.363 451.021 571.838C453.59 574.104 455.639 576.718 456.554 580.125C458.019 585.544 456.821 590.297 453.086 594.417C450.281 597.523 446.656 599.408 443.015 601.278C440.777 602.435 438.523 603.528 436.3 604.716C434.141 605.857 432.297 607.394 431.02 609.517C429.255 612.433 429.649 615.459 430.705 618.47C431.194 619.864 431.84 621.227 432.534 622.526C432.943 623.286 432.865 623.809 432.234 624.3C431.541 624.839 431.162 625.869 429.838 625.283C427.805 624.38 425.677 623.683 423.534 623.049C418.9 621.686 415.543 623.714 413.147 627.501C411.492 630.1 410.168 632.904 408.718 635.645C406.796 639.258 404.951 642.918 401.957 645.818C396.141 651.458 387.614 651.696 381.562 646.293C380.427 645.279 379.387 644.154 378.347 643.045C377.826 642.506 377.527 642.364 376.944 643.045C373.098 647.64 368.244 649.953 362.223 649.145C359.276 648.749 356.707 647.355 354.5 645.295C351.474 642.474 349.567 638.909 347.691 635.313C346.257 632.54 345.012 629.64 343.341 627.026C340.882 623.16 337.557 620.799 332.371 622.193C330.307 622.748 328.336 623.698 326.382 624.602C325.594 624.966 325.263 624.855 324.68 624.285C323.577 623.239 323.561 622.288 324.16 620.894C325.027 618.85 325.657 616.663 326.161 614.477C326.886 611.244 325.878 608.392 323.277 606.427C320.96 604.685 318.36 603.306 315.854 601.832C312.544 599.884 309.06 598.22 305.924 596.033C300.707 592.389 298.201 587.224 299.226 580.822C299.572 578.683 300.691 576.576 301.858 574.706C302.866 573.074 304.411 571.743 305.782 570.349C306.712 569.414 306.775 569.303 305.766 568.4C303.197 566.102 301.227 563.44 300.36 560.034C299.115 555.185 300.029 550.765 303.134 546.867C305.987 543.286 309.943 541.194 313.899 539.15C316.626 537.74 319.4 536.378 322.048 534.825C324.049 533.652 325.61 531.973 326.524 529.786C327.659 527.124 327.202 524.494 326.272 521.911C325.767 520.517 325.121 519.17 324.443 517.855C324.128 517.237 324.191 516.857 324.648 516.366C326.193 514.686 326.114 514.813 328.273 515.652C330.496 516.524 332.813 517.3 335.145 517.665C339.133 518.299 341.923 516.08 343.861 512.88C345.942 509.457 347.707 505.845 349.582 502.295C351.048 499.522 352.719 496.876 354.957 494.642C360.757 488.875 369.662 488.7 375.636 494.262C376.849 495.45 378.079 496.67 379.324 497.859Z" fill="#1210A2"/>
<circle cx="378.5" cy="570.701" r="59.5" fill="white"/>
<path d="M978.324 497.859C979.553 496.718 980.704 495.561 981.965 494.531C988.048 489.556 996.701 489.984 1002.27 495.894C1005.35 499.158 1007.21 503.167 1009.26 507.065C1010.57 509.536 1011.72 512.151 1013.38 514.385C1016.95 519.202 1020.91 519.392 1025.72 517.617C1027.06 517.126 1028.32 516.381 1029.66 515.858C1030.04 515.716 1030.68 515.748 1030.98 516.001C1032.67 517.427 1032.56 517.427 1031.79 519.534C1031.01 521.642 1030.32 523.781 1029.83 525.952C1029.11 529.136 1030.07 531.989 1032.65 533.89C1035.32 535.839 1038.28 537.376 1041.13 539.071C1044.13 540.846 1047.28 542.383 1050.1 544.379C1055.32 548.055 1057.68 553.205 1056.83 559.638C1056.39 562.981 1054.48 565.659 1052.29 568.131C1051.55 568.97 1050.78 569.778 1049.96 570.523C1049.38 571.062 1049.47 571.363 1050.02 571.838C1052.59 574.104 1054.64 576.718 1055.55 580.125C1057.02 585.544 1055.82 590.297 1052.09 594.417C1049.28 597.523 1045.66 599.408 1042.01 601.278C1039.78 602.435 1037.52 603.528 1035.3 604.716C1033.14 605.857 1031.3 607.394 1030.02 609.517C1028.26 612.433 1028.65 615.459 1029.71 618.47C1030.19 619.864 1030.84 621.227 1031.53 622.526C1031.94 623.286 1031.86 623.809 1031.23 624.3C1030.54 624.839 1030.16 625.869 1028.84 625.283C1026.81 624.38 1024.68 623.683 1022.53 623.049C1017.9 621.686 1014.54 623.714 1012.15 627.501C1010.49 630.1 1009.17 632.904 1007.72 635.645C1005.8 639.258 1003.95 642.918 1000.96 645.818C995.141 651.458 986.614 651.696 980.562 646.293C979.427 645.279 978.387 644.154 977.347 643.045C976.826 642.506 976.527 642.364 975.944 643.045C972.098 647.64 967.244 649.953 961.223 649.145C958.276 648.749 955.707 647.355 953.5 645.295C950.474 642.474 948.567 638.909 946.691 635.313C945.257 632.54 944.012 629.64 942.341 627.026C939.882 623.16 936.557 620.799 931.371 622.193C929.307 622.748 927.336 623.698 925.382 624.602C924.594 624.966 924.263 624.855 923.68 624.285C922.577 623.239 922.561 622.288 923.16 620.894C924.027 618.85 924.657 616.663 925.161 614.477C925.886 611.244 924.878 608.392 922.277 606.427C919.96 604.685 917.36 603.306 914.854 601.832C911.544 599.884 908.06 598.22 904.924 596.033C899.707 592.389 897.201 587.224 898.226 580.822C898.572 578.683 899.691 576.576 900.858 574.706C901.866 573.074 903.411 571.743 904.782 570.349C905.712 569.414 905.775 569.303 904.766 568.4C902.197 566.102 900.227 563.44 899.36 560.034C898.115 555.185 899.029 550.765 902.134 546.867C904.987 543.286 908.943 541.194 912.899 539.15C915.626 537.74 918.4 536.378 921.048 534.825C923.049 533.652 924.61 531.973 925.524 529.786C926.659 527.124 926.202 524.494 925.272 521.911C924.767 520.517 924.121 519.17 923.443 517.855C923.128 517.237 923.191 516.857 923.648 516.366C925.193 514.686 925.114 514.813 927.273 515.652C929.496 516.524 931.813 517.3 934.145 517.665C938.133 518.299 940.923 516.08 942.861 512.88C944.942 509.457 946.707 505.845 948.582 502.295C950.048 499.522 951.719 496.876 953.957 494.642C959.757 488.875 968.662 488.7 974.636 494.262C975.849 495.45 977.079 496.67 978.324 497.859Z" fill="#1210A2"/>
<circle cx="977.5" cy="570.701" r="59.5" fill="white"/>
<path d="M142.481 508.422C142.418 502.192 146.013 497.056 151.863 495.011C157.602 492.997 163.609 494.805 167.441 499.703C173.165 507.011 184.029 506.916 189.673 499.497C193.931 493.901 202.098 492.554 208.153 496.517C212.552 499.386 214.602 503.524 214.492 508.771C214.413 512.116 215.28 515.208 217.377 517.839C221.067 522.5 225.876 524.244 231.678 523.071C239.215 521.565 245.806 526.083 247.793 532.931C249.259 537.957 248.108 542.475 244.623 546.39C238.616 553.128 240.524 563.749 248.55 568.125C251.404 569.678 253.595 571.85 254.872 574.878C258.231 582.773 253.911 592.903 244.261 594.393C237.985 595.36 233.665 599.292 232.183 605.395C231.505 608.185 231.804 610.928 232.845 613.575C233.602 615.478 234.059 617.444 233.949 619.489C233.633 625.227 230.78 629.333 225.702 631.759C221.287 633.867 216.857 633.503 212.694 630.934C204.621 625.957 194.609 629.65 191.692 638.718C189.626 645.123 182.988 649.15 176.35 648.008C170.689 647.041 166.952 643.791 165.17 638.306C162.427 629.888 152.556 626.147 144.83 630.633C143.096 631.632 141.33 632.536 139.343 632.853C134.928 633.55 131.018 632.425 127.707 629.428C124.269 626.337 122.645 622.421 123.087 617.776C123.213 616.35 123.67 614.923 124.159 613.56C125.83 608.946 125.389 604.571 122.692 600.497C120.296 596.866 116.811 594.948 112.554 594.33C106.815 593.49 102.258 588.956 101.264 583.169C100.413 578.287 101.595 573.99 105.143 570.503C106.089 569.567 107.256 568.822 108.407 568.157C113.673 565.065 116.196 560.484 115.818 554.38C115.629 551.321 114.415 548.61 112.349 546.359C105.001 538.353 109.18 525.988 118.798 523.245C121.226 522.547 123.67 522.754 126.13 523.182C134.818 524.672 142.639 517.903 142.512 509.057C142.481 508.85 142.481 508.629 142.481 508.422Z" fill="#1210A2"/>
<circle cx="178.5" cy="569.701" r="59.5" fill="white"/>
<path d="M741.481 508.422C741.418 502.192 745.013 497.056 750.863 495.011C756.602 492.997 762.609 494.805 766.441 499.703C772.165 507.011 783.029 506.916 788.673 499.497C792.931 493.901 801.098 492.554 807.153 496.517C811.552 499.386 813.602 503.524 813.492 508.771C813.413 512.116 814.28 515.208 816.377 517.839C820.067 522.5 824.876 524.244 830.678 523.071C838.215 521.565 844.806 526.083 846.793 532.931C848.259 537.957 847.108 542.475 843.623 546.39C837.616 553.128 839.524 563.749 847.55 568.125C850.404 569.678 852.595 571.85 853.872 574.878C857.231 582.773 852.911 592.903 843.261 594.393C836.985 595.36 832.665 599.292 831.183 605.395C830.505 608.185 830.804 610.928 831.845 613.575C832.602 615.478 833.059 617.444 832.949 619.489C832.633 625.227 829.78 629.333 824.702 631.759C820.287 633.867 815.857 633.503 811.694 630.934C803.621 625.957 793.609 629.65 790.692 638.718C788.626 645.123 781.988 649.15 775.35 648.008C769.689 647.041 765.952 643.791 764.17 638.306C761.427 629.888 751.556 626.147 743.83 630.633C742.096 631.632 740.33 632.536 738.343 632.853C733.928 633.55 730.018 632.425 726.707 629.428C723.269 626.337 721.645 622.421 722.087 617.776C722.213 616.35 722.67 614.923 723.159 613.56C724.83 608.946 724.389 604.571 721.692 600.497C719.296 596.866 715.811 594.948 711.554 594.33C705.815 593.49 701.258 588.956 700.264 583.169C699.413 578.287 700.595 573.99 704.143 570.503C705.089 569.567 706.256 568.822 707.407 568.157C712.673 565.065 715.196 560.484 714.818 554.38C714.629 551.321 713.415 548.61 711.349 546.359C704.001 538.353 708.18 525.988 717.798 523.245C720.226 522.547 722.67 522.754 725.13 523.182C733.818 524.672 741.639 517.903 741.512 509.057C741.481 508.85 741.481 508.629 741.481 508.422Z" fill="#1210A2"/>
<circle cx="777.5" cy="569.701" r="59.5" fill="white"/>
<path d="M243.817 412.092C244.215 419.055 241.32 421.445 236.851 422.034C233.463 422.481 229.996 422.353 226.577 422.417C217.273 422.608 214.426 424.695 211.515 433.347C210.418 436.598 209.384 439.88 207.873 442.939C205.265 448.261 201.289 449.52 196.104 446.62C192.621 444.66 189.392 442.27 186.132 439.944C181.218 436.454 176.319 436.183 171.293 439.641C167.842 442.015 164.47 444.549 160.844 446.62C155.612 449.584 151.731 448.389 149.091 442.971C147.437 439.561 146.355 435.881 145.099 432.28C142.602 425.126 139.644 422.815 132.121 422.481C128.511 422.305 124.868 422.496 121.258 422.178C114.547 421.588 112.081 418.513 113.258 411.821C113.942 407.901 115.103 404.029 116.455 400.269C118.586 394.326 116.773 389.864 111.954 386.263C109.823 384.67 107.692 383.061 105.576 381.42C96.7973 374.584 96.7973 369.915 105.64 362.968C107.883 361.2 110.221 359.543 112.479 357.806C116.884 354.396 118.459 350.11 116.566 344.677C115.437 341.442 114.435 338.144 113.592 334.83C111.509 326.576 114.101 322.847 122.515 322.051C125.536 321.764 128.606 321.939 131.66 321.828C140.168 321.509 142.634 319.565 145.321 311.582C146.594 307.806 147.93 303.998 149.743 300.461C151.906 296.254 155.5 294.979 159.794 297.465C163.087 299.361 166.267 301.464 169.417 303.6C177.178 308.842 179.611 308.874 187.5 303.616C190.029 301.927 192.478 300.078 195.102 298.533C201.734 294.613 205.456 295.824 208.605 302.962C209.909 305.91 210.752 309.065 211.802 312.124C214.299 319.501 216.971 321.461 224.716 321.844C229.074 322.067 233.463 322.226 237.789 322.832C242.656 323.517 244.692 326.831 243.833 331.468C243.038 335.754 241.813 339.992 240.414 344.135C238.426 350.046 240.111 354.555 244.899 358.22C248.079 360.642 251.404 362.921 254.362 365.613C259.181 369.979 259.213 374.313 254.457 378.822C251.849 381.292 248.795 383.316 245.948 385.546C239.412 390.677 238.521 393.449 240.811 401.321C241.988 405.511 243.149 409.718 243.817 412.092Z" fill="#1210A2"/>
<circle cx="178.5" cy="372.701" r="59.5" fill="white"/>
<path d="M842.817 412.092C843.215 419.055 840.32 421.445 835.851 422.034C832.463 422.481 828.996 422.353 825.577 422.417C816.273 422.608 813.426 424.695 810.515 433.347C809.418 436.598 808.384 439.88 806.873 442.939C804.265 448.261 800.289 449.52 795.104 446.62C791.621 444.66 788.392 442.27 785.132 439.944C780.218 436.454 775.319 436.183 770.293 439.641C766.842 442.015 763.47 444.549 759.844 446.62C754.612 449.584 750.731 448.389 748.091 442.971C746.437 439.561 745.355 435.881 744.099 432.28C741.602 425.126 738.644 422.815 731.121 422.481C727.511 422.305 723.868 422.496 720.258 422.178C713.547 421.588 711.081 418.513 712.258 411.821C712.942 407.901 714.103 404.029 715.455 400.269C717.586 394.326 715.773 389.864 710.954 386.263C708.823 384.67 706.692 383.061 704.576 381.42C695.797 374.584 695.797 369.915 704.64 362.968C706.883 361.2 709.221 359.543 711.479 357.806C715.884 354.396 717.459 350.11 715.566 344.677C714.437 341.442 713.435 338.144 712.592 334.83C710.509 326.576 713.101 322.847 721.515 322.051C724.536 321.764 727.606 321.939 730.66 321.828C739.168 321.509 741.634 319.565 744.321 311.582C745.594 307.806 746.93 303.998 748.743 300.461C750.906 296.254 754.5 294.979 758.794 297.465C762.087 299.361 765.267 301.464 768.417 303.6C776.178 308.842 778.611 308.874 786.5 303.616C789.029 301.927 791.478 300.078 794.102 298.533C800.734 294.613 804.456 295.824 807.605 302.962C808.909 305.91 809.752 309.065 810.802 312.124C813.299 319.501 815.971 321.461 823.716 321.844C828.074 322.067 832.463 322.226 836.789 322.832C841.656 323.517 843.692 326.831 842.833 331.468C842.038 335.754 840.813 339.992 839.414 344.135C837.426 350.046 839.111 354.555 843.899 358.22C847.079 360.642 850.404 362.921 853.362 365.613C858.181 369.979 858.213 374.313 853.457 378.822C850.849 381.292 847.795 383.316 844.948 385.546C838.412 390.677 837.521 393.449 839.811 401.321C840.988 405.511 842.149 409.718 842.817 412.092Z" fill="#1210A2"/>
<circle cx="777.5" cy="372.701" r="59.5" fill="white"/>
<path d="M222.318 241.868C217.241 240.719 214.462 242.475 213.409 247.855C212.275 253.603 210.135 254.529 204.946 251.879C200.172 249.436 196.931 249.947 194.041 254.864C190.896 260.213 189.043 260.469 184.716 256.333C180.725 252.501 177.531 252.358 173.444 256.222C168.878 260.548 166.85 260.277 163.72 254.657C160.974 249.739 157.797 249.628 153.31 251.799C147.61 254.561 146.045 253.843 144.56 247.568C143.49 243.05 141.287 241.213 136.481 241.74C128.45 242.603 128.115 242.267 128.226 234.524C128.29 229.925 126.294 228.089 121.888 227.499C114.383 226.493 113.345 224.96 115.884 218.27C117.545 213.864 116.251 211.548 112.196 209.712C104.723 206.344 104.564 205.849 108.986 198.983C111.461 195.135 110.679 192.437 107.422 189.563C101.61 184.454 101.53 183.863 107.166 179.058C111.27 175.561 111.27 172.448 108.204 168.264C104.644 163.411 105.202 161.527 110.823 159.355C116.219 157.28 117.848 154.454 115.453 148.834C113.377 143.948 115.038 141.441 120.371 141.17C126.199 140.883 128.833 138.52 128.162 132.612C127.588 127.615 129.711 125.252 134.837 126.545C140.409 127.95 143.475 126.146 144.64 120.318C145.678 115.129 148.344 113.804 152.975 116.375C158.196 119.265 161.501 118.275 164.135 113.134C166.355 108.775 169.484 107.689 173.045 111.665C177.068 116.151 180.789 116.455 184.924 111.776C188.341 107.913 191.534 108.503 193.849 113.07C196.42 118.115 199.677 119.472 204.962 116.439C209.609 113.788 212.467 115.065 213.361 120.191C214.399 126.146 217.432 127.902 222.989 126.561C227.938 125.364 230.461 127.296 229.902 132.453C229.28 138.152 231.275 140.978 237.407 141.138C243.027 141.298 244.56 143.788 242.356 149.121C240.137 154.486 241.829 157.248 246.923 159.244C252.767 161.543 253.357 163.443 249.589 168.6C246.38 172.99 247.162 176.008 251.106 179.313C256.279 183.656 256.295 184.725 251.17 189.052C247.29 192.341 246.316 195.279 249.557 199.734C253.453 205.098 252.926 206.727 246.492 209.393C241.462 211.485 240.392 214.215 242.42 219.196C244.608 224.561 243.378 226.7 237.486 227.275C231.738 227.85 229.152 230.133 229.902 236.04C230.637 241.932 227.06 242.746 222.318 241.868Z" fill="#1210A2"/>
<circle cx="178.5" cy="184.701" r="59.5" fill="white"/>
<path d="M821.318 241.868C816.241 240.719 813.462 242.475 812.409 247.855C811.275 253.603 809.135 254.529 803.946 251.879C799.172 249.436 795.931 249.947 793.041 254.864C789.896 260.213 788.043 260.469 783.716 256.333C779.725 252.501 776.531 252.358 772.444 256.222C767.878 260.548 765.85 260.277 762.72 254.657C759.974 249.739 756.797 249.628 752.31 251.799C746.61 254.561 745.045 253.843 743.56 247.568C742.49 243.05 740.287 241.213 735.481 241.74C727.45 242.603 727.115 242.267 727.226 234.524C727.29 229.925 725.294 228.089 720.888 227.499C713.383 226.493 712.345 224.96 714.884 218.27C716.545 213.864 715.251 211.548 711.196 209.712C703.723 206.344 703.564 205.849 707.986 198.983C710.461 195.135 709.679 192.437 706.422 189.563C700.61 184.454 700.53 183.863 706.166 179.058C710.27 175.561 710.27 172.448 707.204 168.264C703.644 163.411 704.202 161.527 709.823 159.355C715.219 157.28 716.848 154.454 714.453 148.834C712.377 143.948 714.038 141.441 719.371 141.17C725.199 140.883 727.833 138.52 727.162 132.612C726.588 127.615 728.711 125.252 733.837 126.545C739.409 127.95 742.475 126.146 743.64 120.318C744.678 115.129 747.344 113.804 751.975 116.375C757.196 119.265 760.501 118.275 763.135 113.134C765.355 108.775 768.484 107.689 772.045 111.665C776.068 116.151 779.789 116.455 783.924 111.776C787.341 107.913 790.534 108.503 792.849 113.07C795.42 118.115 798.677 119.472 803.962 116.439C808.609 113.788 811.467 115.065 812.361 120.191C813.399 126.146 816.432 127.902 821.989 126.561C826.938 125.364 829.461 127.296 828.902 132.453C828.28 138.152 830.275 140.978 836.407 141.138C842.027 141.298 843.56 143.788 841.356 149.121C839.137 154.486 840.829 157.248 845.923 159.244C851.767 161.543 852.357 163.443 848.589 168.6C845.38 172.99 846.162 176.008 850.106 179.313C855.279 183.656 855.295 184.725 850.17 189.052C846.29 192.341 845.316 195.279 848.557 199.734C852.453 205.098 851.926 206.727 845.492 209.393C840.462 211.485 839.392 214.215 841.42 219.196C843.608 224.561 842.378 226.7 836.486 227.275C830.738 227.85 828.152 230.133 828.902 236.04C829.637 241.932 826.06 242.746 821.318 241.868Z" fill="#1210A2"/>
<circle cx="777.5" cy="184.701" r="59.5" fill="white"/>
<path d="M619.318 628.868C614.241 627.719 611.462 629.475 610.409 634.855C609.275 640.603 607.135 641.529 601.946 638.879C597.172 636.436 593.931 636.947 591.041 641.864C587.896 647.213 586.043 647.469 581.716 643.333C577.725 639.501 574.531 639.358 570.444 643.222C565.878 647.548 563.85 647.277 560.72 641.657C557.974 636.739 554.797 636.628 550.31 638.799C544.61 641.561 543.045 640.843 541.56 634.568C540.49 630.05 538.287 628.213 533.481 628.74C525.45 629.603 525.115 629.267 525.226 621.524C525.29 616.925 523.294 615.089 518.888 614.499C511.383 613.493 510.345 611.96 512.884 605.27C514.545 600.864 513.251 598.548 509.196 596.712C501.723 593.344 501.564 592.849 505.986 585.983C508.461 582.135 507.679 579.437 504.422 576.563C498.61 571.454 498.53 570.863 504.166 566.058C508.27 562.561 508.27 559.448 505.204 555.264C501.644 550.411 502.202 548.527 507.823 546.355C513.219 544.28 514.848 541.454 512.453 535.834C510.377 530.948 512.038 528.441 517.371 528.17C523.199 527.883 525.833 525.52 525.162 519.612C524.588 514.615 526.711 512.252 531.837 513.545C537.409 514.95 540.475 513.146 541.64 507.318C542.678 502.129 545.344 500.804 549.975 503.375C555.196 506.265 558.501 505.275 561.135 500.134C563.355 495.775 566.484 494.689 570.045 498.665C574.068 503.151 577.789 503.455 581.924 498.776C585.341 494.913 588.534 495.503 590.849 500.07C593.42 505.115 596.677 506.472 601.962 503.439C606.609 500.788 609.467 502.065 610.361 507.191C611.399 513.146 614.432 514.902 619.989 513.561C624.938 512.364 627.461 514.296 626.902 519.453C626.28 525.152 628.275 527.978 634.407 528.138C640.027 528.298 641.56 530.788 639.356 536.121C637.137 541.486 638.829 544.248 643.923 546.244C649.767 548.543 650.357 550.443 646.589 555.6C643.38 559.99 644.162 563.008 648.106 566.313C653.279 570.656 653.295 571.725 648.17 576.052C644.29 579.341 643.316 582.279 646.557 586.734C650.453 592.098 649.926 593.727 643.492 596.393C638.462 598.485 637.392 601.215 639.42 606.196C641.608 611.561 640.378 613.7 634.486 614.275C628.738 614.85 626.152 617.133 626.902 623.04C627.637 628.932 624.06 629.746 619.318 628.868Z" fill="#1210A2"/>
<circle cx="575.5" cy="571.701" r="59.5" fill="white"/>
<path d="M1218.32 628.868C1213.24 627.719 1210.46 629.475 1209.41 634.855C1208.28 640.603 1206.14 641.529 1200.95 638.879C1196.17 636.436 1192.93 636.947 1190.04 641.864C1186.9 647.213 1185.04 647.469 1180.72 643.333C1176.72 639.501 1173.53 639.358 1169.44 643.222C1164.88 647.548 1162.85 647.277 1159.72 641.657C1156.97 636.739 1153.8 636.628 1149.31 638.799C1143.61 641.561 1142.05 640.843 1140.56 634.568C1139.49 630.05 1137.29 628.213 1132.48 628.74C1124.45 629.603 1124.11 629.267 1124.23 621.524C1124.29 616.925 1122.29 615.089 1117.89 614.499C1110.38 613.493 1109.35 611.96 1111.88 605.27C1113.54 600.864 1112.25 598.548 1108.2 596.712C1100.72 593.344 1100.56 592.849 1104.99 585.983C1107.46 582.135 1106.68 579.437 1103.42 576.563C1097.61 571.454 1097.53 570.863 1103.17 566.058C1107.27 562.561 1107.27 559.448 1104.2 555.264C1100.64 550.411 1101.2 548.527 1106.82 546.355C1112.22 544.28 1113.85 541.454 1111.45 535.834C1109.38 530.948 1111.04 528.441 1116.37 528.17C1122.2 527.883 1124.83 525.52 1124.16 519.612C1123.59 514.615 1125.71 512.252 1130.84 513.545C1136.41 514.95 1139.47 513.146 1140.64 507.318C1141.68 502.129 1144.34 500.804 1148.97 503.375C1154.2 506.265 1157.5 505.275 1160.14 500.134C1162.35 495.775 1165.48 494.689 1169.04 498.665C1173.07 503.151 1176.79 503.455 1180.92 498.776C1184.34 494.913 1187.53 495.503 1189.85 500.07C1192.42 505.115 1195.68 506.472 1200.96 503.439C1205.61 500.788 1208.47 502.065 1209.36 507.191C1210.4 513.146 1213.43 514.902 1218.99 513.561C1223.94 512.364 1226.46 514.296 1225.9 519.453C1225.28 525.152 1227.28 527.978 1233.41 528.138C1239.03 528.298 1240.56 530.788 1238.36 536.121C1236.14 541.486 1237.83 544.248 1242.92 546.244C1248.77 548.543 1249.36 550.443 1245.59 555.6C1242.38 559.99 1243.16 563.008 1247.11 566.313C1252.28 570.656 1252.3 571.725 1247.17 576.052C1243.29 579.341 1242.32 582.279 1245.56 586.734C1249.45 592.098 1248.93 593.727 1242.49 596.393C1237.46 598.485 1236.39 601.215 1238.42 606.196C1240.61 611.561 1239.38 613.7 1233.49 614.275C1227.74 614.85 1225.15 617.133 1225.9 623.04C1226.64 628.932 1223.06 629.746 1218.32 628.868Z" fill="#1210A2"/>
<circle cx="1174.5" cy="571.701" r="59.5" fill="white"/>
<path d="M195.024 143.057V228.593L187.056 229.841V150.065H176.112V228.593L168.144 229.841V182.129C160.912 181.745 155.504 179.793 151.92 176.273C148.4 172.753 146.64 168.177 146.64 162.545C146.64 156.337 148.752 151.537 152.976 148.145C157.2 144.753 162.96 143.057 170.256 143.057H195.024Z" fill="#1210A2"/>
<path d="M405.976 152.977L387.64 183.985H398.488V189.937H385.24V198.577H398.488V204.433H385.24V217.201H376.216V204.433H362.872V198.577H376.216V189.937H362.872V183.985H373.816L355.48 152.977H365.272L381.016 181.297L396.664 152.977H405.976Z" fill="#1210A2"/>
<path d="M589.768 215.577C592.84 215.833 595.08 216.697 596.488 218.169C597.96 219.705 598.696 221.561 598.696 223.737C598.696 226.809 597.576 229.177 595.336 230.841C593.096 232.505 590.248 233.337 586.792 233.337C585 233.337 583.336 233.113 581.8 232.665C580.264 232.281 579.016 231.737 578.056 231.033L580.456 226.041C582.376 227.065 584.392 227.577 586.504 227.577C587.976 227.577 589.128 227.257 589.96 226.617C590.856 226.041 591.304 225.081 591.304 223.737C591.304 222.393 590.632 221.369 589.288 220.665C587.944 220.025 585.768 219.705 582.76 219.705L583.816 210.777C580.936 210.073 578.696 208.537 577.096 206.169C575.496 203.801 574.696 200.729 574.696 196.953V166.425H565.864V159.609H574.696V148.185L583.528 147.129V159.609H595.528L594.568 166.425H583.528V196.569C583.528 199.193 583.976 201.113 584.872 202.329C585.832 203.481 587.4 204.057 589.576 204.057C591.56 204.057 593.8 203.385 596.296 202.041L599.656 207.897C596.648 209.945 593.352 211.097 589.768 211.353V215.577Z" fill="#1210A2"/>
<path d="M601.92 349.913C600 350.553 597.888 350.969 595.584 351.161C593.28 351.353 590.464 351.449 587.136 351.449C593.088 354.137 596.064 358.393 596.064 364.217C596.064 369.273 594.336 373.401 590.88 376.601C587.424 379.801 582.72 381.401 576.768 381.401C574.464 381.401 572.32 381.081 570.336 380.441C569.568 380.953 568.96 381.657 568.512 382.553C568.064 383.385 567.84 384.249 567.84 385.145C567.84 387.897 570.048 389.273 574.464 389.273H582.528C585.92 389.273 588.928 389.881 591.552 391.097C594.176 392.313 596.192 393.977 597.6 396.089C599.072 398.201 599.808 400.601 599.808 403.289C599.808 408.217 597.792 411.993 593.76 414.617C589.728 417.305 583.84 418.649 576.096 418.649C570.656 418.649 566.336 418.073 563.136 416.921C560 415.833 557.76 414.169 556.416 411.929C555.072 409.689 554.4 406.809 554.4 403.289H562.368C562.368 405.337 562.752 406.937 563.52 408.089C564.288 409.305 565.664 410.201 567.648 410.777C569.632 411.417 572.448 411.737 576.096 411.737C581.408 411.737 585.184 411.065 587.424 409.721C589.728 408.441 590.88 406.489 590.88 403.865C590.88 401.497 589.984 399.705 588.192 398.489C586.4 397.273 583.904 396.665 580.704 396.665H572.736C568.448 396.665 565.184 395.769 562.944 393.977C560.768 392.121 559.68 389.817 559.68 387.065C559.68 385.401 560.16 383.801 561.12 382.265C562.08 380.729 563.456 379.353 565.248 378.137C562.304 376.601 560.128 374.713 558.72 372.473C557.376 370.169 556.704 367.385 556.704 364.121C556.704 360.729 557.536 357.689 559.2 355.001C560.928 352.313 563.264 350.233 566.208 348.761C569.216 347.225 572.544 346.457 576.192 346.457C580.16 346.521 583.488 346.393 586.176 346.073C588.864 345.689 591.072 345.209 592.8 344.633C594.592 343.993 596.768 343.097 599.328 341.945L601.92 349.913ZM576.192 352.793C572.864 352.793 570.272 353.849 568.416 355.961C566.624 358.009 565.728 360.729 565.728 364.121C565.728 367.577 566.656 370.361 568.512 372.473C570.368 374.521 572.992 375.545 576.384 375.545C579.84 375.545 582.464 374.553 584.256 372.569C586.112 370.521 587.04 367.673 587.04 364.025C587.04 356.537 583.424 352.793 576.192 352.793ZM577.056 342.233C575.52 342.233 574.208 341.721 573.12 340.697C572.096 339.673 571.584 338.393 571.584 336.857C571.584 336.025 571.744 335.097 572.064 334.073C572.448 333.049 573.12 331.513 574.08 329.465L578.016 321.209H583.104L580.32 332.345C581.856 333.689 582.624 335.193 582.624 336.857C582.624 338.393 582.08 339.673 580.992 340.697C579.904 341.721 578.592 342.233 577.056 342.233Z" fill="#1210A2"/>
<path d="M601.92 549.913C600 550.553 597.888 550.969 595.584 551.161C593.28 551.353 590.464 551.449 587.136 551.449C593.088 554.137 596.064 558.393 596.064 564.217C596.064 569.273 594.336 573.401 590.88 576.601C587.424 579.801 582.72 581.401 576.768 581.401C574.464 581.401 572.32 581.081 570.336 580.441C569.568 580.953 568.96 581.657 568.512 582.553C568.064 583.385 567.84 584.249 567.84 585.145C567.84 587.897 570.048 589.273 574.464 589.273H582.528C585.92 589.273 588.928 589.881 591.552 591.097C594.176 592.313 596.192 593.977 597.6 596.089C599.072 598.201 599.808 600.601 599.808 603.289C599.808 608.217 597.792 611.993 593.76 614.617C589.728 617.305 583.84 618.649 576.096 618.649C570.656 618.649 566.336 618.073 563.136 616.921C560 615.833 557.76 614.169 556.416 611.929C555.072 609.689 554.4 606.809 554.4 603.289H562.368C562.368 605.337 562.752 606.937 563.52 608.089C564.288 609.305 565.664 610.201 567.648 610.777C569.632 611.417 572.448 611.737 576.096 611.737C581.408 611.737 585.184 611.065 587.424 609.721C589.728 608.441 590.88 606.489 590.88 603.865C590.88 601.497 589.984 599.705 588.192 598.489C586.4 597.273 583.904 596.665 580.704 596.665H572.736C568.448 596.665 565.184 595.769 562.944 593.977C560.768 592.121 559.68 589.817 559.68 587.065C559.68 585.401 560.16 583.801 561.12 582.265C562.08 580.729 563.456 579.353 565.248 578.137C562.304 576.601 560.128 574.713 558.72 572.473C557.376 570.169 556.704 567.385 556.704 564.121C556.704 560.729 557.536 557.689 559.2 555.001C560.928 552.313 563.264 550.233 566.208 548.761C569.216 547.225 572.544 546.457 576.192 546.457C580.16 546.521 583.488 546.393 586.176 546.073C588.864 545.689 591.072 545.209 592.8 544.633C594.592 543.993 596.768 543.097 599.328 541.945L601.92 549.913ZM576.192 552.793C572.864 552.793 570.272 553.849 568.416 555.961C566.624 558.009 565.728 560.729 565.728 564.121C565.728 567.577 566.656 570.361 568.512 572.473C570.368 574.521 572.992 575.545 576.384 575.545C579.84 575.545 582.464 574.553 584.256 572.569C586.112 570.521 587.04 567.673 587.04 564.025C587.04 556.537 583.424 552.793 576.192 552.793ZM577.056 542.233C575.52 542.233 574.208 541.721 573.12 540.697C572.096 539.673 571.584 538.393 571.584 536.857C571.584 536.025 571.744 535.097 572.064 534.073C572.448 533.049 573.12 531.513 574.08 529.465L578.016 521.209H583.104L580.32 532.345C581.856 533.689 582.624 535.193 582.624 536.857C582.624 538.393 582.08 539.673 580.992 540.697C579.904 541.721 578.592 542.233 577.056 542.233Z" fill="#1210A2"/>
<path d="M775.736 578.425C783.032 578.425 788.6 580.057 792.44 583.321C796.344 586.521 798.296 591.257 798.296 597.529C798.296 601.689 797.336 605.369 795.416 608.569C793.496 611.769 790.808 614.233 787.352 615.961C783.896 617.753 779.864 618.649 775.256 618.649C770.84 618.649 767 617.913 763.736 616.441C760.472 615.033 757.56 612.889 755 610.009L760.184 605.209C762.424 607.385 764.696 608.953 767 609.913C769.368 610.937 772.056 611.449 775.064 611.449C779.544 611.449 782.936 610.233 785.24 607.801C787.608 605.433 788.792 601.945 788.792 597.337C788.792 592.857 787.64 589.689 785.336 587.833C783.032 585.913 779.192 584.953 773.816 584.953H766.232V578.521L785.912 554.905H757.976V547.609H795.992V554.329L775.448 578.425H775.736ZM789.176 522.841L792.92 527.161L779.96 538.009H774.104L761.048 527.161L764.888 522.841L776.984 530.905L789.176 522.841Z" fill="#1210A2"/>
<path d="M1012.41 598.201H978.136C975.64 598.969 973.272 599.353 971.032 599.353C963.928 599.353 958.392 596.985 954.424 592.249C950.456 587.513 948.472 581.081 948.472 572.953C948.472 567.705 949.368 563.097 951.16 559.129C952.952 555.097 955.544 551.993 958.936 549.817C962.328 547.577 966.392 546.457 971.128 546.457C972.792 546.457 974.168 546.553 975.256 546.745C976.344 546.873 977.56 547.161 978.904 547.609H1011.93L1010.97 554.425H986.776C988.568 556.089 990.04 558.201 991.192 560.761C992.344 563.321 993.112 566.105 993.496 569.113H1008.09V575.929H993.592C993.016 582.521 990.584 587.673 986.296 591.385H1012.41V598.201ZM957.976 572.953C957.976 579.417 959.096 584.249 961.336 587.449C963.576 590.649 966.84 592.249 971.128 592.249C975.032 592.249 978.2 590.649 980.632 587.449C983.064 584.185 984.28 579.353 984.28 572.953C984.28 566.489 983.064 561.657 980.632 558.457C978.264 555.193 975.096 553.561 971.128 553.561C962.36 553.561 957.976 560.025 957.976 572.953Z" fill="#1210A2"/>
<path d="M1158.04 526.201C1168.22 530.809 1176.57 535.961 1183.1 541.657C1189.69 547.353 1194.65 554.041 1197.98 561.721C1201.3 569.401 1202.97 578.425 1202.97 588.793C1202.97 593.593 1202.55 598.713 1201.72 604.153C1200.95 609.657 1199.99 614.457 1198.84 618.553L1190.97 617.497C1192.95 608.473 1193.94 598.905 1193.94 588.793C1193.94 581.625 1193.02 575.097 1191.16 569.209L1176.76 598.201H1168.12L1187.32 560.473C1185.66 557.465 1183.61 554.617 1181.18 551.929L1156.22 598.201H1147.48L1175.51 546.265C1170.39 541.785 1163.48 537.177 1154.78 532.441L1158.04 526.201Z" fill="#1210A2"/>
<path d="M807.304 376.697C810.44 376.697 812.968 377.625 814.888 379.481C816.808 381.273 817.768 383.641 817.768 386.585C817.768 390.489 816.264 393.593 813.256 395.897C810.248 398.201 806.28 399.353 801.352 399.353C799.176 399.353 797.192 399.097 795.4 398.585L792.328 405.401L786.664 403.001L789.928 395.993C787.816 394.393 786.312 392.377 785.416 389.945C783.816 392.889 781.672 395.193 778.984 396.857C776.36 398.521 773.384 399.353 770.056 399.353C764.04 399.353 759.336 396.985 755.944 392.249C752.616 387.513 750.952 381.145 750.952 373.145C750.952 367.961 751.752 363.353 753.352 359.321C754.952 355.289 757.256 352.153 760.264 349.913C763.272 347.609 766.792 346.457 770.824 346.457C776.008 346.457 780.552 348.537 784.456 352.697V326.201L793.288 327.257V384.761C793.288 386.297 793.416 387.481 793.672 388.313L793.768 388.025C795.368 384.185 797.224 381.337 799.336 379.481C801.448 377.625 804.104 376.697 807.304 376.697ZM771.976 392.345C774.664 392.345 776.968 391.737 778.888 390.521C780.808 389.241 782.664 387.321 784.456 384.761V383.801V360.089C782.792 357.913 781 356.281 779.08 355.193C777.224 354.041 775.112 353.465 772.744 353.465C768.84 353.465 765.8 355.097 763.624 358.361C761.512 361.625 760.456 366.489 760.456 372.953C760.456 379.481 761.448 384.345 763.432 387.545C765.416 390.745 768.264 392.345 771.976 392.345ZM801.352 391.865C804.296 391.865 806.472 391.417 807.88 390.521C809.288 389.625 809.992 388.313 809.992 386.585C809.992 384.281 808.84 383.129 806.536 383.129C805 383.129 803.656 383.737 802.504 384.953C801.416 386.169 800.104 388.441 798.568 391.769C799.08 391.833 800.008 391.865 801.352 391.865Z" fill="#1210A2"/>
<path d="M989.352 365.761C993.576 367.233 996.776 369.473 998.952 372.481C1001.19 375.489 1002.31 379.041 1002.31 383.137C1002.31 386.849 1001.26 390.337 999.144 393.601C997.096 396.801 994.088 399.393 990.12 401.377C986.216 403.361 981.608 404.353 976.296 404.353C970.984 404.353 966.344 403.393 962.376 401.473C958.472 399.553 955.464 396.993 953.352 393.793C951.304 390.529 950.28 387.009 950.28 383.233C950.28 379.329 951.4 375.873 953.64 372.865C955.88 369.857 959.048 367.553 963.144 365.953C960.264 364.353 958.12 362.273 956.712 359.713C955.304 357.089 954.6 354.113 954.6 350.785V337.057H963.72V350.305C963.72 358.625 967.944 362.785 976.392 362.785C980.808 362.785 984.008 361.601 985.992 359.233C988.04 356.865 989.064 353.889 989.064 350.305V337.057H998.28V350.785C998.28 353.985 997.512 356.865 995.976 359.425C994.44 361.985 992.232 364.097 989.352 365.761ZM976.296 396.865C981.8 396.865 985.896 395.745 988.584 393.505C991.272 391.201 992.616 387.745 992.616 383.137C992.616 378.977 991.272 375.809 988.584 373.633C985.896 371.393 981.8 370.273 976.296 370.273C970.856 370.273 966.76 371.393 964.008 373.633C961.32 375.873 959.976 379.073 959.976 383.233C959.976 387.713 961.352 391.105 964.104 393.409C966.856 395.713 970.92 396.865 976.296 396.865Z" fill="#1210A2"/>
<path d="M1222.1 386.777C1222.1 394.265 1216.22 398.073 1204.44 398.201C1204.12 400.825 1203.96 404.729 1203.96 409.913H1197.43C1197.43 405.369 1197.59 401.465 1197.91 398.201H1171.51L1170.65 391.193C1168.98 393.753 1166.9 395.769 1164.41 397.241C1161.91 398.649 1159.13 399.353 1156.06 399.353C1150.04 399.353 1145.34 396.985 1141.94 392.249C1138.62 387.513 1136.95 381.145 1136.95 373.145C1136.95 367.961 1137.75 363.353 1139.35 359.321C1140.95 355.289 1143.26 352.153 1146.26 349.913C1149.27 347.609 1152.79 346.457 1156.82 346.457C1162.01 346.457 1166.55 348.537 1170.46 352.697V326.201L1179.29 327.257V347.609H1215.58V354.329L1189.18 390.809H1199.06C1199.9 386.329 1201.43 383.033 1203.67 380.921C1205.98 378.745 1208.82 377.657 1212.22 377.657C1215.1 377.657 1217.46 378.489 1219.32 380.153C1221.18 381.753 1222.1 383.961 1222.1 386.777ZM1157.98 392.345C1160.66 392.345 1162.97 391.737 1164.89 390.521C1166.81 389.241 1168.66 387.353 1170.46 384.857V360.089C1168.79 357.913 1167 356.281 1165.08 355.193C1163.22 354.041 1161.11 353.465 1158.74 353.465C1154.84 353.465 1151.8 355.097 1149.62 358.361C1147.51 361.625 1146.46 366.489 1146.46 372.953C1146.46 379.481 1147.45 384.345 1149.43 387.545C1151.42 390.745 1154.26 392.345 1157.98 392.345ZM1179.29 355.097V391.481L1205.5 355.097H1179.29ZM1205.78 390.809C1209.11 390.681 1211.42 390.361 1212.7 389.849C1214.04 389.273 1214.71 388.217 1214.71 386.681C1214.71 384.569 1213.69 383.513 1211.64 383.513C1210.3 383.513 1209.11 384.057 1208.09 385.145C1207.06 386.169 1206.3 388.057 1205.78 390.809Z" fill="#1210A2"/>
<path d="M801.912 203.985C801.912 208.401 800.984 212.305 799.128 215.697C797.336 219.025 794.68 221.649 791.16 223.569C787.704 225.425 783.544 226.353 778.68 226.353C771.32 226.353 765.624 224.337 761.592 220.305C757.624 216.209 755.64 210.769 755.64 203.985V159.057H764.76V203.313C764.76 208.433 765.912 212.273 768.216 214.833C770.52 217.393 774.008 218.673 778.68 218.673C783.416 218.673 786.936 217.425 789.24 214.929C791.544 212.369 792.696 208.497 792.696 203.313V159.057H801.912V203.985ZM768.696 142.641C770.232 142.641 771.512 143.185 772.536 144.273C773.624 145.297 774.168 146.577 774.168 148.113C774.168 149.649 773.624 150.961 772.536 152.049C771.512 153.073 770.232 153.585 768.696 153.585C767.096 153.585 765.752 153.073 764.664 152.049C763.64 150.961 763.128 149.649 763.128 148.113C763.128 146.577 763.64 145.297 764.664 144.273C765.752 143.185 767.096 142.641 768.696 142.641ZM788.76 142.641C790.36 142.641 791.672 143.185 792.696 144.273C793.784 145.297 794.328 146.577 794.328 148.113C794.328 149.649 793.784 150.961 792.696 152.049C791.672 153.073 790.36 153.585 788.76 153.585C787.224 153.585 785.912 153.073 784.824 152.049C783.8 150.961 783.288 149.649 783.288 148.113C783.288 146.577 783.8 145.297 784.824 144.273C785.912 143.185 787.224 142.641 788.76 142.641ZM792.024 138.513H765.816V131.889H792.024V138.513Z" fill="#1210A2"/>
<path d="M994.656 207.897V215.673C994.656 220.537 993.376 224.249 990.816 226.809C988.256 229.369 984.704 230.649 980.16 230.649C976 230.649 972.32 229.433 969.12 227.001L972.576 221.337C973.856 222.105 974.976 222.649 975.936 222.969C976.96 223.353 978.208 223.545 979.68 223.545C983.968 223.545 986.112 221.177 986.112 216.441V210.681C985.024 211.129 983.776 211.353 982.368 211.353C978.592 211.353 975.52 210.105 973.152 207.609C970.848 205.113 969.696 201.561 969.696 196.953V166.425H960.864V159.609H969.696V148.185L978.528 147.129V159.609H990.528L989.568 166.425H978.528V196.953C978.528 199.577 978.976 201.497 979.872 202.713C980.832 203.865 982.4 204.441 984.576 204.441C986.816 204.441 989.28 203.993 991.968 203.097L994.656 207.897Z" fill="#1210A2"/>
<path d="M1199.95 153.361L1193.42 178.801H1185.07L1180.56 160.177L1176.05 178.801H1167.31L1160.88 153.361H1168.56L1172.11 172.561L1177.01 153.361H1184.5L1189.01 172.657L1192.85 153.361H1199.95ZM1199.95 191.761L1193.42 217.201H1185.07L1180.56 198.577L1176.05 217.201H1167.31L1160.88 191.761H1168.56L1172.11 210.961L1177.01 191.761H1184.5L1189.01 211.057L1192.85 191.761H1199.95Z" fill="#1210A2"/>
<path d="M397.232 370.465C397.232 374.881 396.048 378.817 393.68 382.273L400.976 389.473L395.696 394.753L388.208 387.457C384.816 389.505 380.976 390.529 376.688 390.529C372.464 390.529 368.688 389.409 365.36 387.169L357.872 394.753L352.784 389.473L360.272 381.985C357.968 378.593 356.816 374.753 356.816 370.465C356.816 366.305 357.936 362.497 360.176 359.041L352.784 351.361L358.064 346.081L365.552 353.761C368.688 351.585 372.4 350.497 376.688 350.497C381.104 350.497 384.976 351.553 388.304 353.665L395.888 346.081L400.976 351.361L393.68 358.753C396.048 362.081 397.232 365.985 397.232 370.465ZM376.976 383.521C380.816 383.521 383.728 382.369 385.712 380.065C387.76 377.761 388.784 374.529 388.784 370.369C388.784 366.209 387.76 362.977 385.712 360.673C383.728 358.369 380.816 357.217 376.976 357.217C373.2 357.217 370.288 358.401 368.24 360.769C366.256 363.073 365.264 366.273 365.264 370.369C365.264 374.529 366.256 377.761 368.24 380.065C370.288 382.369 373.2 383.521 376.976 383.521Z" fill="#1210A2"/>
<path d="M172.992 335.905C176.448 335.905 179.488 336.545 182.112 337.825C184.8 339.041 186.88 340.769 188.352 343.009C189.824 345.249 190.56 347.745 190.56 350.497C190.56 354.273 189.344 357.537 186.912 360.289C184.544 362.977 181.248 365.569 177.024 368.065L193.92 384.001C196.48 378.817 198.4 373.409 199.68 367.777L207.936 370.177C205.696 377.601 202.848 383.905 199.392 389.089L210.144 399.169L203.808 404.353L194.496 395.329C191.744 398.337 188.64 400.609 185.184 402.145C181.728 403.617 177.76 404.353 173.28 404.353C169.056 404.353 165.312 403.617 162.048 402.145C158.848 400.673 156.32 398.593 154.464 395.905C152.672 393.153 151.776 389.985 151.776 386.401C151.776 382.433 152.896 378.977 155.136 376.033C157.376 373.025 160.704 370.113 165.12 367.297C161.92 364.225 159.552 361.473 158.016 359.041C156.544 356.609 155.808 353.857 155.808 350.785C155.808 346.433 157.312 342.881 160.32 340.129C163.392 337.313 167.616 335.905 172.992 335.905ZM173.088 342.433C170.4 342.433 168.288 343.201 166.752 344.737C165.216 346.273 164.448 348.257 164.448 350.689C164.448 352.993 165.056 355.073 166.272 356.929C167.488 358.721 169.408 360.865 172.032 363.361C175.296 361.377 177.76 359.425 179.424 357.505C181.088 355.521 181.92 353.345 181.92 350.977C181.92 348.289 181.12 346.209 179.52 344.737C177.92 343.201 175.776 342.433 173.088 342.433ZM170.208 372.097C167.008 374.209 164.64 376.385 163.104 378.625C161.568 380.801 160.8 383.297 160.8 386.113C160.8 389.633 162.016 392.385 164.448 394.369C166.944 396.353 170.208 397.345 174.24 397.345C177.248 397.345 179.968 396.769 182.4 395.617C184.832 394.465 187.168 392.737 189.408 390.433L170.208 372.097Z" fill="#1210A2"/>
<path d="M179.496 524.905C188.072 524.905 195.432 526.633 201.576 530.089C207.72 533.481 212.36 538.057 215.496 543.817C218.632 549.577 220.2 555.881 220.2 562.729C220.2 571.049 218.6 577.897 215.4 583.273C212.2 588.649 207.496 591.337 201.288 591.337C197.704 591.337 194.888 590.345 192.84 588.361C190.856 586.377 189.576 584.073 189 581.449C187.784 584.265 186.024 586.601 183.72 588.457C181.48 590.249 178.632 591.145 175.176 591.145C170.056 591.145 165.992 589.225 162.984 585.385C160.04 581.545 158.568 576.425 158.568 570.025C158.568 561.961 160.488 555.785 164.328 551.497C168.168 547.145 173.224 544.969 179.496 544.969C182.184 544.969 184.712 545.257 187.08 545.833C189.448 546.409 191.944 547.401 194.568 548.809V573.673C194.568 577.641 195.112 580.457 196.2 582.121C197.288 583.721 198.92 584.521 201.096 584.521C207.88 584.521 211.272 577.321 211.272 562.921C211.272 556.713 210.056 551.305 207.624 546.697C205.192 542.089 201.608 538.537 196.872 536.041C192.136 533.481 186.344 532.201 179.496 532.201C172.456 532.201 166.28 533.801 160.968 537.001C155.72 540.137 151.688 544.521 148.872 550.153C146.056 555.721 144.648 562.057 144.648 569.161C144.648 576.265 145.992 582.569 148.68 588.073C151.432 593.513 155.432 597.737 160.68 600.745C165.928 603.817 172.2 605.353 179.496 605.353C185.576 605.353 191.72 604.265 197.928 602.089L200.328 608.905C196.744 610.185 193.352 611.113 190.152 611.689C187.016 612.329 183.432 612.649 179.4 612.649C170.824 612.649 163.24 610.857 156.648 607.273C150.056 603.753 144.904 598.697 141.192 592.105C137.544 585.513 135.72 577.865 135.72 569.161C135.72 560.841 137.544 553.321 141.192 546.601C144.904 539.881 150.088 534.601 156.744 530.761C163.4 526.857 170.984 524.905 179.496 524.905ZM176.232 584.713C181.032 584.713 184.488 581.961 186.6 576.457V552.745C184.488 551.785 182.216 551.305 179.784 551.305C171.4 551.305 167.208 557.545 167.208 570.025C167.208 574.825 167.976 578.473 169.512 580.969C171.048 583.465 173.288 584.713 176.232 584.713Z" fill="#1210A2"/>
<path d="M389.152 581.593C392.608 583.961 394.336 587.097 394.336 591.001C394.336 595.289 392.608 598.681 389.152 601.177C385.696 603.737 381.184 605.017 375.616 605.017C369.408 605.017 364.032 603.417 359.488 600.217L362.848 594.361C364.768 595.641 366.752 596.601 368.8 597.241C370.912 597.817 373.28 598.105 375.904 598.105C378.72 598.105 381.024 597.561 382.816 596.473C384.608 595.385 385.504 593.849 385.504 591.865C385.504 590.329 385.184 589.081 384.544 588.121C383.904 587.161 382.752 586.265 381.088 585.433C379.488 584.601 376.992 583.641 373.6 582.553C368.288 580.825 364.48 578.937 362.176 576.889C359.872 574.841 358.72 571.993 358.72 568.345C358.72 566.041 359.36 563.897 360.64 561.913C361.984 559.865 363.808 558.137 366.112 556.729C364.384 555.577 363.104 554.233 362.272 552.697C361.44 551.097 361.024 549.209 361.024 547.033C361.024 542.745 362.688 539.385 366.016 536.953C369.344 534.457 373.664 533.209 378.976 533.209C385.184 533.209 390.656 534.937 395.392 538.393L392.032 543.961C389.92 542.617 387.84 541.625 385.792 540.985C383.744 540.345 381.44 540.025 378.88 540.025C376 540.025 373.76 540.601 372.16 541.753C370.56 542.841 369.76 544.377 369.76 546.361C369.76 547.897 370.048 549.177 370.624 550.201C371.264 551.161 372.416 552.089 374.08 552.985C375.744 553.881 378.208 554.873 381.472 555.961C386.784 557.753 390.592 559.705 392.896 561.817C395.264 563.929 396.448 566.681 396.448 570.073C396.448 574.489 394.016 578.329 389.152 581.593ZM367.264 567.193C367.264 569.497 367.872 571.225 369.088 572.377C370.368 573.529 372.8 574.681 376.384 575.833C379.136 576.729 381.664 577.689 383.968 578.713C385.248 577.561 386.24 576.345 386.944 575.065C387.648 573.785 388 572.537 388 571.321C388 569.785 387.712 568.537 387.136 567.577C386.56 566.553 385.536 565.657 384.064 564.889C382.656 564.057 380.512 563.129 377.632 562.105C375.392 561.273 373.248 560.409 371.2 559.513C369.984 560.729 369.024 562.009 368.32 563.353C367.616 564.697 367.264 565.977 367.264 567.193Z" fill="#1210A2"/>
</svg>
