<svg width="509" height="222" viewBox="0 0 509 222" fill="none" xmlns="http://www.w3.org/2000/svg">
<mask id="path-1-inside-1_203_3438" fill="white">
<path d="M508.703 187H85.4766L23.541 92.373L85.4766 0H508.703V187ZM79.7412 78.8555C71.5066 78.8557 64.8311 85.4122 64.8311 93.5C64.8311 101.588 71.5066 108.144 79.7412 108.145C87.976 108.145 94.6523 101.588 94.6523 93.5C94.6523 85.412 87.976 78.8555 79.7412 78.8555Z"/>
</mask>
<path d="M508.703 187H85.4766L23.541 92.373L85.4766 0H508.703V187ZM79.7412 78.8555C71.5066 78.8557 64.8311 85.4122 64.8311 93.5C64.8311 101.588 71.5066 108.144 79.7412 108.145C87.976 108.145 94.6523 101.588 94.6523 93.5C94.6523 85.412 87.976 78.8555 79.7412 78.8555Z" fill="#F8E184"/>
<path d="M508.703 187V190H511.703V187H508.703ZM85.4766 187L82.9664 188.643L83.8547 190H85.4766V187ZM23.541 92.373L21.0493 90.7023L19.9425 92.3531L21.0309 94.016L23.541 92.373ZM85.4766 0V-3H83.8761L82.9848 -1.6707L85.4766 0ZM508.703 0H511.703V-3H508.703V0ZM79.7412 78.8555V75.8555H79.7411L79.7412 78.8555ZM64.8311 93.5L61.8311 93.5V93.5H64.8311ZM79.7412 108.145L79.7411 111.145H79.7412V108.145ZM94.6523 93.5H97.6523V93.5L94.6523 93.5ZM508.703 187V184H85.4766V187V190H508.703V187ZM85.4766 187L87.9867 185.357L26.0511 90.7301L23.541 92.373L21.0309 94.016L82.9664 188.643L85.4766 187ZM23.541 92.373L26.0328 94.0437L87.9683 1.6707L85.4766 0L82.9848 -1.6707L21.0493 90.7023L23.541 92.373ZM85.4766 0V3H508.703V0V-3H85.4766V0ZM508.703 0H505.703V187H508.703H511.703V0H508.703ZM79.7412 78.8555L79.7411 75.8555C69.9008 75.8557 61.8311 83.7047 61.8311 93.5L64.8311 93.5L67.8311 93.5C67.8311 87.1197 73.1124 81.8556 79.7413 81.8555L79.7412 78.8555ZM64.8311 93.5H61.8311C61.8311 103.295 69.9008 111.144 79.7411 111.145L79.7412 108.145L79.7413 105.145C73.1123 105.144 67.8311 99.8803 67.8311 93.5H64.8311ZM79.7412 108.145V111.145C89.5816 111.145 97.6523 103.296 97.6523 93.5H94.6523H91.6523C91.6523 99.8803 86.3705 105.145 79.7412 105.145V108.145ZM94.6523 93.5L97.6523 93.5C97.6523 83.7043 89.5815 75.8555 79.7412 75.8555V78.8555V81.8555C86.3704 81.8555 91.6523 87.1197 91.6523 93.5L94.6523 93.5Z" fill="#1210A2" mask="url(#path-1-inside-1_203_3438)"/>
<path d="M93.7557 98.9998C93.7557 98.9998 19.4145 20.6052 -11.3384 26.1819C-42.0914 31.7586 -79.9408 68.2483 -75.0113 90.859C-70.0818 113.47 -23.1478 177.216 -0.139136 159.494C22.8695 141.772 18.4843 120.707 15.5658 111.804C12.6472 102.901 7.33818 93.3638 -18.6192 93.4854C-44.5766 93.607 -57.4217 132.806 -58.0584 149.455C-58.6952 166.104 -58.8008 168.879 -60.0444 210.875" stroke="#1210A2" stroke-width="3" stroke-linecap="round"/>
<rect x="112.536" y="19" width="365.176" height="146" fill="white"/>
<rect x="129.964" y="104" width="20.8672" height="43" fill="#1210A2"/>
<rect x="225.953" y="104" width="20.8672" height="43" fill="#1210A2"/>
<rect x="321.941" y="104" width="20.8672" height="43" fill="#1210A2"/>
<rect x="440.885" y="104" width="20.8672" height="43" fill="#1210A2"/>
<rect x="186.305" y="104" width="35.4742" height="43" fill="#1210A2"/>
<rect x="282.294" y="104" width="35.4742" height="43" fill="#1210A2"/>
<rect x="401.237" y="104" width="35.4742" height="43" fill="#1210A2"/>
<rect x="159.178" y="104" width="7.30352" height="43" fill="#1210A2"/>
<rect x="255.167" y="104" width="7.30352" height="43" fill="#1210A2"/>
<rect x="351.156" y="104" width="7.30352" height="43" fill="#1210A2"/>
<rect x="170.654" y="104" width="7.30352" height="43" fill="#1210A2"/>
<rect x="266.644" y="104" width="7.30352" height="43" fill="#1210A2"/>
<rect x="362.633" y="104" width="7.30352" height="43" fill="#1210A2"/>
<rect x="374.109" y="104" width="7.30352" height="43" fill="#1210A2"/>
<rect x="385.587" y="104" width="7.30352" height="43" fill="#1210A2"/>
</svg>
