<svg width="606" height="526" viewBox="0 0 606 526" fill="none" xmlns="http://www.w3.org/2000/svg">
<mask id="path-1-inside-1_205_4728" fill="white">
<path d="M481.61 525.286L53.3557 350.879L32.6947 165.972L177.128 46.9567L605.383 221.363L481.61 525.286ZM101.979 178.753C91.4888 174.481 79.521 179.522 75.2487 190.012C70.9765 200.503 76.0175 212.47 86.508 216.743C96.9987 221.015 108.967 215.975 113.24 205.484C117.512 194.993 112.47 183.025 101.979 178.753Z"/>
</mask>
<path d="M481.61 525.286L53.3557 350.879L32.6947 165.972L177.128 46.9567L605.383 221.363L481.61 525.286ZM101.979 178.753C91.4888 174.481 79.521 179.522 75.2487 190.012C70.9765 200.503 76.0175 212.47 86.508 216.743C96.9987 221.015 108.967 215.975 113.24 205.484C117.512 194.993 112.47 183.025 101.979 178.753Z" fill="#F8E184"/>
<path d="M481.61 525.286L480.204 528.74L483.657 530.146L485.064 526.692L481.61 525.286ZM53.3557 350.879L49.6497 351.293L49.8959 353.497L51.9492 354.333L53.3557 350.879ZM32.6947 165.972L30.3233 163.094L28.7644 164.378L28.9887 166.386L32.6947 165.972ZM177.128 46.9567L178.535 43.5031L176.474 42.6638L174.757 44.0788L177.128 46.9567ZM605.383 221.363L608.836 222.77L610.243 219.316L606.789 217.91L605.383 221.363ZM101.979 178.753L103.386 175.299L103.386 175.299L101.979 178.753ZM75.2487 190.012L71.795 188.606L71.795 188.606L75.2487 190.012ZM86.508 216.743L85.1014 220.197L85.1015 220.197L86.508 216.743ZM113.24 205.484L116.693 206.891L116.693 206.891L113.24 205.484ZM481.61 525.286L483.017 521.832L54.7622 347.425L53.3557 350.879L51.9492 354.333L480.204 528.74L481.61 525.286ZM53.3557 350.879L57.0617 350.465L36.4007 165.558L32.6947 165.972L28.9887 166.386L49.6497 351.293L53.3557 350.879ZM32.6947 165.972L35.0662 168.85L179.5 49.8346L177.128 46.9567L174.757 44.0788L30.3233 163.094L32.6947 165.972ZM177.128 46.9567L175.722 50.4104L603.976 224.817L605.383 221.363L606.789 217.91L178.535 43.5031L177.128 46.9567ZM605.383 221.363L601.929 219.957L478.156 523.879L481.61 525.286L485.064 526.692L608.836 222.77L605.383 221.363ZM101.979 178.753L103.386 175.299C90.9879 170.25 76.8442 176.208 71.795 188.606L75.2487 190.012L78.7024 191.419C82.1979 182.836 91.9896 178.711 100.573 182.207L101.979 178.753ZM75.2487 190.012L71.795 188.606C66.746 201.004 72.7036 215.147 85.1014 220.197L86.508 216.743L87.9145 213.289C79.3314 209.794 75.2069 200.002 78.7024 191.419L75.2487 190.012ZM86.508 216.743L85.1015 220.197C97.4994 225.246 111.644 219.289 116.693 206.891L113.24 205.484L109.786 204.078C106.29 212.661 96.498 216.785 87.9145 213.289L86.508 216.743ZM113.24 205.484L116.693 206.891C121.742 194.492 115.784 180.348 103.386 175.299L101.979 178.753L100.573 182.207C109.156 185.702 113.281 195.494 109.786 204.078L113.24 205.484Z" fill="#1210A2" mask="url(#path-1-inside-1_205_4728)"/>
<rect x="190.2" y="79.1235" width="411.442" height="279.681" transform="rotate(22.1586 190.2 79.1235)" fill="white"/>
<path d="M80.7512 214.399C80.7512 214.399 128.582 169.455 129.559 142.339C130.536 115.222 120.214 86.189 101.196 63.68C82.1775 41.171 0.82373 2 0.82373 2" stroke="#1210A2" stroke-width="3.72908"/>
</svg>
