<svg width="358" height="552" viewBox="0 0 358 552" fill="none" xmlns="http://www.w3.org/2000/svg">
<rect x="1.5" y="2.21875" width="355" height="548" rx="98.5" fill="#268020" stroke="#268020" stroke-width="3"/>
<path d="M90.5 149.369C90.5 149.369 113.5 52.391 165 56.8692C216.5 61.3474 210 159.369 210 159.369" stroke="white" stroke-width="3"/>
<path d="M104.435 156.383L96.6641 174.581L95.6225 174.51L90.0328 155.401L90.9307 155.462L96.1719 173.861L103.573 156.324L104.435 156.383Z" fill="white"/>
<path d="M104.435 176.037L96.6641 194.235L95.6225 194.164L90.0328 175.056L90.9307 175.117L96.1719 193.516L103.573 175.978L104.435 176.037Z" fill="white"/>
<path d="M104.435 195.692L96.6641 213.89L95.6225 213.819L90.0328 194.711L90.9307 194.772L96.1719 213.171L103.573 195.634L104.435 195.692Z" fill="white"/>
<path d="M104.435 215.348L96.6641 233.545L95.6225 233.474L90.0328 214.366L90.9307 214.427L96.1719 232.826L103.573 215.289L104.435 215.348Z" fill="white"/>
<path d="M104.435 235.002L96.6641 253.2L95.6225 253.129L90.0328 234.02L90.9307 234.082L96.1719 252.481L103.573 234.943L104.435 235.002Z" fill="white"/>
<path d="M104.435 254.656L96.6641 272.854L95.6225 272.783L90.0328 253.675L90.9307 253.736L96.1719 272.135L103.573 254.598L104.435 254.656Z" fill="white"/>
<path d="M104.435 274.312L96.6641 292.509L95.6225 292.438L90.0328 273.33L90.9307 273.391L96.1719 291.79L103.573 274.253L104.435 274.312Z" fill="white"/>
<path d="M104.435 293.967L96.6641 312.165L95.6225 312.094L90.0328 292.985L90.9307 293.046L96.1719 311.445L103.573 293.908L104.435 293.967Z" fill="white"/>
<path d="M104.435 313.621L96.6641 331.819L95.6225 331.748L90.0328 312.64L90.9307 312.701L96.1719 331.1L103.573 313.562L104.435 313.621Z" fill="white"/>
<path d="M104.435 333.275L96.6641 351.473L95.6225 351.402L90.0328 332.294L90.9307 332.355L96.1719 350.754L103.573 333.217L104.435 333.275Z" fill="white"/>
<path d="M104.435 352.931L96.6641 371.128L95.6225 371.057L90.0328 351.949L90.9307 352.01L96.1719 370.409L103.573 352.872L104.435 352.931Z" fill="white"/>
<path d="M104.435 372.586L96.6641 390.784L95.6225 390.713L90.0328 371.604L90.9307 371.666L96.1719 390.065L103.573 372.527L104.435 372.586Z" fill="white"/>
<path d="M104.435 392.24L96.6641 410.438L95.6225 410.367L90.0328 391.259L90.9307 391.32L96.1719 409.719L103.573 392.181L104.435 392.24Z" fill="white"/>
<path d="M89.1112 392.24L81.3399 410.438L80.2983 410.367L74.7086 391.259L75.6065 391.32L80.8477 409.719L88.2492 392.181L89.1112 392.24Z" fill="white"/>
<path d="M89.1112 372.037L81.3399 390.235L80.2983 390.164L74.7086 371.056L75.6065 371.117L80.8477 389.516L88.2492 371.978L89.1112 372.037Z" fill="white"/>
<path d="M74.1112 372.037L66.3399 390.235L65.2983 390.164L59.7086 371.056L60.6065 371.117L65.8477 389.516L73.2492 371.978L74.1112 372.037Z" fill="white"/>
<path d="M89.1112 351.835L81.3399 370.033L80.2983 369.962L74.7086 350.853L75.6065 350.915L80.8477 369.314L88.2492 351.776L89.1112 351.835Z" fill="white"/>
<path d="M74.1112 351.835L66.3399 370.033L65.2983 369.962L59.7086 350.853L60.6065 350.915L65.8477 369.314L73.2492 351.776L74.1112 351.835Z" fill="white"/>
<path d="M89.1112 331.633L81.3399 349.831L80.2983 349.76L74.7086 330.651L75.6065 330.712L80.8477 349.111L88.2492 331.574L89.1112 331.633Z" fill="white"/>
<path d="M74.1112 331.633L66.3399 349.831L65.2983 349.76L59.7086 330.651L60.6065 330.712L65.8477 349.111L73.2492 331.574L74.1112 331.633Z" fill="white"/>
<path d="M89.1112 311.43L81.3399 329.627L80.2983 329.556L74.7086 310.448L75.6065 310.509L80.8477 328.908L88.2492 311.371L89.1112 311.43Z" fill="white"/>
<path d="M74.1112 311.43L66.3399 329.627L65.2983 329.556L59.7086 310.448L60.6065 310.509L65.8477 328.908L73.2492 311.371L74.1112 311.43Z" fill="white"/>
<path d="M89.1112 291.227L81.3399 309.424L80.2983 309.353L74.7086 290.245L75.6065 290.306L80.8477 308.705L88.2492 291.168L89.1112 291.227Z" fill="white"/>
<path d="M89.1112 271.024L81.3399 289.222L80.2983 289.151L74.7086 270.043L75.6065 270.104L80.8477 288.503L88.2492 270.966L89.1112 271.024Z" fill="white"/>
<path d="M119.401 157.402L111.63 175.6L110.588 175.529L104.999 156.421L105.897 156.482L111.138 174.881L118.539 157.344L119.401 157.402Z" fill="white"/>
<path d="M119.401 177.058L111.63 195.255L110.588 195.184L104.999 176.076L105.897 176.137L111.138 194.536L118.539 176.999L119.401 177.058Z" fill="white"/>
<path d="M119.401 196.713L111.63 214.911L110.588 214.84L104.999 195.731L105.897 195.793L111.138 214.192L118.539 196.654L119.401 196.713Z" fill="white"/>
<path d="M119.401 216.367L111.63 234.565L110.588 234.494L104.999 215.386L105.897 215.447L111.138 233.846L118.539 216.308L119.401 216.367Z" fill="white"/>
<path d="M119.401 236.021L111.63 254.219L110.588 254.148L104.999 235.04L105.897 235.101L111.138 253.5L118.539 235.963L119.401 236.021Z" fill="white"/>
<path d="M119.401 255.677L111.63 273.875L110.588 273.804L104.999 254.695L105.897 254.756L111.138 273.155L118.539 255.618L119.401 255.677Z" fill="white"/>
<path d="M119.401 275.332L111.63 293.53L110.588 293.459L104.999 274.351L105.897 274.412L111.138 292.811L118.539 275.273L119.401 275.332Z" fill="white"/>
<path d="M119.401 294.986L111.63 313.184L110.588 313.113L104.999 294.005L105.897 294.066L111.138 312.465L118.539 294.928L119.401 294.986Z" fill="white"/>
<path d="M119.401 314.641L111.63 332.838L110.588 332.767L104.999 313.659L105.897 313.72L111.138 332.119L118.539 314.582L119.401 314.641Z" fill="white"/>
<path d="M119.401 334.296L111.63 352.494L110.588 352.423L104.999 333.314L105.897 333.376L111.138 351.775L118.539 334.237L119.401 334.296Z" fill="white"/>
<path d="M119.401 353.951L111.63 372.149L110.588 372.078L104.999 352.97L105.897 353.031L111.138 371.43L118.539 353.892L119.401 353.951Z" fill="white"/>
<path d="M119.401 373.605L111.63 391.803L110.588 391.732L104.999 372.624L105.897 372.685L111.138 391.084L118.539 373.547L119.401 373.605Z" fill="white"/>
<path d="M119.401 393.26L111.63 411.458L110.588 411.387L104.999 392.278L105.897 392.339L111.138 410.738L118.539 393.201L119.401 393.26Z" fill="white"/>
<path d="M134.366 158.423L126.595 176.621L125.553 176.55L119.963 157.441L120.861 157.503L126.103 175.901L133.504 158.364L134.366 158.423Z" fill="white"/>
<path d="M134.366 178.078L126.595 196.276L125.553 196.205L119.963 177.097L120.861 177.158L126.103 195.557L133.504 178.019L134.366 178.078Z" fill="white"/>
<path d="M134.366 197.732L126.595 215.93L125.553 215.859L119.963 196.751L120.861 196.812L126.103 215.211L133.504 197.674L134.366 197.732Z" fill="white"/>
<path d="M134.366 217.387L126.595 235.584L125.553 235.513L119.963 216.405L120.861 216.466L126.103 234.865L133.504 217.328L134.366 217.387Z" fill="white"/>
<path d="M134.366 237.042L126.595 255.24L125.553 255.169L119.963 236.06L120.861 236.122L126.103 254.521L133.504 236.983L134.366 237.042Z" fill="white"/>
<path d="M134.366 256.697L126.595 274.895L125.553 274.824L119.963 255.716L120.861 255.777L126.103 274.176L133.504 256.639L134.366 256.697Z" fill="white"/>
<path d="M134.366 276.352L126.595 294.549L125.553 294.478L119.963 275.37L120.861 275.431L126.103 293.83L133.504 276.293L134.366 276.352Z" fill="white"/>
<path d="M134.366 296.006L126.595 314.204L125.553 314.133L119.963 295.024L120.861 295.086L126.103 313.484L133.504 295.947L134.366 296.006Z" fill="white"/>
<path d="M134.366 315.661L126.595 333.859L125.553 333.788L119.963 314.68L120.861 314.741L126.103 333.14L133.504 315.602L134.366 315.661Z" fill="white"/>
<path d="M134.366 335.316L126.595 353.514L125.553 353.443L119.963 334.335L120.861 334.396L126.103 352.795L133.504 335.258L134.366 335.316Z" fill="white"/>
<path d="M134.366 354.971L126.595 373.168L125.553 373.097L119.963 353.989L120.861 354.05L126.103 372.449L133.504 354.912L134.366 354.971Z" fill="white"/>
<path d="M134.366 374.625L126.595 392.823L125.553 392.752L119.963 373.643L120.861 373.705L126.103 392.104L133.504 374.566L134.366 374.625Z" fill="white"/>
<path d="M134.366 394.28L126.595 412.478L125.553 412.407L119.963 393.299L120.861 393.36L126.103 411.759L133.504 394.222L134.366 394.28Z" fill="white"/>
<path d="M134.366 413.936L126.595 432.133L125.553 432.062L119.963 412.954L120.861 413.015L126.103 431.414L133.504 413.877L134.366 413.936Z" fill="white"/>
<path d="M149.332 159.443L141.561 177.641L140.519 177.57L134.929 158.462L135.827 158.523L141.068 176.922L148.47 159.385L149.332 159.443Z" fill="white"/>
<path d="M149.332 179.098L141.561 197.295L140.519 197.224L134.929 178.116L135.827 178.177L141.068 196.576L148.47 179.039L149.332 179.098Z" fill="white"/>
<path d="M149.332 198.752L141.561 216.95L140.519 216.879L134.929 197.77L135.827 197.832L141.068 216.231L148.47 198.693L149.332 198.752Z" fill="white"/>
<path d="M149.332 218.407L141.561 236.605L140.519 236.534L134.929 217.426L135.827 217.487L141.068 235.886L148.47 218.348L149.332 218.407Z" fill="white"/>
<path d="M149.332 238.063L141.561 256.26L140.519 256.189L134.929 237.081L135.827 237.142L141.068 255.541L148.47 238.004L149.332 238.063Z" fill="white"/>
<path d="M149.332 257.717L141.561 275.915L140.519 275.844L134.929 256.735L135.827 256.796L141.068 275.195L148.47 257.658L149.332 257.717Z" fill="white"/>
<path d="M149.332 277.371L141.561 295.569L140.519 295.498L134.929 276.39L135.827 276.451L141.068 294.85L148.47 277.312L149.332 277.371Z" fill="white"/>
<path d="M149.332 297.026L141.561 315.224L140.519 315.153L134.929 296.045L135.827 296.106L141.068 314.505L148.47 296.968L149.332 297.026Z" fill="white"/>
<path d="M149.332 316.682L141.561 334.879L140.519 334.808L134.929 315.7L135.827 315.761L141.068 334.16L148.47 316.623L149.332 316.682Z" fill="white"/>
<path d="M149.332 336.336L141.561 354.534L140.519 354.463L134.929 335.354L135.827 335.416L141.068 353.815L148.47 336.277L149.332 336.336Z" fill="white"/>
<path d="M149.332 355.99L141.561 374.188L140.519 374.117L134.929 355.009L135.827 355.07L141.068 373.469L148.47 355.931L149.332 355.99Z" fill="white"/>
<path d="M149.332 375.646L141.561 393.843L140.519 393.772L134.929 374.664L135.827 374.725L141.068 393.124L148.47 375.587L149.332 375.646Z" fill="white"/>
<path d="M149.332 395.301L141.561 413.499L140.519 413.428L134.929 394.319L135.827 394.38L141.068 412.779L148.47 395.242L149.332 395.301Z" fill="white"/>
<path d="M149.332 414.955L141.561 433.153L140.519 433.082L134.929 413.974L135.827 414.035L141.068 432.434L148.47 414.896L149.332 414.955Z" fill="white"/>
<path d="M164.297 160.463L156.525 178.661L155.484 178.59L149.894 159.481L150.792 159.543L156.033 177.942L163.435 160.404L164.297 160.463Z" fill="white"/>
<path d="M164.297 180.117L156.525 198.315L155.484 198.244L149.894 179.136L150.792 179.197L156.033 197.596L163.435 180.058L164.297 180.117Z" fill="white"/>
<path d="M164.297 199.771L156.525 217.969L155.484 217.898L149.894 198.79L150.792 198.851L156.033 217.25L163.435 199.713L164.297 199.771Z" fill="white"/>
<path d="M164.297 219.427L156.525 237.625L155.484 237.554L149.894 218.445L150.792 218.506L156.033 236.905L163.435 219.368L164.297 219.427Z" fill="white"/>
<path d="M164.297 239.082L156.525 257.28L155.484 257.209L149.894 238.101L150.792 238.162L156.033 256.561L163.435 239.023L164.297 239.082Z" fill="white"/>
<path d="M164.297 258.736L156.525 276.934L155.484 276.863L149.894 257.755L150.792 257.816L156.033 276.215L163.435 258.678L164.297 258.736Z" fill="white"/>
<path d="M164.297 278.391L156.525 296.588L155.484 296.517L149.894 277.409L150.792 277.47L156.033 295.869L163.435 278.332L164.297 278.391Z" fill="white"/>
<path d="M164.297 298.046L156.525 316.244L155.484 316.173L149.894 297.064L150.792 297.126L156.033 315.525L163.435 297.987L164.297 298.046Z" fill="white"/>
<path d="M164.297 317.701L156.525 335.899L155.484 335.828L149.894 316.72L150.792 316.781L156.033 335.18L163.435 317.642L164.297 317.701Z" fill="white"/>
<path d="M164.297 337.355L156.525 355.553L155.484 355.482L149.894 336.374L150.792 336.435L156.033 354.834L163.435 337.297L164.297 337.355Z" fill="white"/>
<path d="M164.297 357.01L156.525 375.208L155.484 375.137L149.894 356.028L150.792 356.089L156.033 374.488L163.435 356.951L164.297 357.01Z" fill="white"/>
<path d="M164.297 376.665L156.525 394.863L155.484 394.792L149.894 375.684L150.792 375.745L156.033 394.144L163.435 376.606L164.297 376.665Z" fill="white"/>
<path d="M164.297 396.32L156.525 414.518L155.484 414.447L149.894 395.339L150.792 395.4L156.033 413.799L163.435 396.262L164.297 396.32Z" fill="white"/>
<path d="M164.297 415.975L156.525 434.172L155.484 434.101L149.894 414.993L150.792 415.054L156.033 433.453L163.435 415.916L164.297 415.975Z" fill="white"/>
<path d="M164.297 435.629L156.525 453.827L155.484 453.756L149.894 434.647L150.792 434.709L156.033 453.108L163.435 435.57L164.297 435.629Z" fill="white"/>
<path d="M179.263 161.482L171.491 179.68L170.45 179.609L164.86 160.501L165.758 160.562L170.999 178.961L178.401 161.424L179.263 161.482Z" fill="white"/>
<path d="M179.263 181.137L171.491 199.334L170.45 199.263L164.86 180.155L165.758 180.216L170.999 198.615L178.401 181.078L179.263 181.137Z" fill="white"/>
<path d="M179.263 200.791L171.491 218.989L170.45 218.918L164.86 199.81L165.758 199.871L170.999 218.27L178.401 200.732L179.263 200.791Z" fill="white"/>
<path d="M179.263 220.446L171.491 238.644L170.45 238.573L164.86 219.465L165.758 219.526L170.999 237.925L178.401 220.388L179.263 220.446Z" fill="white"/>
<path d="M179.263 240.102L171.491 258.299L170.45 258.228L164.86 239.12L165.758 239.181L170.999 257.58L178.401 240.043L179.263 240.102Z" fill="white"/>
<path d="M179.263 259.756L171.491 277.954L170.45 277.883L164.86 258.774L165.758 258.836L170.999 277.234L178.401 259.697L179.263 259.756Z" fill="white"/>
<path d="M179.263 279.41L171.491 297.608L170.45 297.537L164.86 278.429L165.758 278.49L170.999 296.889L178.401 279.351L179.263 279.41Z" fill="white"/>
<path d="M179.263 299.065L171.491 317.263L170.45 317.192L164.86 298.084L165.758 298.145L170.999 316.544L178.401 299.007L179.263 299.065Z" fill="white"/>
<path d="M179.263 318.721L171.491 336.918L170.45 336.847L164.86 317.739L165.758 317.8L170.999 336.199L178.401 318.662L179.263 318.721Z" fill="white"/>
<path d="M179.263 338.375L171.491 356.573L170.45 356.502L164.86 337.393L165.758 337.455L170.999 355.854L178.401 338.316L179.263 338.375Z" fill="white"/>
<path d="M179.263 358.029L171.491 376.227L170.45 376.156L164.86 357.048L165.758 357.109L170.999 375.508L178.401 357.971L179.263 358.029Z" fill="white"/>
<path d="M179.263 377.685L171.491 395.882L170.45 395.811L164.86 376.703L165.758 376.764L170.999 395.163L178.401 377.626L179.263 377.685Z" fill="white"/>
<path d="M179.263 397.34L171.491 415.538L170.45 415.467L164.86 396.358L165.758 396.42L170.999 414.818L178.401 397.281L179.263 397.34Z" fill="white"/>
<path d="M179.263 416.994L171.491 435.192L170.45 435.121L164.86 416.013L165.758 416.074L170.999 434.473L178.401 416.935L179.263 416.994Z" fill="white"/>
<path d="M179.263 436.648L171.491 454.846L170.45 454.775L164.86 435.667L165.758 435.728L170.999 454.127L178.401 436.59L179.263 436.648Z" fill="white"/>
<path d="M179.263 456.304L171.491 474.501L170.45 474.43L164.86 455.322L165.758 455.383L170.999 473.782L178.401 456.245L179.263 456.304Z" fill="white"/>
<path d="M194.227 162.502L186.456 180.7L185.415 180.629L179.825 161.52L180.723 161.582L185.964 179.981L193.365 162.443L194.227 162.502Z" fill="white"/>
<path d="M194.227 182.157L186.456 200.355L185.415 200.284L179.825 181.176L180.723 181.237L185.964 199.636L193.365 182.098L194.227 182.157Z" fill="white"/>
<path d="M194.227 201.813L186.456 220.01L185.415 219.939L179.825 200.831L180.723 200.892L185.964 219.291L193.365 201.754L194.227 201.813Z" fill="white"/>
<path d="M194.227 221.467L186.456 239.665L185.415 239.594L179.825 220.485L180.723 220.546L185.964 238.945L193.365 221.408L194.227 221.467Z" fill="white"/>
<path d="M194.227 241.121L186.456 259.319L185.415 259.248L179.825 240.14L180.723 240.201L185.964 258.6L193.365 241.062L194.227 241.121Z" fill="white"/>
<path d="M194.227 260.776L186.456 278.974L185.415 278.903L179.825 259.795L180.723 259.856L185.964 278.255L193.365 260.718L194.227 260.776Z" fill="white"/>
<path d="M194.227 280.432L186.456 298.629L185.415 298.558L179.825 279.45L180.723 279.511L185.964 297.91L193.365 280.373L194.227 280.432Z" fill="white"/>
<path d="M194.227 300.086L186.456 318.284L185.415 318.213L179.825 299.104L180.723 299.166L185.964 317.565L193.365 300.027L194.227 300.086Z" fill="white"/>
<path d="M194.227 319.74L186.456 337.938L185.415 337.867L179.825 318.759L180.723 318.82L185.964 337.219L193.365 319.681L194.227 319.74Z" fill="white"/>
<path d="M194.227 339.396L186.456 357.593L185.415 357.522L179.825 338.414L180.723 338.475L185.964 356.874L193.365 339.337L194.227 339.396Z" fill="white"/>
<path d="M194.227 359.051L186.456 377.249L185.415 377.178L179.825 358.069L180.723 358.13L185.964 376.529L193.365 358.992L194.227 359.051Z" fill="white"/>
<path d="M194.227 378.705L186.456 396.903L185.415 396.832L179.825 377.724L180.723 377.785L185.964 396.184L193.365 378.646L194.227 378.705Z" fill="white"/>
<path d="M194.227 398.359L186.456 416.557L185.415 416.486L179.825 397.378L180.723 397.439L185.964 415.838L193.365 398.301L194.227 398.359Z" fill="white"/>
<path d="M194.227 418.015L186.456 436.212L185.415 436.141L179.825 417.033L180.723 417.094L185.964 435.493L193.365 417.956L194.227 418.015Z" fill="white"/>
<path d="M194.227 437.67L186.456 455.868L185.415 455.797L179.825 436.688L180.723 436.75L185.964 455.149L193.365 437.611L194.227 437.67Z" fill="white"/>
<path d="M194.227 457.324L186.456 475.522L185.415 475.451L179.825 456.343L180.723 456.404L185.964 474.803L193.365 457.265L194.227 457.324Z" fill="white"/>
<path d="M209.193 163.521L201.422 181.719L200.38 181.648L194.791 162.54L195.689 162.601L200.93 181L208.331 163.463L209.193 163.521Z" fill="white"/>
<path d="M209.193 183.177L201.422 201.375L200.38 201.304L194.791 182.195L195.689 182.256L200.93 200.655L208.331 183.118L209.193 183.177Z" fill="white"/>
<path d="M209.193 202.832L201.422 221.03L200.38 220.959L194.791 201.851L195.689 201.912L200.93 220.311L208.331 202.773L209.193 202.832Z" fill="white"/>
<path d="M209.193 222.486L201.422 240.684L200.38 240.613L194.791 221.505L195.689 221.566L200.93 239.965L208.331 222.428L209.193 222.486Z" fill="white"/>
<path d="M209.193 242.141L201.422 260.338L200.38 260.267L194.791 241.159L195.689 241.22L200.93 259.619L208.331 242.082L209.193 242.141Z" fill="white"/>
<path d="M209.193 261.796L201.422 279.994L200.38 279.923L194.791 260.814L195.689 260.876L200.93 279.275L208.331 261.737L209.193 261.796Z" fill="white"/>
<path d="M209.193 281.451L201.422 299.649L200.38 299.578L194.791 280.47L195.689 280.531L200.93 298.93L208.331 281.392L209.193 281.451Z" fill="white"/>
<path d="M209.193 301.105L201.422 319.303L200.38 319.232L194.791 300.124L195.689 300.185L200.93 318.584L208.331 301.047L209.193 301.105Z" fill="white"/>
<path d="M209.193 320.76L201.422 338.958L200.38 338.887L194.791 319.778L195.689 319.839L200.93 338.238L208.331 320.701L209.193 320.76Z" fill="white"/>
<path d="M209.193 340.415L201.422 358.613L200.38 358.542L194.791 339.434L195.689 339.495L200.93 357.894L208.331 340.356L209.193 340.415Z" fill="white"/>
<path d="M209.193 360.07L201.422 378.268L200.38 378.197L194.791 359.089L195.689 359.15L200.93 377.549L208.331 360.012L209.193 360.07Z" fill="white"/>
<path d="M209.193 379.725L201.422 397.922L200.38 397.851L194.791 378.743L195.689 378.804L200.93 397.203L208.331 379.666L209.193 379.725Z" fill="white"/>
<path d="M209.193 399.379L201.422 417.577L200.38 417.506L194.791 398.397L195.689 398.459L200.93 416.858L208.331 399.32L209.193 399.379Z" fill="white"/>
<path d="M209.193 419.034L201.422 437.232L200.38 437.161L194.791 418.053L195.689 418.114L200.93 436.513L208.331 418.975L209.193 419.034Z" fill="white"/>
<path d="M209.193 438.689L201.422 456.887L200.38 456.816L194.791 437.708L195.689 437.769L200.93 456.168L208.331 438.631L209.193 438.689Z" fill="white"/>
<path d="M209.193 458.344L201.422 476.541L200.38 476.471L194.791 457.362L195.689 457.423L200.93 475.822L208.331 458.285L209.193 458.344Z" fill="white"/>
<path d="M209.193 477.998L201.422 496.196L200.38 496.125L194.791 477.017L195.689 477.078L200.93 495.477L208.331 477.939L209.193 477.998Z" fill="white"/>
<path d="M224.158 321.78L216.387 339.978L215.345 339.907L209.755 320.799L210.653 320.86L215.895 339.259L223.296 321.722L224.158 321.78Z" fill="white"/>
<path d="M224.158 341.436L216.387 359.633L215.345 359.562L209.755 340.454L210.653 340.515L215.895 358.914L223.296 341.377L224.158 341.436Z" fill="white"/>
<path d="M224.158 361.09L216.387 379.288L215.345 379.217L209.755 360.108L210.653 360.17L215.895 378.568L223.296 361.031L224.158 361.09Z" fill="white"/>
<path d="M224.158 380.744L216.387 398.942L215.345 398.871L209.755 379.763L210.653 379.824L215.895 398.223L223.296 380.685L224.158 380.744Z" fill="white"/>
<path d="M224.158 400.399L216.387 418.597L215.345 418.526L209.755 399.418L210.653 399.479L215.895 417.878L223.296 400.341L224.158 400.399Z" fill="white"/>
<path d="M224.158 420.055L216.387 438.252L215.345 438.181L209.755 419.073L210.653 419.134L215.895 437.533L223.296 419.996L224.158 420.055Z" fill="white"/>
<path d="M224.158 439.709L216.387 457.907L215.345 457.836L209.755 438.727L210.653 438.789L215.895 457.188L223.296 439.65L224.158 439.709Z" fill="white"/>
<path d="M224.158 459.363L216.387 477.561L215.345 477.49L209.755 458.382L210.653 458.443L215.895 476.842L223.296 459.305L224.158 459.363Z" fill="white"/>
<path d="M224.158 479.019L216.387 497.216L215.345 497.145L209.755 478.037L210.653 478.098L215.895 496.497L223.296 478.96L224.158 479.019Z" fill="white"/>
<path d="M239.111 479.019L231.34 497.216L230.298 497.145L224.709 478.037L225.606 478.098L230.848 496.497L238.249 478.96L239.111 479.019Z" fill="white"/>
<path d="M239.111 460.037L231.34 478.235L230.298 478.164L224.709 459.056L225.606 459.117L230.848 477.516L238.249 459.978L239.111 460.037Z" fill="white"/>
<path d="M239.111 441.057L231.34 459.254L230.298 459.183L224.709 440.075L225.606 440.136L230.848 458.535L238.249 440.998L239.111 441.057Z" fill="white"/>
<path d="M239.111 422.076L231.34 440.274L230.298 440.203L224.709 421.095L225.606 421.156L230.848 439.555L238.249 422.017L239.111 422.076Z" fill="white"/>
<path d="M239.111 403.095L231.34 421.292L230.298 421.221L224.709 402.113L225.606 402.174L230.848 420.573L238.249 403.036L239.111 403.095Z" fill="white"/>
<path d="M239.111 384.113L231.34 402.311L230.298 402.24L224.709 383.132L225.606 383.193L230.848 401.592L238.249 384.055L239.111 384.113Z" fill="white"/>
<path d="M239.111 365.133L231.34 383.331L230.298 383.26L224.709 364.151L225.606 364.212L230.848 382.611L238.249 365.074L239.111 365.133Z" fill="white"/>
<path d="M239.111 346.152L231.34 364.35L230.298 364.279L224.709 345.171L225.606 345.232L230.848 363.631L238.249 346.094L239.111 346.152Z" fill="white"/>
<path d="M254.063 479.019L246.292 497.216L245.25 497.145L239.661 478.037L240.559 478.098L245.8 496.497L253.201 478.96L254.063 479.019Z" fill="white"/>
<path d="M254.063 460.037L246.292 478.235L245.25 478.164L239.661 459.056L240.559 459.117L245.8 477.516L253.201 459.978L254.063 460.037Z" fill="white"/>
<path d="M254.063 441.057L246.292 459.254L245.25 459.183L239.661 440.075L240.559 440.136L245.8 458.535L253.201 440.998L254.063 441.057Z" fill="white"/>
<path d="M254.063 422.076L246.292 440.274L245.25 440.203L239.661 421.095L240.559 421.156L245.8 439.555L253.201 422.017L254.063 422.076Z" fill="white"/>
<path d="M254.063 403.095L246.292 421.292L245.25 421.221L239.661 402.113L240.559 402.174L245.8 420.573L253.201 403.036L254.063 403.095Z" fill="white"/>
<path d="M254.063 384.113L246.292 402.311L245.25 402.24L239.661 383.132L240.559 383.193L245.8 401.592L253.201 384.055L254.063 384.113Z" fill="white"/>
<path d="M254.063 365.133L246.292 383.331L245.25 383.26L239.661 364.151L240.559 364.212L245.8 382.611L253.201 365.074L254.063 365.133Z" fill="white"/>
<path d="M269.016 479.019L261.245 497.216L260.204 497.145L254.614 478.037L255.512 478.098L260.753 496.497L268.154 478.96L269.016 479.019Z" fill="white"/>
<path d="M269.016 460.037L261.245 478.235L260.204 478.164L254.614 459.056L255.512 459.117L260.753 477.516L268.154 459.978L269.016 460.037Z" fill="white"/>
<path d="M269.016 441.057L261.245 459.254L260.204 459.183L254.614 440.075L255.512 440.136L260.753 458.535L268.154 440.998L269.016 441.057Z" fill="white"/>
<path d="M269.016 422.076L261.245 440.274L260.204 440.203L254.614 421.095L255.512 421.156L260.753 439.555L268.154 422.017L269.016 422.076Z" fill="white"/>
<path d="M269.016 403.095L261.245 421.292L260.204 421.221L254.614 402.113L255.512 402.174L260.753 420.573L268.154 403.036L269.016 403.095Z" fill="white"/>
<path d="M269.016 384.113L261.245 402.311L260.204 402.24L254.614 383.132L255.512 383.193L260.753 401.592L268.154 384.055L269.016 384.113Z" fill="white"/>
<path d="M283.969 479.019L276.197 497.216L275.156 497.145L269.566 478.037L270.464 478.098L275.705 496.497L283.107 478.96L283.969 479.019Z" fill="white"/>
<path d="M283.969 460.037L276.197 478.235L275.156 478.164L269.566 459.056L270.464 459.117L275.705 477.516L283.107 459.978L283.969 460.037Z" fill="white"/>
<path d="M283.969 441.057L276.197 459.254L275.156 459.183L269.566 440.075L270.464 440.136L275.705 458.535L283.107 440.998L283.969 441.057Z" fill="white"/>
<path d="M283.969 422.076L276.197 440.274L275.156 440.203L269.566 421.095L270.464 421.156L275.705 439.555L283.107 422.017L283.969 422.076Z" fill="white"/>
<path d="M283.969 403.095L276.197 421.292L275.156 421.221L269.566 402.113L270.464 402.174L275.705 420.573L283.107 403.036L283.969 403.095Z" fill="white"/>
<path d="M298.922 479.019L291.15 497.216L290.109 497.145L284.519 478.037L285.417 478.098L290.658 496.497L298.06 478.96L298.922 479.019Z" fill="white"/>
<path d="M298.922 460.037L291.15 478.235L290.109 478.164L284.519 459.056L285.417 459.117L290.658 477.516L298.06 459.978L298.922 460.037Z" fill="white"/>
<path d="M298.922 441.057L291.15 459.254L290.109 459.183L284.519 440.075L285.417 440.136L290.658 458.535L298.06 440.998L298.922 441.057Z" fill="white"/>
<path d="M298.922 422.076L291.15 440.274L290.109 440.203L284.519 421.095L285.417 421.156L290.658 439.555L298.06 422.017L298.922 422.076Z" fill="white"/>
<path d="M239.111 498.674L231.34 516.872L230.298 516.801L224.709 497.692L225.606 497.754L230.848 516.152L238.249 498.615L239.111 498.674Z" fill="white"/>
<path d="M254.111 498.674L246.34 516.872L245.298 516.801L239.709 497.692L240.606 497.754L245.848 516.152L253.249 498.615L254.111 498.674Z" fill="white"/>
<path d="M269.111 498.674L261.34 516.872L260.298 516.801L254.709 497.692L255.606 497.754L260.848 516.152L268.249 498.615L269.111 498.674Z" fill="white"/>
<circle cx="164.5" cy="64.2188" r="38.5" fill="white"/>
<path d="M177.664 47.7188L166.08 80.9348H164.224L152 47.7188H153.6L165.12 79.7188L176.128 47.7188H177.664Z" fill="#268020"/>
</svg>
